<?xml version="1.0" encoding="UTF-8"?>
<svg width="270px" height="610px" viewBox="0 0 270 610" version="1.1" xmlns="http://www.w3.org/2000/svg" xmlns:xlink="http://www.w3.org/1999/xlink">
    <title>Untitled 59</title>
    <g id="Page-2-Copy" stroke="none" stroke-width="1" fill="none" fill-rule="evenodd">
        <g id="Group" transform="translate(135.000000, 305.000000) rotate(-270.000000) translate(-135.000000, -305.000000) translate(-169.902535, 7.924033)" fill="#DEB408" fill-rule="nonzero">
            <g id="Group_4793" transform="translate(304.902535, 297.075967) rotate(-51.000000) translate(-304.902535, -297.075967) translate(117.370965, 56.599785)">
                <g id="Group_3617" transform="translate(336.380014, 288.464890)">
                    <path d="M29.7642793,41.0339174 C29.5334386,89.9807614 29.2991004,138.927605 29.0612645,187.87445 L38.5047476,186.594839 C16.7742438,127.858626 38.6306607,65.3045596 31.8838167,4.7957718 C31.3172077,-0.322669605 23.814885,-2.2106193 22.3144205,3.49518423 C15.9684112,31.2103624 13.4965752,59.6711222 14.9694892,88.0648421 C15.5990548,120.044612 16.6798089,152.04536 17.6871138,183.983175 L27.9805103,182.58819 C24.3010495,155.597502 20.8524294,128.575348 17.63465,101.521728 C16.1516734,89.096222 14.7211606,76.6637236 13.3431116,64.2242329 C12.104966,53.0328866 7.46716657,37.2265522 14.0356337,27.1050441 L4.08849819,24.4094715 C-2.93859175,74.2211509 -0.894578387,124.892635 10.1218346,173.977042 C11.6642701,180.40656 20.9713473,177.595612 19.8905932,171.281469 C10.7814987,122.87341 9.05160303,73.3663323 14.759634,24.4409373 C15.4836344,18.7875768 7.41470278,17.7596931 4.81249856,21.7453647 C0.352124664,29.8193361 -1.03081733,39.2352724 0.919684981,48.2500807 C2.56704814,64.2556987 4.43475923,80.2403395 6.32345584,96.2144916 C9.82104216,125.981165 13.6683871,155.698892 17.8654907,185.367672 C18.6839259,191.241293 28.3582496,189.804354 28.1588872,183.972687 C27.1096113,153.70256 26.0603354,123.421945 25.2838713,93.1413291 C23.4433784,63.9639096 25.6181895,34.6720369 31.7474108,6.08587076 L22.1780146,4.7957718 C29.5229459,66.0072965 6.32345584,129.830485 29.2396414,189.164549 C29.9730803,191.378786 32.1805335,192.756547 34.4927664,192.443234 C36.8049992,192.129923 38.5658596,190.214448 38.6831245,187.884938 C38.2144479,138.938094 37.7457714,89.99125 37.2770948,41.044406 C37.1712555,39.039132 35.5138053,37.4674448 33.5049479,37.4674448 C31.4960905,37.4674448 29.8386404,39.039132 29.7328011,41.044406 L29.7642793,41.0339174 Z" id="Path_988"></path>
                </g>
                <g id="Group_3619" transform="translate(191.250269, 426.628709)">
                    <path d="M168.69281,30.6423428 C127.924944,19.1188573 86.8213094,8.94140993 45.3819066,0.110000797 C40.5867157,-0.938860147 37.2185401,5.7948271 41.9088034,8.33307059 C78.5180394,28.1250766 121.265539,28.8802564 159.700515,43.6167527 L160.938661,34.4706853 C116.821116,28.3817787 73.1381147,19.4797719 30.1569133,7.81912872 C27.4245755,7.06607866 24.5988687,8.66973207 23.8455201,11.4009892 C23.0921715,14.1322463 24.6964586,16.956836 27.428796,17.7098874 C70.7953688,30.5689226 114.72855,41.4456105 158.9975,50.7175413 L158.9975,41.2148611 C146.479639,45.515191 131.474994,39.1171392 119.125016,35.9705564 C106.127985,32.6142014 93.1869164,29.0480742 80.3018084,25.2721748 C55.3919986,17.9721026 30.7340151,9.9028658 6.32785779,1.06446426 C0.409941732,-1.03325763 -2.25521904,7.43105019 2.29863835,10.6195874 C11.295537,17.313134 21.9080083,21.5007061 33.0529148,22.7549085 C37.8900767,23.2373846 38.0999319,16.2939251 34.1021907,14.8150312 C24.6953346,11.6241492 15.7623203,7.17881263 7.54501782,1.59938334 L3.51579839,11.1545065 C31.3425951,21.0487615 59.4701843,30.0025376 87.8985659,38.0158352 C101.686051,41.8686512 115.536493,45.4837252 129.449891,48.8610574 C139.723654,52.6691894 150.902646,53.315773 161.547241,50.7175413 C165.817794,49.2386473 166.636229,42.3266537 161.547241,41.2148611 C117.299276,31.7751126 73.5234861,20.4788803 30.083464,7.81912873 L27.3553467,17.7098874 C71.2343842,29.3363725 115.835156,38.046972 160.865212,43.7845704 C166.457852,44.3824212 166.625736,36.3691236 162.103357,34.638503 C124.329425,20.216665 82.6731719,19.2202471 46.3787187,0.561011002 L42.9056155,8.7840808 C84.5268927,16.8533177 125.798411,26.4538915 166.720171,37.5858023 C168.583787,37.9704916 170.426071,36.8428679 170.930518,35.0087368 C171.434965,33.1746056 170.428284,31.2640414 168.629853,30.6423428 L168.69281,30.6423428 Z" id="Path_989"></path>
                </g>
                <g id="Group_3621" transform="translate(-0.000000, 0.000000)">
                    <path d="M339.240863,437.174875 C235.79625,294.669634 129.574554,154.230651 20.5757733,15.8579226 C17.0397135,11.389775 10.2823767,17.0955786 12.8845809,21.783987 C56.6184003,100.448558 119.197215,165.6038 177.820259,233.150444 C208.685198,268.210403 237.250108,305.2285 263.336245,343.973092 C288.067678,381.249609 312.26398,419.197398 345.977214,449.184333 L353.395595,441.768886 C285.52843,382.885832 243.305568,302.773834 189.949889,231.849857 C133.28899,156.541641 63.4701719,92.0681588 9.84168082,14.3790287 L1.63634332,20.6721944 C113.160332,150.031476 216.902879,285.895213 312.316444,427.546331 L321.466129,422.197141 C269.21219,346.825993 216.370656,271.863902 162.941527,197.310866 C136.282924,159.999386 109.491413,122.7858 82.5669932,85.670107 C72.7205748,69.9221569 60.9321714,55.4743878 47.4792072,42.6668083 C34.9928241,32.3774825 14.36406,23.5355847 13.6610451,5.15954102 L4.72121445,8.86202015 C67.4189468,81.9606354 129.452138,155.622139 190.820788,229.846532 C220.802097,266.137121 250.615523,302.564061 280.261065,339.127354 C310.200791,373.664989 335.778206,411.751741 356.41751,452.530199 L364.496934,446.299965 C327.069606,411.131709 294.825542,370.831092 268.729523,326.603954 L260.870446,332.666371 C301.42084,375.112122 335.400618,423.374869 361.684874,475.856867 L370.53027,470.685982 C355.774366,450.469509 339.528348,431.383078 321.927811,413.585992 C317.93007,409.568855 310.322819,414.96 313.837894,419.879158 L354.035653,475.647094 C357.75009,480.80749 366.417109,475.867355 362.660701,470.602073 L322.788217,414.676808 L314.6983,420.969973 C331.679091,438.146538 347.402783,456.52098 361.747831,475.951264 C362.671885,477.530716 364.368709,478.49741 366.199124,478.487355 C368.029539,478.476985 369.715462,477.49142 370.621822,475.901755 C371.528182,474.312089 371.517281,472.359832 370.593227,470.78038 C343.815224,417.580593 309.241749,368.675078 268.016015,325.680957 C266.217792,323.987155 263.454663,323.851072 261.498582,325.359974 C259.542502,326.868876 258.973699,329.57518 260.156939,331.743373 C286.792839,376.642774 319.479748,417.667011 357.298901,453.662969 C359.144076,455.418193 361.994178,455.56582 364.010959,454.010633 C366.027738,452.455447 366.608355,449.662312 365.378326,447.432735 C346.196099,408.587688 322.226282,372.294824 294.027565,339.400058 C263.598564,301.567644 232.73936,264.070865 201.817199,226.637018 C139.336317,150.986174 76.1244392,75.9471661 12.1815661,1.51999355 C10.6803718,0.03245627 8.43274221,-0.409239877 6.4799291,0.399528213 C4.527116,1.2082963 3.25059488,3.10953851 3.24173544,5.22247268 C4.35167558,18.059528 11.3197317,29.668362 22.1287016,36.688301 C28.9070239,42.0794462 36.388361,46.6210141 42.872886,52.3687721 C50.7606353,60.0086088 57.796886,68.4804211 63.858404,77.6358322 C91.944022,116.177976 119.865253,154.842486 147.622099,193.629364 C203.170765,271.168158 258.058387,349.168449 312.284965,427.63024 C316.135808,433.178715 325.275001,427.976364 321.434651,422.28105 C225.484273,279.915035 121.163639,143.368379 9.02324562,13.3616336 C5.18289584,8.9144632 -2.51878923,14.7985731 0.817908118,19.6547993 C55.3802547,98.6235397 126.59461,163.936111 183.706697,240.870061 C236.170492,311.563288 278.487789,390.951573 345.977214,449.184333 C351.05571,453.558083 358.47409,446.268499 353.395595,441.768886 C317.825142,410.303058 293.104202,369.9324 266.77787,330.946239 C242.539583,295.653172 216.211733,261.840484 187.935279,229.689203 C128.924003,161.513242 65.4428106,96.2321367 21.3417447,16.8543405 L13.6610451,22.7804049 C122.359033,160.390961 228.822062,299.732137 333.050135,440.803934 C335.76776,444.485436 342.010951,440.940286 339.272341,437.174875 L339.240863,437.174875 Z" id="Path_990"></path>
                </g>
            </g>
        </g>
    </g>
</svg>