<?xml version="1.0" encoding="UTF-8"?>
<svg width="163px" height="150px" viewBox="0 0 163 150" version="1.1" xmlns="http://www.w3.org/2000/svg" xmlns:xlink="http://www.w3.org/1999/xlink">
    <title>Untitled 33</title>
    <g id="Page-1" stroke="none" stroke-width="1" fill="none" fill-rule="evenodd">
        <g id="Group" transform="translate(-16.000000, 4.000000)" fill="#0370BA" fill-rule="nonzero">
            <g id="Group_4049" transform="translate(98.462522, 71.339678) rotate(-14.000000) translate(-98.462522, -71.339678) translate(9.805919, 19.920607)">
                <g id="Group_3838" transform="translate(70.955835, 22.621142)">
                    <path d="M11.2741655,23.19 C10.5071655,23.19 9.78316549,23.19 7.77416549,15.209 C1.01616549,13.909 0.443165493,13.138 0.221165493,12.842 C0.0203004829,12.5320898 -0.0474521057,12.1544052 0.0331654933,11.794 C0.155165493,11.36 0.440165493,10.353 8.16616549,7.236 C10.9421655,0.002 11.8881655,0 12.5191655,0 C12.899318,0.0277286732 13.2520811,0.208077906 13.4971655,0.5 C13.9971655,1.169 14.4461655,2.9 15.1271655,5.675 C15.3401655,6.537 15.5961655,7.575 15.7441655,8.042 C16.1511655,8.224 17.0441655,8.542 17.7771655,8.807 C21.7581655,10.234 22.7841655,10.72 22.9711655,11.676 C23.021471,12.092113 22.8793734,12.5084663 22.5851655,12.807 C21.7781655,13.533 17.9431655,14.956 15.9271655,15.674 C12.6551655,23.117 11.9531655,23.156 11.3271655,23.188 C11.3161655,23.19 11.2931655,23.19 11.2741655,23.19 Z M2.89516549,11.945 C4.25116549,12.333 6.69516549,12.885 8.82116549,13.283 C9.22418511,13.3563071 9.54628392,13.6599891 9.64316549,14.058 C10.1881655,16.269 10.8991655,18.782 11.4151655,20.234 C12.1641655,18.882 13.2881655,16.515 14.2011655,14.423 C14.3173755,14.1574365 14.5386728,13.9520755 14.8121655,13.856 C16.6321655,13.215 18.6871655,12.431 19.9791655,11.868 C19.0791655,11.489 17.8671655,11.054 17.0791655,10.768 C14.8091655,9.952 14.3791655,9.777 14.0861655,9.382 C13.8301655,9.037 13.6721655,8.467 13.1071655,6.171 C12.8971655,5.318 12.5781655,4.018 12.2901655,3.033 C11.4214397,4.78115515 10.6440601,6.57323381 9.96116549,8.402 C9.85707696,8.67537521 9.64356813,8.89287146 9.37216549,9.002 C7.16208131,9.86607147 4.99997103,10.8481509 2.89516549,11.944 L2.89516549,11.945 Z" id="Path_568"></path>
                </g>
                <g id="Group_3839" transform="translate(128.925999, -0.000000)">
                    <g id="Group_2622">
                        <path d="M25.6840009,44.9181422 C24.9350009,44.9181422 22.6570009,44.9181422 18.5910009,27.0181422 C18.5064414,26.6433957 18.634318,26.2524696 18.9240009,26.0001422 C26.6290009,19.2901422 37.9900009,9.18814223 43.3470009,4.00514223 C36.5310009,7.78414223 22.2040009,16.4521422 12.6710009,22.3481422 C12.4245697,22.5050639 12.12243,22.5480706 11.8420009,22.4661422 C10.1060009,21.9851422 1.38400087,19.4181422 0.100000869,16.2901422 C-0.0801607714,15.8383023 -0.01397245,15.3254374 0.275000869,14.9341422 C2.74700087,11.2471422 41.7060009,0.00214222898 46.7480009,0.00214222898 C47.0484097,-0.0113186038 47.3482773,0.0387729269 47.6280009,0.149142229 L47.6280009,0.149142229 C47.6920143,0.176637446 47.7532866,0.210119577 47.8110009,0.249142229 L47.8220009,0.258142229 L47.8470009,0.274142229 C47.929933,0.328208099 48.0052666,0.39311611 48.0710009,0.467142229 L48.0710009,0.467142229 L48.0710009,0.467142229 C48.5780009,1.05614223 48.7660009,1.70414223 46.3280009,7.40414223 C44.4790009,11.7231422 28.9000009,44.7491422 25.7550009,44.9101422 C25.7410009,44.9181422 25.7030009,44.9181422 25.6840009,44.9181422 Z M20.7680009,27.1621422 C22.2830009,33.6931422 24.4390009,40.9031422 25.6560009,42.5911422 C28.5820009,39.1701422 40.8920009,15.1171422 44.9740009,5.30714223 C41.5210009,8.75514223 34.5880009,15.1181422 20.7680009,27.1621422 Z M2.25100087,15.8501422 C3.47300087,17.3501422 8.45100087,19.3081422 11.9650009,20.3301422 C19.1190009,15.9071422 32.5360009,7.68814223 40.6340009,3.19214223 C28.8250009,6.00214223 5.32500087,13.2681422 2.25100087,15.8491422 L2.25100087,15.8501422 Z" id="Path_571"></path>
                    </g>
                    <g id="Group_2623" transform="translate(11.170033, 20.776062)">
                        <path d="M4.00996745,18.0282444 C3.62632327,18.0335514 3.25330738,17.902003 2.95796745,17.6570804 C1.60496745,16.5310804 0.604967454,8.04908037 0.00396745441,1.13208037 C-0.0201439923,0.85646866 0.0663423536,0.582582412 0.244361068,0.370798293 C0.422379781,0.159014175 0.677314912,0.0267203954 0.952967454,0.00308036711 C1.52536148,-0.0404159675 2.02748535,0.38172357 2.08296745,0.953080367 C2.61596745,7.08108037 3.55796745,14.1930804 4.23496745,15.8670804 C5.14496745,15.4470804 7.28996745,13.3850804 9.12396745,11.1300804 C9.48696745,10.6860804 9.78196745,10.7700804 10.2239675,11.1300804 C10.676392,11.5504582 10.7465882,12.2412915 10.3879675,12.7440804 C9.07696745,14.3550804 6.16896745,17.8270804 4.19696745,18.0180804 C4.13596745,18.0270804 4.07196745,18.0282444 4.00996745,18.0282444 Z" id="Path_572"></path>
                    </g>
                </g>
                <g id="Group_3840" transform="translate(151.951996, 60.864158)">
                    <path d="M7.26500404,14.4999845 L7.23500404,14.4999845 C3.23387679,14.4917063 -0.0041311882,11.2436337 3.95622561e-06,7.2425 C0.00414702827,3.24136632 3.24886823,0 7.25000404,0 C11.2511399,0 14.4958611,3.24136632 14.500004,7.2425 C14.5041393,11.2436337 11.2661313,14.4917063 7.26500404,14.4999845 L7.26500404,14.4999845 Z M7.28700404,2.11997794 C4.4479305,2.11551073 2.13835429,4.40498036 2.11795235,7.24398448 C2.11189041,8.60905787 2.64830752,9.92064857 3.60924686,10.8902146 C4.57018621,11.8597807 5.87693053,12.4078981 7.24200404,12.4139965 L7.26500404,12.4139965 C10.1076135,12.4200594 12.4169285,10.1205939 12.4230156,7.27798448 C12.4290787,4.43537505 10.1296135,2.12605986 7.28700404,2.11997794 L7.28700404,2.11997794 Z" id="Path_580"></path>
                </g>
                <g id="Group_3842" transform="translate(0.000000, 47.024476)">
                    <path d="M31.292,55.8136667 L30.662,55.8046667 C30.4171819,55.7991679 30.1846328,55.6963981 30.0157501,55.5190713 C29.8468674,55.3417445 29.755557,55.1044618 29.762,54.8596667 C29.7880004,54.3567032 30.2023688,53.9616486 30.706,53.9596667 L31.296,53.9686667 C32.2787382,53.9681715 33.2605414,53.9080611 34.236,53.7886667 C34.5647271,53.7433567 34.8923816,53.8785838 35.0934652,54.1425532 C35.2945489,54.4065226 35.337898,54.7583247 35.206909,55.0632121 C35.0759199,55.3680996 34.7908933,55.5788213 34.461,55.6146667 C33.4097449,55.7459002 32.351414,55.812359 31.292,55.8136667 Z M27.021,55.5046891 C26.9811895,55.5049647 26.9414124,55.5022906 26.902,55.4966667 C25.627,55.3316667 24.382,55.1116667 23.202,54.8426667 C22.8754487,54.7758131 22.6106,54.537559 22.5096916,54.2198758 C22.4087831,53.9021926 22.4876004,53.5547768 22.7157182,53.3117389 C22.9438359,53.068701 23.2855688,52.9680604 23.609,53.0486667 C24.735,53.3046667 25.923,53.5136667 27.139,53.6706667 C27.6221098,53.7305713 27.9749303,54.1564576 27.9439205,54.6422786 C27.9129106,55.1280996 27.5088055,55.5056715 27.022,55.5036667 L27.021,55.5046891 Z M37.947,54.8886667 C37.4935615,54.882718 37.1120861,54.5472463 37.0482341,54.0982867 C36.9843821,53.6493271 37.2571999,53.2208004 37.691,53.0886667 C38.8214478,52.7605819 39.9247546,52.3453374 40.991,51.8466667 C41.4479344,51.6499754 41.9784542,51.8521348 42.1886197,52.3030305 C42.3987853,52.7539262 42.2124598,53.290212 41.768,53.5136667 C40.6138794,54.0522732 39.4200214,54.5012655 38.197,54.8566667 C38.1154896,54.8784518 38.0313626,54.8888835 37.947,54.8876667 L37.947,54.8886667 Z M19.872,53.8586753 C19.7699186,53.8587591 19.6685335,53.8418616 19.572,53.8086667 C18.3774671,53.396342 17.210147,52.9090401 16.077,52.3496667 C15.6285421,52.1206341 15.4475416,51.5736238 15.6708764,51.1223014 C15.8942113,50.670979 16.4388854,50.4830655 16.893,50.7006667 C17.9564223,51.2255969 19.0519362,51.6828403 20.173,52.0696667 C20.5993802,52.2147576 20.8577804,52.6474732 20.7832939,53.0916614 C20.7088073,53.5358497 20.3233862,53.860602 19.873,53.8586753 L19.872,53.8586753 Z M44.585,51.7936667 C44.1790761,51.7932901 43.8212615,51.5271999 43.704071,51.1385603 C43.5868805,50.7499206 43.7379501,50.3303813 44.076,50.1056667 C45.0629405,49.4495561 46.0047244,48.7279339 46.895,47.9456667 C47.277181,47.610706 47.8585393,47.6489856 48.1935,48.0311667 C48.5284607,48.4133477 48.490181,48.994706 48.108,49.3296667 C47.1554654,50.1658298 46.1482307,50.9375419 45.093,51.6396667 C44.9422692,51.7401496 44.7651535,51.7937367 44.584,51.7936667 L44.585,51.7936667 Z M13.312,50.5936667 C13.1274569,50.5938092 12.9472026,50.5380245 12.795,50.4336667 C11.7446605,49.7198347 10.7479961,48.9300567 9.813,48.0706667 C9.5674851,47.8485765 9.46022844,47.5117006 9.53214449,47.1885448 C9.60406054,46.8653889 9.844058,46.605792 10.1605867,46.5087806 C10.4771154,46.4117693 10.8213585,46.4923051 11.062,46.7196667 C11.9313044,47.5189809 12.857397,48.2542403 13.833,48.9196667 C14.1672743,49.1467575 14.3142202,49.5653981 14.195214,49.9515937 C14.0762079,50.3377894 13.7191155,50.6011105 13.315,50.6006672 L13.312,50.5936667 Z M50.121,46.9776667 C49.7571535,46.9774592 49.4276104,46.7628387 49.2803,46.4301466 C49.1329897,46.0974546 49.19559,45.7091997 49.44,45.4396667 C50.2415649,44.5523904 50.9965787,43.6241439 51.702,42.6586667 C52.0071479,42.262141 52.5730557,42.1817719 52.9765386,42.4776594 C53.3800216,42.7735469 53.4734685,43.3374428 53.187,43.7476667 C52.4427534,44.7637041 51.647396,45.741296 50.804,46.6766667 C50.6292108,46.8699923 50.3806259,46.980111 50.12,46.979668 L50.121,46.9776667 Z M7.921,45.6356723 C7.64371827,45.6366364 7.38102175,45.5115429 7.207,45.2956667 C6.40661918,44.3109711 5.67521177,43.2721654 5.018,42.1866667 C4.77668191,41.7541107 4.92069382,41.2081593 5.34396956,40.950911 C5.76724529,40.6936627 6.31817785,40.8172575 6.591,41.2306667 C7.20458194,42.2431113 7.88719867,43.2120728 8.634,44.1306667 C8.8575974,44.4059773 8.90302692,44.7853004 8.75076566,45.1056256 C8.59850441,45.4259508 8.27567103,45.6302263 7.921,45.6306667 L7.921,45.6356723 Z M54.483,41.0586667 C54.1500485,41.0587974 53.8429493,40.8792162 53.6797948,40.5889795 C53.5166403,40.2987428 53.5228363,39.943045 53.696,39.6586667 C54.306,38.6506667 54.891,37.5866667 55.436,36.4986667 C55.5801908,36.2000537 55.8739232,36.0021425 56.2048288,35.9806449 C56.5357345,35.9591473 56.8526048,36.1173899 57.0342199,36.3948366 C57.215835,36.6722832 57.2340895,37.0259982 57.082,37.3206667 C56.514,38.4526667 55.905,39.5596667 55.272,40.6106667 C55.1063191,40.8894842 54.8063278,41.060745 54.482,41.0616667 L54.483,41.0586667 Z M4.1,39.3716667 C3.73692518,39.3718819 3.40775838,39.1583153 3.26,38.8266667 C2.74471642,37.6747721 2.29434465,36.494925 1.911,35.2926667 C1.80304611,34.9775403 1.87386401,34.6286746 2.09614778,34.3805847 C2.31843156,34.1324949 2.65745626,34.0239373 2.98250105,34.0967696 C3.30754583,34.1696018 3.56783252,34.4124461 3.663,34.7316667 C4.02587374,35.8690397 4.45152693,36.9854195 4.938,38.0756667 C5.03810787,38.298135 5.04554821,38.5513007 4.95867817,38.7792642 C4.87180814,39.0072277 4.69777295,39.1912385 4.475,39.2906667 C4.35681574,39.3452754 4.22819074,39.3735934 4.098,39.3736667 L4.1,39.3716667 Z M80.839,34.4906667 C80.1836667,34.4906667 79.5386667,34.4796667 78.904,34.4576667 C78.6597708,34.4493292 78.4288932,34.3441674 78.2623013,34.1653812 C78.0957093,33.986595 78.0070922,33.7488757 78.016,33.5046667 C78.04381,33.0020425 78.4626443,32.6105426 78.966,32.6166667 C80.1346667,32.6573333 81.3413333,32.659 82.586,32.6216667 C83.0899829,32.6188241 83.5073136,33.0123828 83.534,33.5156667 C83.5480254,34.0230505 83.1493152,34.4463449 82.642,34.4626667 C82.0306667,34.484 81.429,34.494 80.837,34.4926667 L80.839,34.4906667 Z M57.782,34.4826667 C57.4751703,34.4830869 57.1883711,34.3303508 57.017478,34.0755171 C56.8465848,33.8206835 56.8141439,33.497373 56.931,33.2136667 C57.388,32.0996667 57.809,30.9566667 58.186,29.8196667 C58.2887139,29.5077738 58.5500182,29.2743701 58.8714823,29.2073765 C59.1929464,29.1403829 59.5257321,29.2499772 59.7444823,29.4948765 C59.9632325,29.7397757 60.0347139,30.0827738 59.932,30.3946667 C59.543,31.5756667 59.105,32.7576667 58.632,33.9106667 C58.4918906,34.2580559 58.1545791,34.4853056 57.78,34.484668 L57.782,34.4826667 Z M86.287,34.2476667 C85.796957,34.2437355 85.39601,33.8563631 85.3752093,33.366746 C85.3544085,32.8771289 85.7210562,32.4571463 86.209,32.4116667 C87.3823333,32.309 88.5853333,32.1723333 89.818,32.0016667 C90.3134835,31.9465699 90.7626979,32.2961497 90.8310002,32.7899861 C90.8993025,33.2838224 90.5618373,33.7422075 90.07,33.8236667 C88.8033333,33.9983333 87.57,34.1386667 86.37,34.2446667 C86.339,34.2466667 86.312,34.2496667 86.285,34.2496667 L86.287,34.2476667 Z M75.267,34.2056726 C75.2336013,34.2057853 75.2002203,34.2041163 75.167,34.2006667 C73.897,34.0676667 72.647,33.8856667 71.452,33.6596667 C70.9579052,33.5605322 70.63552,33.0823428 70.7289198,32.5871319 C70.8223197,32.0919211 71.2967397,31.764014 71.793,31.8516667 C72.939,32.0676667 74.138,32.2416667 75.359,32.3706667 C75.8426222,32.4261138 76.1993474,32.8487 76.1728442,33.3347683 C76.1463411,33.8208366 75.7457837,34.2021315 75.259,34.2046667 L75.267,34.2056726 Z M93.567,33.2136667 C93.0969302,33.2112496 92.7042894,32.8548538 92.6564976,32.3872136 C92.6087058,31.9195734 92.9211368,31.4911208 93.381,31.3936667 C94.574,31.1456667 95.749,30.8526667 96.874,30.5236667 C97.192151,30.4217247 97.5405618,30.5002655 97.7842034,30.7288502 C98.0278451,30.9574349 98.1284221,31.3001345 98.0469551,31.6241335 C97.9654882,31.9481325 97.7147822,32.2025048 97.392,32.2886667 C96.22,32.6336667 94.992,32.9376667 93.755,33.1946667 C93.6918409,33.2103877 93.6270802,33.2187764 93.562,33.2196667 L93.567,33.2136667 Z M68.046,32.8326727 C67.9603682,32.832984 67.8751445,32.8208573 67.793,32.7966667 C66.5806878,32.452059 65.3882242,32.0411064 64.221,31.5656667 C63.8967027,31.4550379 63.6606299,31.1735221 63.6082028,30.834909 C63.5557757,30.4962959 63.6956625,30.1565708 63.9713206,29.9530516 C64.2469786,29.7495323 64.6128314,29.7158683 64.921,29.8656667 C66.0259049,30.3147633 67.1542073,30.7039942 68.301,31.0316667 C68.7341742,31.1635075 69.0070149,31.5909395 68.9442361,32.0393597 C68.8814572,32.4877799 68.501726,32.8238519 68.049,32.8316667 L68.046,32.8326727 Z M1.846,32.3726667 C1.41165922,32.373171 1.03627081,32.0695235 0.946,31.6446667 C0.686,30.4336667 0.478,29.1846667 0.326,27.9306667 C0.278403758,27.6006357 0.413108701,27.2706846 0.678082747,27.0682627 C0.943056794,26.8658408 1.29681748,26.8226379 1.6027187,26.9553417 C1.90861993,27.0880455 2.11877197,27.3758809 2.152,27.7076667 C2.298,28.9076667 2.498,30.1006667 2.746,31.2596667 C2.85165059,31.7563244 2.53539664,32.2447959 2.039,32.3516667 C1.97363822,32.3661807 1.90694934,32.3738885 1.84,32.3746667 L1.846,32.3726667 Z M100.618,31.1506667 C100.174204,31.1514295 99.7931205,30.8352633 99.7119412,30.3989547 C99.6307618,29.9626462 99.8726286,29.5305741 100.287,29.3716667 C101.407,28.9406667 102.514,28.4576667 103.578,27.9336667 C103.872565,27.7886168 104.222138,27.811734 104.495038,27.9943103 C104.767938,28.1768866 104.922704,28.4911842 104.901038,28.8188103 C104.879372,29.1464365 104.684566,29.4376168 104.39,29.5826667 C103.277,30.1306667 102.119,30.6376667 100.948,31.0876667 C100.841188,31.1306242 100.727126,31.1526667 100.612,31.1526667 L100.618,31.1506667 Z M61.262,30.0296667 C61.1016129,30.0296667 60.9440255,29.9876413 60.805,29.9076667 C59.6934881,29.2757016 58.6368022,28.5518433 57.646,27.7436667 C57.2712496,27.4164945 57.2240382,26.8508562 57.5393659,26.4660862 C57.8546935,26.0813163 58.4185846,26.0164902 58.813,26.3196667 C58.9296667,26.4163333 59.0483333,26.5116667 59.169,26.6056667 C59.167,26.5184817 59.1764132,26.4314098 59.197,26.3466667 C59.497,25.1646667 59.749,23.9766667 59.949,22.8156667 C60.034328,22.3147444 60.5095777,21.9778387 61.0105,22.0631667 C61.5114223,22.1484947 61.848328,22.6237444 61.763,23.1246667 C61.557,24.3336667 61.294,25.5706667 60.983,26.7996667 C60.9021266,27.116303 60.6598476,27.3665692 60.346,27.4576667 C60.786,27.7523333 61.244,28.0366667 61.72,28.3106667 C62.0816151,28.518127 62.2585271,28.9428211 62.1511368,29.3456519 C62.0437465,29.7484827 61.6788996,30.0287498 61.262,30.0286667 L61.262,30.0296667 Z M107.203,27.9116667 C106.791014,27.9113241 106.429483,27.6371285 106.318054,27.2404972 C106.206625,26.8438658 106.372468,26.4215109 106.724,26.2066667 C107.739,25.5866667 108.741,24.9066667 109.701,24.1956667 C110.108862,23.8919101 110.685743,23.9763044 110.9895,24.3841667 C111.293257,24.792029 111.208862,25.3689101 110.801,25.6726667 C109.801,26.4196667 108.748,27.1276667 107.684,27.7726667 C107.539087,27.8630785 107.371803,27.9112203 107.201,27.9116667 L107.203,27.9116667 Z M55.652,25.3396681 C55.3672891,25.3401759 55.0984201,25.2086959 54.924,24.9836667 C54.1021378,23.9428858 53.4503893,22.7784467 52.993,21.5336667 C52.8826049,21.2242746 52.9456543,20.8794895 53.1583981,20.6291886 C53.3711419,20.3788876 53.7012592,20.2610974 54.0243981,20.3201885 C54.347537,20.3792796 54.614605,20.6062746 54.725,20.9156667 C55.1177648,21.9765883 55.6756387,22.9688141 56.378,23.8556667 C56.5932018,24.133004 56.6318246,24.5086339 56.4775612,24.8239601 C56.3232978,25.1392863 56.0030381,25.3393443 55.652,25.3396681 L55.652,25.3396681 Z M0.944,25.0666667 C0.44814998,25.0664093 0.0417079253,24.6732352 0.025,24.1776667 C0.007,23.6616667 0,23.1886667 0,22.7676667 C0,21.2676667 0.086,20.3776667 0.086,20.3776667 C0.146666532,19.8828383 0.590422,19.5263631 1.08669392,19.5737949 C1.58296583,19.6212267 1.9511632,20.0553052 1.917,20.5526667 C1.917,20.5756667 1.839,21.3966667 1.839,22.7676667 C1.839,23.1676667 1.847,23.6226667 1.862,24.1166667 C1.87036184,24.3604384 1.78147113,24.5975348 1.61490977,24.7757255 C1.4483484,24.9539161 1.21778112,25.0585822 0.974,25.0666667 L0.944,25.0666667 Z M113.09,23.5197048 C112.711151,23.5173366 112.372466,23.2830038 112.236731,22.9292972 C112.100997,22.5755906 112.195968,22.1748423 112.476,21.9196667 C113.36,21.1256667 114.224,20.2786667 115.042,19.4006667 C115.390737,19.0411149 115.963031,19.0266222 116.329521,19.3680616 C116.69601,19.709501 116.722003,20.2813882 116.388,20.6546667 C115.532,21.5736667 114.63,22.4546667 113.705,23.2886667 C113.535814,23.4393918 113.316578,23.521739 113.09,23.5197048 L113.09,23.5197048 Z M61.304,20.2316667 C61.282,20.2316667 61.26,20.2316667 61.238,20.2316667 C60.9945015,20.2145048 60.7678051,20.1012764 60.6078207,19.9169098 C60.4478362,19.7325432 60.3676802,19.492154 60.385,19.2486667 C60.432,18.5836667 60.455,17.9486667 60.456,17.3486667 C60.456,16.7716667 60.433,16.2256667 60.39,15.7166667 C60.3565839,15.3864114 60.5036639,15.0637637 60.7748739,14.8723733 C61.0460838,14.6809829 61.3993638,14.650531 61.6993247,14.792688 C61.9992856,14.9348449 62.1994088,15.2275646 62.223,15.5586667 C62.271,16.1176667 62.296,16.7176667 62.296,17.3506667 C62.296,17.9836667 62.27,18.6736667 62.22,19.3816667 C62.1858792,19.8623488 61.7858916,20.2348263 61.304,20.2346667 L61.304,20.2316667 Z M53.381,18.5316667 C53.3499329,18.5316667 53.3188882,18.5299964 53.288,18.5266667 C53.0452718,18.5026636 52.8220422,18.3831517 52.6674857,18.1944577 C52.5129292,18.0057637 52.4397254,17.7633678 52.464,17.5206667 C52.6031708,16.1453853 53.0795892,14.8257031 53.851,13.6786667 C54.0297031,13.3978552 54.3461474,13.2354676 54.6784803,13.2540341 C55.0108132,13.2726006 55.3072004,13.4692254 55.4535128,13.7681946 C55.5998251,14.0671638 55.5732421,14.4218468 55.384,14.6956667 C54.7791151,15.5934999 54.4050641,16.6266912 54.295,17.7036667 C54.2472889,18.17323 53.851981,18.5305192 53.38,18.5306667 L53.381,18.5316667 Z M118.106,18.1506667 C117.754025,18.1503899 117.433056,17.9493173 117.279232,17.6327343 C117.125409,17.3161513 117.165693,16.93955 117.383,16.6626667 C118.119,15.7236667 118.829,14.7396667 119.491,13.7376667 C119.775128,13.3245283 120.337757,13.2149894 120.756125,13.4913579 C121.174494,13.7677265 121.294513,14.3282136 121.026,14.7516667 C120.337,15.7956667 119.598,16.8216667 118.826,17.7996667 C118.652392,18.0207242 118.38708,18.1500642 118.106,18.1506667 Z M60.373,13.029667 C60.0545747,13.0299368 59.7587016,12.8653526 59.591,12.5946667 C59.214,11.9876667 58.872,11.9876667 58.743,11.9876667 C58.3671069,12.0197401 58.0072965,12.154669 57.703,12.3776667 C57.4262978,12.5562995 57.075315,12.5737441 56.7822633,12.4234294 C56.4892117,12.2731146 56.2986128,11.9778769 56.2822633,11.6489294 C56.2659139,11.3199818 56.4262978,11.0072995 56.703,10.8286667 C57.3018192,10.4108702 58.0083278,10.1744415 58.738,10.1476667 C59.7513461,10.1618798 60.6760364,10.7283532 61.149,11.6246667 C61.324854,11.9081263 61.3334954,12.2645686 61.1715839,12.5562168 C61.0096725,12.847865 60.7025769,13.0290228 60.369,13.029667 L60.373,13.029667 Z M122.168,12.0156667 C121.842666,12.0138141 121.542446,11.8404562 121.37821,11.5596138 C121.213975,11.2787714 121.210094,10.9321159 121.368,10.6476667 C121.945,9.61066666 122.495,8.52766666 123.006,7.42366666 C123.136529,7.11375192 123.42575,6.89974633 123.760287,6.86554065 C124.094824,6.83133496 124.42137,6.98237971 124.611918,7.25946496 C124.802467,7.53655021 124.826655,7.89552361 124.675,8.19566666 C124.146,9.33866666 123.575,10.4656667 122.975,11.5416667 C122.813506,11.8369265 122.503539,12.0202979 122.167,12.0196683 L122.168,12.0156667 Z M125.262,5.33466666 C125.151041,5.33425342 125.041024,5.31428107 124.937,5.27566666 C124.70861,5.18955972 124.523857,5.01613328 124.423491,4.79364041 C124.323125,4.57114753 124.315393,4.31786744 124.402,4.08966666 C124.831,2.95366666 125.219,1.79866666 125.557,0.659666664 C125.650068,0.344379781 125.904269,0.102693706 126.22385,0.025649245 C126.54343,-0.051395216 126.879837,0.047906823 127.10635,0.286149245 C127.332862,0.524391667 127.415068,0.865379781 127.322,1.18066666 C126.972,2.36466666 126.569,3.56166666 126.122,4.74066666 C125.985853,5.09753798 125.643958,5.33368398 125.262,5.33466666 Z" id="Path_633"></path>
                </g>
            </g>
        </g>
    </g>
</svg>