<?xml version="1.0" encoding="UTF-8"?>
<svg width="164px" height="240px" viewBox="0 0 164 240" version="1.1" xmlns="http://www.w3.org/2000/svg" xmlns:xlink="http://www.w3.org/1999/xlink">
    <title>Untitled 33</title>
    <g id="Page-1" stroke="none" stroke-width="1" fill="none" fill-rule="evenodd">
        <g id="Group" transform="translate(0.000000, 6.000000)" fill="#0370BA" fill-rule="nonzero">
            <g id="Group_4042" transform="translate(68.440363, 50.079986)">
                <path d="M9.64315772,19.1 C10.2741577,19.1 10.8721577,19.1 12.5221577,12.528 C18.0871577,11.457 18.5601577,10.822 18.7431577,10.578 C18.9086925,10.3224681 18.9642108,10.0109885 18.8971577,9.714 C18.7971577,9.355 18.5601577,8.523 12.1971577,5.959 C9.91115772,0 9.13115772,0 8.61215772,0 C8.30088541,0.0239819778 8.01245138,0.1725255 7.81215772,0.412 C7.17086641,1.76467519 6.71863046,3.19911108 6.46815772,4.675 C6.29415772,5.386 6.08215772,6.243 5.96015772,6.625 C5.62415772,6.774 4.89215772,7.037 4.28615772,7.255 C1.00815772,8.431 0.163157721,8.83 0.00815772099,9.618 C-0.0331523776,9.96086722 0.0838878415,10.3038908 0.326157721,10.55 C0.992157721,11.15 4.15015772,12.319 5.81015772,12.911 C8.50415772,19.043 9.08515772,19.072 9.59815772,19.098 C9.61015772,19.1 9.62415772,19.1 9.64315772,19.1 Z M16.5431577,9.838 C15.4271577,10.157 13.4161577,10.614 11.6611577,10.938 C11.3294214,10.9985518 11.0642629,11.2484353 10.9841577,11.576 C10.5361577,13.397 9.94815772,15.467 9.52415772,16.663 C8.90815772,15.549 7.98215772,13.6 7.23115772,11.876 C7.13614815,11.6579543 6.95517322,11.4889237 6.73115772,11.409 C5.23115772,10.882 3.54115772,10.235 2.47615772,9.77 C3.21715772,9.459 4.21515772,9.102 4.86315772,8.87 C6.73315772,8.198 7.08615772,8.054 7.32815772,7.728 C7.7290774,6.89140114 8.00115454,5.99897462 8.13515772,5.081 C8.30715772,4.381 8.57015772,3.309 8.80715772,2.498 C9.52207521,3.93736966 10.1622593,5.41266367 10.7251577,6.918 C10.8093925,7.14540745 10.9854206,7.32687979 11.2101577,7.418 C13.0307711,8.12840639 14.8119934,8.93589827 16.5461577,9.837 L16.5431577,9.838 Z" id="Path_647"></path>
            </g>
            <g id="Group_4043" transform="translate(97.341517, 0.000000)">
                <path d="M6.0960036,12.2179862 L6.1220036,12.2179862 C9.49336537,12.2108119 12.2215873,9.47386749 12.2180037,6.1025 C12.214413,2.7311325 9.48037301,0 6.1090036,0 C2.7376342,0 0.00359421202,2.7311325 3.52636906e-06,6.1025 C-0.00358009263,9.47386749 2.72464183,12.2108119 6.0960036,12.2179862 L6.0960036,12.2179862 Z M6.0770036,1.78394436 C7.62646454,1.777198 9.06184693,2.59755309 9.84245606,3.93603159 C10.6230652,5.27451008 10.6303079,6.92776524 9.86145606,8.27303178 C9.09260417,9.61829832 7.66446455,10.4511982 6.1150036,10.4579968 L6.0960036,10.4579968 C3.70074464,10.4632329 1.75475031,8.52574513 1.74949297,6.13048617 C1.7442569,3.73522721 3.68174464,1.78923287 6.0770036,1.78394436 Z" id="Path_657"></path>
            </g>
            <g id="Group_4044" transform="translate(127.436018, 56.396986)">
                <path d="M25.2855022,41.7490003 C25.6505842,41.7490003 25.9994373,41.5981559 26.2490184,41.3317086 C26.4985995,41.0652613 26.6265828,40.707287 26.6025022,40.343 C26.6025022,40.343 26.9245022,34.284 27.0575022,27.025 C34.6255022,24.655 35.9145022,23.265 36.1575022,22.115 C36.2874664,21.4482889 36.0334201,20.764912 35.4995022,20.345 C32.8346281,18.4352729 30.0078615,16.7622339 27.0515022,15.345 C26.7305022,2.587 25.3835022,0 23.3235022,0 C22.7696886,0.0173728732 22.242433,0.241402987 21.8455022,0.628 C20.3455022,1.961 17.9925022,4.905 14.6595022,9.612 C9.62450223,7.57 6.01650223,6.537 3.92450223,6.537 C3.04729981,6.44725342 2.17780604,6.76759324 1.56850223,7.405 C1.16276027,7.91812213 1.01930846,8.59101465 1.18050223,9.225 C1.63750223,11.514 4.71250223,16.425 7.38050223,20.368 C3.41050223,26.425 0.201502228,31.578 0.168502228,31.632 C-0.0666148794,32.0097971 -0.0548262813,32.4911648 0.198502228,32.857 C0.449703792,33.2258789 0.898887882,33.4064216 1.33550223,33.314 C1.39950223,33.301 7.58850223,32.06 14.5985022,30.378 C23.2655022,41.7490003 24.7275022,41.7490003 25.2855022,41.7490003 Z M24.8115022,27.701 C24.7175022,32.396 24.5485022,36.501 24.4495022,38.665 C21.773692,35.8678794 19.2738957,32.9075327 16.9645022,29.801 C19.9045022,29.07 22.5325022,28.366 24.8115022,27.701 Z M13.1275022,28.431 C9.25350223,29.349 5.71450223,30.116 3.45050223,30.594 C4.66450223,28.674 6.56850223,25.684 8.74250223,22.355 C10.1185022,24.334 11.6045022,26.395 13.1275022,28.434 L13.1275022,28.431 Z M24.8525022,25.362 C22.2225022,26.142 19.0805022,26.982 15.4905022,27.862 C13.5905022,25.34 11.7335022,22.762 10.0635022,20.34 C12.0285022,17.36 13.8385022,14.681 15.4575022,12.356 C18.4305022,13.615 21.7125022,15.142 24.8475022,16.724 C24.8935022,19.316 24.8935022,22.215 24.8515022,25.365 L24.8525022,25.362 Z M33.7735022,21.818 C33.2795022,22.232 31.7505022,23.167 27.0955022,24.669 C27.1235022,22.247 27.1255022,19.976 27.0955022,17.884 C29.4073099,19.0444341 31.6380583,20.3597638 33.7725022,21.821 L33.7735022,21.818 Z M13.3445022,11.489 C11.9305022,13.527 10.3775022,15.825 8.70850223,18.346 C4.36250223,11.846 3.52650223,9.534 3.37350223,8.81 C3.55574837,8.78137244 3.74002622,8.7676603 3.92450223,8.76891056 C5.61850223,8.76891056 8.93550223,9.73 13.3445022,11.489 Z M23.2575022,2.358 C23.6435022,2.975 24.4915022,5.331 24.7835022,14.2 C22.0915022,12.864 19.3295022,11.587 16.7705022,10.492 C20.4445022,5.329 22.3175022,3.215 23.2575022,2.358 Z" id="Path_659"></path>
            </g>
            <g id="Group_4045" transform="translate(76.341998, 148.305107) rotate(-138.000000) translate(-76.341998, -148.305107) translate(40.108760, 74.454869)">
                <path d="M44.1504534,1.86491235e-07 C43.6011201,1.86491235e-07 43.0521201,0.0176670403 42.5034534,0.0530003736 C41.918854,0.106448723 41.4864786,0.620926306 41.5344534,1.20600037 C41.5356913,1.49037107 41.6546702,1.76152505 41.8630976,1.95498363 C42.0715251,2.1484422 42.3507786,2.24692027 42.6344534,2.22700037 C43.955024,2.14143913 45.2804833,2.16853711 46.5964534,2.30800037 C46.8761592,2.331431 47.1535882,2.24178947 47.3667004,2.05912182 C47.5798127,1.87645418 47.7108299,1.61599897 47.7304534,1.33600037 C47.8000963,0.75163094 47.386914,0.219887168 46.8034534,0.143000374 C45.9223378,0.0476272409 45.0367158,-0.000108886546 44.1504534,1.86491235e-07 Z M38.4794534,0.664000318 C38.4040893,0.664000318 38.3289577,0.672360521 38.2554534,0.689000374 C36.8584218,1.01703306 35.4879216,1.44924201 34.1554534,1.98200037 C33.6151657,2.21504474 33.3515975,2.83003727 33.5554534,3.38200037 C33.6445147,3.64574286 33.8367292,3.86209115 34.0881525,3.98158317 C34.3395757,4.10107519 34.6287103,4.113494 34.8894534,4.01600037 C36.1297382,3.52040983 37.4057054,3.11926739 38.7064534,2.81600037 C39.2770714,2.66665486 39.6256673,2.09082945 39.4934534,1.51600037 C39.4001256,1.02755579 38.9766738,0.671755988 38.4794534,0.664000318 Z M50.7594534,0.939994545 C50.2825028,0.946905227 49.8708864,1.27619839 49.7594534,1.74000037 C49.603484,2.30702649 49.9210965,2.89643787 50.4804534,3.07800037 C51.759183,3.45201861 53.0044977,3.93201498 54.2034534,4.51300037 C54.4551435,4.6325235 54.7449776,4.64298809 55.004632,4.54192727 C55.2642864,4.44086646 55.4707865,4.23722222 55.5754534,3.97900037 C55.8172285,3.43942398 55.594476,2.80499683 55.0684534,2.53500037 C53.7700271,1.90546125 52.4213515,1.38532469 51.0364534,0.980000374 C50.9465823,0.95315056 50.8532491,0.939672834 50.7594534,0.939994545 Z M30.7594534,3.72900037 C30.5867348,3.7292391 30.4170963,3.77475187 30.2674534,3.86100037 C29.0109595,4.57861271 27.8021115,5.37660603 26.6484534,6.25000037 C26.1829558,6.61614792 26.0798928,7.27994378 26.4124534,7.77000037 C26.5642964,8.00286682 26.8062226,8.16201532 27.0801778,8.20925552 C27.354133,8.25649571 27.6353889,8.18756352 27.8564534,8.01900037 C28.9393015,7.19933647 30.0732643,6.44948478 31.2514534,5.77400037 C31.7577366,5.46971226 31.9399503,4.82407985 31.6674534,4.30000037 C31.4961503,3.95321685 31.1442248,3.73239322 30.7574534,3.72900037 L30.7594534,3.72900037 Z M58.2534534,4.55400037 C57.8999016,4.55623663 57.572671,4.74122597 57.3884534,5.04300037 C57.0739699,5.54551389 57.2029654,6.20579588 57.6834534,6.55300037 C58.7974124,7.3293876 59.8575052,8.18033511 60.8564534,9.10000037 C61.057955,9.29195526 61.3308216,9.39044037 61.6084687,9.37142345 C61.8861158,9.35240653 62.1430061,9.21763669 62.3164534,9.00000037 C62.6919006,8.54126264 62.6482107,7.87018573 62.2164534,7.46400037 C61.1454175,6.47994446 60.0095306,5.56889632 58.8164534,4.73700037 C58.6508314,4.61989341 58.4532904,4.55637314 58.2504534,4.55500037 L58.2534534,4.55400037 Z M24.0424534,8.79399999 C23.7808218,8.79377141 23.52952,8.89608712 23.3424534,9.07900037 C22.292483,10.0942499 21.3024766,11.1697342 20.3774534,12.3000004 C20.0045505,12.7614872 20.0512401,13.4325958 20.4844534,13.8380004 C20.6886852,14.0254998 20.9615927,14.1197956 21.2380121,14.0983722 C21.5144315,14.0769487 21.7695508,13.941729 21.9424534,13.7250004 C22.8156018,12.6597379 23.750544,11.6466613 24.7424534,10.6910004 C25.1651923,10.2743967 25.1935835,9.60174464 24.8074534,9.15100037 C24.6168823,8.92591721 24.3373731,8.79547959 24.0424534,8.79399999 L24.0424534,8.79399999 Z M64.4814534,10.2500004 C64.2218339,10.2505392 63.9726005,10.3520256 63.7864534,10.5330004 C63.3623822,10.9472535 63.3309378,11.6189408 63.7144534,12.0710004 C64.5914534,13.0900004 65.4494534,14.1970004 66.2624534,15.3600004 C66.4173461,15.5905008 66.6611152,15.7462096 66.9353763,15.7898334 C67.2096373,15.8334572 67.4896878,15.7610669 67.7084534,15.5900004 C68.17089,15.2191832 68.2670451,14.5535275 67.9284534,14.0670004 C67.0734534,12.8460004 66.1704534,11.6800004 65.2474534,10.6080004 C65.0565932,10.382608 64.7767939,10.2518402 64.4814534,10.2500004 Z M18.6434534,15.3779965 C18.295036,15.3809828 17.9722453,15.5616098 17.7874534,15.8570004 C16.9876846,17.0958622 16.2585235,18.3789053 15.6034534,19.7000004 C15.3391908,20.2286624 15.5324912,20.8716821 16.0444534,21.1670004 C16.2892921,21.2998552 16.5782257,21.3253553 16.8425489,21.237437 C17.106872,21.1495188 17.3229687,20.9560373 17.4394534,20.7030004 C18.0556956,19.4546314 18.7424722,18.2423387 19.4964534,17.0720004 C19.8174679,16.5742638 19.6971673,15.9128293 19.2214534,15.5600004 C19.0522477,15.4410131 18.8503066,15.3774261 18.6434534,15.3779965 L18.6434534,15.3779965 Z M69.4034534,17.2380004 C69.2121824,17.2386883 69.0251209,17.2942167 68.8644534,17.3980004 C68.3719853,17.7291391 68.2225451,18.3865007 68.5234534,18.8980004 C69.2084534,20.0760004 69.8754534,21.3320004 70.5114534,22.6250004 C70.6266176,22.8787479 70.8418732,23.0733602 71.105908,23.1624458 C71.3699427,23.2515315 71.6591008,23.2271091 71.9044534,23.0950004 C72.4176184,22.801787 72.612839,22.1590943 72.3494534,21.6300004 C71.6934534,20.2860004 71.0004534,18.9850004 70.2874534,17.7630004 C70.108828,17.4415795 69.7711614,17.2410422 69.4034534,17.2380004 Z M14.8404534,23.1000004 C14.4004587,23.1061506 14.0121547,23.3890635 13.8714534,23.8060004 C13.3713755,25.2129717 12.9569504,26.6489327 12.6304534,28.1060004 C12.4926392,28.6782697 12.8332057,29.2567905 13.4004534,29.4140004 C13.673323,29.4774686 13.9602743,29.4269353 14.1950465,29.2740692 C14.4298186,29.1212031 14.5921129,28.8792211 14.6444534,28.6040004 C14.9507097,27.2380644 15.3394214,25.8919329 15.8084534,24.5730004 C16.0121111,24.0194003 15.7454698,23.4033973 15.2024534,23.1730004 C15.0877234,23.1252225 14.9647335,23.1004207 14.8404534,23.1000004 L14.8404534,23.1000004 Z M12.9514534,31.5590004 C12.4074787,31.5720283 11.9624584,31.9962694 11.9234534,32.5390004 C11.8234534,33.6390004 11.7654534,34.7560004 11.7654534,35.8580004 C11.7654534,36.2490004 11.7714534,36.6430004 11.7854534,37.0380004 C11.7819798,37.4196838 11.988864,37.7722985 12.3237436,37.9554651 C12.6586231,38.1386317 13.0671347,38.1226155 13.3866458,37.9137928 C13.7061569,37.70497 13.8847993,37.3372402 13.8514534,36.9570004 C13.8394534,36.5910004 13.8334534,36.2230004 13.8334534,35.8570004 C13.8334534,34.8280004 13.8824534,33.7820004 13.9804534,32.7570004 C14.0489497,32.173703 13.6366369,31.6433957 13.0544534,31.5660004 C13.0203433,31.5608393 12.9859418,31.5578334 12.9514534,31.5570004 L12.9514534,31.5590004 Z M13.2514534,40.2400004 C13.1910268,40.2394219 13.1307034,40.2451191 13.0714534,40.2570004 C12.49605,40.3803247 12.1235587,40.9395051 12.2314534,41.5180004 C12.4791186,42.9948872 12.8218307,44.4542528 13.2574534,45.8870004 C13.3309092,46.1564837 13.5112592,46.3842658 13.7567137,46.5175665 C14.0021682,46.6508672 14.2914229,46.6781165 14.5574534,46.5930004 C15.1124825,46.3903891 15.4083063,45.7854955 15.2274534,45.2230004 C14.8207632,43.8837164 14.5010964,42.5195373 14.2704534,41.1390004 C14.1964775,40.6308752 13.7667904,40.2501986 13.2534534,40.2380004 L13.2514534,40.2400004 Z M15.7594534,48.5140004 C15.6070836,48.5133767 15.4565862,48.5475807 15.3194534,48.6140004 C14.7973838,48.8897478 14.580774,49.5246687 14.8254534,50.0620004 C15.4311364,51.4143756 16.1170234,52.729382 16.8794534,54.0000004 C17.016227,54.2422195 17.2477103,54.4165234 17.5182929,54.4810382 C17.7888756,54.545553 18.074103,54.494448 18.3054534,54.3400004 C18.7916075,54.0032605 18.9329248,53.3469883 18.6284534,52.8400004 C17.9132549,51.645339 17.268489,50.4098993 16.6974534,49.1400004 C16.5378338,48.7633783 16.170475,48.5169024 15.7614534,48.5120004 L15.7594534,48.5140004 Z M20.1454534,55.8790004 C19.9147963,55.8798378 19.6915204,55.9603867 19.5134534,56.1070004 C19.0604978,56.4885164 18.9797084,57.1553563 19.3284534,57.6340004 C20.1951201,58.8120004 21.0047868,59.9663337 21.7574534,61.0970004 C21.9065469,61.3313494 22.1463924,61.4931309 22.4195274,61.543585 C22.6926624,61.5940391 22.9744769,61.5286198 23.1974534,61.3630004 C23.6672967,61.0027132 23.7774718,60.3399137 23.4494534,59.8470004 C22.6781201,58.6903337 21.8494534,57.5090004 20.9634534,56.3030004 C20.7756176,56.0381029 20.4721718,55.8793145 20.1474534,55.8760004 L20.1454534,55.8790004 Z M24.8864534,63.0160004 C24.6930774,63.0169183 24.5041155,63.0738847 24.3424534,63.1800004 C23.8532395,63.5139374 23.7074995,64.1704241 24.0094534,64.6800004 C24.7474534,65.9310004 25.4304534,67.1800004 26.0424534,68.3880004 C26.1615006,68.6399362 26.3795254,68.8313539 26.6447496,68.916794 C26.9099738,69.002234 27.1987341,68.9740736 27.4424534,68.8390004 C27.9528552,68.5394357 28.140658,67.8935348 27.8704534,67.3670004 C27.2394534,66.1140004 26.5324534,64.8220004 25.7704534,63.5320004 C25.5901762,63.2139614 25.2540197,63.0161551 24.8884534,63.0130004 L24.8864534,63.0160004 Z M28.7464534,70.7160004 C28.6052609,70.7154834 28.4656644,70.7458601 28.3374534,70.8050004 C27.8061969,71.0620358 27.5686163,71.6895824 27.7964534,72.2340004 C28.3319023,73.531478 28.8015001,74.8551631 29.2034534,76.2000004 C29.2748504,76.4701784 29.4534647,76.6994919 29.6979457,76.8348532 C29.9424268,76.9702146 30.2315761,76.9998867 30.4984534,76.9170004 C31.0543017,76.7188774 31.3547948,76.1174499 31.1794534,75.5540004 C30.7580316,74.1357585 30.2654069,72.7396547 29.7034534,71.3710004 C29.549754,70.9767734 29.1715657,70.7158037 28.7484534,70.7120004 L28.7464534,70.7160004 Z M31.1634534,79.0260004 C31.1044592,79.0257991 31.0455628,79.0308186 30.9874534,79.0410004 C30.4119535,79.1620284 30.0376381,79.7195101 30.1434534,80.2980004 C30.3706448,81.6706082 30.4910059,83.0587732 30.5034534,84.4500004 C30.4922624,85.0335151 30.9540315,85.5167203 31.5374534,85.5320004 L31.5434534,85.5320004 C31.8256988,85.5226125 32.0926341,85.4014047 32.2854553,85.1950785 C32.4782766,84.9887523 32.5811645,84.7142347 32.5714534,84.4320004 C32.5593039,82.9208368 32.4292423,81.4129257 32.1824534,79.9220004 C32.1095858,79.413434 31.6791067,79.032479 31.1654534,79.0220004 L31.1634534,79.0260004 Z M31.1534534,87.6840004 C30.6483598,87.6949145 30.222496,88.0636605 30.1394534,88.5620004 C29.8893884,89.9008752 29.4943977,91.2085695 28.9614534,92.4620004 C28.7245478,93.0036605 28.9524614,93.6360221 29.4804534,93.9020004 C29.7333082,94.0201157 30.0237661,94.0283415 30.2829003,93.9247257 C30.5420344,93.82111 30.7467451,93.6148891 30.8484534,93.3550004 C31.4462088,91.9486508 31.8888249,90.4813114 32.1684534,88.9790004 C32.2882732,88.4031252 31.9278347,87.8365318 31.3554534,87.7010004 C31.2897393,87.6868074 31.2226824,87.6797664 31.1554534,87.6799947 L31.1534534,87.6840004 Z M8.78745345,92.5409786 C8.21852438,92.5398926 7.65029743,92.5810055 7.08745345,92.6640004 C6.50671333,92.7678212 6.11590189,93.3173581 6.20845345,93.9000004 C6.27986974,94.4765945 6.80212859,94.8882469 7.37945345,94.8230004 C8.63461627,94.6525309 9.9099566,94.7036393 11.1474534,94.9740004 C11.4227484,95.0258095 11.7072902,94.9639278 11.9362029,94.8024643 C12.1651156,94.6410008 12.3188857,94.3937193 12.3624534,94.1170004 C12.4815881,93.5406071 12.1203157,92.9740966 11.5474534,92.8390004 C10.6399887,92.6460205 9.71519625,92.5461697 8.78745345,92.5409786 L8.78745345,92.5409786 Z M15.2664534,94.1810004 C14.8535617,94.1856748 14.4831187,94.4357828 14.3244534,94.8170004 C14.0855877,95.3579636 14.3101639,95.9913388 14.8364534,96.2610004 C16.0406822,96.8479802 17.1919608,97.5378774 18.2774534,98.3230004 C18.5041501,98.4829754 18.7867636,98.5424333 19.0587025,98.4873643 C19.3306414,98.4322952 19.5678565,98.2675693 19.7144534,98.0320004 C20.0347349,97.5339109 19.9140576,96.8728092 19.4384534,96.5200004 C18.2564692,95.668154 17.0039216,94.9187665 15.6944534,94.2800004 C15.5608884,94.2156842 15.4146946,94.1818683 15.2664534,94.1810004 L15.2664534,94.1810004 Z M3.40345345,94.2000004 C3.18708323,94.2000004 2.97654962,94.2701782 2.80345345,94.4000004 C1.4336471,95.3996827 0.454612371,96.845076 0.0344534464,98.4880004 C-0.111745603,99.0587182 0.220261454,99.6427146 0.785453446,99.8090004 C1.05717053,99.8738466 1.34356015,99.8262155 1.5796606,99.6769112 C1.81576105,99.5276068 1.98156149,99.2892836 2.03945345,99.0160004 C2.34674572,97.870521 3.04239005,96.8673509 4.00745345,96.1780004 C4.47400884,95.8137348 4.57887933,95.150429 4.24745345,94.6600004 C4.0610316,94.374866 3.74411474,94.2021388 3.40345345,94.2000004 L3.40345345,94.2000004 Z M27.7844534,95.5450004 C27.4584908,95.5469073 27.1531953,95.704947 26.9634534,95.9700004 C26.1697587,97.0526068 25.2622349,98.0469606 24.2564534,98.9360004 C23.8182677,99.3353818 23.7632605,100.00551 24.1304534,100.471 C24.3005212,100.690153 24.5539798,100.828815 24.8302484,100.853844 C25.1065169,100.878873 25.3807689,100.78802 25.5874534,100.603 C26.7081904,99.6132043 27.7193276,98.5058482 28.6034534,97.3000004 C28.951018,96.8201022 28.8680238,96.1530913 28.4134534,95.7730004 C28.2369783,95.6286158 28.0164597,95.5488762 27.7884534,95.5470004 L27.7844534,95.5450004 Z M22.1274534,99.0000004 C21.824555,99.0015258 21.538299,99.1387818 21.3474534,99.3740004 C20.9721341,99.8324133 21.0158307,100.503157 21.4474534,100.909 C21.5384534,100.992 21.6294534,101.077 21.7204534,101.162 C21.4788252,101.10897 21.2260574,101.150859 21.0144534,101.279 C19.8644609,101.952638 18.6562708,102.521591 17.4044534,102.979 C16.853735,103.194863 16.5723278,103.807598 16.7674534,104.366 C16.8469323,104.633704 17.0326923,104.857115 17.2813961,104.984113 C17.5301,105.11111 17.8199964,105.130588 18.0834534,105.038 C19.4486687,104.539573 20.7663063,103.91941 22.0204534,103.185 C22.4494382,102.923261 22.649821,102.406527 22.5094534,101.924 C23.1284534,102.532 23.7474534,103.181 24.3624534,103.858 C24.546257,104.065606 24.8080081,104.187576 25.0851938,104.19478 C25.3623794,104.201985 25.6301132,104.093777 25.8244534,103.896 C26.2376247,103.470904 26.2524608,102.798917 25.8584534,102.356 C24.8494534,101.242 23.8214534,100.203 22.8044534,99.2710004 C22.620942,99.0986731 22.3791865,99.0018995 22.1274534,99.0000004 Z M1.97145345,101.726 C1.71812733,101.726367 1.47438144,101.822865 1.28945345,101.996 C0.858307286,102.402068 0.814635735,103.072427 1.18945345,103.531 C2.2594515,104.745152 3.6779455,105.599671 5.25145345,105.978 C5.52201299,106.048422 5.80958015,106.005723 6.04800497,105.859725 C6.28642979,105.713728 6.45518576,105.477001 6.51545345,105.204 C6.66585667,104.635163 6.34199661,104.04869 5.78045345,103.873 C4.6148893,103.599343 3.55850936,102.981611 2.74845345,102.1 C2.55927209,101.86433 2.27366081,101.726854 1.97145345,101.726 Z M13.7424534,103.999993 C13.6834579,103.999767 13.6245587,104.004787 13.5664534,104.015 C12.3373219,104.238542 11.0907444,104.352324 9.84145345,104.355 L9.62045345,104.355 C9.03715401,104.380003 8.57713321,104.860165 8.57713321,105.444 C8.57713321,106.027835 9.03715401,106.507997 9.62045345,106.533 L9.81345345,106.533 C11.1896412,106.562932 12.5648586,106.438827 13.9134534,106.163 C14.4889534,106.041972 14.8632688,105.484491 14.7574534,104.906 C14.6869936,104.396001 14.25715,104.012318 13.7424534,103.999993 Z M27.8494534,105.274 C27.6102551,105.274856 27.3792871,105.361425 27.1984534,105.518 C26.7540949,105.909842 26.6889874,106.578832 27.0494534,107.049 L27.4724534,107.598 C28.2137868,108.568 28.8981201,109.518334 29.5254534,110.449 C29.6756804,110.682841 29.916451,110.843611 30.1900114,110.892745 C30.4635719,110.94188 30.7452406,110.874946 30.9674534,110.708 C31.4348906,110.344641 31.5414759,109.681541 31.2114534,109.19 C30.5607868,108.224667 29.8507868,107.238334 29.0814534,106.231 L28.6524534,105.676 C28.4638078,105.42184 28.165973,105.272 27.8494534,105.272 L27.8494534,105.274 Z M32.6134534,112.388 C32.4301891,112.388069 32.2505332,112.438954 32.0944534,112.535 C31.5957136,112.854386 31.431831,113.506849 31.7204534,114.024 C32.3964082,115.245304 33.0046606,116.502871 33.5424534,117.791 C33.6411599,118.051924 33.8432938,118.260465 34.1010107,118.367263 C34.3587276,118.474061 34.6491202,118.469623 34.9034534,118.355 C35.4342924,118.096477 35.6694952,117.467364 35.4384534,116.924 C34.8705597,115.557669 34.2258641,114.224542 33.5074534,112.931 C33.3317128,112.599354 32.9887606,112.390284 32.6134534,112.386 L32.6134534,112.388 Z M35.8644534,120.373 C35.7736177,120.373468 35.6832158,120.385567 35.5954534,120.409 C35.0345387,120.586373 34.7124663,121.173682 34.8644534,121.742 C35.208583,123.080585 35.431483,124.447437 35.5304534,125.826 C35.5391142,126.107863 35.6616462,126.37418 35.870067,126.564133 C36.0784877,126.754086 36.3549987,126.851454 36.6364534,126.834 C37.2200952,126.772456 37.6460088,126.253429 37.5924534,125.669 C37.4849948,124.154043 37.2406652,122.651918 36.8624534,121.181 C36.7551235,120.713945 36.3435987,120.379942 35.8644534,120.371 L35.8644534,120.373 Z M36.4094534,129 C35.8857622,129.012105 35.4504318,129.406969 35.3874534,129.927 C35.194791,131.27608 34.8526882,132.599548 34.3674534,133.873 C34.1508465,134.422814 34.4038484,135.045859 34.9424534,135.289 C35.1996264,135.395708 35.4893825,135.391857 35.7436293,135.278354 C35.997876,135.164851 36.1941958,134.951703 36.2864534,134.689 C36.8312598,133.257518 37.2159356,131.770127 37.4334534,130.254 C37.5282308,129.673777 37.1423534,129.124046 36.5644534,129.016 C36.5132928,129.006566 36.4614626,129.001215 36.4094534,129 Z M33.3784534,137.025 C33.0307695,137.027889 32.7083551,137.207176 32.5224534,137.501 C31.7833734,138.641533 30.9422531,139.712598 30.0094534,140.701 C29.6083163,141.137486 29.6126818,141.80976 30.0194534,142.241 C30.209821,142.44244 30.4752535,142.555838 30.7524088,142.554151 C31.029564,142.552426 31.2935803,142.435769 31.4814534,142.232 C32.5012464,141.146341 33.4219129,139.971663 34.2324534,138.722 C34.5531844,138.22354 34.4329922,137.561828 33.9574534,137.208 C33.7882056,137.088106 33.585865,137.023804 33.3784534,137.024 L33.3784534,137.025 Z M27.6114534,143.225 C27.3892558,143.224866 27.1735535,143.299939 26.9994534,143.438 C25.950645,144.26708 24.8290876,144.999724 23.6484534,145.627 C23.1245282,145.901012 22.9052333,146.53609 23.1484534,147.075 C23.2546058,147.33234 23.462169,147.534523 23.7222069,147.633883 C23.9822447,147.733242 24.271745,147.720985 24.5224534,147.6 C25.8284619,146.913795 27.0672215,146.106592 28.2224534,145.189 C28.6850199,144.818155 28.7807874,144.152155 28.4414534,143.666 C28.2530423,143.392816 27.9432996,143.228615 27.6114534,143.226 L27.6114534,143.225 Z" id="Path_470"></path>
            </g>
        </g>
    </g>
</svg>