<?xml version="1.0" encoding="UTF-8"?>
<svg width="164px" height="150px" viewBox="0 0 164 150" version="1.1" xmlns="http://www.w3.org/2000/svg" xmlns:xlink="http://www.w3.org/1999/xlink">
    <title>Untitled 33</title>
    <g id="Page-1" stroke="none" stroke-width="1" fill="none" fill-rule="evenodd">
        <g id="Group" transform="translate(0.000000, 17.000000)" fill="#0370BA" fill-rule="nonzero">
            <g id="Group_4048" transform="translate(71.478271, 34.117000)">
                <path d="M7.53532787,15.505 C7.02232787,15.505 6.53532787,15.505 5.19732787,10.17 C0.679327867,9.3 0.297327867,8.785 0.147327867,8.587 C0.0133148035,8.37993409 -0.0317357442,8.12765103 0.022327867,7.887 C0.104327867,7.595 0.295327867,6.92 5.46132787,4.838 C7.31732787,0 7.95032787,0 8.37132787,0 C8.62556581,0.0181650153 8.86155957,0.138687822 9.02532787,0.334 C9.54593216,1.43219889 9.91303783,2.59677515 10.1163279,3.795 C10.2583279,4.372 10.4293279,5.068 10.5293279,5.378 C10.8023279,5.499 11.3963279,5.712 11.8883279,5.889 C14.5493279,6.844 15.2363279,7.168 15.3613279,7.807 C15.3949392,8.08544006 15.2999869,8.36404046 15.1033279,8.564 C13.6876067,9.35116351 12.196047,9.99341869 10.6513279,10.481 C8.46332787,15.459 7.99232787,15.481 7.57632787,15.504 L7.53532787,15.505 Z M1.93532787,7.985 C2.84132787,8.244 4.47432787,8.615 5.89932787,8.885 C6.16843526,8.93435546 6.38343187,9.13721201 6.44832787,9.403 C6.81232787,10.881 7.28932787,12.562 7.63332787,13.533 C8.13332787,12.633 8.88532787,11.046 9.49532787,9.647 C9.57306223,9.46967914 9.72076683,9.33247315 9.90332787,9.268 C11.1203279,8.84 12.4933279,8.315 13.3573279,7.937 C12.7573279,7.685 11.9453279,7.394 11.4193279,7.206 C9.90132787,6.66 9.61932787,6.543 9.41932787,6.279 C9.09393702,5.59977112 8.87310818,4.87525024 8.76432787,4.13 C8.62432787,3.561 8.41032787,2.692 8.21832787,2.03 C7.63794257,3.19875662 7.11825164,4.39668261 6.66132787,5.619 C6.59156292,5.80146976 6.44872247,5.94648545 6.26732787,6.019 C4.78752247,6.5962534 3.33977269,7.25253102 1.93032787,7.985 L1.93532787,7.985 Z" id="Path_647"></path>
            </g>
            <g id="Group_4047">
                <path d="M10.9355989,41.8690014 C10.569363,41.8695353 10.2193156,41.7181186 9.96891979,41.4508529 C9.71852401,41.1835872 9.59021968,40.824424 9.61459888,40.459 C9.61459888,40.459 9.29159888,34.382 9.15759888,27.103 C1.56759888,24.727 0.274598883,23.332 0.0335988829,22.178 C-0.096727792,21.5093759 0.158098074,20.8240488 0.693598883,20.403 C3.36605758,18.4879277 6.20085366,16.8102049 9.16559888,15.389 C9.48759888,2.595 10.8375989,0 12.9045989,0 C13.4599311,0.0175969657 13.9885857,0.242328683 14.3865989,0.63 C15.8865989,1.967 18.2505989,4.919 21.5925989,9.64 C26.6415989,7.592 30.2605989,6.556 32.3585989,6.556 C33.2383039,6.46591774 34.1103326,6.78697782 34.7215989,7.426 C35.1281137,7.94069295 35.2719017,8.61527633 35.1105989,9.251 C34.6515989,11.551 31.5685989,16.469 28.8945989,20.426 C32.8755989,26.501 36.0945989,31.669 36.1265989,31.726 C36.3622433,32.104727 36.3504557,32.5872315 36.0965989,32.954 C35.8454636,33.3247967 35.3946049,33.5063266 34.9565989,33.413 C34.8925989,33.399 28.6855989,32.156 21.6565989,30.469 C12.9605989,41.8690014 11.4935989,41.8690014 10.9355989,41.8690014 Z M11.4105989,27.784 C11.5055989,32.492 11.6745989,36.613 11.7735989,38.784 C14.4573394,35.9780325 16.9644845,33.0083329 19.2805989,29.892 C16.3315989,29.154 13.6935989,28.448 11.4105989,27.783 L11.4105989,27.784 Z M23.1285989,28.516 C27.0145989,29.436 30.5625989,30.206 32.8285989,30.685 C31.6105989,28.76 29.7015989,25.76 27.5215989,22.422 C26.1465989,24.401 24.6555989,26.471 23.1285989,28.515 L23.1285989,28.516 Z M11.3705989,25.439 C14.0075989,26.221 17.1595989,27.063 20.7595989,27.947 C22.6595989,25.418 24.5275989,22.836 26.2015989,20.404 C24.2305989,17.415 22.4155989,14.729 20.7925989,12.397 C17.8105989,13.66 14.5195989,15.191 11.3755989,16.778 C11.3275989,19.371 11.3255989,22.279 11.3705989,25.438 L11.3705989,25.439 Z M2.42459888,21.885 C2.92459888,22.3 4.45359888,23.238 9.12459888,24.744 C9.09659888,22.316 9.09459888,20.038 9.12459888,17.944 C6.8050685,19.10492 4.56663627,20.4212518 2.42459888,21.884 L2.42459888,21.885 Z M22.9105989,11.523 C24.3285989,13.567 25.8865989,15.871 27.5595989,18.4 C31.9185989,11.877 32.7595989,9.563 32.9095989,8.837 C32.7270464,8.80801873 32.5424346,8.79397218 32.3575989,8.79494743 C30.6585989,8.794 27.3315989,9.757 22.9105989,11.522 L22.9105989,11.523 Z M12.9695989,2.366 C12.5825989,2.985 11.7315989,5.348 11.4395989,14.242 C14.1395989,12.902 16.9085989,11.621 19.4755989,10.523 C15.7935989,5.345 13.9115989,3.224 12.9695989,2.365 L12.9695989,2.366 Z" id="Path_659"></path>
            </g>
            <g id="Group_3834" transform="translate(31.380972, 56.648379)">
                <path d="M80.5956266,58.8496208 L79.6656266,58.8496208 C79.0773065,58.8317868 78.6096228,58.3497112 78.6096228,57.7611208 C78.6096228,57.1725304 79.0773065,56.6904548 79.6656266,56.6726208 L79.6736266,56.6726208 L80.5956266,56.6726208 C81.7456266,56.6726208 82.8736266,56.6519541 83.9796266,56.6106208 C84.576295,56.6021915 85.0734452,57.0658161 85.1066266,57.6616208 C85.1274385,58.2622352 84.6581897,58.7663758 84.0576266,58.7886208 C82.9269599,58.8286208 81.7729599,58.8489541 80.5956266,58.8496208 Z M75.3146266,58.7136208 C75.295972,58.71457 75.2772812,58.71457 75.2586266,58.7136208 C73.7679599,58.6389541 72.3059599,58.5362874 70.8726266,58.4056208 C70.2736738,58.3503923 69.8328981,57.8200736 69.8881266,57.2211208 C69.9433551,56.622168 70.4736738,56.1813923 71.0726266,56.2366208 C72.4779599,56.3666208 73.9112933,56.4666208 75.3726266,56.5366208 C75.9653252,56.5617723 76.4286269,57.0570908 76.4141754,57.6501468 C76.3997239,58.2432028 75.9128468,58.7153676 75.3196266,58.7116208 L75.3146266,58.7136208 Z M88.3616266,58.522621 C87.7781938,58.5230229 87.2980955,58.0635518 87.2728925,57.4806636 C87.2476894,56.8977753 87.6863366,56.3985792 88.2676266,56.3486208 C89.7302933,56.2206208 91.1512933,56.0572874 92.5306266,55.8586208 C92.9215365,55.7906736 93.3184659,55.9407111 93.5666887,56.2502475 C93.8149116,56.5597839 93.8751406,56.9798275 93.723898,57.3466423 C93.5726554,57.7134571 93.2338792,57.9689855 92.8396266,58.0136208 C91.4209599,58.2136208 89.9599599,58.3802874 88.4566266,58.5136208 C88.4251426,58.5181344 88.393422,58.5208056 88.3616266,58.5216208 L88.3616266,58.522621 Z M66.6486266,57.9226208 C66.5997626,57.9235058 66.5509136,57.92016 66.5026266,57.9126208 C65.0226266,57.7126208 63.5746266,57.4869541 62.1586266,57.2356208 C61.7732426,57.1697112 61.4527675,56.9022641 61.3189629,56.5348934 C61.1851583,56.1675227 61.2585618,55.7566162 61.5112845,55.458294 C61.7640072,55.1599717 62.1572586,55.0200233 62.5416266,55.0916208 C63.9282933,55.3409541 65.3452933,55.5619541 66.7926266,55.7546208 C67.3593818,55.8319292 67.7697301,56.3345396 67.7320829,56.9053029 C67.6944357,57.4760661 67.2216259,57.9204239 66.6496266,57.9226208 L66.6486266,57.9226208 Z M96.9726266,57.2766208 C96.4138507,57.2772967 95.9454108,56.8545831 95.8888907,56.2986726 C95.8323705,55.7427622 96.2061487,55.2344192 96.7536266,55.1226208 C98.1786266,54.8226208 99.5766266,54.4876208 100.907627,54.1126208 C101.487526,53.9499729 102.089479,54.2882218 102.252127,54.8681208 C102.414774,55.4480198 102.076526,56.0499729 101.496627,56.2126208 C100.117627,56.6016208 98.6696266,56.9526208 97.1966266,57.2566208 C97.1229289,57.2715479 97.047803,57.2782556 96.9726266,57.2766208 L96.9726266,57.2766208 Z M58.0886266,56.387621 C58.0068185,56.387678 57.9252778,56.3782824 57.8456266,56.3596208 C56.3869599,56.0262874 54.9642933,55.6646208 53.5776266,55.2746208 C52.9977276,55.1119729 52.6594787,54.5100198 52.8221266,53.9301208 C52.9847744,53.3502218 53.5867276,53.0119729 54.1666266,53.1746208 C55.5206266,53.5552874 56.9086266,53.9082874 58.3306266,54.2336208 C58.8692627,54.3581609 59.2291135,54.8665334 59.167529,55.4159389 C59.1059445,55.9653444 58.6424686,56.3814278 58.0896266,56.3836208 L58.0886266,56.387621 Z M105.346627,54.922626 C104.817095,54.9242573 104.363288,54.5444132 104.271672,54.022865 C104.180055,53.5013168 104.477239,52.9895514 104.975627,52.8106208 C106.314627,52.3256208 107.639627,51.7806208 108.917627,51.1946208 C109.270784,51.0320649 109.683837,51.0702641 110.001193,51.2948292 C110.318549,51.5193942 110.491994,51.8962083 110.456193,52.2833292 C110.420392,52.6704501 110.180784,53.009065 109.827627,53.1716208 C108.495627,53.7846208 107.112627,54.3516208 105.717627,54.8556208 C105.598772,54.8991517 105.473202,54.9214904 105.346627,54.9216208 L105.346627,54.922626 Z M49.7166266,54.0336218 C49.5976802,54.0332431 49.4795463,54.0140042 49.3666266,53.9766208 C47.9499599,53.4959541 46.5716266,52.9882874 45.2316266,52.4536208 C44.6727145,52.23105 44.4000559,51.5975329 44.6226267,51.0386208 C44.8451974,50.4797087 45.4787144,50.2070501 46.0376266,50.4296208 C47.3429599,50.9502874 48.6859599,51.4452874 50.0666266,51.9146208 C50.5718915,52.0849383 50.8792785,52.5963231 50.792628,53.1224337 C50.7059774,53.6485442 50.2508246,54.0343385 49.7176266,54.0336218 L49.7166266,54.0336218 Z M113.237627,51.2756208 C112.745223,51.2754383 112.314205,50.9448623 112.18637,50.469342 C112.058534,49.9938217 112.26569,49.4916834 112.691627,49.2446208 C113.920627,48.5346208 115.119627,47.7596208 116.256627,46.9446208 C116.572045,46.7042494 116.993195,46.6543434 117.356057,46.8143392 C117.718918,46.974335 117.966119,47.3189362 118.001385,47.713934 C118.036651,48.1089319 117.854405,48.4918746 117.525627,48.7136208 C116.331627,49.5706208 115.071627,50.3826208 113.779627,51.1296208 C113.615423,51.2263663 113.428211,51.2771416 113.237627,51.2766247 L113.237627,51.2756208 Z M41.6376266,50.8066208 C41.4790836,50.8079349 41.3222544,50.7737674 41.1786266,50.7066208 C39.8206266,50.0732874 38.5056266,49.4139541 37.2336266,48.7286208 C36.7174188,48.4373249 36.5289773,47.7866754 36.809615,47.2645966 C37.0902528,46.7425178 37.7368969,46.5407594 38.2646266,46.8106208 C39.5012933,47.4772874 40.7792933,48.1182874 42.0986266,48.7336208 C42.5625207,48.9487756 42.8139791,49.4579449 42.7028457,49.9570828 C42.5917124,50.4562208 42.147983,50.8106061 41.6366266,50.8086291 L41.6376266,50.8066208 Z M33.9806266,46.6856208 C33.7792695,46.6866209 33.5817139,46.6308034 33.4106266,46.5246208 C32.1346266,45.7372874 30.9049599,44.9279541 29.7216266,44.0966208 C29.2531598,43.7432518 29.1489138,43.0822427 29.4858901,42.6018494 C29.8228663,42.121456 30.47988,41.9944395 30.9716266,42.3146208 C32.1216266,43.1206208 33.3149599,43.9059541 34.5516266,44.6706208 C34.9663082,44.926266 35.1607619,45.4262185 35.0277914,45.8948699 C34.8948209,46.3635214 34.4667768,46.6868525 33.9796266,46.6866209 L33.9806266,46.6856208 Z M120.280627,46.1856256 C119.828709,46.1869619 119.422924,45.9090492 119.260844,45.4871952 C119.098763,45.0653413 119.214071,44.587219 119.550627,44.2856208 C120.597535,43.3446 121.588243,42.3428735 122.517627,41.2856208 C122.914443,40.8335757 123.602582,40.7888042 124.054627,41.1856208 C124.506672,41.5824374 124.551443,42.2705757 124.154627,42.7226208 C123.168863,43.8440019 122.118406,44.9068138 121.008627,45.9056208 C120.808553,46.0855562 120.548708,46.1846466 120.279627,46.1836208 L120.280627,46.1856256 Z M26.8616266,41.6856239 C26.6151834,41.6862179 26.3760743,41.6018057 26.1846266,41.4466208 C25.0119599,40.5132874 23.8879599,39.5626208 22.8126266,38.5946208 C22.5080964,38.3389314 22.367138,37.9375865 22.444907,37.5476279 C22.5226759,37.1576694 22.8068071,36.8410995 23.1861231,36.7217888 C23.5654391,36.602478 23.9796297,36.6993963 24.2666266,36.9746208 C25.3112933,37.9146208 26.4026266,38.8382874 27.5406266,39.7456208 C27.9019677,40.0341407 28.0417076,40.5193937 27.8891549,40.9559013 C27.7366023,41.3924089 27.3250234,41.6849845 26.8626266,41.6856239 L26.8616266,41.6856239 Z M125.998627,39.6456208 C125.781073,39.6463283 125.568406,39.5811336 125.388627,39.4586208 C124.890858,39.1213742 124.760593,38.4445335 125.097627,37.9466208 C125.884646,36.7848103 126.593864,35.5721571 127.220627,34.3166208 C127.389788,33.9618683 127.737123,33.7259229 128.129247,33.6993932 C128.521371,33.6728635 128.897322,33.859874 129.112726,34.1886082 C129.32813,34.5173423 129.349499,34.9366935 129.168627,35.2856208 C128.498626,36.6278656 127.740641,37.9243582 126.899627,39.1666208 C126.698075,39.4673123 126.359618,39.6474224 125.997627,39.6466234 L125.998627,39.6456208 Z M20.3916266,35.8666216 C20.1008286,35.866717 19.8220939,35.7503974 19.6176266,35.5436208 C18.5606266,34.4756208 17.5586266,33.3936208 16.6066266,32.3086208 C16.20981,31.8565757 16.2545816,31.1684374 16.7066266,30.7716208 C17.1586717,30.3748042 17.84681,30.4195757 18.2436266,30.8716208 C19.1669599,31.9262874 20.1409599,32.9732874 21.1656266,34.0126208 C21.4750158,34.3246952 21.5662934,34.79225 21.3969965,35.1977752 C21.2276996,35.6033004 20.8310715,35.8671664 20.3916266,35.8666216 L20.3916266,35.8666216 Z M129.863627,31.8766339 C129.746235,31.8772094 129.62959,31.8579376 129.518627,31.8196208 C129.244666,31.7281632 129.018312,31.5315276 128.889447,31.2730462 C128.760581,31.0145647 128.73978,30.7154513 128.831627,30.4416208 C129.276969,29.1148925 129.624237,27.7572383 129.870627,26.3796208 C129.980189,25.79144 130.543742,25.4017996 131.132717,25.5070129 C131.721691,25.6122261 132.115485,26.1728852 132.014627,26.7626208 C131.74989,28.245348 131.376551,29.7066163 130.897627,31.1346208 C130.747604,31.5779975 130.331697,31.8764533 129.863627,31.8766339 Z M14.6476266,29.3246209 C14.3120273,29.3247751 13.9951018,29.1701862 13.7886266,28.9056208 C12.8596266,27.7146208 11.9886266,26.5236208 11.1716266,25.3476208 C10.8441868,24.8532858 10.9719624,24.1878833 11.4592126,23.8499912 C11.9464629,23.5120991 12.6144353,23.6256763 12.9626266,24.1056208 C13.7556266,25.2516208 14.6016266,26.4056208 15.5056266,27.5656208 C15.7616664,27.8936953 15.808343,28.3390067 15.6258969,28.7130423 C15.4434509,29.0870779 15.0637866,29.32443 14.6476266,29.3246209 L14.6476266,29.3246209 Z M131.369627,23.3346208 L131.349627,23.3346208 C130.74878,23.3231265 130.270593,22.8274931 130.280627,22.2266208 L130.286627,21.7266208 C130.287401,20.5025762 130.196816,19.2801809 130.015627,18.0696208 C129.925328,17.4753624 130.333868,16.9204194 130.928127,16.8301209 C131.522385,16.7398223 132.077328,17.1483624 132.167627,17.7426208 C132.367034,19.0615949 132.467315,20.3936583 132.467627,21.7276208 L132.461627,22.2656208 C132.448032,22.8587671 131.962928,23.3323204 131.369627,23.3316208 L131.369627,23.3346208 Z M9.68762659,22.1646208 C9.30886353,22.1646208 8.95720814,21.9681527 8.75862659,21.6456208 C7.95862659,20.3376208 7.22529325,19.0602874 6.55862659,17.8136208 C6.27337151,17.284532 6.4710378,16.6243759 7.00012659,16.3391208 C7.52921538,16.0538657 8.18937151,16.251532 8.47462659,16.7806208 C9.12762659,17.9906208 9.83962659,19.2366208 10.6196266,20.5066208 C10.8261279,20.8423624 10.8348919,21.2635346 10.6425359,21.6075758 C10.45018,21.9516171 10.0867905,22.1647156 9.69262659,22.1646208 L9.68762659,22.1646208 Z M130.045627,14.7726208 C129.583764,14.7726208 129.172157,14.4812186 129.018627,14.0456208 C128.562713,12.7448641 127.973232,11.4948546 127.259627,10.3156208 C127.057414,9.98354241 127.047724,9.56881036 127.234206,9.22765017 C127.420688,8.88648998 127.775012,8.67073199 128.163706,8.66165017 C128.552401,8.65256834 128.916414,8.85154241 129.118627,9.18362078 C129.912214,10.4911821 130.567098,11.8780352 131.072627,13.3216208 C131.271763,13.8888041 130.973664,14.5100681 130.406627,14.7096208 C130.290701,14.7505818 130.168574,14.7712183 130.045627,14.7706208 L130.045627,14.7726208 Z M5.54562659,14.4916209 C5.12340499,14.4918255 4.73897052,14.2483893 4.55862659,13.8666208 C3.88162659,12.4246208 3.29562659,11.0666208 2.79062659,9.80962078 C2.63218213,9.44610224 2.68386252,9.02519092 2.9255421,8.71080047 C3.16722168,8.39641002 3.56069356,8.23824211 3.95272971,8.29789139 C4.34476585,8.35754067 4.67338965,8.62557724 4.81062659,8.99762078 C5.30062659,10.2176208 5.87162659,11.5406208 6.52962659,12.9406208 C6.6881428,13.2777051 6.66319318,13.6724542 6.46349793,13.9868982 C6.26380269,14.3013422 5.91712248,14.4917685 5.54462659,14.4916209 L5.54562659,14.4916209 Z M125.513627,7.41262333 C125.223108,7.41278499 124.944659,7.29643428 124.740627,7.08962078 C123.781012,6.12193704 122.70632,5.27561733 121.540627,4.56962078 C121.207655,4.36865891 121.007188,4.00532425 121.014741,3.61648147 C121.022293,3.22763869 121.236717,2.87236227 121.577241,2.68448141 C121.917765,2.49660055 122.332655,2.50465883 122.665627,2.70562078 C123.986467,3.50297863 125.203407,4.46094507 126.288627,5.55762078 C126.598729,5.8696041 126.690459,6.33762279 126.521071,6.74358445 C126.351683,7.14954611 125.954509,7.41356896 125.514627,7.41262333 L125.513627,7.41262333 Z M2.29462659,6.39263594 C1.82546575,6.39263594 1.40910177,6.09200035 1.26162659,5.64662078 C0.774862464,4.22483217 0.361648474,2.77891698 0.0236265874,1.31462078 C-0.0569368313,0.933954283 0.0717026677,0.539223863 0.361087827,0.279120659 C0.650472986,0.019017456 1.05663931,-0.0669426625 1.42658787,0.0536206509 C1.79653642,0.174183964 2.07406322,0.482954273 2.15462659,0.863620781 C2.15462659,0.878620781 2.48962659,2.42862078 3.32862659,4.96362078 C3.51764933,5.53439725 3.20832451,6.15036101 2.63762659,6.33962078 C2.52854008,6.3753361 2.41440932,6.39323235 2.29962659,6.39263594 L2.29462659,6.39263594 Z M118.134627,2.95762078 C118.025437,2.95762078 117.916876,2.94109299 117.812627,2.90862078 C116.610092,2.54011418 115.373531,2.29353896 114.121627,2.17262078 C113.523277,2.11315522 113.086359,1.57999011 113.145627,0.981620781 C113.217204,0.389575013 113.741967,-0.04133883 114.336627,0.00362078055 C115.7334,0.140410426 117.112955,0.416790512 118.454627,0.828620781 C118.969606,0.986876127 119.291217,1.49818583 119.210859,2.03090602 C119.1305,2.56362622 118.672373,2.9573156 118.133627,2.95662078 L118.134627,2.95762078 Z" id="Path_758"></path>
            </g>
        </g>
    </g>
</svg>