<?xml version="1.0" encoding="UTF-8"?>
<svg width="186px" height="150px" viewBox="0 0 186 150" version="1.1" xmlns="http://www.w3.org/2000/svg" xmlns:xlink="http://www.w3.org/1999/xlink">
    <title>Untitled 33</title>
    <g id="Page-1" stroke="none" stroke-width="1" fill="none" fill-rule="evenodd">
        <g id="content-area-plane-bg-img" transform="translate(0.000000, 22.000000)" fill="#0370BA" fill-rule="nonzero">
            <g id="Group_2840" transform="translate(-0.000000, 72.786712)">
                <path d="M16.7550702,32.6313423 C13.7001646,32.8287676 10.8963976,30.9411032 9.93007019,28.0363423 C7.7755854,27.8547067 5.70314361,27.1260306 3.90907019,25.9193423 C0.624060721,23.897229 -0.811271349,19.8616577 0.459070188,16.2193423 C1.73207019,11.8503423 5.63807019,8.58634225 8.88107019,9.23534225 C8.75507019,7.71434225 8.80707019,5.10234225 10.2810702,3.28334225 C11.8370702,1.36834225 14.5140702,0.84734225 18.1810702,1.78334225 C19.5240007,2.10839617 20.8110928,2.63145636 22.0000702,3.33534225 C24.4328179,0.0229431073 28.9470933,-0.967431446 32.5430702,1.02234225 C35.901096,2.69959776 38.2375247,5.90081812 38.8110702,9.61034225 C40.8993208,9.57580881 42.912593,10.3881881 44.3920702,11.8623423 C46.8530702,14.1183423 47.4300702,17.3623423 46.0180702,20.9903423 C43.9330702,26.3483423 38.0950702,31.0483423 33.5230702,31.0493423 L33.5230702,31.0493423 C32.356111,31.0691137 31.2112083,30.7301806 30.2430702,30.0783423 C29.7428973,29.7380928 29.2743428,29.3535434 28.8430702,28.9293423 C26.4430702,31.0433423 22.5010702,32.3113423 17.3810702,32.6093423 C17.1700702,32.6263423 16.9600702,32.6313423 16.7550702,32.6313423 Z M11.4730702,27.9783423 C12.2320702,29.6783423 13.8810702,31.3373423 17.3020702,31.1613423 C23.2090702,30.8163423 26.3020702,29.2443423 27.9020702,27.8303423 C26.3542959,25.8092817 25.9683643,23.1289693 26.8830702,20.7533423 C27.1643131,19.8981446 27.9224422,19.288507 28.8180702,19.1973423 C29.4180702,19.1973423 30.2540702,19.5253423 30.8620702,21.0883423 C31.8119106,23.3655234 31.4272786,25.9810212 29.8620702,27.8883423 C30.2338366,28.2581285 30.6388818,28.5928765 31.0720702,28.8883423 C31.7989095,29.374663 32.6577321,29.6256766 33.5320702,29.6073423 L33.5320702,29.6073423 C37.5040702,29.6073423 42.8140702,25.2543423 44.6730702,20.4753423 C45.5070702,18.3303423 45.9670702,15.2833423 43.4190702,12.9443423 C42.2239583,11.7379131 40.5932025,11.0638385 38.8950702,11.0743423 C38.8120702,14.4823423 36.8820702,17.1923423 34.0430702,17.7803423 C32.4910702,18.1043423 31.4590702,17.4633423 31.3620702,16.2353423 C31.2050702,14.2173423 33.7980702,10.7433423 37.3830702,9.83534225 C36.8745972,6.57899883 34.8156696,3.77272646 31.8620702,2.31034225 C28.9156528,0.660372737 25.2015289,1.46495662 23.2020702,4.18634225 C25.8640702,6.36434225 26.4750702,9.20934225 25.8560702,11.1743423 C25.6353651,12.1288649 24.9305063,12.8978698 23.9987678,13.2006695 C23.0670293,13.5034691 22.0447529,13.2957547 21.3050702,12.6533423 C19.0200702,10.9833423 19.4360702,7.35334225 21.1660702,4.53534225 C20.124107,3.93478372 19.0018029,3.48592943 17.8330702,3.20234225 C14.7840702,2.42734225 12.5960702,2.76334225 11.4200702,4.21334225 C9.69707019,6.33334225 10.4660702,10.1313423 10.4750702,10.1693423 C10.533818,10.444227 10.429064,10.7283736 10.205946,10.8993452 C9.98282807,11.0703168 9.68121511,11.0975625 9.43107019,10.9693423 C8.98202966,10.7358494 8.48318815,10.6143984 7.97707019,10.6153423 C5.57707019,10.6153423 2.83007019,13.3153423 1.86207019,16.6403423 C0.801923054,19.6600422 1.97972835,23.0110105 4.69607019,24.7033423 C6.14853201,25.6774656 7.80179795,26.3118385 9.53307019,26.5593423 C9.03168741,24.1440131 9.46937288,21.6283944 10.7570702,19.5243423 C11.2033991,18.8091487 11.9737943,18.3601569 12.8160702,18.3243423 C13.6002741,18.3624614 14.3296143,18.7380716 14.8160702,19.3543423 C16.2935513,20.7831839 16.7700442,22.9587346 16.0250702,24.8743423 C15.1582421,26.6367037 13.4302697,27.8150048 11.4730702,27.9783423 L11.4730702,27.9783423 Z M28.8160702,20.6523423 C28.7220702,20.6523423 28.4480702,20.8273423 28.2010702,21.3643423 C27.5471231,23.1622218 27.8109899,25.1660413 28.9080702,26.7333423 C29.9991972,25.2550566 30.2273963,23.3100393 29.5080702,21.6193423 C29.1970702,20.8303423 28.8970702,20.6523423 28.8160702,20.6523423 Z M12.8110702,19.7703423 C12.4380386,19.8354963 12.1119576,20.060065 11.9180702,20.3853423 C10.8427271,22.2580015 10.5209183,24.4699009 11.0180702,26.5713423 C12.5655733,26.5325558 13.9702485,25.6573616 14.6870702,24.2853423 C15.2038676,22.8945265 14.8275749,21.3292753 13.7350702,20.3253423 C13.5103912,20.0278575 13.1792322,19.8289471 12.8110702,19.7703423 L12.8110702,19.7703423 Z M37.4240702,11.3253423 C34.5620702,12.2023423 32.7240702,15.0053423 32.8060702,16.1153423 C32.8190702,16.2713423 32.8290702,16.4073423 33.2530702,16.4073423 C33.4175373,16.4043096 33.581315,16.385219 33.7420702,16.3503423 C35.8240702,15.9173423 37.2600702,13.9073423 37.4230702,11.3233423 L37.4240702,11.3253423 Z M22.3490702,5.37034225 C20.8710702,7.80834225 20.7490702,10.4493423 22.1570702,11.4763423 C22.5139987,11.8485562 23.0521111,11.9843167 23.5428944,11.825972 C24.0336776,11.6676274 24.3909798,11.2429734 24.4630702,10.7323423 C24.9110702,9.31034225 24.4100702,7.10334225 22.3490702,5.37034225 Z" id="Path_723"></path>
            </g>
            <g id="Group_3833" transform="translate(36.591695, 0.000000)">
                <g id="Group_2887">
                    <path d="M8.80837559,46.9840539 C8.63864812,46.9746774 8.47071949,46.9444503 8.30837559,46.8940539 C5.45837559,45.8420539 0.780375592,11.6610539 0.308375592,7.03705391 C-0.291624408,1.10505391 0.0633755912,0.563053906 0.694375592,0.172053906 C0.729142882,0.150508109 0.765212014,0.13113765 0.802375592,0.114053906 C1.0111467,0.0124963368 1.24609545,-0.0224143233 1.47537559,0.0140539059 C1.59060762,0.0355151016 1.70124617,0.0767930909 1.80237559,0.136053906 C7.29537559,1.94505391 37.7193756,22.0250539 39.8723756,26.6170539 C40.1694784,27.1177645 40.1256776,27.7500893 39.7623756,28.2050539 C38.5043756,29.7190539 34.7623756,30.4860539 28.6283756,30.4860539 C27.8353756,30.4860539 27.3393756,30.4700539 27.3393756,30.4700539 C27.0621952,30.4605115 26.8014268,30.3362844 26.6193756,30.1270539 C19.7073756,22.1270539 9.29737559,10.3270539 4.05437559,4.86205391 C7.47737559,11.1370539 14.8493756,23.4310539 19.8993756,31.6620539 C20.090918,31.9743542 20.0951451,32.3666993 19.9103756,32.6830539 C16.1183756,39.2050539 11.1063756,46.9820539 8.80837559,46.9840539 Z M2.13837559,5.44505391 C3.05237559,15.5190539 7.38137559,40.8710539 9.06437559,44.8120539 C10.6513756,43.6280539 14.6643756,37.6920539 17.8993756,32.1900539 C8.77737559,17.3130539 4.29137559,9.56005391 2.13837559,5.44505391 Z M27.8383756,28.4890539 C28.0383756,28.4890539 28.3123756,28.4950539 28.6323756,28.4950539 C34.0123756,28.4950539 36.8843756,27.8470539 37.9123756,27.1950539 C35.7913756,24.4780539 16.0913756,10.0680539 6.26137559,4.32605391 C11.5663756,9.83905391 20.2463756,19.7110539 27.8403756,28.4900539 L27.8383756,28.4890539 Z" id="Path_754"></path>
                </g>
                <g id="Group_2888" transform="translate(15.226696, 28.795796)">
                    <path d="M4.91667924,15.6392583 C4.69048745,15.6382536 4.46689639,15.5909489 4.25967924,15.5002583 C2.52267924,14.7642583 0.836679237,10.9122583 0.106679237,9.07425833 C-0.0933207635,8.56525833 -0.0343207635,7.69025833 0.474679237,7.48625833 C0.983679237,7.28225833 1.54867924,7.33025833 1.74967924,7.84025833 C2.78567924,10.4402583 4.16567924,12.9512583 4.86467924,13.5542583 C5.83967924,12.4092583 8.77767924,6.10425833 11.0436792,0.602258333 C11.2579246,0.103003242 11.8333201,-0.131750014 12.3356653,0.0751462292 C12.8380105,0.282042473 13.0811818,0.853931252 12.8816792,1.35925833 C10.3656792,7.46925833 7.04067924,14.8882583 5.48967924,15.5262583 C5.307853,15.6008554 5.11321296,15.6392583 4.91667924,15.6392583 L4.91667924,15.6392583 Z" id="Path_755"></path>
                </g>
            </g>
            <g id="Group_3834" transform="translate(65.144288, 51.697772)">
                <path d="M73.558782,53.720282 L72.709782,53.720282 C72.1733537,53.7032611 71.7473058,53.2634802 71.7473058,52.726782 C71.7473058,52.1900837 72.1733537,51.7503028 72.709782,51.733282 L72.716782,51.733282 L73.557782,51.733282 C74.6071153,51.733282 75.636782,51.714282 76.646782,51.676282 C77.1913865,51.6684582 77.6452814,52.0914759 77.675782,52.635282 C77.6921508,53.1823861 77.2656352,53.6409908 76.718782,53.664282 C75.686782,53.7009486 74.6334486,53.7196153 73.558782,53.720282 Z M68.738782,53.595282 C68.7217927,53.5961375 68.7047712,53.5961375 68.687782,53.595282 C67.3271153,53.5286153 65.993782,53.4349486 64.687782,53.314282 C64.334089,53.2821281 64.0244171,53.0637237 63.8754167,52.7413397 C63.7264163,52.4189557 63.7607241,52.0415698 63.9654167,51.7513396 C64.1701093,51.4611095 64.514089,51.302128 64.867782,51.334282 C66.1504486,51.4529486 67.4581153,51.5456153 68.790782,51.612282 C69.3309407,51.6364067 69.7525171,52.0882654 69.739174,52.6287979 C69.7258308,53.1693305 69.2824731,53.5998381 68.741782,53.5973045 L68.738782,53.595282 Z M80.647782,53.421282 C80.116909,53.4191483 79.6814113,53.0002273 79.6586879,52.4698366 C79.6359645,51.9394459 80.0340367,51.4848125 80.562782,51.437282 C81.8961153,51.3206153 83.1931153,51.1716153 84.453782,50.990282 C84.8106284,50.9281852 85.1730045,51.0651117 85.399619,51.3476737 C85.6262336,51.6302356 85.6812088,52.0136975 85.5431097,52.3485468 C85.4050107,52.6833961 85.0957013,52.9166192 84.735782,52.957282 C83.4404486,53.1419486 82.1071153,53.2946153 80.735782,53.415282 C80.7065933,53.4190229 80.6772082,53.4210264 80.647782,53.421282 L80.647782,53.421282 Z M60.828782,52.873282 C60.7842435,52.8737817 60.739745,52.8704359 60.695782,52.863282 C59.3451153,52.683282 58.0234486,52.4776153 56.730782,52.246282 C56.3778884,52.187412 56.0838571,51.9434374 55.9608939,51.6074617 C55.8379308,51.2714861 55.9050088,50.8953497 56.1365301,50.6225908 C56.3680514,50.3498318 56.7282929,50.2225364 57.079782,50.289282 C58.3464486,50.5166153 59.639782,50.718282 60.959782,50.894282 C61.4775988,50.9644293 61.85269,51.4235337 61.8181755,51.9449391 C61.783661,52.4663446 61.3513269,52.8720014 60.828782,52.873282 L60.828782,52.873282 Z M88.506782,52.283285 C87.996622,52.2841628 87.5687979,51.8983233 87.5171661,51.390782 C87.4655342,50.8832408 87.8068956,50.4191525 88.306782,50.317282 C89.606782,50.047282 90.883782,49.737282 92.098782,49.395282 C92.6251044,49.2531595 93.167686,49.5614931 93.3149558,50.0863985 C93.4622255,50.611304 93.1592201,51.156879 92.635782,51.309282 C91.377782,51.664282 90.054782,51.985282 88.707782,52.262282 C88.6423616,52.2760904 88.5756417,52.2827959 88.508782,52.282282 L88.506782,52.283285 Z M53.014782,51.471282 C52.9400666,51.4715175 52.8655737,51.4631287 52.792782,51.446282 C51.4594486,51.1416153 50.1594486,50.8116153 48.892782,50.456282 C48.3813975,50.2945574 48.0905369,49.7562909 48.2354927,49.2399028 C48.3804485,48.7235147 48.9089399,48.4152492 49.429782,48.543282 C50.665782,48.8906153 51.9324486,49.2129486 53.229782,49.510282 C53.7205109,49.6247426 54.0479559,50.0882997 53.9918052,50.5890623 C53.9356544,51.0898249 53.5136743,51.4693487 53.009782,51.472282 L53.014782,51.471282 Z M96.149782,50.134282 C95.6670511,50.1351671 95.2536177,49.7887621 95.1699794,49.3133313 C95.086341,48.8379005 95.3567315,48.3711965 95.810782,48.207282 C97.032782,47.765282 98.242782,47.267282 99.410782,46.732282 C99.9002416,46.5403615 100.454467,46.7632053 100.674833,47.240534 C100.8952,47.7178627 100.705328,48.2842314 100.241782,48.532282 C99.025782,49.091282 97.763782,49.609282 96.490782,50.069282 C96.3819044,50.1112457 96.2664542,50.1335909 96.149782,50.135282 L96.149782,50.134282 Z M45.373782,49.3222856 C45.2650349,49.3220001 45.1570228,49.3044481 45.053782,49.270282 C43.7604486,48.8316153 42.5021153,48.368282 41.278782,47.880282 C40.9488472,47.7488082 40.7141153,47.4513034 40.6630075,47.0998346 C40.6118997,46.7483658 40.7521805,46.3963296 41.0310075,46.1763346 C41.3098345,45.9563396 41.6848472,45.9018082 42.014782,46.033282 C43.2061153,46.5086153 44.431782,46.960282 45.691782,47.388282 C46.1530517,47.5437307 46.4336414,48.0106192 46.3544243,48.4908887 C46.2752071,48.9711581 45.8595398,49.3232039 45.372782,49.3222856 L45.373782,49.3222856 Z M103.352782,46.805282 C102.902908,46.8059919 102.508642,46.504461 102.391501,46.0701052 C102.274361,45.6357494 102.463554,45.1768669 102.852782,44.951282 C103.974782,44.303282 105.068782,43.596282 106.106782,42.851282 C106.394778,42.6326137 106.778806,42.5875947 107.109568,42.733727 C107.440329,42.8798594 107.66564,43.1940878 107.697906,43.5542498 C107.730171,43.9144118 107.564302,44.2636847 107.264782,44.466282 C106.174782,45.248282 105.024782,45.989282 103.845782,46.671282 C103.696182,46.7597224 103.525569,46.8063474 103.351782,46.8062821 L103.352782,46.805282 Z M38.001782,46.3773033 C37.8569231,46.3779577 37.7137521,46.3461799 37.582782,46.284282 C36.3434486,45.706282 35.1434486,45.1046153 33.982782,44.479282 C33.5070085,44.2156056 33.331544,43.6184786 33.5890406,43.1393324 C33.8465372,42.6601862 34.4413433,42.4770082 34.923782,42.728282 C36.0524486,43.336282 37.2191153,43.921282 38.423782,44.483282 C38.847457,44.6795561 39.077154,45.1444915 38.9756078,45.6002463 C38.8740616,46.0560011 38.4687074,46.3794415 38.001782,46.3773033 L38.001782,46.3773033 Z M31.012782,42.6163007 C30.8290828,42.617091 30.6488696,42.5661462 30.492782,42.469282 C29.3281153,41.7506153 28.205782,41.0119486 27.125782,40.253282 C26.6941197,39.9320545 26.5964321,39.3256641 26.9053765,38.8851273 C27.2143209,38.4445905 27.8177199,38.3298656 28.266782,38.626282 C29.3161153,39.3596153 30.4054486,40.076282 31.534782,40.776282 C31.9131396,41.0096664 32.0905305,41.4658989 31.9692021,41.8935696 C31.8478738,42.3212404 31.4573299,42.6163522 31.012782,42.6163007 L31.012782,42.6163007 Z M109.780782,42.158282 C109.369894,42.1578756 109.001605,41.9046985 108.854061,41.5212154 C108.706516,41.1377322 108.81013,40.7029913 109.114782,40.427282 C110.070781,39.5668534 110.975344,38.6509384 111.823782,37.684282 C112.186081,37.2717252 112.814225,37.2309832 113.226782,37.593282 C113.639339,37.9555807 113.680081,38.5837252 113.317782,38.996282 C112.418182,40.01971 111.459549,40.9896965 110.446782,41.901282 C110.26467,42.0672391 110.027169,42.159282 109.780782,42.159282 L109.780782,42.158282 Z M24.512782,38.058282 C24.2878278,38.0589298 24.0695414,37.9819291 23.894782,37.840282 C22.8241153,36.988282 21.7981153,36.1216153 20.816782,35.240282 C20.5396529,35.0066819 20.4116422,34.640756 20.482719,34.2853441 C20.5537957,33.9299323 20.8126914,33.6413816 21.1583457,33.5323283 C21.504,33.4232751 21.8816127,33.5110086 22.143782,33.761282 C23.0971153,34.619282 24.0931153,35.462282 25.131782,36.290282 C25.4618201,36.5536006 25.5895001,36.9966827 25.450193,37.3952495 C25.310886,37.7938162 24.9349925,38.0608893 24.512782,38.061282 L24.512782,38.058282 Z M114.998782,36.1962908 C114.800101,36.1968817 114.605901,36.1372621 114.441782,36.025282 C113.987367,35.7175835 113.868294,35.09984 114.175782,34.645282 C114.894204,33.5849381 115.54162,32.4781834 116.113782,31.332282 C116.271872,31.0146728 116.587396,30.8055299 116.941498,30.7836354 C117.295601,30.7617408 117.634486,30.9304208 117.830498,31.2261354 C118.026511,31.5218499 118.049872,31.8996728 117.891782,32.217282 C117.280241,33.4422878 116.588399,34.6255335 115.820782,35.759282 C115.636195,36.031857 115.327974,36.1945918 114.998782,36.193282 L114.998782,36.1962908 Z M18.608782,32.744282 C18.3427645,32.7428863 18.0884305,32.6348124 17.902782,32.444282 C16.937782,31.469282 16.023782,30.482282 15.153782,29.492282 C14.7914832,29.0797252 14.8322252,28.4515807 15.244782,28.089282 C15.6573387,27.7269832 16.2854832,27.7677252 16.647782,28.180282 C17.4911153,29.1429486 18.3801153,30.0986153 19.314782,31.047282 C19.5970203,31.3320638 19.6803023,31.7586387 19.5259052,32.1286667 C19.3715082,32.4986947 19.0097297,32.7395647 18.608782,32.739282 L18.608782,32.744282 Z M118.529782,29.0993073 C118.4226,29.0998426 118.316097,29.082261 118.214782,29.047282 C117.964669,28.9638107 117.758024,28.7842921 117.640406,28.5483053 C117.522788,28.3123186 117.503855,28.039242 117.587782,27.789282 C117.99417,26.578168 118.311023,25.3388318 118.535782,24.081282 C118.637389,23.5462078 119.150665,23.1925426 119.686842,23.2881612 C120.223019,23.3837799 120.5824,23.8930697 120.492782,24.430282 C120.251018,25.783808 119.910099,27.1177345 119.472782,28.421282 C119.335111,28.8260612 118.955332,29.0985379 118.527782,29.0993073 L118.529782,29.0993073 Z M13.366782,26.7692825 C13.0605584,26.7695107 12.771322,26.6285817 12.582782,26.387282 C11.734782,25.300282 10.938782,24.213282 10.193782,23.139282 C9.89080919,22.6879255 10.006166,22.0769555 10.4528546,21.7671421 C10.8995433,21.4573286 11.5121998,21.5633647 11.828782,22.005282 C12.552782,23.051282 13.328782,24.105282 14.149782,25.163282 C14.3837422,25.4627118 14.4265186,25.8693271 14.2599914,26.2108887 C14.0934642,26.5524503 13.7467762,26.7691836 13.366782,26.7692825 L13.366782,26.7692825 Z M119.903782,21.301282 L119.885782,21.301282 C119.337563,21.2908829 118.901306,20.8385179 118.910782,20.290282 L118.915782,19.834282 C118.916617,18.7170195 118.834054,17.6012531 118.668782,16.496282 C118.585939,15.9539383 118.958438,15.4471247 119.500782,15.364282 C120.043126,15.2814392 120.549939,15.6539383 120.632782,16.196282 C120.813846,17.400143 120.904433,18.6158809 120.903788,19.833282 L120.898782,20.324282 C120.886846,20.8667922 120.444421,21.3007853 119.901782,21.302282 L119.903782,21.301282 Z M8.83978195,20.233282 C8.49420126,20.2324227 8.17355689,20.0531946 7.99178195,19.759282 C7.25844862,18.565282 6.58778195,17.3986153 5.97978195,16.259282 C5.71937969,15.7763089 5.89980894,15.1736842 6.38278195,14.913282 C6.86575496,14.6528797 7.46837969,14.8333089 7.72878195,15.316282 C8.32878195,16.416282 8.97478195,17.558282 9.68678195,18.716282 C9.87575008,19.0228897 9.88388529,19.4077818 9.70804127,19.7221004 C9.53219725,20.036419 9.19994432,20.2308826 8.83978195,20.230282 L8.83978195,20.233282 Z M118.694782,13.482282 C118.273251,13.4820179 117.897727,13.2159045 117.757782,12.818282 C117.341527,11.6326061 116.803661,10.4932013 116.152782,9.41828195 C115.968254,9.1146062 115.959753,8.73555389 116.13048,8.42391036 C116.301207,8.11226683 116.625225,7.91537814 116.98048,7.90741036 C117.335735,7.89944258 117.668254,8.0816062 117.852782,8.38528195 C118.577293,9.57875468 119.175202,10.8446185 119.636782,12.162282 C119.818592,12.6800397 119.546437,13.2471789 119.028782,13.429282 C118.921386,13.4662691 118.808353,13.4842056 118.694782,13.482282 L118.694782,13.482282 Z M5.06178195,13.226282 C4.67712251,13.2251931 4.32718463,13.0035657 4.16178195,12.656282 C3.54378195,11.340282 3.00878195,10.098282 2.54778195,8.95628195 C2.40428665,8.62464637 2.45206773,8.24126056 2.67257221,7.95499 C2.89307669,7.66871945 3.25156696,7.52466235 3.60884424,7.57875488 C3.96612152,7.6328474 4.26590143,7.87656798 4.39178195,8.21528195 C4.83978195,9.32928195 5.35978195,10.536282 5.96078195,11.815282 C6.10573116,12.1231346 6.08295717,12.4837683 5.90043215,12.770941 C5.71790714,13.0581137 5.40105131,13.2318309 5.06078195,13.2312845 L5.06178195,13.226282 Z M114.561782,6.76628195 C114.296066,6.7648431 114.042058,6.65675486 113.856782,6.46628195 C112.980513,5.5829963 111.999182,4.81055897 110.934782,4.16628195 C110.631106,3.98282608 110.448371,3.65129676 110.45541,3.29657789 C110.46245,2.94185903 110.658195,2.61784084 110.96891,2.44657787 C111.279626,2.27531489 111.658106,2.28282604 111.961782,2.46628195 C113.167243,3.19307471 114.278034,4.06639066 115.268782,5.06628195 C115.551733,5.35097291 115.635467,5.77801131 115.480979,6.14847553 C115.326491,6.51893975 114.964167,6.75996668 114.562782,6.75928195 L114.561782,6.76628195 Z M2.09478195,5.83528195 C1.66647702,5.83540638 1.28635509,5.56089626 1.15178195,5.15428195 C0.707486819,3.85655458 0.330320628,2.53680669 0.0217819506,1.20028195 C-0.0919887079,0.663185031 0.251185031,0.135552609 0.788281951,0.0217819506 C1.32537887,-0.0919887079 1.85301129,0.251185031 1.96678195,0.788281951 C1.96678195,0.802281951 2.27278195,2.21628195 3.03778195,4.52928195 C3.21031471,5.05035851 2.92782576,5.61265031 2.40678195,5.78528195 C2.30647592,5.82050224 2.20108494,5.83908078 2.09478195,5.84028195 L2.09478195,5.83528195 Z M107.827782,2.70028785 C107.728124,2.70052696 107.629002,2.68569242 107.533782,2.65628195 C106.43613,2.32018365 105.307445,2.0953847 104.164782,1.98528195 C103.618616,1.93107562 103.219748,1.44446448 103.273782,0.898281951 C103.339089,0.357870116 103.817972,-0.0355453501 104.360782,0.00528195055 C105.635785,0.130113641 106.895074,0.382373422 108.119782,0.758281951 C108.589474,0.902958072 108.882676,1.36945566 108.809355,1.85542482 C108.736034,2.34139398 108.318251,2.70062141 107.826782,2.70028785 L107.827782,2.70028785 Z" id="Path_758"></path>
            </g>
        </g>
    </g>
</svg>