<?xml version="1.0" encoding="UTF-8"?>
<svg width="95px" height="95px" viewBox="0 0 95 95" version="1.1" xmlns="http://www.w3.org/2000/svg" xmlns:xlink="http://www.w3.org/1999/xlink">
    <title>Untitled 36</title>
    <g id="Page-1" stroke="none" stroke-width="1" fill="none" fill-rule="evenodd">
        <g id="Group">
            <path d="M47.9037113,94.8091449 C28.1767113,94.7181449 15.7627113,85.2271449 8.20371132,66.2231449 C1.05271132,48.2341449 4.03471132,27.3021449 15.3247113,16.8151449 C16.8016747,15.4667511 18.4220221,14.2843535 20.1567113,13.2891449 C49.1237113,-3.61085508 93.5407113,20.2401449 94.8057113,53.4891449 C94.9567113,57.3561449 94.8367113,62.3681449 92.6267113,65.0001449 C80.2057113,79.8601449 68.4267113,96.2421449 47.9037113,94.8091449" id="Path_15771" fill="#0370BA" fill-rule="nonzero"></path>
            <path d="M3.39671132,26.1011449 C10.8707113,7.84514492 24.3207113,-0.109855085 44.7727113,0.00114491516 C64.1307113,0.110144915 82.4217113,10.7161449 87.9157113,25.1121449 C88.6124323,26.9863843 89.1016853,28.9313243 89.3747113,30.9121449 C94.1927113,64.1011449 55.4397113,96.3491449 24.1377113,85.0661449 C20.4957113,83.7581449 15.8937113,81.7661449 14.2817113,78.7341449 C5.15671132,61.6511449 -5.61828868,44.5901449 3.39671132,26.1011449" id="Path_15772" fill="#53AEEB" fill-rule="nonzero"></path>
            <path d="M31.3187113,31.4931449 L27.2387113,27.4131449 L31.3187113,31.4931449 Z" id="Path_15773" fill="#FFFFFF" fill-rule="nonzero"></path>
            <path d="M31.3187113,31.4931449 L27.2387113,27.4131449 L31.3187113,31.4931449 Z" id="Path_15774" stroke="#FFFFFF" stroke-width="0.25"></path>
            <path d="M40.2607113,40.4361449 L36.1807113,36.3561449 L40.2607113,40.4361449 Z" id="Path_15775" fill="#FFFFFF" fill-rule="nonzero"></path>
            <path d="M40.2607113,40.4361449 L36.1807113,36.3561449 L40.2607113,40.4361449 Z" id="Path_15776" stroke="#FFFFFF" stroke-width="0.25"></path>
            <path d="M42.5967113,38.1051449 L38.5177113,34.0251449 C38.195955,33.7035608 37.6744676,33.7035608 37.3527113,34.0251449 L37.3527113,34.0251449 L35.6037113,35.7731449 C35.1398266,36.2377334 34.5102413,36.4987958 33.8537113,36.4987958 C33.1971814,36.4987958 32.5675961,36.2377334 32.1037113,35.7731449 L32.1037113,35.7731449 L31.9037113,35.5731449 C31.4391228,35.1092602 31.1780605,34.4796749 31.1780605,33.8231449 C31.1780605,33.166615 31.4391228,32.5370297 31.9037113,32.0731449 L31.9037113,32.0731449 L33.6577113,30.3271449 C33.9792954,30.0053886 33.9792954,29.4839012 33.6577113,29.1621449 L33.6577113,29.1621449 L29.5737113,25.0841449 C29.251955,24.7625608 28.7304676,24.7625608 28.4087113,25.0841449 L28.4087113,25.0841449 L26.6587113,26.8321449 C23.7685152,29.7308027 23.7685152,34.4214871 26.6587113,37.3201449 L30.3587113,41.0201449 C33.2577153,43.9123358 37.9507073,43.9123358 40.8497113,41.0201449 L42.5987113,39.2721449 C42.9202954,38.9503886 42.9202954,38.4289012 42.5987113,38.1071449 L42.5987113,38.1071449 M37.9367113,35.7751449 L40.8507113,38.6901449 L40.2677113,39.2731449 L37.3587113,36.3581449 L37.9367113,35.7751449 Z M28.9927113,26.8331449 L31.9067113,29.7471449 L31.3237113,30.3311449 L28.4097113,27.4161449 L28.9927113,26.8331449 Z M31.5237113,39.8571449 L27.8237113,36.1571449 C25.7999414,34.1264549 25.5705467,30.9191845 27.2847113,28.6211449 L30.2157113,31.5521449 C29.139011,33.1869935 29.3582625,35.3531981 30.7407113,36.7391449 L30.9407113,36.9391449 C32.3268334,38.3212237 34.4927652,38.5404476 36.1277113,37.4641449 L39.0587113,40.3971449 C36.7598206,42.1100814 33.5528157,41.879429 31.5227113,39.8551449 L31.5237113,39.8571449 Z" id="Path_15777" fill="#FFFFFF" fill-rule="nonzero"></path>
            <path d="M42.6767113,46.9131449 L24.5427113,46.9131449 C23.17753,46.9125935 22.0708148,45.8063259 22.0697113,44.4411449 L22.0697113,24.6581449 C22.0697113,23.2923447 23.1769111,22.1851449 24.5427113,22.1851449 L42.6767113,22.1851449 C44.0425115,22.1851449 45.1497113,23.2923447 45.1497113,24.6581449 L45.1497113,44.4411449 C45.1486078,45.8063259 44.0418926,46.9125935 42.6767113,46.9131449 M24.5427113,23.8341449 C24.0876287,23.8341449 23.7187113,24.2030623 23.7187113,24.6581449 L23.7187113,44.4411449 C23.7187113,44.8962275 24.0876287,45.2651449 24.5427113,45.2651449 L42.6767113,45.2651449 C43.131794,45.2651449 43.5007113,44.8962275 43.5007113,44.4411449 L43.5007113,24.6581449 C43.5007113,24.2030623 43.131794,23.8341449 42.6767113,23.8341449 L24.5427113,23.8341449 Z" id="Path_15779" fill="#FFFFFF" fill-rule="nonzero"></path>
            <path d="M42.6767113,71.6421449 L24.5427113,71.6421449 C23.1769111,71.6421449 22.0697113,70.5349451 22.0697113,69.1691449 L22.0697113,51.0351449 C22.0697113,49.6693447 23.1769111,48.5621449 24.5427113,48.5621449 L42.6767113,48.5621449 C44.0425115,48.5621449 45.1497113,49.6693447 45.1497113,51.0351449 L45.1497113,69.1691449 C45.1497113,70.5349451 44.0425115,71.6421449 42.6767113,71.6421449 M24.5427113,50.2111449 C24.0876287,50.2111449 23.7187113,50.5800623 23.7187113,51.0351449 L23.7187113,69.1691449 C23.7187113,69.6242275 24.0876287,69.9931449 24.5427113,69.9931449 L42.6767113,69.9931449 C43.131794,69.9931449 43.5007113,69.6242275 43.5007113,69.1691449 L43.5007113,51.0351449 C43.5007113,50.5800623 43.131794,50.2111449 42.6767113,50.2111449 L24.5427113,50.2111449 Z" id="Path_15781" fill="#FFFFFF" fill-rule="nonzero"></path>
            <path d="M41.0277113,54.3321449 L26.1907113,54.3321449 C25.7356287,54.3321449 25.3667113,54.7010623 25.3667113,55.1561449 L25.3667113,65.0471449 C25.3667113,65.5022275 25.7356287,65.8711449 26.1907113,65.8711449 L41.0277113,65.8711449 C41.482794,65.8711449 41.8517113,65.5022275 41.8517113,65.0471449 L41.8517113,55.1561449 C41.8517113,54.7010623 41.482794,54.3321449 41.0277113,54.3321449 M33.6087113,60.6381449 L28.3607113,55.9811449 L38.8607113,55.9811449 L33.6087113,60.6381449 Z M30.5307113,60.1101449 L27.0157113,63.2181449 L27.0157113,56.9901449 L30.5307113,60.1101449 Z M31.7717113,61.2101449 L32.5137113,61.8691449 C33.1390002,62.4321106 34.0884224,62.4321106 34.7137113,61.8691449 L35.4557113,61.2101449 L38.8497113,64.2181449 L28.3667113,64.2181449 L31.7717113,61.2101449 Z M36.6947113,60.1101449 L40.2027113,56.9911449 L40.2027113,63.2201449 L36.6947113,60.1101449 Z" id="Path_15783" fill="#FFFFFF" fill-rule="nonzero"></path>
            <path d="M69.0537113,22.1851449 L50.9197113,22.1851449 C49.5539111,22.1851449 48.4467113,23.2923447 48.4467113,24.6581449 L48.4467113,44.4411449 C48.4467113,45.8069451 49.5539111,46.9141449 50.9197113,46.9141449 L55.0407113,46.9141449 L55.0407113,57.2481449 L54.0767113,55.2051449 C53.898303,54.6014809 53.4934107,54.0901699 52.9467113,53.7781449 C52.377502,53.4500361 51.7013562,53.3612021 51.0667113,53.5311449 L50.3077113,53.7311449 C49.4284159,53.9686343 48.9078594,54.8736775 49.1447113,55.7531449 C49.1537113,55.7821449 49.1617113,55.8121449 49.1717113,55.8411449 L52.6127113,65.8351449 C52.6457106,65.931774 52.6965957,66.0213318 52.7627113,66.0991449 L54.9957113,68.7371449 L55.0407113,70.8311449 C55.0499649,71.279575 55.4161858,71.6381449 55.8647113,71.6381449 L67.4047113,71.6381449 C67.859794,71.6381449 68.2287113,71.2692275 68.2287113,70.8141449 L68.2287113,68.5921449 L69.7387113,66.3271449 C69.8277803,66.1920318 69.8757195,66.0339715 69.8767113,65.8721449 L69.8767113,55.1561449 C69.8816117,54.5032841 69.6218623,53.8762779 69.1567113,53.4181449 C68.4554169,52.7267586 67.4156315,52.5072397 66.4947113,52.8561449 C66.3850185,52.4434356 66.1655815,52.0681464 65.8597113,51.7701449 C65.1580467,51.0794477 64.1186916,50.8600196 63.1977113,51.2081449 C63.0880185,50.7954356 62.8685815,50.4201464 62.5627113,50.1221449 C61.8855449,49.4520464 60.8878829,49.2220848 59.9857113,49.5281449 L59.9857113,46.9131449 L69.0527113,46.9131449 C70.4185115,46.9131449 71.5257113,45.8059451 71.5257113,44.4401449 L71.5257113,24.6581449 C71.52516,23.2929636 70.4188923,22.1862484 69.0537113,22.1851449 M60.8107113,51.0351449 C61.0328815,51.0339909 61.2455257,51.1252793 61.3977113,51.2871449 C61.5514461,51.4374891 61.637064,51.6441282 61.6347113,51.8591449 L61.6347113,57.6291449 C61.6347113,58.0845037 62.0038525,58.4536449 62.4592113,58.4536449 C62.9145701,58.4536449 63.2837113,58.0845037 63.2837113,57.6291449 L63.2837113,53.5081449 C63.2837113,53.0530623 63.6526287,52.6841449 64.1077113,52.6841449 C64.3298815,52.6829909 64.5425257,52.7742793 64.6947113,52.9361449 C64.8484461,53.0864891 64.934064,53.2931282 64.9317113,53.5081449 L64.9317113,57.6291449 C64.9317113,58.0845037 65.3008525,58.4536449 65.7562113,58.4536449 C66.2115701,58.4536449 66.5807113,58.0845037 66.5807113,57.6291449 L66.5807113,55.1561449 C66.5807113,54.7010623 66.9496287,54.3321449 67.4047113,54.3321449 C67.6268815,54.3309909 67.8395257,54.4222793 67.9917113,54.5841449 C68.1454461,54.7344891 68.231064,54.9411282 68.2287586,55.1561449 L68.2287586,65.6201449 L66.7197113,67.8811449 C66.6306423,68.016258 66.5827032,68.1743183 66.5817113,68.3361449 L66.5817113,69.9851449 L56.6717113,69.9851449 L56.6377113,68.4021449 C56.6338995,68.2147661 56.5665543,68.0342387 56.4467113,67.8901449 L54.1237113,65.1481449 L50.7397113,55.3171449 L51.4927113,55.1171449 C51.7062668,55.0599042 51.9337903,55.089378 52.1257113,55.1991449 C52.3137091,55.3066557 52.4508975,55.4848925 52.5067113,55.6941449 C52.5187113,55.7431449 55.1217113,61.2691449 55.1217113,61.2691449 C55.2857831,61.6164321 55.6680367,61.8042998 56.0432187,61.7220419 C56.4184007,61.639784 56.6869893,61.3092205 56.6907113,60.9251449 L56.6907113,44.5251449 C56.6717516,44.0741289 56.9930842,43.6801958 57.4387113,43.6081449 C57.6864241,43.5826469 57.9318839,43.673955 58.1027113,43.8551449 C58.2578145,44.0066239 58.3435591,44.2153776 58.3397113,44.4321449 L58.3397113,57.6211449 C58.355183,58.065333 58.7197539,58.4174265 59.1642113,58.4174265 C59.6086687,58.4174265 59.9732396,58.065333 59.9887113,57.6211449 L59.9887113,51.8511449 C59.9887113,51.3960623 60.3576287,51.0271449 60.8127113,51.0271449 L60.8107113,51.0351449 Z M69.8777113,44.4411449 C69.8777113,44.8962275 69.508794,45.2651449 69.0537113,45.2651449 L59.9867113,45.2651449 L59.9867113,44.4411449 C59.9916117,43.7882841 59.7318623,43.1612779 59.2667113,42.7031449 C58.7529566,42.1779874 58.0304341,41.9114471 57.2987113,41.9771449 C55.9999817,42.1202489 55.0225466,43.2266812 55.0407113,44.5331449 L55.0407113,45.2651449 L50.9197113,45.2651449 C50.4646287,45.2651449 50.0957113,44.8962275 50.0957113,44.4411449 L50.0957113,24.6581449 C50.0957113,24.2030623 50.4646287,23.8341449 50.9197113,23.8341449 L69.0537113,23.8341449 C69.508794,23.8341449 69.8777113,24.2030623 69.8777113,24.6581449 L69.8777113,44.4411449 Z" id="Path_15785" fill="#FFFFFF" fill-rule="nonzero"></path>
            <path d="M59.9867113,27.1311449 C56.3449457,27.1311449 53.3927113,30.0833793 53.3927113,33.7251449 C53.3927113,37.3669106 56.3449457,40.3191449 59.9867113,40.3191449 L63.2867113,40.3191449 C63.7420701,40.3191449 64.1112113,39.9500037 64.1112113,39.4946449 C64.1112113,39.0392861 63.7420701,38.6701449 63.2867113,38.6701449 L59.9867113,38.6701449 C57.2551109,38.6701449 55.0407113,36.4557453 55.0407113,33.7241449 C55.0407113,30.9925445 57.2551109,28.7781449 59.9867113,28.7781449 C62.7183117,28.7781449 64.9327113,30.9925445 64.9327113,33.7241449 L64.9327113,34.5481449 C64.9172396,34.992333 64.5526687,35.3444265 64.1082113,35.3444265 C63.6637539,35.3444265 63.299183,34.992333 63.2837113,34.5481449 L63.2837113,33.7201449 C63.2964642,32.1431707 62.1993757,30.7742964 60.6574763,30.4433031 C59.115577,30.1123097 57.5533329,30.9103157 56.9177416,32.3535876 C56.2821503,33.7968596 56.7481823,35.4880823 58.0333394,36.4020743 C59.3184965,37.3160663 61.0689907,37.2012168 62.2237113,36.1271449 C62.8874302,36.9273892 63.9822957,37.2244532 64.9594689,36.8694233 C65.936642,36.5143934 66.5854724,35.583804 66.5807373,34.5441449 L66.5807373,33.7201449 C66.5768522,30.0801409 63.6267159,27.130452 59.9867113,27.1271449 M59.9867113,35.3701449 C59.0759938,35.3701449 58.3377113,34.6318625 58.3377113,33.7211449 C58.3377113,32.8104274 59.0759938,32.0721449 59.9867113,32.0721449 C60.8974289,32.0721449 61.6357113,32.8104274 61.6357113,33.7211449 C61.6357113,34.6318625 60.8974289,35.3701449 59.9867113,35.3701449" id="Path_15787" fill="#FFFFFF" fill-rule="nonzero"></path>
        </g>
    </g>
</svg>