<?xml version="1.0" encoding="UTF-8"?>
<svg width="97px" height="97px" viewBox="0 0 97 97" version="1.1" xmlns="http://www.w3.org/2000/svg" xmlns:xlink="http://www.w3.org/1999/xlink">
    <title>Untitled 33</title>
    <g id="Page-1" stroke="none" stroke-width="1" fill="none" fill-rule="evenodd">
        <g id="Group" fill-rule="nonzero">
            <g id="Group_4769">
                <path d="M49.5691834,87.0960686 C29.8421834,87.0050686 17.4281834,77.5140686 9.86918342,58.5100686 C2.71818342,40.5210686 5.70018342,19.5890686 16.9901834,9.10206858 C18.4671519,7.75368099 20.0874986,6.57128394 21.8221834,5.57606858 C50.7891834,-11.3239314 95.2061834,12.5270686 96.4711834,45.7760686 C96.6221834,49.6430686 96.5021834,54.6550686 94.2921834,57.2870686 C81.8711834,72.1470686 70.0921834,88.5290686 49.5691834,87.0960686" id="Path_15652" fill="#EFD56B"></path>
                <path d="M43.5691834,96.3880686 C23.8421834,96.2970686 11.4281834,86.8060686 3.86918342,67.8020686 C-3.28181658,49.8130686 -0.29981658,28.8810686 10.9901834,18.3940686 C12.4671366,17.0456623 14.0874855,15.8632637 15.8221834,14.8680686 C44.7891834,-2.03193142 89.2061834,21.8190686 90.4711834,55.0680686 C90.6221834,58.9350686 90.5021834,63.9470686 88.2921834,66.5790686 C75.8711834,81.4390686 64.0921834,97.8210686 43.5691834,96.3880686" id="Path_15653" fill="#DEB408"></path>
            </g>
            <g id="Group_4768" transform="translate(20.999863, 23.510567)" fill="#FFFFFF">
                <path d="M22.6573202,41.2615011 L22.6573202,39.1345011 C22.6820322,37.4289225 22.4986791,35.726694 22.1113202,34.0655011 C21.0443202,30.0745011 18.7323202,27.8705011 14.3803202,26.6975011 L14.3093202,26.6785011 C14.1873202,26.6455011 14.0393202,26.6055011 13.9833202,26.5785011 C13.9118493,26.4945116 13.8482486,26.4041316 13.7933202,26.3085011 L11.0503202,21.8595011 C10.5445812,21.0365234 9.73215334,20.4486106 8.79232017,20.2255011 L8.13532017,11.7415011 C8.08950725,9.80933105 6.51003327,8.26686342 4.57732017,8.26686342 C2.64460706,8.26686342 1.06513308,9.80933105 1.01932017,11.7415011 L0.0103201652,26.7565011 L0.0103201652,26.7895011 C-0.134679835,30.7595011 1.26132017,32.0255011 3.37532017,33.9415011 L3.41632017,33.9775011 C3.68632017,34.2205011 3.99632017,34.4885011 4.33032017,34.7775011 C6.15832017,36.3405011 8.92232017,38.7025011 8.92232017,40.9775011 L8.92232017,41.2635011 C7.83058884,41.615845 7.09007816,42.6313218 7.08832017,43.7785011 L7.08832017,47.6015011 C7.09052625,49.0608939 8.27392581,50.2429512 9.73332017,50.2435011 L11.0553202,50.2435011 C11.636876,50.2435011 12.1083202,49.7720569 12.1083202,49.1905011 C12.1083202,48.6089453 11.636876,48.1375011 11.0553202,48.1375011 L9.73132017,48.1375011 C9.4330864,48.1375011 9.19132017,47.8957349 9.19132017,47.5975011 L9.19132017,43.7745011 C9.19132017,43.6312842 9.24821286,43.4939331 9.3494825,43.3926634 C9.45075215,43.2913938 9.58810326,43.2345011 9.73132017,43.2345011 L21.8463202,43.2345011 C22.1445539,43.2345011 22.3863202,43.4762673 22.3863202,43.7745011 L22.3863202,47.5975011 C22.3863202,47.8957349 22.1445539,48.1375011 21.8463202,48.1375011 L20.5143202,48.1375011 C19.9327643,48.1375011 19.4613202,48.6089453 19.4613202,49.1905011 C19.4613202,49.7720569 19.9327643,50.2435011 20.5143202,50.2435011 L21.8463202,50.2435011 C23.3053241,50.2424 24.488115,49.0605038 24.4903202,47.6015011 L24.4903202,43.7785011 C24.4887026,42.63159 23.7486561,41.6161961 22.6573202,41.2635011 L22.6573202,41.2615011 Z M20.5513202,41.1335011 L11.0263202,41.1335011 L11.0263202,40.9755011 C11.0263202,37.7295011 7.81932017,34.9865011 5.69632017,33.1755011 C5.37632017,32.9055011 5.07232017,32.6425011 4.82832017,32.4205011 L4.78832017,32.3835011 C2.82232017,30.6025011 2.00732017,29.8625011 2.11332017,26.8835011 L3.12132017,11.8835011 C3.12687742,11.0699325 3.76856055,10.4031973 4.58132017,10.3665011 C5.39477724,10.4160462 6.03008329,11.088543 6.03332017,11.9035011 L6.68832017,20.3445011 C5.66064203,20.7203117 4.85631987,21.5381591 4.4976975,22.5719608 C4.13907512,23.6057625 4.26414019,24.7460113 4.83832017,25.6775011 L9.28332017,32.8915011 C9.58845751,33.3866243 10.2371969,33.5406383 10.7323201,33.235501 C11.2274434,32.9303637 11.3814574,32.2816244 11.0763202,31.7865011 L6.63332017,24.5725011 C6.21439034,23.8495327 6.44796501,22.9244103 7.1598779,22.4869568 C7.87179079,22.0495033 8.80263452,22.2591183 9.25832017,22.9595011 L12.0003202,27.4075011 C12.3466272,28.0975417 13.0017526,28.5806177 13.7633202,28.7075011 L13.8323202,28.7265011 C18.0143202,29.8535011 19.3533202,31.8915011 20.0783202,34.6035011 C20.4173918,36.1002404 20.5771815,37.632006 20.5543202,39.1665011 L20.5543202,41.1315011 L20.5513202,41.1335011 Z" id="Path_15654"></path>
                <path d="M53.9113202,26.7895011 L53.9113202,26.7565011 L52.9003202,11.7425011 C52.8677726,9.80154826 51.2850459,8.2451396 49.3438202,8.2451396 C47.4025944,8.2451396 45.8198678,9.80154826 45.7873202,11.7425011 L45.1303202,20.2265011 C44.1905433,20.4485127 43.3779559,21.0358212 42.8723202,21.8585011 L40.1273202,26.3105011 C40.0727477,26.4061157 40.0094802,26.4964978 39.9383202,26.5805011 C39.8833202,26.6035011 39.7383202,26.6445011 39.6113202,26.6805011 L39.5423202,26.6995011 C35.1893202,27.8705011 32.8793202,30.0775011 31.8093202,34.0685011 C31.4223468,35.7297438 31.2393302,37.4319657 31.2643202,39.1375011 L31.2643202,41.2665011 C30.1725955,41.6186592 29.4323076,42.6343843 29.4313202,43.7815011 L29.4313202,47.6045011 C29.4335253,49.0635038 30.6163163,50.2454 32.0753202,50.2465011 L44.1903202,50.2465011 C45.6493241,50.2454 46.832115,49.0635038 46.8343202,47.6045011 L46.8343202,43.7815011 C46.8327026,42.63459 46.0926561,41.6191961 45.0013202,41.2665011 L45.0013202,40.9805011 C45.0013202,38.7035011 47.7643202,36.3415011 49.5933202,34.7805011 C49.9253202,34.4955011 50.2393202,34.2275011 50.5073202,33.9805011 L50.5473202,33.9445011 C52.6613202,32.0285011 54.0593202,30.7635011 53.9123202,26.7925011 L53.9113202,26.7895011 Z M44.7273202,47.5995011 C44.7273202,47.8977349 44.4855539,48.1395011 44.1873202,48.1395011 L32.0743202,48.1395011 C31.9311033,48.1395011 31.7937521,48.0826084 31.6924825,47.9813388 C31.5912129,47.8800691 31.5343202,47.742718 31.5343202,47.5995011 L31.5343202,43.7765011 C31.5343202,43.4781051 31.7759247,43.2360527 32.0743202,43.2355011 L44.1893202,43.2355011 C44.3325371,43.2355011 44.4698882,43.2923938 44.5711578,43.3936634 C44.6724275,43.4949331 44.7293202,43.6322842 44.7293202,43.7755011 L44.7293202,43.7755011 L44.7273202,47.5995011 Z M49.1273202,32.3825011 L49.0863202,32.4195011 C48.8423202,32.6405011 48.5403202,32.8995011 48.2183202,33.1735011 C46.0963202,34.9885011 42.8893202,37.7305011 42.8893202,40.9735011 L42.8893202,41.1315011 L33.3643202,41.1315011 L33.3643202,39.1665011 C33.3407933,37.6320852 33.4999117,36.1003195 33.8383202,34.6035011 C34.5633202,31.8905011 35.9033202,29.8525011 40.0853202,28.7245011 L40.1543202,28.7065011 C40.9157111,28.5797831 41.5705973,28.0966093 41.9163202,27.4065011 L44.6603202,22.9555011 C45.1054617,22.2320081 46.0528271,22.0063596 46.7763201,22.4515011 C47.4998132,22.8966426 47.7254617,23.8440081 47.2803202,24.5675011 L42.8353202,31.7815011 C42.5517112,32.2753447 42.7116708,32.905163 43.1965586,33.2038257 C43.6814464,33.5024885 44.3158862,33.3619743 44.6293202,32.8865011 L49.0743202,25.6735011 C49.6481212,24.7417728 49.7729806,23.6015521 49.4144168,22.5677255 C49.0558531,21.533899 48.2518048,20.7158529 47.2243202,20.3395011 L47.8783202,11.8985011 C47.846448,11.1031327 48.4583936,10.4292055 49.2531402,10.384431 C50.0478867,10.3396566 50.7316552,10.9405858 50.7893202,11.7345011 C50.7918226,11.7824685 50.7918226,11.8305337 50.7893202,11.8785011 L51.7973202,26.8785011 C51.9033202,29.8565011 51.0873202,30.5965011 49.1213202,32.3785011 L49.1273202,32.3825011 Z" id="Path_15655"></path>
                <path d="M39.5613202,16.0755011 C43.2154173,12.235167 43.2154173,6.20383524 39.5613202,2.3635011 C37.9907896,0.747795586 35.7982879,-0.109806917 33.5483202,0.0115011049 C31.3134911,0.116097349 29.1902886,1.01874228 27.5643202,2.5555011 L27.4533202,2.6555011 C27.2853202,2.8135011 27.1033202,2.9825011 26.9633202,3.1065011 C26.8223202,2.9845011 26.6403202,2.8145011 26.4723202,2.6555011 L26.3623202,2.5555011 C24.7363517,1.01874228 22.6131492,0.116097349 20.3783202,0.0115011049 C18.1292751,-0.110778613 15.9374328,0.746629261 14.3683202,2.3625011 C10.7105421,6.20174982 10.7105421,12.2362524 14.3683202,16.0755011 L14.3943202,16.1015011 L26.2323202,27.5155011 C26.6404552,27.9084182 27.2861851,27.9084182 27.6943202,27.5155011 L39.5343202,16.1015011 L39.5613202,16.0755011 Z M26.9613202,25.2935011 L22.1983202,20.7015011 C22.3419544,19.1860522 23.1951854,17.8283021 24.4983202,17.0415011 C26.0194449,17.9364672 27.9061954,17.9364672 29.4273202,17.0415011 C30.7315641,17.8281246 31.5850734,19.1870597 31.7273202,20.7035011 L26.9613202,25.2935011 Z M24.1963173,12.8425011 C24.1947028,11.7240736 24.8670224,10.714818 25.8997345,10.285413 C26.9324465,9.8560081 28.1221415,10.0910321 28.9139906,10.8808787 C29.7058398,11.6707254 29.9438754,12.8598214 29.5170868,13.8936175 C29.0902982,14.9274135 28.0827482,15.6022865 26.9643202,15.6035011 L26.9643202,15.6035011 C25.4388136,15.6035011 24.201527,14.3680061 24.1993202,12.8425011 M33.5073202,18.9845011 C33.0511651,17.6110729 32.1770648,16.4146044 31.0073202,15.5625011 C32.3765908,13.5309797 32.0243218,10.7986333 30.1845612,9.1808377 C28.3448007,7.56304211 25.5898397,7.56304211 23.7500791,9.1808377 C21.9103186,10.7986333 21.5580495,13.5309797 22.9273202,15.5625011 C21.7572883,16.4143168 20.8831139,17.6108867 20.4273202,18.9845011 L15.8773202,14.5975011 C13.0130416,11.5762678 13.0191974,6.8402783 15.8913202,3.8265011 C18.1803202,1.4545011 22.2373202,1.5755011 24.9323202,4.0965011 L25.0423202,4.1965011 C25.7713202,4.8775011 26.2533202,5.3275011 26.9713202,5.3275011 C27.6893202,5.3275011 28.1713202,4.8775011 28.8993202,4.1965011 L29.0093202,4.0965011 C31.7043202,1.5755011 35.7623202,1.4585011 38.0543202,3.8265011 C40.9228496,6.84202566 40.9281233,11.5755924 38.0663202,14.5975011 L33.5073202,18.9845011 Z" id="Path_15656"></path>
                <path d="M15.7813202,48.1425011 C15.1997643,48.1253803 14.714441,48.5829453 14.6973202,49.1645011 C14.6801993,49.7460569 15.1377643,50.2313803 15.7193202,50.2485011 C15.7403202,50.2485011 15.7603202,50.2485011 15.7813202,50.2485011 L15.7873202,50.2485011 C16.1635209,50.2583259 16.5163861,50.0667038 16.712995,49.7458168 C16.9096039,49.4249299 16.9200868,49.0235285 16.740495,48.6928168 C16.5609032,48.362105 16.2185209,48.1523259 15.8423202,48.1425011 C15.8223202,48.1425011 15.8013202,48.1425011 15.7813202,48.1425011" id="Path_15657"></path>
            </g>
        </g>
    </g>
</svg>