<?xml version="1.0" encoding="UTF-8"?>
<svg width="21px" height="30px" viewBox="0 0 21 30" version="1.1" xmlns="http://www.w3.org/2000/svg" xmlns:xlink="http://www.w3.org/1999/xlink">
    <title>Untitled 35</title>
    <g id="Page-1" stroke="none" stroke-width="1" fill="none" fill-rule="evenodd">
        <g id="Group" fill="#AF282C" fill-rule="nonzero">
            <path d="M10.0012245,1.16485518e-07 C6.47904777,-0.000430157022 3.21637096,1.85211262 1.41195132,4.87697609 C-0.392468316,7.90183956 -0.472513907,11.6529151 1.20122452,14.7520002 L9.45422452,29.6770002 C9.56426132,29.8760741 9.77376357,29.9996494 10.0012245,29.9996494 C10.2286855,29.9996494 10.4381877,29.8760741 10.5482245,29.6770002 L18.8042245,14.7470002 C20.4757465,11.6478089 20.394099,7.89790695 18.5892662,4.87440709 C16.7844334,1.85090723 13.522442,-0.000536198098 10.0012245,1.16485518e-07 Z M10.0012245,15.0000002 C7.23980078,15.0000002 5.00122452,12.761424 5.00122452,10.0000002 C5.00122452,7.23857648 7.23980078,5.00000023 10.0012245,5.00000023 C12.7626483,5.00000023 15.0012245,7.23857648 15.0012245,10.0000002 C14.9979184,12.7600534 12.7612777,14.9966941 10.0012245,15.0000002 Z" id="Path_1659"></path>
        </g>
    </g>
</svg>