<?xml version="1.0" encoding="UTF-8"?>
<svg width="98px" height="97px" viewBox="0 0 98 97" version="1.1" xmlns="http://www.w3.org/2000/svg" xmlns:xlink="http://www.w3.org/1999/xlink">
    <title>Untitled 36</title>
    <g id="Page-1" stroke="none" stroke-width="1" fill="none" fill-rule="evenodd">
        <g id="Group" transform="translate(1.000000, 0.000000)" fill-rule="nonzero">
            <path d="M49.5691834,87.0960686 C29.8421834,87.0050686 17.4281834,77.5140686 9.86918342,58.5100686 C2.71818342,40.5210686 5.70018342,19.5890686 16.9901834,9.10206858 C18.4671519,7.75368099 20.0874986,6.57128394 21.8221834,5.57606858 C50.7891834,-11.3239314 95.2061834,12.5270686 96.4711834,45.7760686 C96.6221834,49.6430686 96.5021834,54.6550686 94.2921834,57.2870686 C81.8711834,72.1470686 70.0921834,88.5290686 49.5691834,87.0960686" id="Path_15673" fill="#EFD56B"></path>
            <path d="M43.5691834,96.3880686 C23.8421834,96.2970686 11.4281834,86.8060686 3.86918342,67.8020686 C-3.28181658,49.8130686 -0.29981658,28.8810686 10.9901834,18.3940686 C12.4671519,17.045681 14.0874986,15.8632839 15.8221834,14.8680686 C44.7891834,-2.03193142 89.2061834,21.8190686 90.4711834,55.0680686 C90.6221834,58.9350686 90.5021834,63.9470686 88.2921834,66.5790686 C75.8711834,81.4390686 64.0921834,97.8210686 43.5691834,96.3880686" id="Path_15674" fill="#DEB408"></path>
            <path d="M67.1191834,59.9530686 L67.1191834,49.6630686 C67.1141423,44.7694164 63.8861783,40.4638361 59.1901834,39.0870686 C59.0251853,37.9314626 58.5723047,36.8358835 57.8731834,35.9010686 C58.7394984,33.1809707 57.7047319,30.2156453 55.3341834,28.6250686 C53.7967364,24.8667786 50.1392853,22.4113226 46.0786834,22.4113226 C42.0180816,22.4113226 38.3606304,24.8667786 36.8231834,28.6250686 C34.4588558,30.2203978 33.4280299,33.1825972 34.2911834,35.9010686 C33.5921108,36.8347839 33.1392079,37.9293852 32.9741834,39.0840686 C28.2781202,40.462586 25.0505528,44.7688587 25.0451834,49.6630686 L25.0451834,55.3420686 C25.0447194,56.8637864 25.6306435,58.3271639 26.6811834,59.4280686 C23.1111558,60.1399276 20.5392342,63.2717631 20.5351834,66.9120686 L20.5351834,72.5120686 C20.5351834,73.0643533 20.9828987,73.5120686 21.5351834,73.5120686 L51.6121834,73.5120686 C52.1359562,73.4774123 52.5437829,73.0436744 52.5461509,72.5187617 C52.5485189,71.9938489 52.1446222,71.5564492 51.6211834,71.5170686 L42.5721834,71.5170686 L42.5721834,66.9170686 C42.5754893,63.8078093 45.0949248,61.2879265 48.2041834,61.2840686 L52.4571834,61.2840686 C52.8432085,62.9868958 54.3566491,64.1956463 56.1026834,64.1956463 C57.8487177,64.1956463 59.3621584,62.9868958 59.7481834,61.2840686 L64.0001834,61.2840686 C67.1098326,61.2873756 69.6298765,63.8074194 69.6331834,66.9170686 L69.6331834,71.5170686 L60.5931834,71.5170686 C60.2201073,71.4890004 59.8625686,71.6715333 59.6664935,71.9901681 C59.4704183,72.3088029 59.4686073,72.7102365 59.6617997,73.0306274 C59.854992,73.3510182 60.2108693,73.5367695 60.5841834,73.5120686 L70.6321834,73.5120686 C71.1844682,73.5120686 71.6321834,73.0643533 71.6321834,72.5120686 L71.6321834,66.9120686 C71.6275564,63.9066584 69.8613333,61.1831604 67.1191834,59.9530686 M36.1681834,36.7620686 C36.4274143,36.4731464 36.4960256,36.0603089 36.3441834,35.7030686 C35.4714019,33.6641591 36.2405115,31.2940197 38.1441834,30.1560686 C38.3399674,30.0391727 38.4899209,29.8588756 38.5691834,29.6450686 C39.7265233,26.4975562 42.7241376,24.405943 46.0776834,24.405943 C49.4312293,24.405943 52.4288435,26.4975562 53.5861834,29.6450686 C53.6657016,29.8590291 53.8160249,30.0393465 54.0121834,30.1560686 C55.918386,31.2928417 56.6901462,33.6641025 55.8181834,35.7050686 C55.6663412,36.0623089 55.7349526,36.4751464 55.9941834,36.7640686 C56.4912871,37.3186434 56.8573166,37.9779066 57.0651834,38.6930686 C56.7461834,38.6650686 56.4241834,38.6500686 56.0991834,38.6500686 C54.5394004,38.6473232 52.9971284,38.9787599 51.5761834,39.6220686 C52.1970057,38.6109992 52.5251737,37.4475257 52.5241834,36.2610686 L52.5241834,33.2030686 C52.5241834,32.6507838 52.0764682,32.2030686 51.5241834,32.2030686 L48.1981834,32.2030686 C46.7880386,32.2030687 45.6447356,31.0602133 45.6441834,29.6500686 C45.6084276,29.1264081 45.1738908,28.7195092 44.6490127,28.7181937 C44.1241345,28.7168783 43.6875637,29.1215939 43.6491834,29.6450686 L43.6491834,29.6500686 C43.6494079,30.285068 43.7829554,30.9129457 44.0411834,31.4930686 C43.6312409,31.943827 43.0504742,32.2011792 42.4411834,32.2020686 L40.6331834,32.2020686 C40.0808987,32.2020686 39.6331834,32.6497838 39.6331834,33.2020686 L39.6331834,36.2530686 C39.6326395,37.4391499 39.9607809,38.6021828 40.5811834,39.6130686 C39.1595721,38.9707111 37.617183,38.6393225 36.0571834,38.6410686 C35.7321834,38.6410686 35.4101834,38.6560686 35.0931834,38.6850686 C35.3002785,37.9697974 35.6660183,37.3104404 36.1631834,36.7560686 L36.1681834,36.7620686 Z M42.4461834,34.2030686 C43.4855,34.2019908 44.4868062,33.8120985 45.2531834,33.1100686 C46.075305,33.8151723 47.1231083,34.2019334 48.2061834,34.2000686 L50.5291834,34.2000686 L50.5291834,36.2530686 C50.5588314,37.846378 49.7338441,39.3338062 48.3665155,40.1522964 C46.9991869,40.9707866 45.2984671,40.9952602 43.9081532,40.2164527 C42.5178393,39.4376452 41.650394,37.9745713 41.6341834,36.3810686 C41.6341834,36.3380686 41.6341834,36.2960686 41.6341834,36.2530686 L41.6341834,34.1990686 L42.4461834,34.2030686 Z M46.0831834,42.7030686 C46.6489189,42.7030938 47.2121603,42.628107 47.7581834,42.4800686 C47.0802544,43.2654091 46.516377,44.1423646 46.0831834,45.0850686 C45.6489285,44.142489 45.0844123,43.265587 44.4061834,42.4800686 C44.9530304,42.6270614 45.5169259,42.701037 46.0831834,42.7000686 L46.0831834,42.7030686 Z M27.0411834,49.6650686 C27.0411834,44.6820794 31.0806943,40.6425686 36.0636834,40.6425686 C41.0466726,40.6425686 45.0861834,44.6820794 45.0861834,49.6650686 L45.0861834,55.3440686 C45.0828793,57.5181481 43.321263,59.2797645 41.1471834,59.2830686 L39.8061834,59.2830686 L39.8061834,57.8470686 C41.5251347,56.6343212 42.5474015,54.6617676 42.5471834,52.5580686 L42.5471834,49.4790686 C42.5471834,48.9267838 42.0994682,48.4790686 41.5471834,48.4790686 L38.1951834,48.4790686 C36.7726303,48.4779675 35.6193885,47.3256205 35.6171834,45.9030686 C35.6185641,45.3507839 35.1719681,44.9019494 34.6196834,44.9005687 C34.0673987,44.899188 33.6185642,45.3457839 33.6171834,45.8980686 L33.6171834,45.9030686 C33.6185585,46.5432978 33.7548539,47.1760493 34.0171834,47.7600686 C33.6030732,48.2179255 33.0145328,48.4791357 32.3971834,48.4790686 L30.5821834,48.4790686 C30.0298987,48.4790686 29.5821834,48.9267838 29.5821834,49.4790686 L29.5821834,52.5530686 C29.5810019,54.658098 30.603339,56.632279 32.3231834,57.8460686 L32.3231834,59.2820686 L30.9821834,59.2820686 C28.8081039,59.2787645 27.0464875,57.5171481 27.0431834,55.3430686 L27.0411834,49.6650686 Z M31.5771834,50.4810686 L32.4011834,50.4810686 C33.4475394,50.4804 34.455724,50.0879714 35.2271834,49.3810686 C36.0539948,50.0914166 37.1081325,50.4817066 38.1981834,50.4810686 L40.5471834,50.4810686 L40.5471834,52.5530686 C40.6120271,54.1552261 39.8172043,55.6702744 38.462117,56.5275095 C37.1070298,57.3847446 35.397548,57.453932 33.977617,56.7090095 C32.557686,55.964087 31.6430271,54.5182261 31.5781834,52.9160686 C31.5728501,52.7947352 31.5728501,52.6737352 31.5781834,52.5530686 L31.5771834,50.4810686 Z M34.3181834,58.7990686 C35.4586999,59.1200255 36.665667,59.1200255 37.8061834,58.7990686 L37.8061834,60.4480686 C37.8061834,61.4112532 37.025368,62.1920686 36.0621834,62.1920686 C35.0989988,62.1920686 34.3181834,61.4112532 34.3181834,60.4480686 L34.3181834,58.7990686 Z M40.5731834,66.9110686 L40.5731834,71.5110686 L22.5331834,71.5110686 L22.5331834,66.9110686 C22.5364893,63.8018093 25.0559248,61.2819265 28.1651834,61.2780686 L32.4181834,61.2780686 C32.8033637,62.981956 34.3173015,64.191855 36.0641834,64.191855 C37.8110653,64.191855 39.3250032,62.981956 39.7101834,61.2780686 L43.0621834,61.2780686 C41.4765689,62.7215645 40.5732197,64.7668082 40.5741834,66.9110686 L40.5731834,66.9110686 Z M51.6161834,50.4810686 L53.9661834,50.4810686 C55.0562661,50.4818843 56.1104637,50.0915721 56.9371834,49.3810686 C57.7084862,50.0882233 58.7167726,50.4806914 59.7631834,50.4810686 L60.5881834,50.4810686 L60.5881834,52.5530686 C60.6566407,55.0094828 58.737309,57.0643813 56.2819397,57.163472 C53.8265705,57.2625627 51.7478921,55.3690109 51.6181834,52.9150686 C51.6131834,52.7940686 51.6131834,52.6730686 51.6181834,52.5530686 L51.6181834,50.4740686 L51.6161834,50.4810686 Z M56.1051834,62.1940686 C55.1454111,62.1907799 54.3680235,61.4138389 54.3641834,60.4540686 L54.3641834,58.8050686 C55.504828,59.125096 56.7115389,59.125096 57.8521834,58.8050686 L57.8521834,60.4530686 C57.848875,61.4169684 57.0650849,62.1958346 56.1011834,62.1930686 L56.1051834,62.1940686 Z M59.8441834,59.2810686 L59.8441834,57.8450686 C61.5622106,56.6304828 62.5832227,54.6570731 62.5821834,52.5530686 L62.5821834,49.4750686 C62.5821834,48.9227838 62.1344682,48.4750686 61.5821834,48.4750686 L59.7601834,48.4750686 C59.1428341,48.4751357 58.5542937,48.2139255 58.1401834,47.7560686 C58.4030301,47.1722191 58.5393496,46.5393559 58.5401834,45.8990686 C58.5044276,45.3754081 58.0698908,44.9685092 57.5450127,44.9671937 C57.0201345,44.9658783 56.5835637,45.3705939 56.5451834,45.8940686 L56.5451834,45.8990686 C56.5440799,47.3216872 55.3908023,48.4745172 53.9681834,48.4750686 L50.6181834,48.4750686 C50.0658987,48.4750686 49.6181834,48.9227838 49.6181834,49.4750686 L49.6181834,52.5530686 C49.6191317,54.6562093 50.6411734,56.6279556 52.3591834,57.8410686 L52.3591834,59.2770686 L47.0821834,59.2770686 L47.0821834,49.6590686 C47.0821834,44.6758033 51.1219181,40.6360686 56.1051834,40.6360686 C61.0884487,40.6360686 65.1281834,44.6758033 65.1281834,49.6590686 L65.1281834,59.2770686 L59.8441834,59.2810686 Z" id="Path_15675" fill="#FFFFFF"></path>
            <path d="M56.1011834,71.5120678 C55.6238767,71.5114895 55.2126972,71.8483145 55.1193011,72.3163948 C55.0259049,72.7844752 55.276331,73.2533104 55.7173098,73.4359569 C56.1582886,73.6186034 56.6668754,73.4641396 56.9317974,73.0671026 C57.1967194,72.6700656 57.1441165,72.1411491 56.8061834,71.8040686 C56.6190178,71.6173751 56.3655418,71.5123893 56.1011834,71.5120678" id="Path_15676" fill="#FFFFFF"></path>
        </g>
    </g>
</svg>