<?xml version="1.0" encoding="UTF-8"?>
<svg width="98px" height="97px" viewBox="0 0 98 97" version="1.1" xmlns="http://www.w3.org/2000/svg" xmlns:xlink="http://www.w3.org/1999/xlink">
    <title>Untitled 33</title>
    <g id="Page-1" stroke="none" stroke-width="1" fill="none" fill-rule="evenodd">
        <g id="Group" fill-rule="nonzero">
            <path d="M51.5111288,9.91285358 C71.2111288,8.94885358 84.1181288,17.7628536 92.6831288,36.3348536 C100.783129,53.9158536 98.9271288,74.9778536 88.2141288,86.0528536 C86.811207,87.4784828 85.2562561,88.7460512 83.5771288,89.8328536 C55.5551288,108.256854 9.92612878,86.8148536 6.88612878,53.6818536 C6.52812878,49.8278536 6.38012878,44.8168536 8.44612878,42.0708536 C20.0551288,26.5708536 30.9461288,9.57885358 51.5111288,9.91285358" id="Path_15658" fill="#AF282C"></path>
            <path d="M29.4871288,4.10285358 C47.7791288,-3.85514642 63.1351288,-0.133146424 77.8871288,14.3688536 C91.8391288,28.0998536 97.6121288,48.6868536 91.4411288,62.9928536 C90.624315,64.8426315 89.6068866,66.5971422 88.4071288,68.2248536 C68.4931288,95.6778536 17.6651288,91.7108536 2.93912878,61.4618536 C1.22412878,57.9448536 -0.708871224,53.2618536 0.259128776,49.9228536 C5.69012878,31.1038536 9.91412878,11.1408536 29.4891288,4.10285358" id="Path_15659" fill="#E57A7D"></path>
            <path d="M65.4351288,36.2058536 C62.3097494,36.2058536 59.7761288,33.672233 59.7761288,30.5468536 C59.7761288,27.4214742 62.3097494,24.8878536 65.4351288,24.8878536 C68.5605082,24.8878536 71.0941288,27.4214742 71.0941288,30.5468536 C71.0941288,33.672233 68.5605082,36.2058536 65.4351288,36.2058536 M65.4351288,26.7738536 C63.3513584,26.7738536 61.6621288,28.4630832 61.6621288,30.5468536 C61.6621288,32.6306239 63.3513584,34.3198536 65.4351288,34.3198536 C67.5188991,34.3198536 69.2081288,32.6306239 69.2081288,30.5468536 C69.2081288,28.4630832 67.5188991,26.7738536 65.4351288,26.7738536" id="Path_15660" fill="#FFFFFF"></path>
            <path d="M48.0601288,35.3038536 L23.7501288,35.3038536 C23.2271151,35.3038536 22.8031288,34.8798672 22.8031288,34.3568536 C22.8058891,31.1462604 25.4105351,28.5456435 28.6211288,28.5478536 C28.6751288,28.5478536 28.7301288,28.5478536 28.7841288,28.5478536 C30.0509657,26.4676847 32.2341227,25.1166269 34.6609864,24.9109303 C37.0878501,24.7052338 39.4672563,25.669577 41.0661288,27.5068536 C42.9836057,27.0331152 45.0124248,27.4670601 46.568341,28.6837237 C48.1242572,29.9003873 49.0345681,31.7647234 49.0371288,33.7398536 C49.0361531,33.9794387 49.0221323,34.2187931 48.9951288,34.4568536 C48.9432422,34.935321 48.5403959,35.2985713 48.0591288,35.3008536 M24.8041288,33.4068536 L47.1391288,33.4068536 C47.0336974,31.9879271 46.2688697,30.7005931 45.0731338,29.9294358 C43.8773978,29.1582784 42.389199,28.9925843 41.0531288,29.4818536 C40.6569984,29.6259442 40.2133252,29.4905586 39.9651288,29.1498536 C38.7844389,27.5201379 36.8377564,26.6261471 34.8321914,26.7926128 C32.8266265,26.9590786 31.0539737,28.1617815 30.1581288,29.9638536 C29.9771666,30.3289283 29.5825792,30.5369029 29.1791288,30.4798536 C27.1850665,30.1852047 25.2927064,31.4512477 24.8041288,33.4068536" id="Path_15661" fill="#FFFFFF"></path>
            <path d="M64.2471288,69.0878589 C64.1852949,69.0880695 64.1236138,69.0817002 64.0631288,69.0688536 C64.0041299,69.0576025 63.946479,69.0401732 63.8911288,69.0168536 C63.8341768,68.9930516 63.779601,68.9639222 63.7281288,68.9298536 C63.6769536,68.8953501 63.6290827,68.856183 63.5851288,68.8128536 C63.4989363,68.7250397 63.4309652,68.6210439 63.3851288,68.5068536 C63.3619104,68.4496603 63.3441644,68.3903954 63.3321288,68.3298536 C63.3081688,68.2083569 63.3081688,68.0833502 63.3321288,67.9618536 C63.3574083,67.8422596 63.4045299,67.7283541 63.4711288,67.6258536 C63.5050775,67.5745751 63.5442903,67.5269834 63.5881288,67.4838536 C63.6322094,67.4399665 63.6804342,67.4004489 63.7321288,67.3658536 C63.7839608,67.3326778 63.8384854,67.3039102 63.8951288,67.2798536 C63.9509942,67.2567686 64.0089192,67.2390228 64.0681288,67.2268536 C64.1895211,67.2018479 64.3147365,67.2018479 64.4361288,67.2268536 C64.4966379,67.2390201 64.5558908,67.2567625 64.6131288,67.2798536 C64.6697721,67.3039102 64.7242968,67.3326778 64.7761288,67.3658536 C64.8278234,67.4004489 64.8760482,67.4399665 64.9201288,67.4838536 C64.9639673,67.5269834 65.0031801,67.5745751 65.0371288,67.6258536 C65.1035061,67.7285839 65.1509233,67.842385 65.1771288,67.9618536 C65.202475,68.0832109 65.202475,68.2084962 65.1771288,68.3298536 C65.1650932,68.3903954 65.1473472,68.4496603 65.1241288,68.5068536 C65.0778782,68.6208276 65.0099569,68.7247472 64.9241288,68.8128536 C64.8793526,68.8556618 64.8311965,68.8947887 64.7801288,68.9298536 C64.7281896,68.9637264 64.6733005,68.9928444 64.6161288,69.0168536 C64.5009093,69.0627648 64.3781544,69.0868411 64.2541288,69.0878589" id="Path_15662" fill="#FFFFFF"></path>
            <path d="M70.1481288,63.1088536 L68.4011288,63.1088536 L68.4011288,52.6088536 L68.6831288,52.8168536 C68.9704268,53.0235351 69.3489971,53.0527674 69.664619,52.8926419 C69.980241,52.7325163 70.1802352,52.409759 70.1831288,52.0558536 L70.1831288,46.8918536 C70.1829818,46.5919383 70.0404775,46.3098985 69.7991288,46.1318536 L56.8991288,36.6508536 C56.5660115,36.4069171 56.1132461,36.4069171 55.7801288,36.6508536 L50.1151288,40.8158536 L47.5021288,38.8958536 C47.1690115,38.6519171 46.7162461,38.6519171 46.3831288,38.8958536 L43.7701288,40.8158536 L38.1031288,36.6528536 C37.7700115,36.4089171 37.3172461,36.4089171 36.9841288,36.6528536 L24.0901288,46.1248536 C23.8487462,46.3034255 23.7059908,46.5855991 23.7051288,46.8858536 L23.7051288,52.0498536 C23.7080223,52.403759 23.9080165,52.7265163 24.2236385,52.8866419 C24.5392605,53.0467674 24.9178307,53.0175351 25.2051288,52.8108536 L25.4891288,52.6028536 L25.4891288,63.1028536 L23.7451288,63.1028536 C23.2221151,63.1028536 22.7981288,63.5268399 22.7981288,64.0498536 L22.7981288,72.2358536 C22.7981288,72.7588672 23.2221151,73.1828536 23.7451288,73.1828536 L70.1451288,73.1828536 C70.6681424,73.1828536 71.0921288,72.7588672 71.0921288,72.2358536 L71.0921288,64.0498536 C71.0893759,63.5289555 70.6660338,63.1082957 70.1451288,63.1088536 M66.5121288,51.2188536 L66.5121288,63.1088536 L59.0031288,63.1088536 L59.0031288,54.8448536 L59.2861288,55.0528536 L59.3011288,55.0628536 L59.3061288,55.0628536 L59.3161288,55.0698536 L59.3211288,55.0698536 L59.3311288,55.0758536 L59.3371288,55.0758536 L59.3461288,55.0818536 L59.3521288,55.0818536 L59.3621288,55.0888536 L59.3621288,55.0888536 L59.3751288,55.0968536 L59.4081288,55.1138536 L59.4211288,55.1208536 L59.4341288,55.1268536 L59.4481288,55.1328536 C59.6663911,55.227693 59.9123396,55.2369741 60.1371288,55.1588536 L60.1851288,55.1408536 L60.2391288,55.1408536 L60.2531288,55.1338536 C60.5694413,54.9726945 60.7687485,54.6478546 60.7691288,54.2928536 L60.7691288,49.1278536 C60.7689818,48.8279383 60.6264775,48.5458985 60.3851288,48.3678536 L55.2081288,44.5678536 L56.3271288,43.7468536 L66.5121288,51.2188536 Z M49.0841288,67.1988536 L44.8081288,67.1988536 L44.8081288,61.5728536 L49.0841288,61.5728536 L49.0841288,67.1988536 Z M50.0311288,59.6858536 L43.8641288,59.6858536 C43.3411151,59.6858536 42.9171288,60.1098399 42.9171288,60.6328536 L42.9171288,67.2028536 L36.7711288,67.2028536 L36.7711288,53.4578536 L46.9421288,45.9868536 L57.1131288,53.4578536 L57.1131288,67.1988536 L50.9701288,67.1988536 L50.9701288,60.6288536 C50.9679374,60.1089595 50.5470229,59.6880449 50.0271288,59.6858536 L50.0311288,59.6858536 Z M56.3461288,38.5788536 L68.3011288,47.3598536 L68.3011288,50.1818536 L56.9011288,41.8098536 C56.5977953,41.5888367 56.1924892,41.5680417 55.8681288,41.7568536 C55.8411288,41.7728536 55.8141288,41.7908536 55.7881288,41.8098536 L53.6361288,43.3908536 L51.7201288,41.9818536 L56.3461288,38.5788536 Z M46.9461288,40.8228536 L58.9011288,49.6028536 L58.9011288,52.4268536 L58.6181288,52.2198536 L47.5021288,44.0568536 C47.4761288,44.0378536 47.4491288,44.0198536 47.4221288,44.0038536 C47.0977683,43.8150417 46.6924622,43.8358367 46.3891288,44.0568536 L35.2751288,52.2208536 L34.9931288,52.4278536 L34.9931288,49.6038536 L46.9461288,40.8228536 Z M25.5981288,47.3648536 L37.5601288,38.5818536 L42.1921288,41.9818536 L40.2701288,43.3938536 L38.1171288,41.8138536 C37.7840115,41.5699171 37.3312461,41.5699171 36.9981288,41.8138536 L25.5981288,50.1858536 L25.5981288,47.3648536 Z M27.3821288,51.2188536 L37.5541288,43.7468536 L38.6731288,44.5678536 L33.4961288,48.3678536 L33.4841288,48.3758536 C33.2917003,48.5223541 33.1628394,48.7371223 33.1241288,48.9758536 L33.1241288,49.0308536 C33.1203887,49.0640509 33.1187188,49.0974488 33.1191288,49.1308536 L33.1191288,54.2958536 C33.119509,54.6508546 33.3188162,54.9756945 33.6351288,55.1368536 L33.6501288,55.1448536 C33.9642948,55.2969569 34.336661,55.2639089 34.6191288,55.0588536 L34.9011288,54.8518536 L34.9011288,63.1148536 L27.3741288,63.1148536 L27.3821288,51.2188536 Z M34.8931288,67.1978536 L24.6901288,67.1978536 L24.6901288,64.9918536 L34.9001288,64.9918536 L34.8931288,67.1978536 Z M69.2091288,71.2908536 L24.6901288,71.2908536 L24.6901288,69.0818536 L61.1901288,69.0818536 C61.5302658,69.1184255 61.8636858,68.9687078 62.0623402,68.6901991 C62.2609947,68.4116903 62.2939977,68.0476916 62.1486747,67.7379951 C62.0033517,67.4282986 61.7022968,67.2210543 61.3611288,67.1958536 C61.3042386,67.1908506 61.247019,67.1908506 61.1901288,67.1958536 L59.0081288,67.1958536 L59.0081288,64.9918536 L69.2081288,64.9918536 L69.2091288,71.2908536 Z" id="Path_15663" fill="#FFFFFF"></path>
            <path d="M46.9491288,57.7068536 C44.6952547,57.7068536 42.8681288,55.8797276 42.8681288,53.6258536 C42.8681288,51.3719795 44.6952547,49.5448536 46.9491288,49.5448536 C49.2030028,49.5448536 51.0301288,51.3719795 51.0301288,53.6258536 C51.0301288,55.8797276 49.2030028,57.7068536 46.9491288,57.7068536 M46.9491288,51.4308536 C45.7375185,51.4336135 44.7572924,52.4175673 44.7591287,53.6291793 C44.7609702,54.8407914 45.7441785,55.8217651 46.9557916,55.8208479 C48.1674048,55.8199294 49.1491288,54.837467 49.1491288,53.6258536 C49.1463718,52.4127802 48.1622053,51.4308536 46.9491288,51.4308536" id="Path_15664" fill="#FFFFFF"></path>
        </g>
    </g>
</svg>