<?xml version="1.0" encoding="UTF-8"?>
<svg width="96px" height="97px" viewBox="0 0 96 97" version="1.1" xmlns="http://www.w3.org/2000/svg" xmlns:xlink="http://www.w3.org/1999/xlink">
    <title>Untitled 34</title>
    <g id="Page-1" stroke="none" stroke-width="1" fill="none" fill-rule="evenodd">
        <g id="Group" transform="translate(0.000289, 0.999875)" fill-rule="nonzero">
            <g id="Group_4035">
                <path d="M3.39671132,26.1021245 C10.8707113,7.84612452 24.3207113,-0.108875476 44.7727113,0.00112452433 C64.1307113,0.110124524 82.4217113,10.7161245 87.9157113,25.1121245 C88.6124323,26.9863639 89.1016853,28.931304 89.3747113,30.9121245 C94.1927113,64.1011245 55.4397113,96.3491245 24.1377113,85.0661245 C20.4967113,83.7581245 15.8937113,81.7661245 14.2817113,78.7341245 C5.15671132,61.6511245 -5.61828868,44.5901245 3.39671132,26.1011245" id="Path_15577" fill="#E57A7D"></path>
                <path d="M48.9097113,95.8111245 C29.1827113,95.7201245 16.7687113,86.2291245 9.20971132,67.2251245 C2.05871132,49.2361245 5.04071132,28.3041245 16.3307113,17.8171245 C17.8076798,16.4687369 19.4280265,15.2863399 21.1627113,14.2911245 C50.1297113,-2.60887548 94.5467113,21.2421245 95.8117113,54.4911245 C95.9627113,58.3581245 95.8427113,63.3701245 93.6327113,66.0021245 C81.2117113,80.8621245 69.4327113,97.2441245 48.9097113,95.8111245" id="Path_15578" fill="#AF282C"></path>
            </g>
            <g id="Group_4037" transform="translate(26.373711, 24.313113)" fill="#FFFFFF">
                <path d="M20.792,34.0960116 C20.2717478,34.104572 19.8430604,33.6897638 19.8345,33.1695116 C19.8259396,32.6492594 20.2407478,32.220572 20.761,32.2120116 L25.067,32.2120116 C25.575036,32.2285709 25.9783121,32.6452058 25.9783121,33.1535116 C25.9783121,33.6618174 25.575036,34.0784523 25.067,34.0950116 L20.792,34.0950116" id="Path_15511"></path>
                <path d="M20.792,33.9710116 L25.067,33.9710116 C25.5182166,33.9710116 25.884,33.6052282 25.884,33.1540116 C25.884,32.7027949 25.5182166,32.3370116 25.067,32.3370116 L20.819,32.3370116 C20.801014,32.3360067 20.782986,32.3360067 20.765,32.3370116 C20.3137834,32.3444674 19.9540442,32.7162949 19.9615,33.1675116 C19.9689558,33.6187282 20.3407834,33.9784674 20.792,33.9710116 M20.792,34.2210116 L20.792,34.2210116 C20.2027122,34.2306766 19.717165,33.7607994 19.7075,33.1715116 C19.697835,32.5822238 20.1677122,32.0966766 20.757,32.0870116 C20.778,32.0870116 20.802,32.0870116 20.824,32.0870116 L25.075,32.0870116 C25.6513008,32.1046606 26.1093389,32.5769406 26.1093389,33.1535116 C26.1093389,33.7300825 25.6513008,34.2023626 25.075,34.2200116 L20.792,34.2200116" id="Path_15512"></path>
                <path d="M1.072,39.8470116 C0.554862123,39.8459241 0.135292736,39.4281401 0.132,38.9110116 L0.132,38.9050116 C0.141889992,35.2308995 3.11788793,32.2549016 6.792,32.2450116 L6.82,32.2450116 C7.34025222,32.2367273 7.76871568,32.6517594 7.77699995,33.1720116 C7.78528422,33.6922638 7.37025222,34.1207273 6.85,34.1290116 L6.788,34.1290116 C4.15403485,34.1378035 2.0215854,36.27204 2.015,38.9060116 C2.01579677,39.1552231 1.91749302,39.3945295 1.74174254,39.5712178 C1.56599205,39.7479061 1.32721219,39.8474821 1.078,39.8480116 L1.072,39.8470116 Z" id="Path_15513"></path>
                <path d="M1.072,39.7180116 L1.072,39.7180116 C1.28823367,39.7177474 1.49547646,39.6314581 1.64800119,39.4781829 C1.80052592,39.3249077 1.88579709,39.1172439 1.885,38.9010116 C1.88940452,36.1966428 4.08063124,34.0054161 6.785,34.0010116 L6.839,34.0010116 C7.13304976,33.9946621 7.40099209,33.8307497 7.54054318,33.5718461 C7.68009426,33.3129425 7.66971321,32.9990117 7.51336285,32.7498929 C7.3570125,32.5007742 7.07882685,32.3549212 6.785,32.3680116 C3.17741844,32.3718697 0.253858085,35.29543 0.25,38.9030116 L0.25,38.9090116 C0.252746789,39.3573324 0.616671145,39.7194706 1.065,39.7200116 M1.065,39.9700116 C0.479215193,39.9689262 0.00384201287,39.4957848 0,38.9100116 L0,38.9030116 C0.00824045116,35.1607386 3.03873249,32.1284589 6.781,32.1180116 C7.37001167,32.0997862 7.86227455,32.5624999 7.88049994,33.1515116 C7.89872534,33.7405233 7.43601166,34.2327862 6.847,34.2510116 L6.781,34.2510116 C4.2194188,34.263628 2.14720563,36.3394125 2.139,38.9010116 C2.14010617,39.4888057 1.66479283,39.9663569 1.077,39.9680116 L1.065,39.9700116 Z" id="Path_15514"></path>
                <path d="M10.907,34.0960116 L6.767,34.0960116 C6.24674777,34.1042959 5.81828427,33.6892638 5.81,33.1690116 C5.80171573,32.6487594 6.21674777,32.2202959 6.737,32.2120116 L10.908,32.2120116 C11.4177864,32.2183811 11.8299901,32.6291705 11.8381117,33.138932 C11.8462332,33.6486935 11.4473247,34.0724056 10.938,34.0950116 L10.907,34.0950116" id="Path_15515"></path>
                <path d="M10.907,33.9710116 L10.939,33.9710116 C11.230886,33.9613654 11.4954536,33.7967327 11.6330428,33.5391289 C11.770632,33.2815251 11.7603396,32.9700865 11.6060428,32.7221289 C11.451746,32.4741713 11.176886,32.3273654 10.885,32.3370116 L6.795,32.3370116 C6.77701397,32.3360087 6.75898603,32.3360087 6.741,32.3370116 C6.449114,32.3466577 6.18454638,32.5112905 6.04695721,32.7688943 C5.90936803,33.026498 5.91966037,33.3379367 6.07395721,33.5858943 C6.22825404,33.8338519 6.503114,33.9806578 6.795,33.9710116 L10.907,33.9710116 M10.907,34.2210116 L6.767,34.2210116 C6.1777122,34.2306765 5.69216506,33.7607994 5.68250008,33.1715116 C5.67283509,32.5822238 6.1427122,32.0966766 6.732,32.0870116 C6.752,32.0870116 6.777,32.0870116 6.8,32.0870116 L10.908,32.0870116 C11.4863947,32.0929122 11.9547609,32.5585989 11.9639798,33.1369503 C11.9731988,33.7153016 11.5199128,34.1956795 10.942,34.2200116 L10.907,34.2200116" id="Path_15516"></path>
                <path d="M1.475,45.2800116 C0.954747788,45.288572 0.526060473,44.8737638 0.517369912,44.3535116 C0.508939646,43.8332594 0.923747789,43.404572 1.444,43.3960116 L27.059,43.3960116 C27.567036,43.4125709 27.9703121,43.8292058 27.9703121,44.3375116 C27.9703121,44.8458174 27.567036,45.2624523 27.059,45.2790116 L1.475,45.2790116" id="Path_15517"></path>
                <path d="M1.475,45.1550116 L27.059,45.1550116 C27.5102166,45.1550116 27.876,44.7892282 27.876,44.3380116 C27.876,43.8867949 27.5102166,43.5210116 27.059,43.5210116 L1.448,43.5210116 C1.15611401,43.5258347 0.888973324,43.6860107 0.747207245,43.9412029 C0.605441166,44.1963951 0.610587337,44.5078338 0.760707245,44.7582029 C0.910827153,45.0085721 1.18311401,45.1598347 1.475,45.1550116 M1.475,45.4050116 C1.09379762,45.4112637 0.738216605,45.2136719 0.542200894,44.886667 C0.346185183,44.5596622 0.339514221,44.1529241 0.524700894,43.819667 C0.709887568,43.48641 1.05879762,43.2772637 1.44,43.2710116 C1.463,43.2710116 1.484,43.2710116 1.507,43.2710116 L27.067,43.2710116 C27.6433008,43.2886606 28.1013389,43.7609406 28.1013389,44.3375116 C28.1013389,44.9140825 27.6433008,45.3863626 27.067,45.4040116 L1.475,45.4040116" id="Path_15518"></path>
                <path d="M1.073,45.2800116 C0.556024259,45.2794727 0.136296059,44.8619771 0.133,44.3450116 L0.133,39.0710116 C0.145511051,38.5608043 0.563642437,38.1542259 1.074,38.1560057 L1.106,38.1560057 C1.60129595,38.1740589 1.99849669,38.5716961 2.01600213,39.0670116 L2.01600213,44.3390116 C2.01653094,44.588223 1.91797257,44.8274238 1.74203465,45.0039244 C1.56609672,45.1804251 1.32721187,45.2797467 1.078,45.2800116 L1.073,45.2800116 Z" id="Path_15519"></path>
                <path d="M1.073,45.1550116 L1.073,45.1550116 C1.28905986,45.1547468 1.49615052,45.0685947 1.64864641,44.9155361 C1.8011423,44.7624775 1.88653102,44.555071 1.88600246,44.3390116 L1.88600246,39.0710116 C1.87202702,38.6410125 1.526981,38.2955292 1.097,38.2810116 L1.069,38.2810116 C0.628508504,38.2813101 0.267557149,38.6307606 0.253,39.0710116 L0.253,44.3470116 C0.255749489,44.7951698 0.619833342,45.1570116 1.068,45.1570116 M1.068,45.4070116 C0.483941444,45.4037333 0.0112782357,44.9310701 0.008,44.3470116 L0.008,39.0630116 C0.0248048993,38.486907 0.497653414,38.02914 1.074,38.0310059 L1.11,38.0310059 C1.67025102,38.0526418 2.1190009,38.5027 2.13900188,39.0630116 L2.13900188,44.3390116 C2.13953088,44.6213751 2.02780288,44.8923701 1.82842291,45.0923128 C1.62904294,45.2922554 1.35836389,45.4047467 1.076,45.4050116 L1.068,45.4070116 Z" id="Path_15520"></path>
                <path d="M10.939,34.0890116 L10.939,34.0890116 C10.4205341,34.0879166 10.0001981,33.668474 9.998,33.1500116 L9.998,29.5940116 C10.0105111,29.0838043 10.4286424,28.6772259 10.939,28.6790057 L10.971,28.6790057 C11.4663155,28.6965149 11.8639527,29.0937156 11.882,29.5890116 L11.882,33.1470116 C11.882,33.666258 11.4622417,34.0878091 10.943,34.0900116" id="Path_15521"></path>
                <path d="M10.939,33.9640116 L10.939,33.9640116 C11.3894351,33.9623579 11.7535544,33.5964494 11.7530006,33.1460116 L11.7530006,29.5940116 C11.7375958,29.1536418 11.3761391,28.8046079 10.9355,28.8046079 C10.4948609,28.8046079 10.1334042,29.1536418 10.118,29.5940116 L10.118,33.1470116 C10.1196526,33.5970562 10.4849523,33.9610146 10.935,33.9610116 M10.935,34.2110116 L10.935,34.2110116 C10.3492876,34.2071825 9.87572708,33.7327302 9.873,33.1470116 L9.873,29.5860116 C9.89064898,29.0097108 10.3629291,28.5516727 10.9395,28.5516727 C11.5160709,28.5516727 11.988351,29.0097108 12.006,29.5860116 L12.006,33.1470116 C12.0054487,33.7360709 11.5280593,34.2134603 10.939,34.2140116" id="Path_15522"></path>
                <path d="M20.808,34.0890116 L20.808,34.0890116 C20.2895341,34.0879166 19.8691981,33.668474 19.867,33.1500116 L19.867,29.5940116 C19.8795111,29.0838043 20.2976424,28.6772259 20.808,28.6790057 L20.839,28.6790057 C21.3343155,28.6965149 21.7319527,29.0937156 21.75,29.5890116 L21.75,33.1470116 C21.75,33.666258 21.3302417,34.0878091 20.811,34.0900116" id="Path_15523"></path>
                <path d="M20.804,33.9640116 L20.804,33.9640116 C21.0203254,33.9634822 21.2275655,33.8769705 21.3800615,33.7235367 C21.5325575,33.5701028 21.6177969,33.3623362 21.6170055,33.1460116 L21.6170055,29.5940116 C21.6024824,29.1640306 21.256999,28.8189846 20.827,28.8050116 L20.8,28.8050116 C20.3593314,28.8052921 19.9980839,29.1546012 19.983,29.5950116 L19.983,33.1470116 C19.9846526,33.5970562 20.3499523,33.9610146 20.8,33.9610116 M20.8,34.2110116 L20.8,34.2110116 C20.2146783,34.2066375 19.7417214,33.7323433 19.739,33.1470116 L19.739,29.5860116 C19.756649,29.0097108 20.2289291,28.5516727 20.8055,28.5516727 C21.3820709,28.5516727 21.854351,29.0097108 21.8720005,29.5860116 L21.8720005,33.1470116 C21.8725553,33.735131 21.3971156,34.2128071 20.809,34.2150116" id="Path_15524"></path>
                <path d="M15.782,31.5960116 L15.782,31.5960116 C8.94752135,31.5899515 3.40782027,26.0524872 3.399,19.2180116 C3.4125707,18.7078747 3.83068422,18.3017453 4.341,18.3030116 L4.373,18.3030116 C4.86829595,18.3210589 5.26549669,18.7186961 5.283,19.2140116 C5.19190293,23.024059 7.1724569,26.5843288 10.4577088,28.5161362 C13.7429608,30.4479435 17.8170392,30.4479435 21.1022912,28.5161362 C24.3875431,26.5843288 26.3680971,23.024059 26.277,19.2140116 C26.2895111,18.7038043 26.7076424,18.2972259 27.218,18.2990057 L27.25,18.2990057 C27.7452681,18.317507 28.1425046,18.7147435 28.161,19.2100116 C28.1576936,26.0465078 22.6184933,31.5888405 15.782,31.5960116" id="Path_15525"></path>
                <path d="M15.782,31.4710116 C22.5470526,31.4644006 28.0301809,25.9830617 28.039,19.2180116 C28.0240273,18.7880612 27.6789504,18.4429843 27.249,18.4280115 L27.221,18.4280115 C26.7802971,18.4277878 26.419042,18.7775324 26.405,19.2180116 C26.405,25.0843802 21.6493686,29.8400116 15.783,29.8400116 C9.91663139,29.8400116 5.161,25.0843802 5.161,19.2180116 C5.14651126,18.787851 4.80116063,18.4425003 4.371,18.4280115 L4.339,18.4280115 C3.89833144,18.4282921 3.53708392,18.7776012 3.522,19.2180116 C3.53027186,25.9844601 9.01554785,31.4666042 15.782,31.4710116 M15.782,31.7210116 L15.782,31.7210116 C8.87942725,31.7155046 3.28392322,26.1235794 3.274,19.2210116 L3.274,19.2130116 C3.29874143,18.6416773 3.76913028,18.1912176 4.341,18.1912176 C4.91286972,18.1912176 5.38325857,18.6416773 5.408,19.2130116 L5.408,19.2210116 C5.408,24.949309 10.0517026,29.5930116 15.78,29.5930116 C21.5082974,29.5930116 26.152,24.949309 26.152,19.2210116 L26.152,19.2130116 C26.1767414,18.6416773 26.6471303,18.1912176 27.219,18.1912176 C27.7908697,18.1912176 28.2612586,18.6416773 28.286,19.2130116 L28.286,19.2210116 C28.2760862,26.1204604 22.6854488,31.7110978 15.786,31.7210116" id="Path_15526"></path>
                <path d="M4.345,20.0660116 L4.345,19.9410116 L4.345,20.0660116 C3.82653599,20.0643648 3.4066468,19.6444756 3.405,19.1260116 L3.405,10.9740116 C3.3904036,10.4554025 3.79747738,10.0224118 4.316,10.0050055 L4.348,10.0050055 C4.85704753,10.0032006 5.27442129,10.408142 5.28800053,10.9170116 C5.28800053,10.9370116 5.28800053,10.9590116 5.28800053,10.9800116 L5.28800053,19.1250116 C5.28826536,19.3745803 5.18937897,19.6140328 5.01309474,19.7906921 C4.83681052,19.9673514 4.59756876,20.0667465 4.348,20.0670116" id="Path_15527"></path>
                <path d="M4.339,19.9410116 L4.339,19.9410116 C4.55549841,19.9410116 4.76310052,19.8548719 4.91600029,19.7015969 C5.06890006,19.548322 5.15453128,19.3405093 5.154,19.1240116 L5.154,10.9740116 C5.15500284,10.9560256 5.15500284,10.9379976 5.154,10.9200116 C5.14049856,10.4795274 4.77969097,10.1293448 4.339,10.1290116 L4.311,10.1290116 C4.09427796,10.1360553 3.88924542,10.2289636 3.74106687,10.3872709 C3.59288832,10.5455781 3.51371961,10.7562974 3.521,10.9730116 L3.521,19.1250116 C3.52155099,19.5748952 3.88611635,19.9394606 4.336,19.9400116 M4.336,20.1900121 L4.336,20.1900121 C3.74771981,20.1894631 3.27065222,19.7132897 3.269,19.1250116 L3.269,10.9780116 C3.25983741,10.6952513 3.36345091,10.4204458 3.55701865,10.2141236 C3.75058638,10.0078014 4.01823057,9.88688652 4.301,9.8780024 L4.337,9.8780024 C4.91376424,9.8756364 5.38678384,10.3344432 5.40200424,10.9110116 C5.40200424,10.9320116 5.40200424,10.9550116 5.40200424,10.9770116 L5.40200424,19.1230116 C5.40279773,19.4058947 5.29091295,19.6774506 5.09107129,19.8776676 C4.89122964,20.0778845 4.61988414,20.1902786 4.337,20.1900121" id="Path_15528"></path>
                <path d="M27.376,20.0810116 C26.8610301,20.0777583 26.4439047,19.6619684 26.439,19.1470116 L26.439,10.1540116 C26.4515111,9.64380427 26.8696424,9.23722593 27.38,9.23900573 L27.412,9.23900573 C27.9075059,9.25657715 28.3049787,9.65448672 28.322,10.1500116 L28.322,19.1400116 C28.3214575,19.6579273 27.9029087,20.0782628 27.385,20.0810116 L27.385,20.0810116 L27.376,20.0810116 Z" id="Path_15529"></path>
                <path d="M27.376,19.9560116 L27.376,19.9560116 C27.8254923,19.954359 28.189,19.589507 28.189,19.1400116 L28.189,10.1540116 C28.175027,9.72401254 27.829981,9.3785292 27.4,9.36401158 L27.372,9.36401158 C26.9315085,9.36431014 26.5705571,9.71376059 26.556,10.1540116 L26.556,19.1470116 C26.5576526,19.5965039 26.9225046,19.9600116 27.372,19.9600116 M27.372,20.2100116 C26.7866752,20.2061878 26.3132728,19.7323397 26.31,19.1470116 L26.31,10.1470116 C26.327649,9.57071083 26.7999291,9.11267272 27.3765,9.11267272 C27.9530709,9.11267272 28.425351,9.57071083 28.443,10.1470116 L28.443,19.1410116 C28.4413666,19.7275108 27.9674889,20.2031733 27.381,20.2070116 L27.372,20.2100116 Z" id="Path_15530"></path>
                <path d="M27.37,11.0250116 L27.37,10.9000116 L27.37,11.0250116 C26.8506903,11.0250116 26.4295519,10.604321 26.429,10.0850116 C26.4240555,7.89969097 24.6543178,6.12905953 22.469,6.12301158 C21.9487478,6.12301155 21.5270001,5.7012638 21.5270001,5.18101158 C21.5270001,4.66075937 21.9487478,4.23901158 22.469,4.23901158 C25.6939136,4.24560464 28.3072,6.85710324 28.3160021,10.0820116 C28.3165309,10.3317535 28.2177619,10.571463 28.0414489,10.7483387 C27.8651359,10.9252144 27.6257423,11.0247467 27.376,11.0250116" id="Path_15531"></path>
                <path d="M27.368,10.9000116 L27.368,10.9000116 C27.5846722,10.9000116 27.7924266,10.8137355 27.9453553,10.6602439 C28.098284,10.5067523 28.1837976,10.2986823 28.1830055,10.0820116 C28.1796929,6.92541823 25.6215934,4.36731865 22.465,4.36401158 C22.0137834,4.36401158 21.648,4.72979494 21.648,5.18101158 C21.648,5.63222823 22.0137834,5.99801158 22.465,5.99801158 C24.7197793,6.0002156 26.5472439,7.82723289 26.55,10.0820116 L26.55,10.0820116 C26.5505518,10.5322854 26.9157259,10.8970119 27.366,10.8970116 M27.366,11.1470234 L27.366,11.1470234 C27.0831981,11.1475427 26.8117971,11.0355721 26.6116381,10.8357883 C26.411479,10.6360045 26.2989995,10.364814 26.299,10.0820116 C26.2929667,7.96767359 24.5813326,6.25469951 22.467,6.24701158 L22.459,6.24701158 C21.8876657,6.22227015 21.4372061,5.75188131 21.4372061,5.18001158 C21.4372061,4.60814186 21.8876657,4.13775301 22.459,4.11301158 L22.467,4.11301158 C25.7615655,4.11905979 28.4312964,6.78744951 28.4390005,10.0820116 C28.4392693,10.3652436 28.326601,10.6368942 28.1259505,10.8367939 C27.9253001,11.0366935 27.6532291,11.1483427 27.37,11.1470234" id="Path_15532"></path>
                <path d="M22.449,6.12301158 C21.9293659,6.12246171 21.5081018,5.70164478 21.507,5.18201158 L21.507,1.09701158 C21.4912862,0.578358915 21.8983832,0.144867764 22.417,0.12800524 L22.449,0.12800524 C22.9580185,0.126159063 23.3758249,0.530215945 23.391,1.03901158 L23.391,5.18201158 C23.3904488,5.70203535 22.9690238,6.12346042 22.449,6.12401158" id="Path_15533"></path>
                <path d="M22.449,5.99801158 C22.9002166,5.99801158 23.266,5.63222823 23.266,5.18101158 L23.266,1.04201158 C23.2509161,0.601601167 22.8896686,0.252292065 22.449,0.252011585 L22.422,0.252011585 C22.2050986,0.259052025 21.9999103,0.352098876 21.851703,0.510624433 C21.7034957,0.66914999 21.6244483,0.880127433 21.632,1.09701158 L21.632,5.18201158 C21.6325518,5.63283765 21.9981736,5.99801158 22.449,5.99801158 M22.449,6.24801158 C21.8603305,6.24746143 21.3831021,5.77068035 21.382,5.18201158 L21.382,1.10001158 C21.3728344,0.81741917 21.4763116,0.542761432 21.6696649,0.336467951 C21.8630181,0.13017447 22.1304066,0.00914622655 22.413,5.77443046e-06 L22.449,5.77443046e-06 C23.0255216,-0.00187465926 23.498664,0.45574762 23.516,1.03201158 L23.516,5.17901158 C23.5154498,5.7682334 23.038221,6.24590946 22.449,6.24701158" id="Path_15534"></path>
                <path d="M4.339,11.8410116 C3.82108429,11.8404691 3.40074874,11.4219203 3.398,10.9040116 C3.40130766,4.9698827 8.20987276,0.159527704 14.144,0.154011585 L14.172,0.154011585 C14.6922522,0.145451184 15.1209396,0.56025936 15.1295,1.08051158 C15.1380604,1.60076381 14.7232522,2.02945116 14.203,2.03801158 L14.144,2.03801158 C9.25317351,2.04517119 5.2901596,6.00818509 5.283,10.8990116 C5.282452,11.4182565 4.86224254,11.83936 4.343,11.8410116 L4.339,11.8410116 Z" id="Path_15535"></path>
                <path d="M4.339,11.7160116 L4.339,11.7160116 C4.78943539,11.7149089 5.15400135,11.3494483 5.154,10.8990116 C5.161709,5.93937751 9.18036592,1.92072059 14.14,1.91301158 L14.195,1.91301158 C14.486886,1.9081885 14.7540267,1.74801246 14.8957928,1.49282024 C15.0375588,1.23762802 15.0324127,0.926189379 14.8822928,0.675820242 C14.7321728,0.425451105 14.459886,0.274188499 14.168,0.278899598 L14.14,0.278899598 C8.27842201,0.287831365 3.52995567,5.03942906 3.525,10.9010116 L3.525,10.9010116 C3.52719927,11.3502755 3.89173103,11.7134671 4.341,11.7140116 M4.341,11.9640116 C3.7542754,11.9629221 3.2782952,11.4887279 3.275,10.9020116 C3.28050331,4.902813 8.13980803,0.0394827184 14.139,0.0290102172 C14.7164476,0.0280967831 15.1900451,0.486331413 15.2081659,1.06349536 C15.2262868,1.64065931 14.7823677,2.12770069 14.206,2.16301158 L14.143,2.16301158 C9.32036315,2.16907326 5.41250967,6.07737407 5.407,10.9000116 C5.4059014,11.4879014 4.92988849,11.9643612 4.342,11.9660116 L4.341,11.9640116 Z" id="Path_15536"></path>
                <path d="M27.373,15.998014 L27.373,15.998014 C27.1233558,15.9985812 26.8838734,15.899187 26.708,15.7220116 L23.439,12.4540116 C23.0913533,12.08297 23.1008995,11.5029958 23.4605689,11.1435963 C23.8202384,10.7841969 24.4002196,10.7750863 24.771,11.1230116 L28.039,14.3900116 C28.307184,14.6596413 28.3871637,15.0639741 28.2418287,15.4154007 C28.0964938,15.7668272 27.7542903,15.9965631 27.374,15.998014" id="Path_15537"></path>
                <path d="M27.374,15.8730119 C27.7041891,15.8728453 28.0018184,15.6739446 28.1282858,15.368935 C28.2547532,15.0639254 28.1851936,14.7127756 27.952,14.4790116 L24.684,11.2110116 C24.3627014,10.9064411 23.8572754,10.9131944 23.5442291,11.2262407 C23.2311828,11.539287 23.2244295,12.044713 23.529,12.3660116 L26.797,15.6330116 C26.9496147,15.7867826 27.1573511,15.8731894 27.374,15.8730119 M27.374,16.1230116 L27.374,16.1230116 C27.0909137,16.1237531 26.8193375,16.0110166 26.62,15.8100116 L23.352,12.5470116 C22.9527715,12.1277121 22.960767,11.4665402 23.3700182,11.0570176 C23.7792695,10.6474949 24.440436,10.6390612 24.86,11.0380116 L28.128,14.3060116 C28.4317342,14.6115058 28.522193,15.0695708 28.3573891,15.467592 C28.1925851,15.8656131 27.8047892,16.1256529 27.374,16.1270116" id="Path_15538"></path>
                <path d="M15.85,14.3600116 L15.85,14.3600116 C12.9199325,14.3283763 10.0218063,13.7473264 7.306,12.6470116 L7.306,12.6470116 L7.306,12.6470116 C6.83481573,12.4352638 6.62206293,11.8835465 6.82908793,11.4102682 C7.03611293,10.9369898 7.58567491,10.7187301 8.061,10.9210116 C13.0510876,12.9949678 18.6619124,12.9949678 23.652,10.9210116 C23.7697515,10.8687556 23.8971742,10.8418401 24.026,10.8420101 C24.4726917,10.8412151 24.8585238,11.1542514 24.9498026,11.5915182 C25.0410814,12.028785 24.8127058,12.4700362 24.403,12.6480116 C21.686822,13.7481294 18.7883431,14.3288428 15.858,14.3600116 L15.85,14.3600116 Z" id="Path_15539"></path>
                <path d="M15.85,14.2350116 C18.7645032,14.2028735 21.6473285,13.6263085 24.35,12.5350116 C24.7642135,12.3546906 24.9538209,11.8727251 24.7735,11.4585116 C24.593179,11.0442981 24.1112136,10.8546906 23.697,11.0350116 C18.6765896,13.1220215 13.0314104,13.1220215 8.011,11.0350116 C7.74305081,10.9181857 7.4331297,10.9531834 7.19798095,11.1268213 C6.9628322,11.3004592 6.8381805,11.5863575 6.87098095,11.8768213 C6.90378139,12.167285 7.08905081,12.4181857 7.357,12.5350116 C10.0597323,13.6261051 12.9425188,14.2026624 15.857,14.2350116 M15.857,14.4850116 L15.857,14.4850116 C12.911948,14.4539024 9.99888094,13.8704749 7.269,12.7650116 L7.255,12.7590116 C6.80554476,12.5434809 6.56495244,12.0457045 6.67528746,11.5596081 C6.78562247,11.0735117 7.21753902,10.7283825 7.716,10.7280116 C7.85099781,10.7277812 7.98477347,10.7535856 8.11,10.8040116 C13.0707755,12.866797 18.6492245,12.866797 23.61,10.8040116 C24.146341,10.5883107 24.7569078,10.8389647 24.9869814,11.3692992 C25.217055,11.8996336 24.9829429,12.5167324 24.459,12.7610116 L24.453,12.7610116 C21.7234656,13.8664662 18.8107274,14.4498958 15.866,14.4810116 L15.857,14.4850116 Z" id="Path_15540"></path>
                <path d="M4.348,15.9860116 L4.348,15.9860116 C3.96679756,15.9859355 3.6232177,15.7561194 3.47761254,15.4038206 C3.33200738,15.0515218 3.41308276,14.6461955 3.683,14.3770116 L6.95,11.1190116 C7.32165454,10.7700955 7.90331671,10.7797071 8.26324014,11.1407122 C8.62316357,11.5017173 8.63102979,12.0834057 8.281,12.4540116 L5.014,15.7110116 C4.83813752,15.8868602 4.59969715,15.9857608 4.351,15.9860116" id="Path_15541"></path>
                <path d="M4.348,15.8610116 C4.56338695,15.8612519 4.76997785,15.7755923 4.922,15.6230116 L8.19,12.3650116 C8.48323328,12.0429725 8.47228603,11.5475252 8.16511454,11.2387524 C7.85794305,10.9299797 7.36255933,10.9164566 7.039,11.2080116 L3.771,14.4660116 C3.53374276,14.6989336 3.46130012,15.0524008 3.58780385,15.3598751 C3.71430758,15.6673495 4.01452224,15.8674948 4.347,15.8660198 L4.347,15.8660198 M4.347,16.1160126 L4.347,16.1160126 C3.91500494,16.1166016 3.5253644,15.8564128 3.36036437,15.4571697 C3.19536433,15.0579266 3.28763133,14.5985741 3.594,14.2940116 L6.861,11.0360116 C7.13091415,10.7668119 7.52394141,10.6620587 7.89203221,10.7612114 C8.26012301,10.8603641 8.5473556,11.1483591 8.64553223,11.5167114 C8.74370886,11.8850638 8.63791417,12.277812 8.368,12.5470116 L5.099,15.8000116 C4.89950563,15.9987055 4.62956169,16.1104932 4.348,16.1110116" id="Path_15542"></path>
                <path d="M13.395,35.7380116 L13.387,35.7380116 C13.2048001,35.7359165 13.0270552,35.6814127 12.875,35.5810116 L10.424,33.9470116 C9.98465752,33.6667271 9.85571555,33.0833541 10.136,32.6440116 C10.4162845,32.2046691 10.9996575,32.0757271 11.439,32.3560116 C11.4515298,32.3635549 11.4635552,32.3719059 11.475,32.3810116 L13.923,34.0120116 C14.2680516,34.2418418 14.4222772,34.6702476 14.3028932,35.0672741 C14.1835093,35.4643005 13.8185848,35.7366004 13.404,35.7380116 L13.395,35.7380116 Z" id="Path_15543"></path>
                <path d="M13.402,35.6130116 C13.7626205,35.6122793 14.0802171,35.3754763 14.1838409,35.0300638 C14.2874646,34.6846514 14.1526654,34.3121296 13.852,34.1130116 L11.401,32.4790116 L11.371,32.4590116 C10.9901997,32.2168347 10.4851769,32.3292112 10.243,32.7100116 C10.0008231,33.0908119 10.1131997,33.5958347 10.494,33.8380116 L12.944,35.4720116 C13.0777864,35.5606186 13.2345338,35.6082336 13.395,35.6090116 L13.402,35.6130116 Z M13.389,35.8630116 L13.38,35.8630116 C13.1760037,35.8590999 12.9773061,35.7973754 12.807,35.6850116 L10.357,34.0470116 C9.88940294,33.7189337 9.76273108,33.0810053 10.0695042,32.5991626 C10.3762774,32.11732 11.0078817,31.9621607 11.503,32.2470116 C11.518,32.2570116 11.532,32.2660116 11.545,32.2760116 L13.991,33.9060116 C14.3803899,34.1671311 14.5539529,34.6516715 14.4189176,35.1006408 C14.2838824,35.54961 13.8718272,35.8580157 13.403,35.8610116 L13.389,35.8630116 Z" id="Path_15544"></path>
                <path d="M13.412,35.7380117 L13.412,35.7380117 C12.9510161,35.736559 12.5586521,35.4020373 12.4843134,34.9470846 C12.4099747,34.4921318 12.6754541,34.0501193 13.112,33.9020116 L15.564,33.0860116 C15.6670173,33.0476364 15.7760672,33.0280116 15.886,33.0280116 C16.3420315,33.0291291 16.7319196,33.3564193 16.8120264,33.8053613 C16.8921331,34.2543033 16.639502,34.6962411 16.212,34.8550116 C16.1944753,34.8623532 16.1764247,34.86837 16.158,34.8730116 L13.709,35.6900116 C13.6121899,35.7218674 13.5109166,35.7380712 13.409,35.7380117" id="Path_15545"></path>
                <path d="M13.412,35.6130117 C13.4996716,35.612643 13.5867382,35.5984694 13.67,35.5710116 L16.122,34.7540116 L16.169,34.7380116 C16.5926024,34.5822673 16.8097442,34.112614 16.654,33.6890116 C16.4982557,33.2654092 16.0286024,33.0482673 15.605,33.2040116 L13.153,34.0210116 C12.7728635,34.1478449 12.5408331,34.5316662 12.6051824,34.9272033 C12.6695317,35.3227404 13.0112627,35.6132174 13.412,35.6130117 M13.412,35.8630116 L13.412,35.8630116 C12.8888585,35.8629384 12.4429263,35.4835963 12.3589771,34.9672344 C12.2750279,34.4508725 12.5778245,33.9498035 13.074,33.7840116 L15.522,32.9680116 C16.0642942,32.7998382 16.6433084,33.0857972 16.8393927,33.6186351 C17.0354771,34.1514729 16.7799461,34.7445445 16.258,34.9680116 C16.2376857,34.9757248 16.2169923,34.9824001 16.196,34.9880116 L13.749,35.8040116 C13.6403686,35.8404021 13.5265646,35.8589754 13.412,35.8590116" id="Path_15546"></path>
                <path d="M18.347,35.7370116 L18.347,35.7370116 C17.9325994,35.7351637 17.5680774,35.4627137 17.4489569,35.0657986 C17.3298364,34.6688835 17.4840985,34.2407381 17.829,34.0110116 L20.279,32.3770116 C20.4363,32.266671 20.6238589,32.2076441 20.816,32.2080094 C21.1234691,32.2073513 21.4119529,32.3566314 21.589,32.6080116 C21.8869239,33.0342292 21.7835812,33.6211794 21.358,33.9200116 L21.324,33.9430116 L18.874,35.5760116 C18.7178487,35.6798046 18.5344999,35.7351223 18.347,35.7350116" id="Path_15547"></path>
                <path d="M18.347,35.6120116 C18.5096131,35.6121129 18.6686207,35.5640974 18.804,35.4740116 L21.256,33.8400116 L21.286,33.8200116 C21.6557546,33.56099 21.7455215,33.0512662 21.4865,32.6815116 C21.2274785,32.3117569 20.7177546,32.22199 20.348,32.4810116 L17.897,34.1150116 C17.5948636,34.3133363 17.4589324,34.686606 17.5627836,35.0327765 C17.6666347,35.378947 17.9855881,35.6157514 18.347,35.6150133 M18.347,35.8650116 L18.347,35.8650116 C17.8781728,35.8620157 17.4661176,35.55361 17.3310824,35.1046408 C17.1960471,34.6556715 17.3696101,34.1711311 17.759,33.9100116 L20.208,32.2770116 C20.6912663,31.958471 21.340325,32.0828656 21.671574,32.5575113 C22.002823,33.032157 21.895691,33.6842873 21.43,34.0280116 L21.394,34.0530116 L18.939,35.6820116 C18.7614346,35.8005228 18.5524782,35.8632097 18.339,35.8620116" id="Path_15548"></path>
                <path d="M18.329,35.7380169 L18.329,35.7380169 C18.2270295,35.7377486 18.1257549,35.721207 18.029,35.6890116 L15.578,34.8720116 C15.1472407,34.7164603 14.8907764,34.2736335 14.9702266,33.8225931 C15.0496768,33.3715527 15.4420166,33.0430119 15.9,33.0440093 C15.9914046,33.0440093 16.082336,33.0571307 16.17,33.0830116 L18.625,33.9020116 C19.0642328,34.0478555 19.3324566,34.4911681 19.2578233,34.9479239 C19.18319,35.4046797 18.7878105,35.7395603 18.325,35.7380169" id="Path_15549"></path>
                <path d="M18.329,35.6130117 C18.7297373,35.6132174 19.0714683,35.3227404 19.1358176,34.9272033 C19.2001669,34.5316662 18.9681365,34.1478449 18.588,34.0210116 L16.139,33.2030116 C15.7122482,33.06441 15.2535775,33.2959057 15.1116052,33.721548 C14.9696329,34.1471903 15.1974938,34.6076774 15.622,34.7530116 L18.074,35.5710116 C18.1572618,35.5984694 18.2443284,35.612643 18.332,35.6130117 M18.332,35.8630116 L18.332,35.8630116 C18.2177443,35.8622193 18.1043367,35.843318 17.996,35.8070116 L15.538,34.9880116 C14.9846978,34.7841242 14.7013352,34.1703958 14.905,33.6170116 C15.0999677,33.087926 15.6729489,32.8018735 16.213,32.9640116 L16.22,32.9640116 L18.672,33.7820116 C19.1681755,33.9478035 19.4709721,34.4488725 19.3870229,34.9652344 C19.3030737,35.4815963 18.8571415,35.8609384 18.334,35.8610116" id="Path_15550"></path>
                <path d="M15.897,39.0280116 L15.897,39.0280116 C15.3933772,39.0076326 14.9948157,38.5948157 14.9921269,38.0907879 C14.9894651,37.5867601 15.3836219,37.1697356 15.887,37.1440116 L15.901,37.1440116 C16.1514938,37.1513223 16.3887756,37.2580389 16.5604522,37.4405977 C16.7321288,37.6231565 16.8240791,37.8665414 16.816,38.1170116 C16.7975046,38.6122797 16.4002681,39.0095162 15.905,39.0280116 L15.897,39.0280116 Z" id="Path_15551"></path>
                <path d="M15.897,38.9030242 C16.3482166,38.9030242 16.714,38.5372282 16.714,38.0860116 C16.714,37.6347949 16.3482166,37.2690116 15.897,37.2690116 L15.888,37.2690116 C15.4367834,37.2714969 15.0730148,37.639295 15.0754874,38.0905116 C15.0779853,38.5417282 15.4457834,38.9054968 15.897,38.9030242 M15.897,39.1530116 L15.889,39.1530116 C15.3174119,39.1313866 14.8643395,38.6632696 14.8613767,38.0912802 C14.8584427,37.5192908 15.3066652,37.0465279 15.878,37.0190116 L15.905,37.0190116 C16.1875934,37.0281462 16.4549819,37.1491745 16.6483351,37.355468 C16.8416884,37.5617614 16.9451656,37.8364192 16.936,38.1190116 C16.9159349,38.6800634 16.4660321,39.1304026 15.905,39.1510116 L15.897,39.1530116 Z" id="Path_15552"></path>
                <path d="M15.924,42.3470116 L15.892,42.3470116 C15.6423995,42.3402104 15.4057355,42.2344855 15.2341196,42.0531166 C15.0625037,41.8717477 14.9700083,41.6296069 14.977,41.3800116 C14.9913239,40.8840187 15.3871942,40.4837789 15.883,40.4640116 L15.925,40.4640116 C16.4347864,40.4703811 16.8469901,40.8811705 16.8551117,41.390932 C16.8632332,41.9006935 16.4643247,42.3244056 15.955,42.3470116 L15.924,42.3470116" id="Path_15553"></path>
                <path d="M15.924,42.2210116 L15.951,42.2210116 C16.2450498,42.2146621 16.5129921,42.0507497 16.6525432,41.7918461 C16.7920943,41.5329425 16.7817132,41.2190117 16.6253629,40.9698929 C16.4690125,40.7207742 16.1908269,40.5749212 15.897,40.5880116 L15.888,40.5880116 C15.4481213,40.6056434 15.1013081,40.9686334 15.1037217,41.4088587 C15.1061605,41.849084 15.4569536,42.2082293 15.897,42.2210116 L15.924,42.2210116 M15.924,42.4710116 L15.887,42.4710116 C15.6037029,42.4629177 15.3352907,42.3423437 15.1410789,42.1359351 C14.9468671,41.9295264 14.842845,41.6542763 14.852,41.3710116 C14.8688561,40.8096512 15.3168513,40.356853 15.878,40.3340116 L15.893,40.3340116 C16.2740238,40.3222218 16.632394,40.5146014 16.8331161,40.8386827 C17.0338382,41.1627641 17.0464177,41.5693116 16.8661161,41.9051827 C16.6858145,42.2410539 16.3400238,42.4552218 15.959,42.4670116 L15.924,42.4670116" id="Path_15554"></path>
                <path d="M22.475,2.03901158 L14.25,2.03901158 C13.7297478,2.03901158 13.308,1.61726382 13.308,1.09701158 C13.308,0.57675935 13.7297478,0.155011585 14.25,0.155011585 L22.45,0.155011585 C22.9603313,0.161391205 23.3729715,0.572625323 23.3810931,1.08293185 C23.3892147,1.59323838 22.9898698,2.01739534 22.48,2.04001158 L22.475,2.03901158 Z" id="Path_15555"></path>
                <path d="M22.473,1.91401158 C22.9242166,1.8990999 23.2779117,1.52122823 23.263,1.07001158 C23.2480883,0.618794944 22.8702166,0.265099896 22.419,0.280011585 L14.25,0.280011585 C13.7987834,0.280011585 13.433,0.645794944 13.433,1.09701158 C13.433,1.54822823 13.7987834,1.91401158 14.25,1.91401158 L22.473,1.91401158 L22.473,1.91401158 Z M22.473,2.16401158 L14.239,2.16401158 C13.6676657,2.13927015 13.2172061,1.66888131 13.2172061,1.09701158 C13.2172061,0.525141861 13.6676657,0.0547530142 14.239,0.0300115845 L22.444,0.0300115845 C23.023065,0.0354834416 23.4922729,0.501444962 23.5017649,1.08045806 C23.511257,1.65947116 23.0575745,2.14056203 22.479,2.16501158 L22.473,2.16401158 Z" id="Path_15556"></path>
                <path d="M33.219,47.247012 L33.19,47.247012 C28.4547629,47.2458114 24.3797289,43.8999733 23.4568555,39.2555384 C22.533982,34.6111034 25.0202791,29.9614947 29.3953307,28.1500326 C33.7703824,26.3385706 38.8157856,27.8697271 41.4461845,31.8071721 C44.0765834,35.7446171 43.5594413,40.9918162 40.211,44.3400116 C38.36046,46.2014757 35.8437945,47.2478067 33.219,47.247012 M33.187,29.2750116 C28.7613249,29.2821872 25.1784148,32.8738216 25.1819999,37.299501 C25.1855904,41.7251805 28.7743191,45.311001 33.2,45.311001 C37.6256809,45.311001 41.2144096,41.7251805 41.2180001,37.299501 C41.2215852,32.8738216 37.6386751,29.2821872 33.213,29.2750116 L33.187,29.2750116 Z" id="Path_15557"></path>
                <path d="M33.219,47.1220116 C38.634152,47.1140035 43.0175081,42.7176636 43.009511,37.3025116 C43.0014919,31.8873596 38.605152,27.5040035 33.19,27.5120006 L33.19,27.5120006 C27.7748481,27.5120006 23.3850003,31.9018597 23.3850003,37.3170116 C23.3850003,42.7321634 27.7748481,47.1220116 33.19,47.1220116 L33.22,47.1220116 M33.187,29.1470116 L33.213,29.1470116 C37.6915475,29.2029278 41.2908062,32.8529841 41.2839654,37.3318754 C41.2771051,41.8107667 37.6666976,45.4497956 33.188,45.4920116 L33.188,45.4920116 C28.7097158,45.4424733 25.1054033,41.7980698 25.1054033,37.3195116 C25.1054033,32.8409534 28.7097158,29.1965499 33.188,29.1470116 M33.22,47.3690117 L33.191,47.3690117 C28.3955522,47.3683794 24.26832,43.9804309 23.3332665,39.2770284 C22.398213,34.5736259 24.9157516,29.8646728 29.3463097,28.0298771 C33.7768677,26.1950813 38.8865293,27.7454358 41.5505376,31.7328385 C44.2145458,35.7202412 43.6909712,41.0341954 40.3,44.4250116 C38.4261136,46.3098707 35.8778458,47.3694894 33.22,47.3690117 M33.188,29.3970116 C28.8308083,29.4041871 25.3034149,32.9403047 25.3069999,37.2975009 C25.3105904,41.654697 28.8438024,45.1850009 33.201,45.1850009 C37.5581976,45.1850009 41.0914096,41.654697 41.0950001,37.2975009 C41.0985851,32.9403047 37.5711917,29.4041871 33.214,29.3970116 L33.188,29.3970116 Z" id="Path_15558"></path>
                <path d="M29.078,38.2050116 C28.5577478,38.2132959 28.1292843,37.7982638 28.121,37.2780116 C28.1127157,36.7577594 28.5277478,36.3292959 29.048,36.3210116 L37.275,36.3210116 C37.783036,36.3375709 38.1863121,36.7542058 38.1863121,37.2625116 C38.1863121,37.7708174 37.783036,38.1874523 37.275,38.2040116 L29.075,38.2040116" id="Path_15559"></path>
                <path d="M29.078,38.0800116 L37.278,38.0800116 C37.7292166,38.0800116 38.095,37.7142282 38.095,37.2630116 C38.095,36.8117949 37.7292166,36.4460116 37.278,36.4460116 L29.052,36.4460116 C28.6007834,36.4531913 28.2408203,36.8247949 28.248,37.2760116 C28.2551797,37.7272282 28.6267834,38.0871913 29.078,38.0800116 M29.078,38.3300116 L29.078,38.3300116 C28.4887122,38.3394004 28.0033889,37.8692994 27.994,37.2800116 C27.9846112,36.6907238 28.4547122,36.2054004 29.044,36.1960116 L37.283,36.1960116 C37.8713771,36.2155813 38.3329644,36.7075832 38.315,37.2960116 C38.2948719,37.8572534 37.844261,38.3074276 37.283,38.3270116 L29.078,38.3270116" id="Path_15560"></path>
                <path d="M33.139,42.347031 L33.139,42.347031 C32.6210217,42.347031 32.2006531,41.9279873 32.199,41.4100116 L32.199,33.2340116 C32.2115111,32.7238043 32.6296424,32.3172259 33.14,32.3190057 L33.172,32.3190057 C33.667296,32.3370589 34.0644967,32.7346961 34.082,33.2300116 L34.082,41.4020116 C34.0841477,41.6529461 33.9855508,41.8942559 33.8082949,42.0718878 C33.6310389,42.2495197 33.3899385,42.3486277 33.139,42.347031" id="Path_15561"></path>
                <path d="M33.132,42.2190122 L33.139,42.2190122 C33.3551516,42.2184818 33.5622397,42.1321075 33.714707,41.9788901 C33.8671742,41.8256728 33.9525311,41.6181632 33.9520025,41.4020116 L33.9520025,33.2340116 C33.938027,32.8040125 33.592981,32.4585292 33.163,32.4440115 L33.139,32.4440115 C32.6982971,32.4437878 32.337042,32.7935324 32.323,33.2340116 L32.323,41.4070116 C32.3232651,41.6226326 32.4091745,41.8293171 32.5618291,41.9815967 C32.7144838,42.1338763 32.9213789,42.219277 33.137,42.2190122 M33.143,42.4690286 L33.143,42.4690286 C32.5552059,42.4701178 32.0776547,41.9948044 32.076,41.4070116 L32.076,33.2260116 C32.093649,32.6497108 32.5659291,32.1916727 33.1425,32.1916727 C33.7190709,32.1916727 34.191351,32.6497108 34.2090043,33.2260116 L34.2090043,41.4020116 C34.2098046,41.6857642 34.0972346,41.9580833 33.896309,42.1584456 C33.6953833,42.3588079 33.4227492,42.4706128 33.139,42.4690286" id="Path_15562"></path>
                <path d="M13.158,20.9400116 C11.8630252,20.9383588 10.8136528,19.8889864 10.812,18.5940116 C10.8264748,18.096716 11.2247912,17.696211 11.722,17.6790116 L11.754,17.6790116 C12.2628437,17.6771734 12.6803563,18.0813753 12.695,18.5900116 C12.6862107,18.7603002 12.7717318,18.9216375 12.9175978,19.009947 C13.0634638,19.0982565 13.2460634,19.0992435 13.3928755,19.0125161 C13.5396876,18.9257886 13.6269479,18.7653852 13.62,18.5950116 C13.62,18.0747594 14.0417478,17.6530116 14.562,17.6530116 C15.0822522,17.6530116 15.504,18.0747594 15.504,18.5950116 C15.5023472,19.8899864 14.4529748,20.9393588 13.158,20.9410116" id="Path_15563"></path>
                <path d="M14.563,17.7760116 C14.3461448,17.7760116 14.1381859,17.8622252 13.9849399,18.0156588 C13.8316939,18.1690924 13.7457346,18.3771565 13.746,18.5940116 C13.746,18.918755 13.4827434,19.1820116 13.158,19.1820116 C12.8332566,19.1820116 12.57,18.918755 12.57,18.5940116 C12.5546054,18.1541873 12.1935936,17.8055904 11.7535,17.8055904 C11.3134064,17.8055904 10.9523946,18.1541873 10.937,18.5940116 C10.9626425,19.8025476 11.949692,20.7688761 13.1585,20.7688761 C14.367308,20.7688761 15.3543575,19.8025476 15.3800006,18.5940116 C15.3802654,18.3771565 15.2943061,18.1690924 15.1410601,18.0156588 C14.9878141,17.8622252 14.7798552,17.7760116 14.563,17.7760116 M14.563,17.5260116 C15.152221,17.5271137 15.6294498,18.0047898 15.63,18.5940116 C15.6029319,19.9396106 14.5043712,21.0162949 13.1585,21.0162949 C11.8126288,21.0162949 10.7140681,19.9396106 10.687,18.5940116 L10.687,18.5860116 C10.7061011,18.0245409 11.1565481,17.573657 11.718,17.5540116 L11.754,17.5540116 C12.3303466,17.55214 12.8031951,18.009907 12.82,18.5860116 L12.82,18.5950116 C12.82,18.7816838 12.9713278,18.9330116 13.158,18.9330116 C13.3446722,18.9330116 13.496,18.7816838 13.496,18.5950116 C13.4959997,18.0055618 13.9735504,17.5275635 14.563,17.5270116" id="Path_15564"></path>
                <path d="M20.228,20.9400116 L20.228,20.9400116 C18.9335451,20.9367165 17.8848467,19.888465 17.881,18.5940116 L17.881,18.5340116 C17.8967055,18.025609 18.3143583,17.622144 18.823,17.6240051 L18.855,17.6240051 C19.104794,17.632096 19.3411108,17.7392193 19.5118261,17.9217534 C19.6825414,18.1042874 19.7736298,18.3472359 19.765,18.5970116 C19.765,18.8527194 19.9722922,19.0600116 20.228,19.0600116 C20.4837078,19.0600116 20.691,18.8527194 20.691,18.5970116 C20.6899994,18.5770241 20.6899994,18.5569991 20.691,18.5370116 C20.7061748,18.0287683 21.1235336,17.6251589 21.632,17.6270116 L21.664,17.6270116 C22.1838852,17.6449412 22.5912896,18.0800724 22.575,18.6000116 C22.56896,19.8929025 21.5209008,20.9387289 20.228,20.9420116" id="Path_15565"></path>
                <path d="M20.228,20.8150116 C21.4541019,20.8133604 22.4477969,19.8201126 22.45,18.5940116 C22.4598248,18.3021256 22.313184,18.0271703 22.0653157,17.8727188 C21.8174474,17.7182673 21.506,17.7077843 21.2483157,17.8452188 C20.9906226,17.9826533 20.8258248,18.2471256 20.816,18.5390116 C20.8149909,18.557331 20.8149909,18.5756921 20.816,18.5940116 C20.816,18.918755 20.5527434,19.1820116 20.228,19.1820116 C19.9032566,19.1820116 19.64,18.918755 19.64,18.5940116 C19.6475517,18.3771274 19.5685043,18.16615 19.420297,18.0076244 C19.2720897,17.8490989 19.0669014,17.756052 18.85,17.7490116 L18.822,17.7490116 C18.3817193,17.7498301 18.02107,18.0989882 18.006,18.5390116 L18.006,18.5940116 C18.0082031,19.8201126 19.0018981,20.8133604 20.228,20.8150116 M20.228,21.0650116 L20.228,21.0650116 C18.8666808,21.0606344 17.7635827,19.9593219 17.757,18.5980116 C17.757,18.5750116 17.757,18.5530116 17.757,18.5290116 C17.7748658,17.9536929 18.2474072,17.4971098 18.823,17.4990057 L18.86,17.4990057 C19.1425934,17.5081462 19.4099819,17.6291745 19.6033351,17.835468 C19.7966884,18.0417614 19.9001656,18.3164192 19.891,18.5990116 C19.891,18.7856838 20.0423278,18.9370116 20.229,18.9370116 C20.4156722,18.9370116 20.567,18.7856838 20.567,18.5990116 C20.567,18.5770116 20.567,18.5540116 20.567,18.5320116 C20.6023109,17.9556439 21.0893523,17.5117247 21.6665162,17.5298456 C22.2436802,17.5479665 22.7019148,18.021564 22.7010014,18.5990116 C22.6949614,19.9611012 21.5910976,21.0631788 20.229,21.0670116" id="Path_15566"></path>
            </g>
        </g>
    </g>
</svg>