<?xml version="1.0" encoding="UTF-8"?>
<svg width="95px" height="95px" viewBox="0 0 95 95" version="1.1" xmlns="http://www.w3.org/2000/svg" xmlns:xlink="http://www.w3.org/1999/xlink">
    <title>Untitled 33</title>
    <g id="Page-1" stroke="none" stroke-width="1" fill="none" fill-rule="evenodd">
        <g id="Group" fill-rule="nonzero">
            <path d="M47.9037113,94.8091449 C28.1767113,94.7181449 15.7627113,85.2271449 8.20371132,66.2231449 C1.05271132,48.2341449 4.03471132,27.3021449 15.3247113,16.8151449 C16.8016594,15.4667324 18.422009,14.2843333 20.1567113,13.2891449 C49.1237113,-3.61085508 93.5407113,20.2401449 94.8057113,53.4891449 C94.9567113,57.3561449 94.8367113,62.3681449 92.6267113,65.0001449 C80.2057113,79.8601449 68.4267113,96.2421449 47.9037113,94.8091449" id="Path_15665" fill="#0370BA"></path>
            <path d="M3.39671132,26.1011449 C10.8707113,7.84514492 24.3207113,-0.109855085 44.7727113,0.00114491516 C64.1307113,0.110144915 82.4217113,10.7161449 87.9157113,25.1121449 C88.6124246,26.9863867 89.1016774,28.9313259 89.3747113,30.9121449 C94.1927113,64.1011449 55.4397113,96.3491449 24.1377113,85.0661449 C20.4957113,83.7581449 15.8937113,81.7661449 14.2817113,78.7341449 C5.15671132,61.6511449 -5.61828868,44.5901449 3.39671132,26.1011449" id="Path_15666" fill="#53AEEB"></path>
            <path d="M66.6857113,57.2701449 C65.7631841,55.8128868 63.9500259,55.1951809 62.3297113,55.7861449 C60.4557226,51.8929928 56.661468,49.2822079 52.3557113,48.9231449 L52.3557113,41.1611449 C53.5620033,41.5502003 54.8212378,41.7502341 56.0887113,41.7541449 C57.7588064,41.7582785 59.409054,41.3921639 60.9207113,40.6821449 L60.9357113,40.6751449 C64.0619852,39.1061174 66.3324036,36.2325733 67.1357113,32.8281449 C67.2636602,32.33581 67.010049,31.8243252 66.5407113,31.6281449 C65.0213006,30.9837873 63.3909698,30.6414178 61.7407113,30.6201449 C63.3058842,27.7743144 62.8496849,24.2428141 60.6127113,21.8881449 C59.4285376,20.6683654 57.7742515,20.0210202 56.0767113,20.1131449 C54.4034135,20.1927667 52.8140301,20.869319 51.5967113,22.0201449 L51.3407113,22.2581449 L51.0857113,22.0201449 C49.8647006,20.870427 48.2720954,20.1963459 46.5967113,20.1201449 C44.8992567,20.0285519 43.2451831,20.6758139 42.0607113,21.8951449 C39.8267115,24.2510547 39.371889,27.7808812 40.9357113,30.6261449 C39.2860779,30.6457482 37.6559323,30.9853619 36.1357113,31.6261449 C35.6653467,31.8215182 35.4097911,32.3326293 35.5357113,32.8261449 C36.339274,36.23045 38.6096163,39.1038978 41.7357113,40.6731449 L41.7507113,40.6801449 C43.2626619,41.3918321 44.9136388,41.7593231 46.5847113,41.7561449 C47.8515164,41.75206 49.1100655,41.5520279 50.3157113,41.1631449 L50.3157113,48.9201449 C46.0830331,49.2764619 42.3395649,51.8065692 40.4307113,55.6011449 C38.9500542,55.7565591 37.5188669,56.2227172 36.2307113,56.9691449 C35.9967113,57.1041449 35.7867113,57.2391449 35.6027113,57.3581449 C34.9218285,57.8803194 34.0777522,58.1439604 33.2207113,58.1021449 C32.8046111,57.0881284 31.8167807,56.426282 30.7207113,56.4271449 L26.6577113,56.4271449 C25.1665425,56.4271449 23.9577113,57.6359761 23.9577113,59.1271449 L23.9577113,68.5461449 C23.9577113,70.0373137 25.1665425,71.2461449 26.6577113,71.2461449 L30.7217113,71.2461449 C32.1408528,71.2463627 33.3179483,70.147915 33.4157113,68.7321449 C35.1311933,68.7363265 36.8351109,69.0131119 38.4637113,69.5521449 C40.8077113,70.2434782 43.153378,70.9261449 45.5007113,71.6001449 C46.6817517,72.0111433 47.9149409,72.2532026 49.1637113,72.3191449 C50.8169167,72.2539947 52.4097322,71.6802179 53.7247113,70.6761449 C54.2217676,70.4052492 54.405107,69.7827012 54.1342113,69.2856449 C53.8633156,68.7885886 53.2407676,68.6052492 52.7437113,68.8761449 C52.6907288,68.9052942 52.6402262,68.9387396 52.5927113,68.9761449 C49.9237113,70.7561449 48.7927113,70.4281449 46.0667113,69.6371449 C43.7227113,68.9578116 41.379378,68.2751449 39.0367113,67.5891449 C37.2244514,66.9925347 35.3286499,66.6887204 33.4207113,66.6891449 L33.4207113,60.1391449 C34.6005311,60.1418252 35.75063,59.7691987 36.7047113,59.0751449 C36.8787113,58.9631449 37.0577113,58.8481449 37.2487113,58.7371449 C39.6837113,57.3371449 42.3097113,57.2071449 46.0277113,58.3081449 L49.9967113,59.4811449 C50.9060334,59.7489461 51.429853,60.6993172 51.1707113,61.6111449 L51.1707113,61.6111449 C50.8986129,62.522088 49.9427583,63.0430979 49.0297113,62.7781449 L43.3597113,61.1331449 C42.9970609,60.9836577 42.5808828,61.0544694 42.2880778,61.3154808 C41.9952727,61.5764921 41.877299,61.9818324 41.9843026,62.3592075 C42.0913061,62.7365826 42.4044819,63.0196717 42.7907113,63.0881449 L48.4617113,64.7321449 C50.2775752,65.2542256 52.1998639,64.3541673 52.9617113,62.6251449 L62.6207113,57.8431449 C63.4019136,57.3772017 64.4097541,57.5865892 64.9407113,58.3251449 C65.3823387,59.1178453 65.1261528,60.1175413 64.3577113,60.6001449 L60.0327113,63.6721449 C59.6292558,64.0167112 59.555809,64.6123773 59.8634814,65.0446271 C60.1711539,65.476877 60.7580303,65.6025296 61.2157113,65.3341449 L65.5437113,62.2691449 C67.1961213,61.1689078 67.6949665,58.9658949 66.6777113,57.2611449 L66.6857113,57.2701449 Z M31.3857113,68.5481449 C31.3808548,68.9110107 31.0875841,69.2038378 30.7247113,69.2081449 L26.6607113,69.2081449 C26.2960413,69.2081449 26.000263,68.9128145 25.9997113,68.5481449 L25.9997113,59.1261449 C26.0008119,58.7617036 26.2962688,58.4666938 26.6607113,58.4661449 L30.7247113,58.4661449 C31.087363,58.4709769 31.3803303,58.7635009 31.3857113,59.1261449 L31.3857113,68.5481449 Z M64.8857113,33.1901449 C63.402867,38.0674539 58.2471843,40.8194495 53.3697113,39.3371449 L53.2057113,39.2861449 L59.9187113,32.8121449 C61.5794519,32.5191597 63.2871386,32.6470557 64.8857113,33.1841449 L64.8857113,33.1901449 Z M42.6207113,38.8351449 C40.3156733,37.6769291 38.5699178,35.6445356 37.7727113,33.1911449 C39.3716544,32.6542665 41.0795276,32.5260385 42.7407113,32.8181449 L49.4527113,39.2861449 C47.1970646,39.9810971 44.7642807,39.8190776 42.6207113,38.8311449 L42.6207113,38.8351449 Z M43.5087113,30.7221449 C41.5472562,28.6383164 41.5520814,25.386144 43.5197113,23.3081449 C45.2921982,21.7026804 48.0188667,21.793407 49.6807113,23.5131449 C49.6807113,23.5131449 50.7047113,24.4711449 51.3287113,24.4711449 C51.9527113,24.4711449 52.9767113,23.5121449 52.9767113,23.5121449 C54.6401605,21.7943767 57.3663565,21.7058782 59.1377113,23.3121449 C61.1111408,25.387672 61.1164117,28.6442405 59.1497113,30.7261449 L51.3307113,38.2661449 L43.5087113,30.7221449 Z M53.1707113,60.2631449 C52.8537552,58.9534969 51.8629319,57.9119892 50.5707113,57.5301449 L46.6047113,56.3541449 C45.3584746,55.96656 44.0757574,55.707872 42.7767113,55.5821449 C44.7640276,52.4910169 48.2655197,50.7138087 51.933738,50.9344285 C55.6019563,51.1550482 58.8652033,53.339112 60.4677113,56.6461449 L53.1707113,60.2631449 Z" id="Path_15667" fill="#FFFFFF"></path>
            <path d="M56.4467113,66.2691449 L56.4407113,66.2691449 C55.870237,66.2708001 55.4088848,66.7341644 55.4097113,67.3046406 C55.41054,67.8751167 55.8732346,68.3371406 56.4437113,68.3371406 C57.0141881,68.3371406 57.4768827,67.8751167 57.4777113,67.3046406 C57.4785378,66.7341644 57.0171856,66.2708001 56.4467113,66.2691449" id="Path_15668" fill="#FFFFFF"></path>
        </g>
    </g>
</svg>