<?xml version="1.0" encoding="UTF-8"?>
<svg width="18px" height="18px" viewBox="0 0 18 18" version="1.1" xmlns="http://www.w3.org/2000/svg" xmlns:xlink="http://www.w3.org/1999/xlink">
    <title>Untitled 36</title>
    <g id="Page-1" stroke="none" stroke-width="1" fill="none" fill-rule="evenodd">
        <g id="Group" transform="translate(1.000000, 1.000000)" fill="#00346A" fill-rule="nonzero" stroke="#00346A">
            <path d="M15.761075,14.7747465 L11.311075,10.2827465 C13.4046822,7.64280816 13.0685275,3.82659665 10.5456573,1.59330509 C8.02278704,-0.639986472 4.19398192,-0.510674588 1.82754046,1.8877458 C-0.538900987,4.28616619 -0.61681018,8.11636206 1.65014271,10.6090293 C3.91709559,13.1016966 7.73747527,13.3865989 10.349075,11.2577465 L14.770075,15.7197465 C15.030443,15.9931353 15.4629282,16.0043164 15.737075,15.7447465 C16.0099889,15.4828208 16.0207016,15.0498485 15.761075,14.7747465 Z M6.32807496,11.3127465 C3.93952539,11.3122539 1.88389859,9.62468243 1.41819802,7.28197198 C0.952497459,4.93926153 2.20640876,2.59379666 4.41317268,1.6798151 C6.6199366,0.765833548 9.16502617,1.53785565 10.4921343,3.52379451 C11.8192425,5.50973338 11.5588038,8.15655613 9.87007496,9.84574651 C8.93250655,10.787738 7.65712259,11.3156072 6.32807496,11.3117465 L6.32807496,11.3127465 Z" id="Icon_ionic-ios-search"></path>
        </g>
    </g>
</svg>