<?xml version="1.0" encoding="UTF-8"?>
<svg width="97px" height="96px" viewBox="0 0 97 96" version="1.1" xmlns="http://www.w3.org/2000/svg" xmlns:xlink="http://www.w3.org/1999/xlink">
    <title>Untitled 33</title>
    <g id="Page-1" stroke="none" stroke-width="1" fill="none" fill-rule="evenodd">
        <g id="Group" fill-rule="nonzero">
            <path d="M72.6471834,4.19757315 C90.4871834,12.6165731 97.7271834,26.4655731 96.5471834,46.8835731 C95.4261834,66.2085731 83.8771834,83.9195731 69.2131834,88.6525731 C67.3048989,89.2505553 65.3368094,89.6375336 63.3441834,89.8065731 C29.9471834,92.8805731 -0.22481658,52.4895731 12.6801834,21.8245731 C14.1801834,18.2565731 16.4041834,13.7645731 19.5191834,12.3125731 C37.0571834,4.09457315 54.6581834,-5.77342685 72.6501834,4.19757315" id="Path_15640" fill="#53AEEB"></path>
            <path d="M43.5691834,94.9165731 C23.8421834,94.8255731 11.4281834,85.3345731 3.86918342,66.3305731 C-3.28181658,48.3415731 -0.29981658,27.4095731 10.9901834,16.9225731 C12.4671366,15.5741668 14.0874855,14.3917682 15.8221834,13.3965731 C44.7891834,-3.50342685 89.2061834,20.3475731 90.4711834,53.5965731 C90.6221834,57.4635731 90.5021834,62.4755731 88.2921834,65.1075731 C75.8711834,79.9675731 64.0921834,96.3495731 43.5691834,94.9165731" id="Path_15641" fill="#00346A"></path>
            <path d="M41.2761834,35.0325731 L40.3571834,40.3995731 C40.2484485,41.0246663 40.5048745,41.6571616 41.0182126,42.0300541 C41.5315506,42.4029466 42.212338,42.4512499 42.7731834,42.1545731 L47.5921834,39.6195731 L52.4141834,42.1545731 C52.9752317,42.4491631 53.6548649,42.3997364 54.1673867,42.0270705 C54.6799084,41.6544046 54.9364554,41.0231139 54.8291834,40.3985731 L53.9081834,35.0315731 L57.8081834,31.2315731 C58.2620394,30.7891639 58.4253545,30.1274448 58.2294536,29.5246728 C58.0335527,28.9219009 57.5124155,28.4826288 56.8851834,28.3915731 L51.4951834,27.6105731 L49.0841834,22.7275731 C48.8044172,22.1581088 48.2251586,21.7972991 47.5906834,21.7972991 C46.9562082,21.7972991 46.3769496,22.1581088 46.0971834,22.7275731 L43.6891834,27.6115731 L38.3001834,28.3965731 C37.6726662,28.4872277 37.1511979,28.926613 36.9554196,29.5296611 C36.7596413,30.1327092 36.9235793,30.7946102 37.3781834,31.2365731 L41.2761834,35.0325731 Z M44.1331834,29.5395731 C44.6758003,29.4604711 45.1447449,29.1194205 45.3871834,28.6275731 L47.5871834,24.1625731 L49.7871834,28.6265731 C50.0295998,29.1182649 50.4986391,29.4590103 51.0411834,29.5375731 L55.9681834,30.2525731 L52.4041834,33.7285731 C52.0113098,34.1113281 51.8321496,34.6630218 51.9251834,35.2035731 L52.7681834,40.1105731 L48.3691834,37.7895731 C47.8836231,37.5345881 47.3037437,37.5345881 46.8181834,37.7895731 L42.4121834,40.1085731 L43.2521834,35.2015731 C43.345227,34.6613222 43.1660409,34.1099227 42.7731834,33.7275731 L39.2071834,30.2525731 L44.1331834,29.5395731 Z" id="Path_15642" fill="#FFFFFF"></path>
            <path d="M62.5311834,32.0705731 C62.5311834,32.6162305 62.9735261,33.0585731 63.5191834,33.0585731 L66.5641834,33.0585731 C67.1101169,33.0585731 67.5526834,32.6160066 67.5526834,32.0700731 C67.5526834,31.5241397 67.1101169,31.0815731 66.5641834,31.0815731 L63.5191834,31.0815731 C62.9735261,31.0815731 62.5311834,31.5239158 62.5311834,32.0695731 L62.5311834,32.0705731 Z" id="Path_15643" fill="#FFFFFF"></path>
            <path d="M63.4181834,38.6895731 C63.8047828,39.0761724 64.431584,39.0761724 64.8181833,38.6895731 C65.2047826,38.3029738 65.2047827,37.6761725 64.8181834,37.2895731 L62.6731834,35.1455731 C62.2865841,34.7589738 61.6597827,34.7589738 61.2731834,35.1455731 C60.8865841,35.5321725 60.8865841,36.1589738 61.2731834,36.5455731 L63.4181834,38.6895731 Z" id="Path_15644" fill="#FFFFFF"></path>
            <path d="M61.9731834,29.2815777 C62.2357059,29.2823715 62.4876856,29.1783399 62.6731834,28.9925731 L64.8151834,26.8495731 C65.2017826,26.4629738 65.2017826,25.8361725 64.8151833,25.4495733 C64.428584,25.062974 63.8017828,25.0629739 63.4151834,25.4495731 L61.2731834,27.5915731 C60.990168,27.8742808 60.9055535,28.2997482 61.0588655,28.66923 C61.2121774,29.0387118 61.5731574,29.2792852 61.9731834,29.2785731 L61.9731834,29.2815777 Z" id="Path_15645" fill="#FFFFFF"></path>
            <path d="M28.6131834,33.0585731 L31.6591834,33.0585731 C32.2048408,33.0585731 32.6471834,32.6162305 32.6471834,32.0705731 C32.6471834,31.5249158 32.2048408,31.0825731 31.6591834,31.0825731 L28.6131834,31.0825731 C28.0675261,31.0825731 27.6251834,31.5249158 27.6251834,32.0705731 C27.6251834,32.6162305 28.0675261,33.0585731 28.6131834,33.0585731" id="Path_15646" fill="#FFFFFF"></path>
            <path d="M32.5051834,35.1465731 L30.3611834,37.2895731 C29.9745841,37.6761725 29.9745841,38.3029738 30.3611834,38.6895731 C30.7477827,39.0761725 31.3745841,39.0761725 31.7611834,38.6895731 L33.9061834,36.5455731 C34.2927827,36.1589738 34.2927827,35.5321725 33.9061834,35.1455731 C33.5195841,34.7589738 32.8927827,34.7589738 32.5061834,35.1455731 L32.5051834,35.1465731 Z" id="Path_15647" fill="#FFFFFF"></path>
            <path d="M32.5081834,28.9895731 C32.8947827,29.3761725 33.5215841,29.3761725 33.9081834,28.9895731 C34.2947827,28.6029738 34.2947827,27.9761725 33.9081834,27.5895731 L31.7661834,25.4475731 C31.3795841,25.0609738 30.7527827,25.0609738 30.3661834,25.4475731 C29.9795841,25.8341725 29.9795841,26.4609738 30.3661834,26.8475731 L32.5081834,28.9895731 Z" id="Path_15648" fill="#FFFFFF"></path>
            <path d="M57.3211834,61.7145729 C56.849988,61.7149343 56.4446198,62.0479911 56.352857,62.5101651 C56.2610941,62.9723392 56.5084764,63.434997 56.9437932,63.6153425 C57.3791101,63.7956881 57.8812029,63.6435272 58.1431715,63.2518669 C58.4051401,62.8602066 58.3540725,62.338055 58.0211834,62.0045731 C57.8356618,61.8187211 57.5837843,61.7143719 57.3211834,61.7145729" id="Path_15649" fill="#FFFFFF"></path>
            <path d="M71.9001834,61.7155731 L66.3661834,61.7155731 L66.3661834,54.0155731 C66.3664488,53.7536313 66.2625788,53.502327 66.0774516,53.3170122 C65.8923244,53.1316975 65.6411254,53.027573 65.3791834,53.0275731 L58.4611834,53.0275731 L58.4611834,45.3205731 C58.4625129,45.0585382 58.3596932,44.8067078 58.1753442,44.6204835 C57.9909952,44.4342591 57.7402184,44.3288959 57.4781834,44.3275731 L37.7111834,44.3275731 C37.1655261,44.3275731 36.7231834,44.7699158 36.7231834,45.3155731 L36.7231834,53.0155731 L29.8061834,53.0155731 C29.5442414,53.0145104 29.2926203,53.1176166 29.1067425,53.3021814 C28.9208647,53.4867462 28.8159774,53.7376302 28.8151834,53.9995731 L28.8151834,61.7185731 L23.2841834,61.7185731 C22.7400844,61.7185687 22.2983862,62.1584786 22.2960973,62.7025731 L22.2960973,71.3895731 C22.2927155,71.6522058 22.3940725,71.9053888 22.5778168,72.0930745 C22.7615612,72.2807603 23.0125363,72.3874671 23.2751834,72.3895731 L71.9031834,72.3895731 C72.4488408,72.3895731 72.8912568,71.9472305 72.8912568,71.4015731 L72.8912568,62.7105731 C72.8943831,62.4478474 72.7928019,62.1946679 72.608899,62.0070119 C72.4249961,61.8193559 72.1739202,61.7126812 71.9111834,61.7105731 L71.9001834,61.7105731 M38.7001834,46.2955731 L56.4851834,46.2955731 L56.4851834,53.0105731 L38.6991834,53.0105731 L38.7001834,46.2955731 Z M70.9161834,70.4055731 L24.2721834,70.4055731 L24.2721834,63.6895731 L53.2251834,63.6895731 C53.7708408,63.6895731 54.2131834,63.2472305 54.2131834,62.7015731 C54.2131834,62.1559158 53.7708408,61.7135731 53.2251834,61.7135731 L30.7941834,61.7135731 L30.7941834,59.3415731 L39.1941834,59.3415731 C39.7398408,59.3415731 40.1821834,58.8992305 40.1821834,58.3535731 C40.1821834,57.8079158 39.7398408,57.3655731 39.1941834,57.3655731 L30.7941834,57.3655731 L30.7941834,54.9945731 L64.3941834,54.9945731 L64.3941834,61.7135731 L61.2611834,61.7135731 C60.7155261,61.7135731 60.2731834,62.1559158 60.2731834,62.7015731 C60.2731834,63.2472305 60.7155261,63.6895731 61.2611834,63.6895731 L70.9151834,63.6895731 L70.9161834,70.4055731 Z" id="Path_15650" fill="#FFFFFF"></path>
            <path d="M43.6391834,57.3665729 C43.167988,57.3669343 42.7626198,57.6999911 42.670857,58.1621651 C42.5790941,58.6243392 42.8264764,59.086997 43.2617932,59.2673425 C43.6971101,59.4476881 44.1992029,59.2955272 44.4611715,58.9038669 C44.7231401,58.5122066 44.6720725,57.990055 44.3391834,57.6565731 C44.1536618,57.4707211 43.9017843,57.3663719 43.6391834,57.3665729" id="Path_15651" fill="#FFFFFF"></path>
        </g>
    </g>
</svg>