<?xml version="1.0" encoding="UTF-8"?>
<svg width="98px" height="97px" viewBox="0 0 98 97" version="1.1" xmlns="http://www.w3.org/2000/svg" xmlns:xlink="http://www.w3.org/1999/xlink">
    <title>Untitled 34</title>
    <g id="Page-1" stroke="none" stroke-width="1" fill="none" fill-rule="evenodd">
        <g id="Group" transform="translate(0.000000, 0.000000)" fill-rule="nonzero">
            <path d="M51.5131288,9.91285358 C71.2131288,8.94885358 84.1201288,17.7628536 92.6851288,36.3348536 C100.785129,53.9158536 98.9291288,74.9778536 88.2161288,86.0528536 C86.8132125,87.4784887 85.2582608,88.7460577 83.5791288,89.8328536 C55.5571288,108.256854 9.92812878,86.8148536 6.88712878,53.6818536 C6.53012878,49.8278536 6.38212878,44.8168536 8.44812878,42.0708536 C20.0571288,26.5708536 30.9481288,9.57885358 51.5131288,9.91285358" id="Path_15669" fill="#AF282C"></path>
            <path d="M29.4891288,4.10285358 C47.7811288,-3.85514642 63.1371288,-0.133146424 77.8891288,14.3688536 C91.8411288,28.0998536 97.6141288,48.6868536 91.4431288,62.9928536 C90.6263294,64.8426388 89.6089001,66.5971511 88.4091288,68.2248536 C68.4931288,95.6818536 17.6651288,91.7108536 2.93912878,61.4618536 C1.22412878,57.9448536 -0.708871224,53.2618536 0.259128776,49.9228536 C5.69012878,31.1038536 9.91412878,11.1408536 29.4891288,4.10285358" id="Path_15670" fill="#E57A7D"></path>
            <path d="M70.8371288,58.4508536 L70.8371288,48.1608536 C70.8334178,43.2660903 67.6051884,38.9589345 62.9081288,37.5818536 C62.7431307,36.4262476 62.2902501,35.3306685 61.5911288,34.3958536 C62.4574438,31.6757556 61.4226773,28.7104303 59.0521288,27.1198536 C57.5146818,23.3615635 53.8572306,20.9061076 49.7966288,20.9061076 C45.7360269,20.9061076 42.0785758,23.3615635 40.5411288,27.1198536 C38.1768012,28.7151828 37.1459753,31.6773822 38.0091288,34.3958536 C37.3100561,35.3295689 36.8571532,36.4241702 36.6921288,37.5788536 C31.9960656,38.957371 28.7684982,43.2636437 28.7631288,48.1578536 L28.7631288,53.8368536 C28.7626648,55.3585714 29.3485888,56.8219489 30.3991288,57.9228536 C26.8291011,58.6347126 24.2571796,61.7665481 24.2531288,65.4068536 L24.2531288,71.0068536 C24.2531288,71.5591383 24.700844,72.0068536 25.2531288,72.0068536 L55.3281288,72.0068536 C55.7012049,72.0349217 56.0587436,71.8523888 56.2548187,71.533754 C56.4508939,71.2151192 56.4527049,70.8136857 56.2595125,70.4932948 C56.0663202,70.1729039 55.7104429,69.9871526 55.3371288,70.0118536 L46.2881288,70.0118536 L46.2881288,65.4118536 C46.2914347,62.3025943 48.8108701,59.7827115 51.9201288,59.7788536 L56.1731288,59.7788536 C56.5591538,61.4816808 58.0725944,62.6904313 59.8186288,62.6904313 C61.5646631,62.6904313 63.0781037,61.4816808 63.4641288,59.7788536 L67.7161288,59.7788536 C70.825778,59.7821605 73.3458218,62.3022044 73.3491288,65.4118536 L73.3491288,70.0118536 L64.3091288,70.0118536 C63.9360527,69.9837854 63.578514,70.1663183 63.3824388,70.4849531 C63.1863637,70.8035879 63.1845527,71.2050215 63.377745,71.5254123 C63.5709374,71.8458032 63.9268146,72.0315545 64.3001288,72.0068536 L74.3481288,72.0068536 C74.9004135,72.0068536 75.3481288,71.5591383 75.3481288,71.0068536 L75.3481288,65.4068536 C75.3442098,62.402381 73.5797156,59.6791353 70.8391288,58.4478536 M39.8861288,35.2598536 C40.1453596,34.9709314 40.213971,34.5580939 40.0621288,34.2008536 C39.1893473,32.1619441 39.9584569,29.7918047 41.8621288,28.6538536 C42.0582863,28.5373949 42.2083642,28.3569482 42.2871288,28.1428536 C43.4444687,24.9953412 46.4420829,22.903728 49.7956288,22.903728 C53.1491746,22.903728 56.1467889,24.9953412 57.3041288,28.1428536 C57.3836469,28.3568141 57.5339702,28.5371315 57.7301288,28.6538536 C59.6363314,29.7906267 60.4080915,32.1618875 59.5361288,34.2028536 C59.3842866,34.5600939 59.4528979,34.9729314 59.7121288,35.2618536 C60.2092324,35.8164284 60.5752619,36.4756916 60.7831288,37.1908536 C60.4641288,37.1628536 60.1421288,37.1478536 59.8171288,37.1478536 C58.2573979,37.1456029 56.7152295,37.4770174 55.2941288,38.1198536 C55.9149994,37.1088054 56.2431714,35.9453179 56.2421288,34.7588536 L56.2421288,31.7018536 C56.2421288,31.1495688 55.7944135,30.7018536 55.2421288,30.7018536 L51.9221288,30.7018536 C50.511984,30.7018537 49.3686809,29.5589983 49.3681288,28.1488536 C49.3323729,27.6251931 48.8978362,27.2182942 48.372958,27.2169787 C47.8480799,27.2156632 47.411509,27.6203789 47.3731288,28.1438536 L47.3731288,28.1488536 C47.3734508,28.784165 47.506991,29.4123489 47.7651288,29.9928536 C47.3547866,30.4429338 46.774187,30.6998491 46.1651288,30.7008536 L44.3571288,30.7008536 C43.804844,30.7008536 43.3571288,31.1485688 43.3571288,31.7008536 L43.3571288,34.7558536 C43.3565849,35.9419349 43.6847263,37.1049678 44.3051288,38.1158536 C42.8835174,37.4734961 41.3411284,37.1421075 39.7811288,37.1438536 C39.4561288,37.1438536 39.1341288,37.1588536 38.8171288,37.1878536 C39.0242239,36.4725824 39.3899637,35.8132254 39.8871288,35.2588536 L39.8861288,35.2598536 Z M46.1641288,32.7008536 C47.2034453,32.6997758 48.2047516,32.3098835 48.9711288,31.6078536 C49.7932504,32.3129573 50.8410537,32.6997184 51.9241288,32.6978536 L54.2471288,32.6978536 L54.2471288,34.7548536 C54.2699938,36.3446855 53.4429568,37.8259491 52.0775545,38.6406668 C50.7121521,39.4553844 49.0158217,39.4797811 47.6275544,38.7046668 C46.239287,37.9295525 45.3699937,36.4726855 45.3471288,34.8828536 C45.3471288,34.8398536 45.3471288,34.7978536 45.3471288,34.7548536 L45.3471288,32.7008536 L46.1641288,32.7008536 Z M49.8011288,41.2008536 C50.3668642,41.2008787 50.9301057,41.125892 51.4761288,40.9778536 C50.7979158,41.762816 50.2337018,42.6394347 49.8001288,43.5818536 C49.3658622,42.6392804 48.8013471,41.76238 48.1231288,40.9768536 C48.6699758,41.1238464 49.2338712,41.197822 49.8001288,41.1968536 L49.8011288,41.2008536 Z M30.7591288,48.1628536 C30.7249545,44.916791 32.43712,41.9025746 35.2427354,40.2695979 C38.0483507,38.6366212 41.5149068,38.6366212 44.3205222,40.2695979 C47.1261375,41.9025746 48.8383031,44.916791 48.8041288,48.1628536 L48.8041288,53.8418536 C48.8008247,56.0159331 47.0392083,57.7775495 44.8651288,57.7808536 L43.5241288,57.7808536 L43.5241288,56.3448536 C45.2430801,55.1321062 46.2653469,53.1595526 46.2651288,51.0558536 L46.2651288,47.9818536 C46.2651288,47.4295688 45.8174135,46.9818536 45.2651288,46.9818536 L41.9151288,46.9818536 C40.4925756,46.9807525 39.3393339,45.8284055 39.3371288,44.4058536 C39.3380219,44.048588 39.1482483,43.7179845 38.8392938,43.5385782 C38.5303393,43.3591719 38.1491415,43.3582189 37.8392938,43.5360782 C37.5294462,43.7139375 37.3380219,44.043588 37.3371288,44.4008536 L37.3371288,44.4058536 C37.3384739,45.046086 37.4747706,45.6788436 37.7371288,46.2628536 C37.3230185,46.7207105 36.7344781,46.9819207 36.1171288,46.9818536 L34.3001288,46.9818536 C33.747844,46.9818536 33.3001288,47.4295688 33.3001288,47.9818536 L33.3001288,51.0568536 C33.2989472,53.161883 34.3212843,55.136064 36.0411288,56.3498536 L36.0411288,57.7818536 L34.7001288,57.7818536 C32.5260492,57.7785495 30.7644329,56.0169331 30.7611288,53.8428536 L30.7591288,48.1628536 Z M35.2951288,48.9788536 L36.1191288,48.9788536 C37.1654848,48.9781849 38.1736693,48.5857564 38.9451288,47.8788536 C39.7718943,48.5892794 40.826062,48.9795804 41.9161288,48.9788536 L44.2651288,48.9788536 L44.2651288,51.0538536 C44.3653684,53.5305745 42.4388497,55.6196138 39.9621288,55.7198535 C37.4854079,55.8200931 35.3963685,53.8935745 35.2961288,51.4168536 C35.2907954,51.2955202 35.2907954,51.1745202 35.2961288,51.0538536 L35.2951288,48.9788536 Z M38.0361288,57.2968536 C39.1766381,57.6178623 40.3836195,57.6178623 41.5241288,57.2968536 L41.5241288,58.9458536 C41.5241288,59.9090381 40.7433133,60.6898535 39.7801288,60.6898535 C38.8169442,60.6898535 38.0361288,59.9090381 38.0361288,58.9458536 L38.0361288,57.2968536 Z M44.2911288,65.4088536 L44.2911288,70.0088536 L26.2511288,70.0088536 L26.2511288,65.4088536 C26.2544347,62.2995943 28.7738701,59.7797115 31.8831288,59.7758536 L36.1361288,59.7758536 C36.521309,61.479741 38.0352469,62.68964 39.7821288,62.68964 C41.5290107,62.68964 43.0429485,61.479741 43.4281288,59.7758536 L46.7801288,59.7758536 C45.1945143,61.2193495 44.291165,63.2645932 44.2921288,65.4088536 L44.2911288,65.4088536 Z M55.3341288,48.9818536 L57.6841288,48.9818536 C58.7742273,48.9827581 59.8284548,48.5924349 60.6551288,47.8818536 C61.4264316,48.5890082 62.434718,48.9814764 63.4811288,48.9818536 L64.3061288,48.9818536 L64.3061288,51.0568536 C64.3745861,53.5132678 62.4552543,55.5681663 59.9998851,55.667257 C57.5445158,55.7663477 55.4658375,53.8727959 55.3361288,51.4188536 C55.3361288,51.2978536 55.3361288,51.1768536 55.3361288,51.0568536 L55.3361288,48.9778536 L55.3341288,48.9818536 Z M59.8231288,60.6948609 C58.8633564,60.6915649 58.0859688,59.9146239 58.0821288,58.9548536 L58.0821288,57.3058536 C59.2227733,57.625881 60.4294842,57.625881 61.5701288,57.3058536 L61.5701288,58.9548536 C61.5668204,59.9187534 60.7830303,60.6976196 59.8191288,60.6948609 L59.8231288,60.6948609 Z M63.5621288,57.7818536 L63.5621288,56.3458536 C65.2801388,55.1327405 66.3021805,53.1609943 66.3031288,51.0578536 L66.3031288,47.9818536 C66.3031288,47.4295688 65.8554135,46.9818536 65.3031288,46.9818536 L63.4831288,46.9818536 C62.8657794,46.9819207 62.277239,46.7207105 61.8631288,46.2628536 C62.1259755,45.6790041 62.262295,45.0461409 62.2631288,44.4058536 C62.2640219,44.048588 62.0742483,43.7179845 61.7652938,43.5385782 C61.4563393,43.3591719 61.0751415,43.3582189 60.7652938,43.5360782 C60.4554462,43.7139375 60.2640219,44.043588 60.2631288,44.4008536 L60.2631288,44.4058536 C60.2620252,45.8284722 59.1087477,46.9813022 57.6861288,46.9818536 L54.3361288,46.9818536 C53.783844,46.9818536 53.3361288,47.4295688 53.3361288,47.9818536 L53.3361288,51.0568536 C53.337077,53.1599943 54.3591187,55.1317405 56.0771288,56.3448536 L56.0771288,57.7808536 L50.8001288,57.7808536 L50.8001288,48.1628536 C50.8001288,43.1795883 54.8398635,39.1398536 59.8231288,39.1398536 C64.8063941,39.1398536 68.8461288,43.1795883 68.8461288,48.1628536 L68.8461288,57.7808536 L63.5621288,57.7818536 Z" id="Path_15671" fill="#FFFFFF"></path>
            <path d="M59.8191288,70.0098339 C59.3413616,70.0068761 58.9282265,70.3422799 58.8329725,70.8104647 C58.7377185,71.2786496 58.9869572,71.7488159 59.4279071,71.932755 C59.8688569,72.1166941 60.3783271,71.9630178 60.644016,71.5659286 C60.9097048,71.1688395 60.8573852,70.6392746 60.5191288,70.3018536 C60.3331922,70.1163763 60.0817531,70.0114903 59.8191288,70.0098339" id="Path_15672" fill="#FFFFFF"></path>
        </g>
    </g>
</svg>