<?xml version="1.0" encoding="UTF-8"?>
<svg width="97px" height="97px" viewBox="0 0 97 97" version="1.1" xmlns="http://www.w3.org/2000/svg" xmlns:xlink="http://www.w3.org/1999/xlink">
    <title>Untitled 33</title>
    <g id="Page-1" stroke="none" stroke-width="1" fill="none" fill-rule="evenodd">
        <g id="Group">
            <path d="M49.5691834,87.0960686 C29.8421834,87.0050686 17.4281834,77.5140686 9.86918342,58.5100686 C2.71818342,40.5210686 5.70018342,19.5890686 16.9901834,9.10206858 C18.4671366,7.75366229 20.0874855,6.57126368 21.8221834,5.57606858 C50.7891834,-11.3239314 95.2061834,12.5270686 96.4711834,45.7760686 C96.6221834,49.6430686 96.5021834,54.6550686 94.2921834,57.2870686 C81.8711834,72.1470686 70.0921834,88.5290686 49.5691834,87.0960686" id="Path_15602" fill="#EFD56B" fill-rule="nonzero"></path>
            <path d="M43.5691834,96.3880686 C23.8421834,96.2970686 11.4281834,86.8060686 3.86918342,67.8020686 C-3.28181658,49.8130686 -0.29981658,28.8810686 10.9901834,18.3940686 C12.4671417,17.0456685 14.0874898,15.8632704 15.8221834,14.8680686 C44.7891834,-2.03193142 89.2061834,21.8190686 90.4711834,55.0680686 C90.6221834,58.9350686 90.5021834,63.9470686 88.2921834,66.5790686 C75.8711834,81.4390686 64.0921834,97.8210686 43.5691834,96.3880686" id="Path_15603" fill="#DEB408" fill-rule="nonzero"></path>
            <path d="M68.8981834,68.5860686 C68.968074,68.5879414 69.0379302,68.5812244 69.1061834,68.5660686 C71.6537278,67.5496773 73.324499,65.0831883 73.3233978,62.3403736 C73.3222955,59.597559 71.6495435,57.132413 69.1011834,56.1180686 C69.0151974,56.0960966 68.9254703,56.093026 68.8381834,56.1090686 L59.3331834,57.8360686 L59.3331834,53.0140686 C59.3331834,52.6572926 59.0439594,52.3680686 58.6871834,52.3680686 L53.0871834,52.3680686 C52.9161358,52.3680686 52.7521101,52.4360974 52.6311834,52.5570686 L49.0851834,56.1020686 L43.0901834,56.1020686 L39.5471834,52.5600686 C39.4263655,52.4382032 39.2617878,52.3697793 39.0901834,52.3700686 L33.4901834,52.3700686 C33.1329206,52.3706174 32.843284,52.659807 32.8421834,53.0170686 L32.8421834,57.8120686 L23.6951834,55.8020686 C23.3537003,55.7019186 23.0054735,55.6263915 22.6531834,55.5760686 C22.3097738,55.5292861 21.990636,55.7618341 21.9299611,56.1030633 C21.8692862,56.4442924 22.0886965,56.7726012 22.4271834,56.8470686 L23.3561834,57.0470686 C24.5695924,57.4109487 25.6332582,58.1565318 26.3891834,59.1730686 C26.6696216,59.5533361 26.9045555,59.9651416 27.0891834,60.4000686 L27.3031834,60.9000686 L23.3531834,60.1050686 C23.0835737,59.9933653 22.8020804,59.9128427 22.5141834,59.8650686 C20.317309,59.5544731 18.2827625,61.078483 17.9631834,63.2740686 C17.5876693,65.9362359 19.4338977,68.401449 22.0941834,68.7900686 C22.4320446,68.8501767 22.7764115,68.8649737 23.1181834,68.8340686 C23.1751834,68.8270686 23.2331834,68.8200686 23.2891834,68.8170686 L23.5891834,68.7980686 L23.5891834,68.8190686 L34.1821834,67.8530686 L29.2821834,73.0970686 C29.1649237,73.222302 29.1022956,73.3890357 29.1081111,73.5604983 C29.1139266,73.7319609 29.1877079,73.894068 29.3131834,74.0110686 C29.4321806,74.1260708 29.5927957,74.1877903 29.7581834,74.1820686 L32.8441834,74.1820686 L32.8441834,77.2680686 C32.8461634,77.5277041 33.0031621,77.7610072 33.2429357,77.8606222 C33.4827093,77.9602372 33.7588079,77.9068664 33.9441834,77.7250686 L43.0801834,68.5880686 L49.0821834,68.5880686 L49.1681834,68.6740686 L58.2231834,77.7290686 C58.4079119,77.9106513 58.6822987,77.9663126 58.9231834,77.8710686 C59.1661241,77.7710199 59.3242695,77.5338017 59.3231834,77.2710686 L59.3231834,74.1850686 L62.4091834,74.1850686 C62.6667888,74.1847558 62.8997446,74.031884 63.0025538,73.795683 C63.1053631,73.559482 63.0584985,73.2848151 62.8831834,73.0960686 L57.9411834,67.8060686 L68.8981834,68.5860686 Z M21.4521834,63.5400686 L21.4521834,63.5400686 C21.4960179,63.2477227 21.708772,63.0090613 21.9941834,62.9320686 L22.2511834,61.1150686 L22.5621834,61.2010686 C23.5745199,61.4660158 24.2271222,62.4481457 24.0791834,63.4840686 C23.973344,64.2284074 23.3370069,64.7821144 22.5851834,64.7840686 C22.5152231,64.7837565 22.445376,64.7784094 22.3761834,64.7680686 C21.7832453,64.6854107 21.3693053,64.1381149 21.4511834,63.5450686 L21.4511834,63.5380686 L21.4521834,63.5400686 Z M22.9451834,67.5610702 C22.7257047,67.5612493 22.5064891,67.5458775 22.2891834,67.5150686 C20.3373212,67.2314634 18.9811592,65.4244389 19.2541834,63.4710686 C19.4081891,62.3940078 20.1861716,61.5107758 21.2351834,61.2220686 L21.4191834,61.7640686 C20.7515964,62.037665 20.2779345,62.6432376 20.1731834,63.3570686 C19.9915151,64.6529645 20.8888005,65.8529164 22.1831834,66.0450686 C22.919171,66.1524871 23.6676549,65.9626601 24.2634926,65.5174703 C24.8593302,65.0722805 25.2535538,64.408315 25.3591834,63.6720686 L25.3591834,63.6640686 C25.4249307,63.1874782 25.3863753,62.7022939 25.2461834,62.2420686 L25.1061834,61.7850686 L27.5601834,62.2730686 L27.5711834,62.4960686 C27.5892257,62.8590166 27.5741635,63.2228537 27.5261834,63.5830686 C27.1976324,65.8623876 25.2470541,67.5558403 22.9441834,67.5610702 M27.0941834,67.2060686 L27.5281834,66.6770686 C28.2118815,65.8438054 28.6529968,64.8384085 28.8031834,63.7710686 C29.0769292,61.8980973 28.5988256,59.9928726 27.4731834,58.4710686 L27.0231834,57.8590686 L32.8521834,59.1290686 L32.8521834,63.2770686 C32.852183,63.6340067 33.1412458,63.9235169 33.4981834,63.9240686 L37.8581834,63.9240686 L35.5181834,66.4310686 L27.0941834,67.2060686 Z M42.1801834,67.6730686 L42.0951834,67.7580686 L34.1421834,75.7100686 L34.1421834,73.5400686 C34.1421834,73.1832926 33.8529594,72.8940686 33.4961834,72.8940686 L31.2521834,72.8940686 L42.1821834,61.1830686 L42.1801834,67.6730686 Z M42.1801834,59.2730686 L38.8281834,62.6260686 L34.1441834,62.6260686 L34.1441834,53.6530686 L38.8281834,53.6530686 L42.1801834,57.0050686 L42.1801834,59.2730686 Z M48.7111834,67.2900686 L43.4821834,67.2900686 L43.4821834,57.3900686 L48.7161834,57.3900686 L48.7111834,67.2900686 Z M58.6881834,63.9180686 C59.0451215,63.918069 59.3346317,63.6290062 59.3351834,63.2720686 L59.3351834,59.1460686 L68.9151834,57.4050686 L68.9881834,57.4310686 C70.8633521,58.3573263 72.0462166,60.2717571 72.035653,62.3631915 C72.0249471,64.4546259 70.8226748,66.3569284 68.9381834,67.2640686 L68.8831834,67.2840686 L68.8251834,67.2840686 L56.6581834,66.4150686 L54.3311834,63.9230686 L58.6881834,63.9180686 Z M50.0051834,57.0090686 L53.3571834,53.6570686 L58.0411834,53.6570686 L58.0411834,62.6270686 L53.3551834,62.6270686 L50.0021834,59.2740686 L50.0051834,57.0090686 Z M60.9341834,72.8870686 L58.6881834,72.8870686 C58.3314075,72.8870686 58.0421834,73.1762926 58.0421834,73.5330686 L58.0421834,75.7050686 L50.0031834,67.6730686 L50.0031834,61.1850686 L60.9341834,72.8870686 Z" id="Path_15604" fill="#FFFFFF" fill-rule="nonzero"></path>
            <path d="M68.8981834,68.5860686 C68.968074,68.5879414 69.0379302,68.5812244 69.1061834,68.5660686 C71.6537278,67.5496773 73.324499,65.0831883 73.3233978,62.3403736 C73.3222955,59.597559 71.6495435,57.132413 69.1011834,56.1180686 C69.0151974,56.0960966 68.9254703,56.093026 68.8381834,56.1090686 L59.3331834,57.8360686 L59.3331834,53.0140686 C59.3331834,52.6572926 59.0439594,52.3680686 58.6871834,52.3680686 L53.0871834,52.3680686 C52.9161358,52.3680686 52.7521101,52.4360974 52.6311834,52.5570686 L49.0851834,56.1020686 L43.0901834,56.1020686 L39.5471834,52.5600686 C39.4263655,52.4382032 39.2617878,52.3697793 39.0901834,52.3700686 L33.4901834,52.3700686 C33.1329206,52.3706174 32.843284,52.659807 32.8421834,53.0170686 L32.8421834,57.8120686 L23.6951834,55.8020686 C23.3537003,55.7019186 23.0054735,55.6263915 22.6531834,55.5760686 C22.3097738,55.5292861 21.990636,55.7618341 21.9299611,56.1030633 C21.8692862,56.4442924 22.0886965,56.7726012 22.4271834,56.8470686 L23.3561834,57.0470686 C24.5695924,57.4109487 25.6332582,58.1565318 26.3891834,59.1730686 C26.6696216,59.5533361 26.9045555,59.9651416 27.0891834,60.4000686 L27.3031834,60.9000686 L23.3531834,60.1050686 C23.0835737,59.9933653 22.8020804,59.9128427 22.5141834,59.8650686 C20.317309,59.5544731 18.2827625,61.078483 17.9631834,63.2740686 C17.5876693,65.9362359 19.4338977,68.401449 22.0941834,68.7900686 C22.4320446,68.8501767 22.7764115,68.8649737 23.1181834,68.8340686 C23.1751834,68.8270686 23.2331834,68.8200686 23.2891834,68.8170686 L23.5891834,68.7980686 L23.5891834,68.8190686 L34.1821834,67.8530686 L29.2821834,73.0970686 C29.1649237,73.222302 29.1022956,73.3890357 29.1081111,73.5604983 C29.1139266,73.7319609 29.1877079,73.894068 29.3131834,74.0110686 C29.4321806,74.1260708 29.5927957,74.1877903 29.7581834,74.1820686 L32.8441834,74.1820686 L32.8441834,77.2680686 C32.8461634,77.5277041 33.0031621,77.7610072 33.2429357,77.8606222 C33.4827093,77.9602372 33.7588079,77.9068664 33.9441834,77.7250686 L43.0801834,68.5880686 L49.0821834,68.5880686 L49.1681834,68.6740686 L58.2231834,77.7290686 C58.4079119,77.9106513 58.6822987,77.9663126 58.9231834,77.8710686 C59.1661241,77.7710199 59.3242695,77.5338017 59.3231834,77.2710686 L59.3231834,74.1850686 L62.4091834,74.1850686 C62.6667888,74.1847558 62.8997446,74.031884 63.0025538,73.795683 C63.1053631,73.559482 63.0584985,73.2848151 62.8831834,73.0960686 L57.9411834,67.8060686 L68.8981834,68.5860686 Z M21.4521834,63.5400686 L21.4521834,63.5400686 C21.4960179,63.2477227 21.708772,63.0090613 21.9941834,62.9320686 L22.2511834,61.1150686 L22.5621834,61.2010686 C23.5745199,61.4660158 24.2271222,62.4481457 24.0791834,63.4840686 C23.973344,64.2284074 23.3370069,64.7821144 22.5851834,64.7840686 C22.5152231,64.7837565 22.445376,64.7784094 22.3761834,64.7680686 C21.7832453,64.6854107 21.3693053,64.1381149 21.4511834,63.5450686 L21.4511834,63.5380686 L21.4521834,63.5400686 Z M22.9451834,67.5610702 C22.7257047,67.5612493 22.5064891,67.5458775 22.2891834,67.5150686 C20.3373212,67.2314634 18.9811592,65.4244389 19.2541834,63.4710686 C19.4081891,62.3940078 20.1861716,61.5107758 21.2351834,61.2220686 L21.4191834,61.7640686 C20.7515964,62.037665 20.2779345,62.6432376 20.1731834,63.3570686 C19.9915151,64.6529645 20.8888005,65.8529164 22.1831834,66.0450686 C22.919171,66.1524871 23.6676549,65.9626601 24.2634926,65.5174703 C24.8593302,65.0722805 25.2535538,64.408315 25.3591834,63.6720686 L25.3591834,63.6640686 C25.4249307,63.1874782 25.3863753,62.7022939 25.2461834,62.2420686 L25.1061834,61.7850686 L27.5601834,62.2730686 L27.5711834,62.4960686 C27.5892257,62.8590166 27.5741635,63.2228537 27.5261834,63.5830686 C27.1976876,65.8620129 25.2476742,67.5553447 22.9451834,67.5610702 L22.9451834,67.5610702 Z M27.0951834,67.2060686 L27.5291834,66.6770686 C28.2128815,65.8438054 28.6539968,64.8384085 28.8041834,63.7710686 C29.0779292,61.8980973 28.5998256,59.9928726 27.4741834,58.4710686 L27.0241834,57.8590686 L32.8531834,59.1290686 L32.8531834,63.2770686 C32.853183,63.6340067 33.1422458,63.9235169 33.4991834,63.9240686 L37.8591834,63.9240686 L35.5191834,66.4310686 L27.0951834,67.2060686 Z M42.1811834,67.6730686 L42.0961834,67.7580686 L34.1431834,75.7100686 L34.1431834,73.5400686 C34.1431834,73.3687387 34.0751229,73.2044261 33.9539744,73.0832776 C33.8328259,72.9621291 33.6685133,72.8940686 33.4971834,72.8940686 L31.2521834,72.8940686 L42.1821834,61.1830686 L42.1811834,67.6730686 Z M42.1811834,59.2730686 L38.8291834,62.6260686 L34.1451834,62.6260686 L34.1451834,53.6530686 L38.8291834,53.6530686 L42.1811834,57.0050686 L42.1811834,59.2730686 Z M48.7121834,67.2900686 L43.4821834,67.2900686 L43.4821834,57.3900686 L48.7161834,57.3900686 L48.7121834,67.2900686 Z M58.6891834,63.9180686 C59.0461215,63.918069 59.3356317,63.6290062 59.3361834,63.2720686 L59.3361834,59.1460686 L68.9161834,57.4050686 L68.9891834,57.4310686 C70.8643521,58.3573263 72.0472166,60.2717571 72.036653,62.3631915 C72.0259471,64.4546259 70.8236748,66.3569284 68.9391834,67.2640686 L68.8841834,67.2840686 L68.8261834,67.2840686 L56.6591834,66.4150686 L54.3321834,63.9230686 L58.6891834,63.9180686 Z M50.0061834,57.0090686 L53.3581834,53.6570686 L58.0421834,53.6570686 L58.0421834,62.6270686 L53.3561834,62.6270686 L50.0031834,59.2740686 L50.0061834,57.0090686 Z M60.9351834,72.8870686 L58.6891834,72.8870686 C58.3324075,72.8870686 58.0431834,73.1762926 58.0431834,73.5330686 L58.0431834,75.7050686 L50.0041834,67.6730686 L50.0041834,61.1850686 L60.9351834,72.8870686 Z" id="Path_15605" stroke="#FFFFFF" stroke-width="0.429"></path>
            <path d="M57.4111834,44.8960686 C57.4484887,44.8106779 57.4669088,44.7182366 57.4651834,44.6250686 L57.4651834,34.8250686 L65.4191834,32.1730686 C65.6847521,32.0862188 65.864385,31.838478 65.864385,31.5590686 C65.864385,31.2796592 65.6847521,31.0319184 65.4191834,30.9450686 L45.8281834,24.4120686 C45.6959109,24.3670379 45.5524559,24.3670379 45.4201834,24.4120686 L25.8261834,30.9420686 C25.6630732,30.9953741 25.52782,31.1112933 25.4501794,31.2643239 C25.3725389,31.4173546 25.3588713,31.5949605 25.4121834,31.7580686 L25.4121834,31.7580686 C25.4761276,31.9531407 25.6291113,32.1061244 25.8241834,32.1700686 L33.7791834,34.8270686 L33.7791834,43.6880686 C33.7793557,43.7699186 33.7949617,43.8510021 33.8251834,43.9270686 C33.9101834,44.1320686 35.9251834,48.8990686 45.3341834,48.9960686 L45.3341834,47.7030686 C37.6781834,47.6220686 35.4771834,44.2850686 35.1061834,43.6100686 L35.0721834,43.4730686 L35.0721834,35.2530686 L45.4161834,38.7010686 C45.5477712,38.7460973 45.6905956,38.7460973 45.8221834,38.7010686 L50.5721834,37.1190686 L50.5721834,38.4650686 L50.3811834,38.5320686 C49.4397927,38.8664405 48.7878429,39.7291533 48.7231834,40.7260686 L46.9101834,49.8120686 L48.1761834,50.0690686 L49.6171834,42.8490686 L49.9601834,43.0490686 C50.0921872,43.1271552 50.2315184,43.1921318 50.3761834,43.2430686 L50.5671834,43.3110686 L50.5671834,49.9290686 L51.8601834,49.9290686 L51.8601834,43.3090686 L52.0511834,43.2410686 C52.1958939,43.1898701 52.3355012,43.1252556 52.4681834,43.0480686 L52.8111834,42.8480686 L54.2521834,50.0680686 L55.5181834,49.8110686 L53.7081834,40.7620686 C53.651902,39.7524793 52.9969232,38.8745793 52.0451834,38.5330686 L51.8551834,38.4660686 L51.8551834,36.6890686 L56.1551834,35.2540686 L56.1551834,44.4400686 L56.0951834,44.5160686 C55.9644837,44.6854035 55.8210684,44.844531 55.6661834,44.9920686 L56.5131834,45.9840686 C56.8662826,45.6713341 57.1673791,45.3044149 57.4051834,44.8970686 M52.4331851,40.8880686 C52.4331851,41.3816035 52.1358315,41.8265229 51.6798259,42.015297 C51.2238204,42.204071 50.6989983,42.0995096 50.3501595,41.7503847 C50.0013208,41.4012597 49.8971897,40.8763521 50.0863377,40.4205015 C50.2754856,39.9646509 50.7206487,39.667664 51.2141834,39.6680682 C51.5377372,39.6678025 51.8481009,39.7962844 52.0767942,40.0251653 C52.3054875,40.2540462 52.4337148,40.5645152 52.4331851,40.8880686 Z M51.9081834,35.3160686 L51.8081834,35.0590686 C51.7569346,34.9272809 51.6642925,34.8156893 51.5441834,34.7410686 L47.9141834,32.5600686 L47.9911834,32.3400686 C48.078258,32.0884072 48.1241808,31.8243511 48.1271834,31.5580686 C48.1355126,30.1596808 47.0115285,29.0178131 45.6131834,29.0040686 L45.5931834,29.0040686 C44.2125402,29.0254985 43.102994,30.1479626 43.097546,31.5287614 C43.0920979,32.9095602 44.1927523,34.0407447 45.5731834,34.0730686 C46.0631773,34.0809699 46.5442643,33.9416254 46.9541834,33.6730686 L47.1031834,33.5730686 L50.6741834,35.7080686 L45.6171834,37.3950686 L45.5271834,37.3640686 L28.0691834,31.5440686 L45.6171834,25.6980686 L45.7031834,25.7290686 L63.1591834,31.5480686 L51.9081834,35.3160686 Z M46.8361834,31.5620686 C46.8356311,32.235043 46.289825,32.7802522 45.6168504,32.7800682 C44.9438757,32.779884 44.398368,32.2343763 44.3981838,31.5614016 C44.3979998,30.888427 44.943209,30.3426209 45.6161834,30.3420686 L45.6161834,30.3420686 C46.2874065,30.3431599 46.8318859,30.8858527 46.8351834,31.5570686 L46.8361834,31.5620686 Z" id="Path_15606" fill="#FFFFFF" fill-rule="nonzero"></path>
            <path d="M57.4111834,44.8960686 C57.4484887,44.8106779 57.4669088,44.7182366 57.4651834,44.6250686 L57.4651834,34.8250686 L65.4191834,32.1730686 C65.6847521,32.0862188 65.864385,31.838478 65.864385,31.5590686 C65.864385,31.2796592 65.6847521,31.0319184 65.4191834,30.9450686 L45.8281834,24.4120686 C45.6959109,24.3670379 45.5524559,24.3670379 45.4201834,24.4120686 L25.8261834,30.9420686 C25.6630732,30.9953741 25.52782,31.1112933 25.4501794,31.2643239 C25.3725389,31.4173546 25.3588713,31.5949605 25.4121834,31.7580686 L25.4121834,31.7580686 C25.4761276,31.9531407 25.6291113,32.1061244 25.8241834,32.1700686 L33.7791834,34.8270686 L33.7791834,43.6880686 C33.7793557,43.7699186 33.7949617,43.8510021 33.8251834,43.9270686 C33.9101834,44.1320686 35.9251834,48.8990686 45.3341834,48.9960686 L45.3341834,47.7030686 C37.6781834,47.6220686 35.4771834,44.2850686 35.1061834,43.6100686 L35.0721834,43.4730686 L35.0721834,35.2530686 L45.4161834,38.7010686 C45.5477712,38.7460973 45.6905956,38.7460973 45.8221834,38.7010686 L50.5721834,37.1190686 L50.5721834,38.4650686 L50.3811834,38.5320686 C49.4397927,38.8664405 48.7878429,39.7291533 48.7231834,40.7260686 L46.9101834,49.8120686 L48.1761834,50.0690686 L49.6171834,42.8490686 L49.9601834,43.0490686 C50.0921872,43.1271552 50.2315184,43.1921318 50.3761834,43.2430686 L50.5671834,43.3110686 L50.5671834,49.9290686 L51.8601834,49.9290686 L51.8601834,43.3090686 L52.0511834,43.2410686 C52.1958939,43.1898701 52.3355012,43.1252556 52.4681834,43.0480686 L52.8111834,42.8480686 L54.2521834,50.0680686 L55.5181834,49.8110686 L53.7081834,40.7620686 C53.651902,39.7524793 52.9969232,38.8745793 52.0451834,38.5330686 L51.8551834,38.4660686 L51.8551834,36.6890686 L56.1551834,35.2540686 L56.1551834,44.4400686 L56.0951834,44.5160686 C55.9644837,44.6854035 55.8210684,44.844531 55.6661834,44.9920686 L56.5131834,45.9840686 C56.868501,45.6714935 57.1716479,45.3042064 57.4111834,44.8960686 L57.4111834,44.8960686 Z M52.4391851,40.8870686 C52.4391851,41.3806035 52.1418315,41.8255229 51.6858259,42.014297 C51.2298204,42.203071 50.7049983,42.0985096 50.3561595,41.7493847 C50.0073208,41.4002597 49.9031897,40.8753521 50.0923377,40.4195015 C50.2814856,39.9636509 50.7266487,39.666664 51.2201834,39.6670682 C51.5437372,39.6668025 51.8541009,39.7952844 52.0827942,40.0241653 C52.3114875,40.2530462 52.4397148,40.5635152 52.4391851,40.8870686 L52.4391851,40.8870686 Z M51.9141834,35.3150686 L51.8141834,35.0580686 C51.7629346,34.9262809 51.6702925,34.8146893 51.5501834,34.7400686 L47.9201834,32.5590686 L47.9971834,32.3390686 C48.084258,32.0874072 48.1301808,31.8233511 48.1331834,31.5570686 C48.1415126,30.1586808 47.0175285,29.0168131 45.6191834,29.0030686 L45.5991834,29.0030686 C44.2185402,29.0244985 43.108994,30.1469626 43.103546,31.5277614 C43.0980979,32.9085602 44.1987523,34.0397447 45.5791834,34.0720686 C46.0691773,34.0799699 46.5502643,33.9406254 46.9601834,33.6720686 L47.1091834,33.5720686 L50.6801834,35.7070686 L45.6231834,37.3940686 L45.5331834,37.3630686 L28.0751834,31.5430686 L45.6231834,25.6970686 L45.7091834,25.7280686 L63.1651834,31.5470686 L51.9141834,35.3150686 Z M46.8421834,31.5610686 C46.8416311,32.234043 46.295825,32.7792522 45.6228504,32.7790682 C44.9498757,32.778884 44.404368,32.2333763 44.4041838,31.5604016 C44.4039998,30.887427 44.949209,30.3416209 45.6221834,30.3410686 L45.6221834,30.3410686 C46.2934065,30.3421599 46.8378859,30.8848527 46.8411834,31.5560686 L46.8421834,31.5610686 Z" id="Path_15607" stroke="#FFFFFF" stroke-width="0.429"></path>
        </g>
    </g>
</svg>