<?xml version="1.0" encoding="UTF-8"?>
<svg width="95px" height="95px" viewBox="0 0 95 95" version="1.1" xmlns="http://www.w3.org/2000/svg" xmlns:xlink="http://www.w3.org/1999/xlink">
    <title>Untitled 34</title>
    <g id="Page-1" stroke="none" stroke-width="1" fill="none" fill-rule="evenodd">
        <g id="Group" fill-rule="nonzero">
            <path d="M47.9037113,94.8091449 C28.1767113,94.7181449 15.7627113,85.2271449 8.20371132,66.2231449 C1.05271132,48.2341449 4.03471132,27.3021449 15.3247113,16.8151449 C16.8016594,15.4667324 18.422009,14.2843333 20.1567113,13.2891449 C49.1237113,-3.61085508 93.5407113,20.2401449 94.8057113,53.4891449 C94.9567113,57.3561449 94.8367113,62.3681449 92.6267113,65.0001449 C80.2057113,79.8601449 68.4267113,96.2421449 47.9037113,94.8091449" id="Path_15707" fill="#0370BA"></path>
            <path d="M3.39671132,26.1011449 C10.8707113,7.84514492 24.3207113,-0.109855085 44.7727113,0.00114491516 C64.1307113,0.110144915 82.4217113,10.7161449 87.9157113,25.1121449 C88.6124246,26.9863867 89.1016774,28.9313259 89.3747113,30.9121449 C94.1927113,64.1011449 55.4397113,96.3491449 24.1377113,85.0661449 C20.4957113,83.7581449 15.8937113,81.7661449 14.2817113,78.7341449 C5.15671132,61.6511449 -5.61828868,44.5901449 3.39671132,26.1011449" id="Path_15708" fill="#53AEEB"></path>
            <path d="M44.9187113,45.606156 C45.6019659,45.6081604 46.2575169,45.3362147 46.7387113,44.8511449 C47.1175787,44.4722776 47.1175787,43.8580123 46.7387113,43.4791449 C46.359844,43.1002776 45.7455787,43.1002776 45.3667113,43.4791449 C45.247811,43.5993314 45.0857737,43.6669607 44.9167113,43.6669607 C44.747649,43.6669607 44.5856116,43.5993314 44.4667113,43.4791449 L44.4667113,43.4791449 C44.087844,43.1002776 43.4735787,43.1002776 43.0947113,43.4791449 C42.715844,43.8580123 42.715844,44.4722776 43.0947113,44.8511449 C43.5763403,45.3361777 44.2321767,45.6080923 44.9157113,45.606156" id="Path_15709" fill="#FFFFFF"></path>
            <path d="M70.0097113,61.4461449 L66.0677113,61.4461449 L66.0677113,59.5801449 C66.0638544,56.1550015 63.9834216,53.0742998 60.8077113,51.7911449 C60.6377077,49.4689386 59.4217634,47.3497739 57.5027113,46.0311449 C58.3109198,43.4286192 57.6162239,40.5925214 55.6967113,38.6581449 C55.0999563,38.0609228 54.4039295,37.5719783 53.6397113,37.2131449 L53.6397113,30.6361449 L58.8397113,28.6171449 C59.2131682,28.4724693 59.4593119,28.1131459 59.4593119,27.7126449 C59.4593119,27.3121439 59.2131682,26.9528205 58.8397113,26.8081449 L45.2687113,21.5411449 C45.043387,21.4546866 44.7940357,21.4546866 44.5687113,21.5411449 L30.9967113,26.8091449 C30.6238391,26.952451 30.3769482,27.3096887 30.3747113,27.7091449 L30.3747113,33.0641449 C29.2290254,33.4857267 28.4672209,34.5763562 28.4657113,35.7971449 L28.4657113,41.7971449 C28.4668132,42.3322421 28.9006133,42.765595 29.4357113,42.7661449 L32.0847113,42.7661449 C31.9218013,43.8591745 32.0075981,44.9748748 32.3357113,46.0301449 C30.4170397,47.34934 29.2026658,49.4697103 29.0357113,51.7921449 C25.8601028,53.0744877 23.7792728,56.1544009 23.7747113,59.5791449 L23.7747113,70.1791449 C23.7758115,70.7144047 24.2094515,71.1480447 24.7447113,71.1491449 L70.0157113,71.1491449 C71.9397113,71.1491449 73.4467113,69.0151449 73.4467113,66.2981449 C73.4467113,63.5811449 71.9397113,61.4471449 70.0157113,61.4471449 M60.1547113,69.2091449 C59.4547113,69.2091449 58.6637113,67.9651449 58.6637113,66.2991449 C58.6637113,64.6331449 59.4517113,63.3891449 60.1547113,63.3891449 L67.2547113,63.3891449 C66.362771,65.2269756 66.362771,67.3723143 67.2547113,69.2101449 L60.1547113,69.2091449 Z M50.2937113,69.2091449 C49.5937113,69.2091449 48.8027113,67.9651449 48.8027113,66.2991449 C48.8027113,64.6331449 49.5897113,63.3891449 50.2937113,63.3891449 L57.3937113,63.3891449 C56.5016222,65.2269414 56.5016222,67.3723485 57.3937113,69.2101449 L50.2937113,69.2091449 Z M64.1297113,59.5831449 L64.1297113,61.4501449 L53.3367113,61.4501449 L56.1857113,53.1311449 L57.6717113,53.1311449 C61.2325413,53.1372003 64.1176559,56.0223149 64.1237113,59.5831449 M55.4237113,46.0451449 C55.214122,46.5101 55.4008131,47.0579314 55.8507113,47.2981449 C57.3736614,48.1110752 58.4494854,49.5666883 58.7797113,51.2611449 C58.4117486,51.2120215 58.0409385,51.1873008 57.6697113,51.1871449 L49.7587113,51.1871449 L49.7587113,48.7761449 C52.1794581,47.1585013 53.6334204,44.4396367 53.6347113,41.5281449 L53.6347113,39.4541449 C55.7257274,40.9440183 56.473788,43.7030933 55.4217113,46.0451449 L55.4237113,46.0451449 Z M38.1337113,38.3331449 L51.6967113,38.3331449 L51.6967113,41.5271449 C51.7240549,45.2617693 48.7268744,48.3156779 44.9923937,48.3583561 C41.2579131,48.4010343 38.1917234,45.4164189 38.1337113,41.6821449 C38.1337113,41.6311449 38.1337113,41.5821449 38.1337113,41.5271449 L38.1337113,38.3331449 Z M42.0097113,49.7511449 C43.8901534,50.4151248 45.9412692,50.4151248 47.8217113,49.7511449 L47.8217113,51.9511449 L44.9157113,58.6261449 L42.0097113,51.9511449 L42.0097113,49.7511449 Z M51.6987113,36.3931449 L38.1367113,36.3931449 L38.1367113,31.3931449 L44.5687113,33.8881449 C44.7938389,33.9756591 45.0435838,33.9756591 45.2687113,33.8881449 L51.6997113,31.3881449 L51.6987113,36.3931449 Z M44.9157113,23.4871449 L55.8067113,27.7151449 L44.9157113,31.9411449 L34.0247113,27.7151449 L44.9157113,23.4871449 Z M36.1937113,30.6371449 L36.1937113,37.2151449 C35.4924218,37.5438983 34.8482739,37.9827831 34.2857113,38.5151449 L34.2857113,35.7991449 C34.2844421,34.5535969 33.4921863,33.4463671 32.3137113,33.0431449 L32.3137113,29.1281449 L36.1937113,30.6371449 Z M30.4047113,35.8031449 C30.3933415,35.4489896 30.5757908,35.1167605 30.8807435,34.9363191 C31.1856962,34.7558777 31.5647265,34.7558777 31.8696791,34.9363191 C32.1746318,35.1167605 32.3570811,35.4489896 32.3457113,35.8031449 L32.3457113,40.8311449 L30.4047113,40.8311449 L30.4047113,35.8031449 Z M33.9797113,47.3031449 C34.4296095,47.0629314 34.6163007,46.5151 34.4067113,46.0501449 C33.3546347,43.7080933 34.1026952,40.9490183 36.1937113,39.4591449 L36.1937113,41.5321449 C36.1950022,44.4436367 37.6489645,47.1625013 40.0697113,48.7801449 L40.0697113,51.1921449 L32.1587113,51.1921449 C31.7874837,51.1922891 31.4166729,51.2170098 31.0487113,51.2661449 C31.3786684,49.57157 32.4545694,48.1158529 33.9777113,47.3031449 L33.9797113,47.3031449 Z M25.7067113,59.5871449 C25.7111203,56.0235844 28.5991501,53.1360018 32.1627113,53.1321449 L33.6477113,53.1321449 L35.0917113,57.3471449 C35.2038927,57.6751147 35.4825224,57.9183233 35.8226433,57.9851562 C36.1627642,58.0519892 36.5127038,57.9322931 36.7406433,57.6711562 C36.9685828,57.4100194 37.0398927,57.0471147 36.9277113,56.7191449 L35.6987113,53.1321449 L40.4037113,53.1321449 L44.0257113,61.4501449 C44.1799995,61.8036147 44.5290357,62.0320998 44.9147113,62.0320998 C45.300387,62.0320998 45.6494231,61.8036147 45.8037113,61.4501449 L49.4257113,53.1321449 L54.1257113,53.1321449 L51.2757113,61.4511449 L50.2757113,61.4511449 C48.3507113,61.4511449 46.8447113,63.5851449 46.8447113,66.3021449 C46.8316541,67.3115868 47.0607184,68.3094568 47.5127113,69.2121449 L41.2017113,69.2121449 L39.7547113,64.9861449 C39.5757232,64.4868224 39.0288465,64.2238722 38.5270731,64.3958697 C38.0252997,64.5678673 37.7547379,65.1110184 37.9197113,65.6151449 L39.1487113,69.2151449 L25.6987113,69.2151449 L25.7067113,59.5871449 Z M70.0067113,69.2131449 C69.3067113,69.2131449 68.5157113,67.9691449 68.5157113,66.3031449 C68.5157113,64.6371449 69.3027113,63.3931449 70.0067113,63.3931449 C70.7107113,63.3931449 71.4977113,64.6371449 71.4977113,66.3031449 C71.4977113,67.9691449 70.7107113,69.2131449 70.0067113,69.2131449" id="Path_15710" fill="#FFFFFF"></path>
            <path d="M38.3967116,61.1671449 C38.3970871,60.7042949 38.0703968,60.3056602 37.6164917,60.2151038 C37.1625866,60.1245474 36.7079361,60.3673005 36.5306705,60.7948601 C36.3534049,61.2224197 36.5029149,61.7156569 36.8877384,61.9728361 C37.2725619,62.2300154 37.7854774,62.1794801 38.1127113,61.8521449 C38.294271,61.6703742 38.3963933,61.4240581 38.3967116,61.1671449" id="Path_15711" fill="#FFFFFF"></path>
        </g>
    </g>
</svg>