<?xml version="1.0" encoding="UTF-8"?>
<svg width="95px" height="95px" viewBox="0 0 95 95" version="1.1" xmlns="http://www.w3.org/2000/svg" xmlns:xlink="http://www.w3.org/1999/xlink">
    <title>Untitled 33</title>
    <g id="Page-1" stroke="none" stroke-width="1" fill="none" fill-rule="evenodd">
        <g id="Group">
            <path d="M47.9037113,94.8091449 C28.1767113,94.7181449 15.7627113,85.2271449 8.20371132,66.2231449 C1.05271132,48.2341449 4.03471132,27.3021449 15.3247113,16.8151449 C16.8016696,15.4667449 18.4220177,14.2843468 20.1567113,13.2891449 C49.1237113,-3.61085508 93.5407113,20.2401449 94.8057113,53.4891449 C94.9567113,57.3561449 94.8367113,62.3681449 92.6267113,65.0001449 C80.2057113,79.8601449 68.4267113,96.2421449 47.9037113,94.8091449" id="Path_15608" fill="#0370BA" fill-rule="nonzero"></path>
            <path d="M3.39671132,26.1011449 C10.8707113,7.84514492 24.3207113,-0.109855085 44.7727113,0.00114491516 C64.1307113,0.110144915 82.4217113,10.7161449 87.9157113,25.1121449 C88.6124323,26.9863843 89.1016853,28.9313243 89.3747113,30.9121449 C94.1927113,64.1011449 55.4397113,96.3491449 24.1377113,85.0661449 C20.4957113,83.7581449 15.8937113,81.7661449 14.2817113,78.7341449 C5.15671132,61.6511449 -5.61828868,44.5901449 3.39671132,26.1011449" id="Path_15609" fill="#53AEEB" fill-rule="nonzero"></path>
            <path d="M44.2837113,30.2531449 L43.8327113,30.2531449 C43.5193894,30.2531449 43.2298679,30.4203001 43.0732069,30.6916449 C42.9165459,30.9629896 42.9165459,31.2973002 43.0732069,31.568645 C43.2298679,31.8399897 43.5193894,32.0071449 43.8327113,32.0071449 L44.2837113,32.0071449 C44.5970333,32.0071449 44.8865547,31.8399897 45.0432157,31.568645 C45.1998767,31.2973002 45.1998767,30.9629896 45.0432157,30.6916449 C44.8865547,30.4203001 44.5970333,30.2531449 44.2837113,30.2531449" id="Path_15610" fill="#FFFFFF" fill-rule="nonzero"></path>
            <path d="M44.2837113,30.2531449 L43.8327113,30.2531449 C43.5193894,30.2531449 43.2298679,30.4203001 43.0732069,30.6916449 C42.9165459,30.9629896 42.9165459,31.2973002 43.0732069,31.568645 C43.2298679,31.8399897 43.5193894,32.0071449 43.8327113,32.0071449 L44.2837113,32.0071449 C44.5970333,32.0071449 44.8865547,31.8399897 45.0432157,31.568645 C45.1998767,31.2973002 45.1998767,30.9629896 45.0432157,30.6916449 C44.8865547,30.4203001 44.5970333,30.2531449 44.2837113,30.2531449 L44.2837113,30.2531449 Z" id="Path_15611" stroke="#FFFFFF" stroke-width="0.238"></path>
            <path d="M51.8107113,36.0501449 C51.4973894,36.0501449 51.2078679,36.2173001 51.0512069,36.4886449 C50.8945459,36.7599896 50.8945459,37.0943002 51.0512069,37.365645 C51.2078679,37.6369897 51.4973894,37.8041451 51.8107113,37.8041451 C53.1870048,37.8046971 54.3031587,36.6894385 54.3037111,35.313145 C54.3042632,33.9368516 53.1890046,32.8206976 51.8127112,32.8201451 C50.4364178,32.819593 49.3202637,33.9348515 49.3197113,35.3111449 L49.3197113,35.3111449 C49.3197113,35.7954986 49.7123576,36.1881449 50.1967113,36.1881449 C50.681065,36.1881449 51.0737113,35.7954986 51.0737113,35.3111449 C51.0737113,34.9035588 51.4041252,34.5731449 51.8117113,34.5731449 C52.2192975,34.5731449 52.5497113,34.9035588 52.5497113,35.3111449 C52.5497113,35.7187311 52.2192975,36.0491449 51.8117113,36.0491449 L51.8107113,36.0501449 Z" id="Path_15612" fill="#FFFFFF" fill-rule="nonzero"></path>
            <path d="M51.8107113,36.0501449 C51.4973894,36.0501449 51.2078679,36.2173001 51.0512069,36.4886449 C50.8945459,36.7599896 50.8945459,37.0943002 51.0512069,37.365645 C51.2078679,37.6369897 51.4973894,37.8041451 51.8107113,37.8041451 C53.1870048,37.8046971 54.3031587,36.6894385 54.3037111,35.313145 C54.3042632,33.9368516 53.1890046,32.8206976 51.8127112,32.8201451 C50.4364178,32.819593 49.3202637,33.9348515 49.3197113,35.3111449 L49.3197113,35.3111449 C49.3197113,35.7954986 49.7123576,36.1881449 50.1967113,36.1881449 C50.681065,36.1881449 51.0737113,35.7954986 51.0737113,35.3111449 C51.0737113,34.9035588 51.4041252,34.5731449 51.8117113,34.5731449 C52.2192975,34.5731449 52.5497113,34.9035588 52.5497113,35.3111449 C52.5497113,35.7187311 52.2192975,36.0491449 51.8117113,36.0491449 L51.8107113,36.0501449 Z" id="Path_15613" stroke="#FFFFFF" stroke-width="0.238"></path>
            <path d="M45.4097113,37.8071451 C46.7860048,37.8076971 47.9021587,36.6924385 47.9027111,35.316145 C47.9032632,33.9398516 46.7880046,32.8236976 45.4117112,32.8231451 C44.0354178,32.822593 42.9192637,33.9378515 42.9187113,35.3141449 L42.9187113,35.3141449 C42.9187113,36.6900481 44.0338083,37.8055928 45.4097113,37.8061449 M45.4097113,34.5761442 C45.8172975,34.5761442 46.1477113,34.9065588 46.1477113,35.3141449 C46.1477113,35.7217311 45.8172975,36.0521449 45.4097113,36.0521449 C45.0021252,36.0521449 44.6717106,35.7217311 44.6717106,35.3141449 C44.6714455,35.1183338 44.7491134,34.9304661 44.8875729,34.7920065 C45.0260325,34.653547 45.2139002,34.575879 45.4097113,34.5761442" id="Path_15614" fill="#FFFFFF" fill-rule="nonzero"></path>
            <path d="M45.4097113,37.8071451 C46.7860048,37.8076971 47.9021587,36.6924385 47.9027111,35.316145 C47.9032632,33.9398516 46.7880046,32.8236976 45.4117112,32.8231451 C44.0354178,32.822593 42.9192637,33.9378515 42.9187111,35.3141449 L42.9187111,35.3141449 C42.918446,35.9750644 43.1807409,36.6090198 43.6478941,37.076548 C44.1150472,37.5440762 44.7487918,37.8068798 45.4097113,37.8071451 L45.4097113,37.8071451 Z M45.4097113,34.5771442 C45.8172975,34.5771442 46.1477113,34.9075588 46.1477113,35.3151449 C46.1477113,35.7227311 45.8172975,36.0531449 45.4097113,36.0531449 C45.0021252,36.0531449 44.6717106,35.7227311 44.6717106,35.3151449 C44.6714455,35.1193338 44.7491134,34.9314661 44.8875729,34.7930065 C45.0260325,34.654547 45.2139002,34.576879 45.4097113,34.5771442 L45.4097113,34.5771442 Z" id="Path_15615" stroke="#FFFFFF" stroke-width="0.238"></path>
            <path d="M41.1647113,23.0201449 C39.78897,23.0201449 38.6737113,24.1354036 38.6737113,25.5111449 C38.6737113,26.8868862 39.78897,28.0021449 41.1647113,28.0021449 C42.5404526,28.0021449 43.6557113,26.8868862 43.6557113,25.5111449 C43.6557113,24.8504906 43.3932674,24.216895 42.9261143,23.7497419 C42.4589612,23.2825888 41.8253656,23.0201449 41.1647113,23.0201449 M41.1647113,26.2491456 C40.7571252,26.2491456 40.4267113,25.9187311 40.4267113,25.5111449 C40.4267113,25.1035588 40.7571252,24.7731449 41.1647113,24.7731449 C41.5722975,24.7731449 41.902712,25.1035588 41.902712,25.5111449 C41.9029772,25.7069561 41.8253092,25.8948238 41.6868497,26.0332833 C41.5483902,26.1717428 41.3605225,26.2494108 41.1647113,26.2491456" id="Path_15616" fill="#FFFFFF" fill-rule="nonzero"></path>
            <path d="M41.1647113,23.0201449 C39.78897,23.0201449 38.6737113,24.1354036 38.6737113,25.5111449 C38.6737113,26.8868862 39.78897,28.0021449 41.1647113,28.0021449 C42.5404526,28.0021449 43.6557113,26.8868862 43.6557113,25.5111449 C43.6557113,24.1354036 42.5404526,23.0201449 41.1647113,23.0201449 L41.1647113,23.0201449 Z M41.1647113,26.2491449 C40.7571252,26.2491449 40.4267113,25.9187311 40.4267113,25.5111449 C40.4267113,25.1035588 40.7571252,24.7731449 41.1647113,24.7731449 C41.5722975,24.7731449 41.9027113,25.1035588 41.9027113,25.5111449 C41.9016082,25.9177881 41.5713557,26.2466982 41.1647113,26.2461449 L41.1647113,26.2491449 Z" id="Path_15617" stroke="#FFFFFF" stroke-width="0.238"></path>
            <path d="M47.5667113,28.0001449 C48.9424526,28.0001449 50.0577113,26.8848862 50.0577113,25.5091449 C50.0577113,24.1334036 48.9424526,23.0181449 47.5667113,23.0181449 C46.19097,23.0181449 45.0757113,24.1334036 45.0757113,25.5091449 C45.0757113,26.8848862 46.19097,28.0001449 47.5667113,28.0001449 M47.5667113,24.7711442 C47.9742975,24.7711442 48.3047113,25.1015588 48.3047113,25.5091449 C48.3047113,25.9167311 47.9742975,26.2471449 47.5667113,26.2471449 C47.1591252,26.2471449 46.8287106,25.9167311 46.8287106,25.5091449 C46.8284455,25.3133338 46.9061134,25.1254661 47.0445729,24.9870065 C47.1830325,24.848547 47.3709002,24.770879 47.5667113,24.7711442" id="Path_15618" fill="#FFFFFF" fill-rule="nonzero"></path>
            <path d="M47.5667113,28.0001449 C48.9424526,28.0001449 50.0577113,26.8848862 50.0577113,25.5091449 C50.0577113,24.1334036 48.9424526,23.0181449 47.5667113,23.0181449 C46.19097,23.0181449 45.0757113,24.1334036 45.0757113,25.5091449 C45.0757113,26.8848862 46.19097,28.0001449 47.5667113,28.0001449 L47.5667113,28.0001449 Z M47.5667113,24.7711442 C47.9742975,24.7711442 48.3047113,25.1015588 48.3047113,25.5091449 C48.3047113,25.9167311 47.9742975,26.2471449 47.5667113,26.2471449 C47.1591252,26.2471449 46.8287106,25.9167311 46.8287106,25.5091449 C46.8284455,25.3133338 46.9061134,25.1254661 47.0445729,24.9870065 C47.1830325,24.848547 47.3709002,24.770879 47.5667113,24.7711442 L47.5667113,24.7711442 Z" id="Path_15619" stroke="#FFFFFF" stroke-width="0.238"></path>
            <path d="M53.3757113,18.4881449 L28.9547113,18.4881449 C28.4711383,18.488696 28.0792624,18.8805719 28.0787075,19.3641449 L28.0787075,35.4011449 C28.0776278,35.76894 28.3061533,36.0983384 28.6510434,36.2261086 C28.9959336,36.3538788 29.3839092,36.2528733 29.6227113,35.9731449 L33.0017113,32.0091449 L38.7237113,32.0091449 L38.7237113,40.9361449 C38.7237113,41.4199464 39.1159099,41.8121449 39.5997113,41.8121449 L59.9767113,41.8121449 L63.3557113,45.7761449 C63.5940158,46.0570622 63.9826074,46.1588761 64.3280441,46.0309034 C64.6734809,45.9029307 64.9019469,45.5725178 64.8997276,45.2041449 L64.8997276,29.1681449 C64.8991595,28.6841818 64.5066748,28.2921446 64.0227113,28.2921449 L59.8227113,28.2921449 C59.3383577,28.292145 58.9457115,28.6847912 58.9457115,29.1691449 C58.9457115,29.6534986 59.3383577,30.0461448 59.8227113,30.0461449 L63.1417113,30.0461449 L63.1417113,42.8201449 L61.0417113,40.3591449 C60.8752776,40.1631015 60.630874,40.0504124 60.3737113,40.0511449 L40.4737113,40.0511449 L40.4737113,32.0021449 L40.9007113,32.0021449 C41.3847889,32.0021449 41.7772113,31.6097225 41.7772113,31.1256449 C41.7772113,30.6415673 41.3847889,30.2491449 40.9007113,30.2491449 L32.5967113,30.2491449 C32.3398979,30.248707 32.0959192,30.3613688 31.9297113,30.5571449 L29.8297113,33.0181449 L29.8297113,20.2441449 L52.4967113,20.2441449 L52.4967113,30.2561449 L46.9507113,30.2561449 C46.4663577,30.256145 46.0737115,30.6487912 46.0737115,31.1331449 C46.0737115,31.6174986 46.4663577,32.0101448 46.9507113,32.0101449 L53.3727113,32.0101449 C53.8565128,32.0101449 54.2487113,31.6179464 54.2487113,31.1341449 L54.2487113,19.3621449 C54.2470601,18.8793532 53.8555056,18.4886926 53.3727113,18.4881449" id="Path_15620" fill="#FFFFFF" fill-rule="nonzero"></path>
            <path d="M53.3757113,18.4881449 L28.9547113,18.4881449 C28.4711383,18.488696 28.0792624,18.8805719 28.0787075,19.3641449 L28.0787075,35.4011449 C28.0776278,35.76894 28.3061533,36.0983384 28.6510434,36.2261086 C28.9959336,36.3538788 29.3839092,36.2528733 29.6227113,35.9731449 L33.0017113,32.0091449 L38.7237113,32.0091449 L38.7237113,40.9361449 C38.7237113,41.4199464 39.1159099,41.8121449 39.5997113,41.8121449 L59.9767113,41.8121449 L63.3557113,45.7761449 C63.5940158,46.0570622 63.9826074,46.1588761 64.3280441,46.0309034 C64.6734809,45.9029307 64.9019469,45.5725178 64.8997276,45.2041449 L64.8997276,29.1681449 C64.8991595,28.6841818 64.5066748,28.2921446 64.0227113,28.2921449 L59.8227113,28.2921449 C59.3383577,28.292145 58.9457115,28.6847912 58.9457115,29.1691449 C58.9457115,29.6534986 59.3383577,30.0461448 59.8227113,30.0461449 L63.1417113,30.0461449 L63.1417113,42.8201449 L61.0417113,40.3591449 C60.8752776,40.1631015 60.630874,40.0504124 60.3737113,40.0511449 L40.4737113,40.0511449 L40.4737113,32.0021449 L40.9007113,32.0021449 C41.3847889,32.0021449 41.7772113,31.6097225 41.7772113,31.1256449 C41.7772113,30.6415673 41.3847889,30.2491449 40.9007113,30.2491449 L32.5967113,30.2491449 C32.3398979,30.248707 32.0959192,30.3613688 31.9297113,30.5571449 L29.8297113,33.0181449 L29.8297113,20.2441449 L52.4967113,20.2441449 L52.4967113,30.2561449 L46.9507113,30.2561449 C46.4663577,30.256145 46.0737115,30.6487912 46.0737115,31.1331449 C46.0737115,31.6174986 46.4663577,32.0101448 46.9507113,32.0101449 L53.3727113,32.0101449 C53.8565128,32.0101449 54.2487113,31.6179464 54.2487113,31.1341449 L54.2487113,19.3621449 C54.2470688,18.8805199 53.8573342,18.4903388 53.3757113,18.4881449 L53.3757113,18.4881449 Z" id="Path_15621" stroke="#FFFFFF" stroke-width="0.238"></path>
            <path d="M56.8167113,28.2921449 L56.3847113,28.2921449 C56.0713894,28.2921449 55.7818679,28.4593001 55.6252069,28.7306449 C55.4685459,29.0019896 55.4685459,29.3363002 55.6252069,29.607645 C55.7818679,29.8789897 56.0713894,30.0461449 56.3847113,30.0461449 L56.8167113,30.0461449 C57.301065,30.0461449 57.6937112,29.6534986 57.6937112,29.1691449 C57.6937112,28.6847912 57.301065,28.2921449 56.8167113,28.2921449" id="Path_15622" fill="#FFFFFF" fill-rule="nonzero"></path>
            <path d="M56.8167113,28.2921449 L56.3847113,28.2921449 C56.0713894,28.2921449 55.7818679,28.4593001 55.6252069,28.7306449 C55.4685459,29.0019896 55.4685459,29.3363002 55.6252069,29.607645 C55.7818679,29.8789897 56.0713894,30.0461449 56.3847113,30.0461449 L56.8167113,30.0461449 C57.301065,30.0461449 57.6937112,29.6534986 57.6937112,29.1691449 C57.6937112,28.6847912 57.301065,28.2921449 56.8167113,28.2921449 L56.8167113,28.2921449 Z" id="Path_15623" stroke="#FFFFFF" stroke-width="0.238"></path>
            <path d="M34.7667113,26.2461449 C34.3591252,26.2461449 34.0287113,25.9157311 34.0287113,25.5081449 C34.0287113,25.0237912 33.636065,24.6311449 33.1517113,24.6311449 C32.6673576,24.6311449 32.2747111,25.0237912 32.2747111,25.5081449 C32.2743068,26.5161557 32.8812066,27.4251362 33.8123711,27.8111656 C34.7435356,28.1971949 35.8155532,27.9842369 36.5284676,27.2716086 C37.2413819,26.5589803 37.4547702,25.4870483 37.0691146,24.5557289 C36.683459,23.6244096 35.7747222,23.0171449 34.7667113,23.0171449 C34.2823576,23.0171449 33.8897113,23.4097912 33.8897113,23.8941449 C33.8897113,24.3784986 34.2823576,24.7711449 34.7667113,24.7711449 C35.1742974,24.771145 35.5047112,25.1015588 35.5047112,25.5091449 C35.5047112,25.916731 35.1742974,26.2471448 34.7667113,26.2471449 L34.7667113,26.2461449 Z" id="Path_15624" fill="#FFFFFF" fill-rule="nonzero"></path>
            <path d="M34.7667113,26.2461449 C34.3591252,26.2461449 34.0287113,25.9157311 34.0287113,25.5081449 C34.0287113,25.0237912 33.636065,24.6311449 33.1517113,24.6311449 C32.6673576,24.6311449 32.2747111,25.0237912 32.2747111,25.5081449 C32.2743068,26.5161557 32.8812066,27.4251362 33.8123711,27.8111656 C34.7435356,28.1971949 35.8155532,27.9842369 36.5284676,27.2716086 C37.2413819,26.5589803 37.4547702,25.4870483 37.0691146,24.5557289 C36.683459,23.6244096 35.7747222,23.0171449 34.7667113,23.0171449 C34.2823576,23.0171449 33.8897113,23.4097912 33.8897113,23.8941449 C33.8897113,24.3784986 34.2823576,24.7711449 34.7667113,24.7711449 C35.1742974,24.771145 35.5047112,25.1015588 35.5047112,25.5091449 C35.5047112,25.916731 35.1742974,26.2471448 34.7667113,26.2471449 L34.7667113,26.2461449 Z" id="Path_15625" stroke="#FFFFFF" stroke-width="0.238"></path>
            <path d="M59.6377113,46.7731448 C56.3202671,46.7736972 53.6313432,49.4633672 53.6317114,52.7808115 C53.6320795,56.0982558 56.3216003,58.7873289 59.6390446,58.7871448 C62.9564889,58.7869608 65.6457113,56.0975892 65.6457113,52.7801449 C65.6457113,51.1868162 65.0126955,49.6587607 63.8859482,48.5322009 C62.7592009,47.4056411 61.23104,46.7728797 59.6377113,46.7731448 M59.6377113,57.0421449 C57.2860829,57.0421449 55.3797113,55.1357734 55.3797113,52.7841449 C55.3797113,50.4325165 57.2860829,48.5261449 59.6377113,48.5261449 C61.9893398,48.5261449 63.8957113,50.4325165 63.8957113,52.7841449 C63.8957113,55.1357734 61.9893398,57.0421449 59.6377113,57.0421449" id="Path_15626" fill="#FFFFFF" fill-rule="nonzero"></path>
            <path d="M59.6377113,46.7731448 C56.3202671,46.7736972 53.6313432,49.4633672 53.6317114,52.7808115 C53.6320795,56.0982558 56.3216003,58.7873289 59.6390446,58.7871448 C62.9564889,58.7869608 65.6457113,56.0975892 65.6457113,52.7801449 C65.6457113,51.1868162 65.0126955,49.6587607 63.8859482,48.5322009 C62.7592009,47.4056411 61.23104,46.7728797 59.6377113,46.7731448 Z M59.6377113,57.0421449 C57.2860829,57.0421449 55.3797113,55.1357734 55.3797113,52.7841449 C55.3797113,50.4325165 57.2860829,48.5261449 59.6377113,48.5261449 C61.9893398,48.5261449 63.8957113,50.4325165 63.8957113,52.7841449 C63.8957113,55.1357734 61.9893398,57.0421449 59.6377113,57.0421449 Z" id="Path_15627" stroke="#FFFFFF" stroke-width="0.238"></path>
            <path d="M33.3387113,54.2061449 C33.823065,54.2061449 34.2157113,53.8134986 34.2157113,53.3291449 C34.2157113,52.8447912 33.823065,52.4521449 33.3387113,52.4521449 C31.4837254,52.4494907 29.844435,51.2448769 29.2877961,49.4753761 C28.7311572,47.7058753 29.385588,45.7797165 30.9049858,44.715569 C32.4243837,43.6514214 34.4582192,43.694787 35.9308771,44.8227314 C37.403535,45.9506758 37.9752689,47.902979 37.3437113,49.6471449 C37.2217051,49.9432247 37.2707773,50.2822656 37.4717261,50.5316014 C37.6726749,50.7809372 37.9935491,50.900923 38.3087909,50.8446086 C38.6240328,50.7882941 38.8835184,50.5646336 38.9857113,50.2611449 L38.9917113,50.2441449 C39.8851897,47.7795616 39.0778017,45.0201938 36.9967191,43.4259638 C34.9156364,41.8317338 32.041223,41.7706284 29.8942694,43.274977 C27.7473159,44.7793257 26.8233908,47.5018886 27.6113231,50.002216 C28.3992554,52.5025434 30.7171714,54.2034995 33.3387113,54.2051449 L33.3387113,54.2061449 Z" id="Path_15628" fill="#FFFFFF" fill-rule="nonzero"></path>
            <path d="M33.3387113,54.2061449 C33.823065,54.2061449 34.2157113,53.8134986 34.2157113,53.3291449 C34.2157113,52.8447912 33.823065,52.4521449 33.3387113,52.4521449 C31.4837254,52.4494907 29.844435,51.2448769 29.2877961,49.4753761 C28.7311572,47.7058753 29.385588,45.7797165 30.9049858,44.715569 C32.4243837,43.6514214 34.4582192,43.694787 35.9308771,44.8227314 C37.403535,45.9506758 37.9752689,47.902979 37.3437113,49.6471449 C37.2217051,49.9432247 37.2707773,50.2822656 37.4717261,50.5316014 C37.6726749,50.7809372 37.9935491,50.900923 38.3087909,50.8446086 C38.6240328,50.7882941 38.8835184,50.5646336 38.9857113,50.2611449 L38.9917113,50.2441449 C39.8851897,47.7795616 39.0778017,45.0201938 36.9967191,43.4259638 C34.9156364,41.8317338 32.041223,41.7706284 29.8942694,43.274977 C27.7473159,44.7793257 26.8233908,47.5018886 27.6113231,50.002216 C28.3992554,52.5025434 30.7171714,54.2034995 33.3387113,54.2051449 L33.3387113,54.2061449 Z" id="Path_15629" stroke="#FFFFFF" stroke-width="0.238"></path>
            <path d="M22.9307113,59.6651449 L21.4577113,66.8531449 C21.3633319,67.3283189 21.6716616,67.7901421 22.1467113,67.8851449 C22.202431,67.895799 22.2589861,67.9014879 22.3157113,67.9021449 L44.3587113,67.9021449 C44.8432269,67.9004906 45.2348178,67.5066621 45.2337137,67.0221449 C45.2337137,66.9653906 45.2279021,66.9087851 45.2167113,66.8531449 L43.7437113,59.6651449 C43.3494432,57.7526667 41.8697438,56.2494801 39.9637113,55.8251449 L38.4637113,55.4941449 C35.084739,54.7511573 31.5846837,54.7511573 28.2057113,55.4941449 L26.7057113,55.8251449 C24.7992914,56.2491332 23.3191324,57.7523891 22.9247113,59.6651449 M28.5867113,57.2061449 C31.7160091,56.5181485 34.9574135,56.5181485 38.0867113,57.2061449 L39.5867113,57.5371449 C40.8177418,57.8103546 41.773549,58.7810412 42.0277113,60.0161449 L43.2857113,66.1521449 L23.3967113,66.1521449 L24.6517113,60.0161449 C24.9058736,58.7810412 25.8616808,57.8103546 27.0927113,57.5371449 L28.5867113,57.2061449 Z" id="Path_15630" fill="#FFFFFF" fill-rule="nonzero"></path>
            <path d="M22.9307113,59.6651449 L21.4577113,66.8531449 C21.3633319,67.3283189 21.6716616,67.7901421 22.1467113,67.8851449 C22.202431,67.895799 22.2589861,67.9014879 22.3157113,67.9021449 L44.3587113,67.9021449 C44.8432269,67.9004906 45.2348178,67.5066621 45.2337137,67.0221449 C45.2337137,66.9653906 45.2279021,66.9087851 45.2167113,66.8531449 L43.7437113,59.6651449 C43.3494432,57.7526667 41.8697438,56.2494801 39.9637113,55.8251449 L38.4637113,55.4941449 C35.084739,54.7511573 31.5846837,54.7511573 28.2057113,55.4941449 L26.7057113,55.8251449 C24.801616,56.251213 23.3242138,57.7540539 22.9307113,59.6651449 L22.9307113,59.6651449 Z M28.5927113,57.2061449 C31.7220091,56.5181485 34.9634135,56.5181485 38.0927113,57.2061449 L39.5927113,57.5371449 C40.8237418,57.8103546 41.779549,58.7810412 42.0337113,60.0161449 L43.2917113,66.1521449 L23.3967113,66.1521449 L24.6517113,60.0161449 C24.9058736,58.7810412 25.8616808,57.8103546 27.0927113,57.5371449 L28.5927113,57.2061449 Z" id="Path_15631" stroke="#FFFFFF" stroke-width="0.238"></path>
            <path d="M36.0187113,51.5061449 C35.9677113,51.5481449 35.9187113,51.5881449 35.8617113,51.6271449 C35.4826983,51.917884 35.4060729,52.4584772 35.6893591,52.8430927 C35.9726453,53.2277082 36.5116399,53.3148702 36.9017113,53.0391449 C36.9767113,52.9831449 37.0497113,52.9271449 37.1217113,52.8691449 C37.4846782,52.561682 37.5359435,52.0207433 37.2371969,51.6505692 C36.9384504,51.2803951 36.3988834,51.2162836 36.0217113,51.5061449 L36.0187113,51.5061449 Z" id="Path_15632" fill="#FFFFFF" fill-rule="nonzero"></path>
            <path d="M36.0187113,51.5061449 C35.9677113,51.5481449 35.9187113,51.5881449 35.8617113,51.6271449 C35.4826983,51.917884 35.4060729,52.4584772 35.6893591,52.8430927 C35.9726453,53.2277082 36.5116399,53.3148702 36.9017113,53.0391449 C36.9767113,52.9831449 37.0497113,52.9271449 37.1217113,52.8691449 C37.4846782,52.561682 37.5359435,52.0207433 37.2371969,51.6505692 C36.9384504,51.2803951 36.3988834,51.2162836 36.0217113,51.5061449 L36.0187113,51.5061449 Z" id="Path_15633" stroke="#FFFFFF" stroke-width="0.238"></path>
            <path d="M55.7217113,35.3141449 C55.7217113,36.6898862 56.83697,37.8051449 58.2127113,37.8051449 C59.5884526,37.8051449 60.7037113,36.6898862 60.7037113,35.3141449 C60.7037113,33.9384036 59.5884526,32.8231449 58.2127113,32.8231449 C57.552057,32.8231449 56.9184614,33.0855888 56.4513083,33.5527419 C55.9841552,34.019895 55.7217113,34.6534906 55.7217113,35.3141449 M58.2127113,34.5761442 C58.6202975,34.5761442 58.9507113,34.9065588 58.9507113,35.3141449 C58.9507113,35.7217311 58.6202975,36.0521449 58.2127113,36.0521449 C57.8051252,36.0521449 57.4747106,35.7217311 57.4747106,35.3141449 C57.4744455,35.1183338 57.5521134,34.9304661 57.6905729,34.7920065 C57.8290325,34.653547 58.0169002,34.575879 58.2127113,34.5761442" id="Path_15634" fill="#FFFFFF" fill-rule="nonzero"></path>
            <path d="M55.7217113,35.3141449 C55.7217113,36.6898862 56.83697,37.8051449 58.2127113,37.8051449 C59.5884526,37.8051449 60.7037113,36.6898862 60.7037113,35.3141449 C60.7037113,33.9384036 59.5884526,32.8231449 58.2127113,32.8231449 C56.83697,32.8231449 55.7217113,33.9384036 55.7217113,35.3141449 Z M58.2127113,34.5761442 C58.6202975,34.5761442 58.9507113,34.9065588 58.9507113,35.3141449 C58.9507113,35.7217311 58.6202975,36.0521449 58.2127113,36.0521449 C57.8051252,36.0521449 57.4747106,35.7217311 57.4747106,35.3141449 C57.4744455,35.1183338 57.5521134,34.9304661 57.6905729,34.7920065 C57.8290325,34.653547 58.0169002,34.575879 58.2127113,34.5761442 L58.2127113,34.5761442 Z" id="Path_15635" stroke="#FFFFFF" stroke-width="0.238"></path>
            <path d="M66.4217113,60.4481449 C66.3687113,60.4341449 66.3157113,60.4211449 66.2617113,60.4101449 C65.787851,60.3065915 65.3197647,60.6067846 65.2162113,61.0806449 C65.1126579,61.5545052 65.412851,62.0225915 65.8867113,62.1261449 L65.9867113,62.1501449 C66.0581814,62.1689708 66.1318038,62.1783837 66.2057113,62.1781551 C66.6490471,62.180271 67.0240797,61.8508429 67.0791321,61.4109334 C67.1341845,60.9710239 66.8518988,60.5593358 66.4217113,60.4521449 L66.4217113,60.4481449 Z" id="Path_15636" fill="#FFFFFF" fill-rule="nonzero"></path>
            <path d="M66.4217113,60.4481449 C66.3687113,60.4341449 66.3157113,60.4211449 66.2617113,60.4101449 C65.787851,60.3065915 65.3197647,60.6067846 65.2162113,61.0806449 C65.1126579,61.5545052 65.412851,62.0225915 65.8867113,62.1261449 L65.9867113,62.1501449 C66.0581814,62.1689708 66.1318038,62.1783837 66.2057113,62.1781551 C66.6490471,62.180271 67.0240797,61.8508429 67.0791321,61.4109334 C67.1341845,60.9710239 66.8518988,60.5593358 66.4217113,60.4521449 L66.4217113,60.4481449 Z" id="Path_15637" stroke="#FFFFFF" stroke-width="0.238"></path>
            <path d="M50.9497113,64.6031449 C51.2038736,63.3680412 52.1596808,62.3973546 53.3907113,62.1241449 L54.8907113,61.7911449 C57.6708303,61.1746079 60.5445637,61.1066709 63.3507113,61.5911449 C63.8278853,61.6739876 64.2818685,61.3543189 64.3647112,60.8771449 C64.4475539,60.3999709 64.1278853,59.9459877 63.6507113,59.8631449 C60.6207464,59.3412747 57.518038,59.4160061 54.5167113,60.0831449 L53.0167113,60.4151449 C51.1104201,60.8393655 49.6303667,62.3425142 49.2357113,64.2551449 L47.7587113,71.4381449 C47.7130801,71.6659673 47.7598269,71.9025855 47.8886667,72.0959389 C48.0175065,72.2892924 48.2178837,72.4235401 48.4457113,72.4691449 C48.5022546,72.4811615 48.5599053,72.4871452 48.6177113,72.4871452 L70.6597113,72.4871452 C71.1436744,72.4860415 71.5352644,72.093109 71.5347255,71.6091449 C71.5350494,71.5517068 71.5293514,71.4943922 71.5177113,71.4381449 L70.0447113,64.2501449 C69.9041739,63.5595715 69.6170395,62.9072103 69.2027113,62.3371449 C68.9135234,61.9596611 68.3761856,61.8814157 67.9913538,62.160751 C67.6065221,62.4400862 67.5144154,62.9752223 67.7837113,63.3671449 C68.0520195,63.7364812 68.2372558,64.1594884 68.3267113,64.6071449 L69.5817113,70.7421449 L49.6967113,70.7421449 L50.9497113,64.6031449 Z" id="Path_15638" fill="#FFFFFF" fill-rule="nonzero"></path>
            <path d="M50.9497113,64.6031449 C51.2038736,63.3680412 52.1596808,62.3973546 53.3907113,62.1241449 L54.8907113,61.7911449 C57.6708303,61.1746079 60.5445637,61.1066709 63.3507113,61.5911449 C63.8278853,61.6739876 64.2818685,61.3543189 64.3647112,60.8771449 C64.4475539,60.3999709 64.1278853,59.9459877 63.6507113,59.8631449 C60.6207464,59.3412747 57.518038,59.4160061 54.5167113,60.0831449 L53.0167113,60.4151449 C51.1104201,60.8393655 49.6303667,62.3425142 49.2357113,64.2551449 L47.7587113,71.4381449 C47.7130801,71.6659673 47.7598269,71.9025855 47.8886667,72.0959389 C48.0175065,72.2892924 48.2178837,72.4235401 48.4457113,72.4691449 C48.5022546,72.4811615 48.5599053,72.4871452 48.6177113,72.4871452 L70.6597113,72.4871452 C71.1436744,72.4860415 71.5352644,72.093109 71.5347255,71.6091449 C71.5350494,71.5517068 71.5293514,71.4943922 71.5177113,71.4381449 L70.0447113,64.2501449 C69.9041739,63.5595715 69.6170395,62.9072103 69.2027113,62.3371449 C68.9135234,61.9596611 68.3761856,61.8814157 67.9913538,62.160751 C67.6065221,62.4400862 67.5144154,62.9752223 67.7837113,63.3671449 C68.0520195,63.7364812 68.2372558,64.1594884 68.3267113,64.6071449 L69.5817113,70.7421449 L49.6967113,70.7421449 L50.9497113,64.6031449 Z" id="Path_15639" stroke="#FFFFFF" stroke-width="0.238"></path>
        </g>
    </g>
</svg>