<?xml version="1.0" encoding="UTF-8"?>
<svg width="98px" height="97px" viewBox="0 0 98 97" version="1.1" xmlns="http://www.w3.org/2000/svg" xmlns:xlink="http://www.w3.org/1999/xlink">
    <title>Untitled 36</title>
    <g id="Page-1" stroke="none" stroke-width="1" fill="none" fill-rule="evenodd">
        <g id="Group">
            <path d="M51.5131288,9.91285358 C71.2131288,8.94885358 84.1201288,17.7628536 92.6851288,36.3348536 C100.785129,53.9158536 98.9291288,74.9778536 88.2161288,86.0538536 C86.8129278,87.4788838 85.2580074,88.746092 83.5791288,89.8328536 C55.5571288,108.256854 9.92812878,86.8148536 6.88712878,53.6818536 C6.53012878,49.8278536 6.38212878,44.8168536 8.44812878,42.0708536 C20.0571288,26.5708536 30.9481288,9.57885358 51.5131288,9.91285358" id="Path_15767" fill="#AF282C" fill-rule="nonzero"></path>
            <path d="M29.4891288,4.10285358 C47.7811288,-3.85514642 63.1371288,-0.133146424 77.8891288,14.3688536 C91.8411288,28.0998536 97.6141288,48.6868536 91.4431288,62.9928536 C90.6263222,64.8426351 89.6088933,66.5971467 88.4091288,68.2248536 C68.4931288,95.6818536 17.6651288,91.7108536 2.93912878,61.4618536 C1.22412878,57.9448536 -0.708871224,53.2568536 0.259128776,49.9228536 C5.69012878,31.1038536 9.91412878,11.1408536 29.4891288,4.10285358" id="Path_15768" fill="#E57A7D" fill-rule="nonzero"></path>
            <path d="M76.3001288,52.6648536 C76.7375383,52.6648536 77.0921288,52.3102631 77.0921288,51.8728536 L77.0921288,35.0328536 C77.0904751,32.8457771 75.3182048,31.0730593 73.1311288,31.0708536 L64.8211288,31.0708536 L64.8211288,23.8178536 C64.818374,21.6313958 63.0465866,19.8596083 60.8601288,19.8568536 L39.2401288,19.8568536 C37.053671,19.8596083 35.2818835,21.6313958 35.2791288,23.8178536 L35.2791288,31.0708536 L26.9691288,31.0708536 C24.7822811,31.0736095 23.0103326,32.8460052 23.0081288,35.0328536 L23.0081288,61.9328536 C23.0108835,64.1193114 24.782671,65.8910988 26.9691288,65.8938536 L46.1691288,65.8938536 L46.1691288,69.1818536 L45.1691288,69.1818536 C43.1579068,69.184057 41.5278842,70.8136323 41.5251288,72.8248536 C41.5256801,73.4376611 42.0223212,73.9343022 42.6351288,73.9348536 L57.4651288,73.9348536 C58.0777743,73.9343016 58.574129,73.4374993 58.5741288,72.8248536 C58.5719243,70.8137941 56.9421883,69.1840581 54.9311288,69.1818536 L53.9311288,69.1818536 L53.9311288,65.8888536 L73.1311288,65.8888536 C75.3173586,65.8855494 77.0888246,64.1140834 77.0921288,61.9278536 L77.0921288,55.5658536 C77.0769678,55.1391188 76.7266328,54.8010094 76.2996288,54.8010094 C75.8726248,54.8010094 75.5222897,55.1391188 75.5071288,55.5658536 L75.5071288,61.9278536 C75.506026,63.2401774 74.4424526,64.3037508 73.1301288,64.3048536 L26.9691288,64.3048536 C25.6569671,64.3037501 24.5936801,63.2400156 24.5931288,61.9278536 L24.5931288,35.0278536 C24.5953308,33.7165382 25.6578134,32.6540556 26.9691288,32.6518536 L35.2781288,32.6518536 L35.2781288,34.2368536 L27.2871288,34.2368536 C26.674483,34.2368533 26.1776807,34.7332081 26.1771288,35.3458536 L26.1771288,61.9258536 C26.1771288,62.3632631 26.5317193,62.7178536 26.9691288,62.7178536 L72.8131288,62.7178536 C73.4257745,62.7178538 73.9225768,62.2214991 73.9231288,61.6088536 L73.9231288,35.3508536 C73.9225774,34.738046 73.4259363,34.2414049 72.8131288,34.2408536 L64.8211288,34.2408536 L64.8211288,32.6568536 L73.1301288,32.6568536 C74.4420626,32.6579555 75.5054748,33.7209203 75.5071288,35.0328536 L75.5071288,51.8728536 C75.5071288,52.3102631 75.8617193,52.6648536 76.2991288,52.6648536 M47.7541288,65.8928536 L52.3451288,65.8928536 L52.3451288,69.1818536 L47.7541288,69.1818536 L47.7541288,65.8928536 Z M54.9301288,70.7708536 C55.8844099,70.7724429 56.7133114,71.4277091 56.9351288,72.3558536 L43.1641288,72.3558536 C43.3855066,71.4295188 44.2117165,70.7747475 45.1641288,70.7708536 L54.9301288,70.7708536 Z M35.2791288,61.1398536 L27.7621288,61.1398536 L27.7621288,35.8258536 L35.2791288,35.8258536 L35.2791288,61.1398536 Z M63.2371288,61.1398536 L36.8631288,61.1398536 L36.8631288,23.8178536 C36.8647816,22.5063103 37.9275855,21.4435064 39.2391288,21.4418536 L60.8601288,21.4418536 C62.1720626,21.4429555 63.2354748,22.5059203 63.2371288,23.8178536 L63.2371288,61.1398536 Z M72.3371288,35.8268536 L72.3371288,61.1398536 L64.8211288,61.1398536 L64.8211288,35.8258536 L72.3371288,35.8268536 Z M59.1721288,48.4818536 L40.9281288,48.4818536 C40.4907193,48.4818536 40.1361288,48.8364441 40.1361288,49.2738536 C40.1361288,49.7112631 40.4907193,50.0658536 40.9281288,50.0658536 L59.1721288,50.0658536 C59.6095383,50.0658536 59.9641288,49.7112631 59.9641288,49.2738536 C59.9641288,48.8364441 59.6095383,48.4818536 59.1721288,48.4818536 M50.0491288,24.6088173 C47.8613213,24.6029794 45.731413,25.3115443 43.9831288,26.6268536 C43.6410102,26.8914701 43.5744468,27.3816156 43.8336045,27.7278875 C44.0927623,28.0741594 44.5817906,28.1484874 44.9321288,27.8948536 C46.4067294,26.7867142 48.2025706,26.1898559 50.0471288,26.1948536 C53.9303667,26.1908515 57.3300467,28.8007635 58.3295064,32.5531805 C59.328966,36.3055975 57.6779047,40.260779 54.3071532,42.1888836 C50.9364017,44.1169883 46.6901178,43.5351491 43.9622597,40.7713938 C41.2344016,38.0076385 40.7081234,33.7541111 42.6801288,30.4088536 C42.8910387,30.0371354 42.7694317,29.5651434 42.4051595,29.3416189 C42.0408874,29.1180944 41.5650053,29.2234554 41.3291288,29.5798536 L41.3161288,29.6028536 C38.9822193,33.563938 39.605709,38.5996445 42.8352057,41.8719027 C46.0647025,45.1441609 51.0917725,45.8338326 55.0832127,43.5522261 C59.0746529,41.2706196 61.0312936,36.5888852 59.850393,32.1455985 C58.6694924,27.7023117 54.6466631,24.6097523 50.0491288,24.6108536 L50.0491288,24.6088173 Z M46.4001288,38.8288536 C47.5412623,39.9468546 49.3669952,39.9468546 50.5081288,38.8288536 L55.4581288,33.8808536 C56.3931467,32.9590903 56.4038918,31.4538718 55.4821286,30.5188538 C54.5603654,29.5838358 53.0551469,29.5730905 52.1201288,30.4948536 L52.0651288,30.5508536 L48.4551288,34.1598536 L48.0071288,33.7118536 C47.0771022,32.7947345 45.5813118,32.7998493 44.657579,33.7233073 C43.7338462,34.6467654 43.7282864,36.1425542 44.6451288,37.0728536 L46.4001288,38.8288536 Z M45.7651288,34.8288536 C46.0763253,34.5232852 46.5749322,34.5232852 46.8861288,34.8288536 L47.6701288,35.6128536 C48.1051957,36.0408042 48.8030618,36.0408042 49.2381288,35.6128536 L53.1831288,31.6678536 C53.4847766,31.35741 53.9746371,31.3316967 54.3071288,31.6088536 C54.6311225,31.9088351 54.6508155,32.4145872 54.3511288,32.7388536 L54.3351288,32.7558536 L49.3911288,37.7028536 C48.875381,38.2179526 48.0398766,38.2179526 47.5241288,37.7028536 L45.7661288,35.9488536 C45.4573074,35.6389942 45.4573074,35.137713 45.7661288,34.8278536 L45.7651288,34.8288536 Z M59.1721288,53.2288536 L40.9281288,53.2288536 C40.501394,53.2440145 40.1632846,53.5943496 40.1632846,54.0213536 C40.1632846,54.4483576 40.501394,54.7986926 40.9281288,54.8138536 L59.1721288,54.8138536 C59.5988635,54.7986926 59.936973,54.4483576 59.936973,54.0213536 C59.936973,53.5943496 59.5988635,53.2440145 59.1721288,53.2288536 L59.1721288,53.2288536 L59.1721288,53.2288536 Z" id="Path_15769" fill="#FFFFFF" fill-rule="nonzero"></path>
            <path d="M76.3001288,52.6648536 C76.7375383,52.6648536 77.0921288,52.3102631 77.0921288,51.8728536 L77.0921288,35.0328536 C77.0904751,32.8457771 75.3182048,31.0730593 73.1311288,31.0708536 L64.8211288,31.0708536 L64.8211288,23.8178536 C64.818374,21.6313958 63.0465866,19.8596083 60.8601288,19.8568536 L39.2401288,19.8568536 C37.053671,19.8596083 35.2818835,21.6313958 35.2791288,23.8178536 L35.2791288,31.0708536 L26.9691288,31.0708536 C24.7822811,31.0736095 23.0103326,32.8460052 23.0081288,35.0328536 L23.0081288,61.9328536 C23.0108835,64.1193114 24.782671,65.8910988 26.9691288,65.8938536 L46.1691288,65.8938536 L46.1691288,69.1818536 L45.1691288,69.1818536 C43.1579068,69.184057 41.5278842,70.8136323 41.5251288,72.8248536 C41.5256801,73.4376611 42.0223212,73.9343022 42.6351288,73.9348536 L57.4651288,73.9348536 C58.0777743,73.9343016 58.574129,73.4374993 58.5741288,72.8248536 C58.5719243,70.8137941 56.9421883,69.1840581 54.9311288,69.1818536 L53.9311288,69.1818536 L53.9311288,65.8888536 L73.1311288,65.8888536 C75.3173586,65.8855494 77.0888246,64.1140834 77.0921288,61.9278536 L77.0921288,55.5658536 C77.0769678,55.1391188 76.7266328,54.8010094 76.2996288,54.8010094 C75.8726248,54.8010094 75.5222897,55.1391188 75.5071288,55.5658536 L75.5071288,61.9278536 C75.506026,63.2401774 74.4424526,64.3037508 73.1301288,64.3048536 L26.9691288,64.3048536 C25.6569671,64.3037501 24.5936801,63.2400156 24.5931288,61.9278536 L24.5931288,35.0278536 C24.5953308,33.7165382 25.6578134,32.6540556 26.9691288,32.6518536 L35.2781288,32.6518536 L35.2781288,34.2368536 L27.2871288,34.2368536 C26.674483,34.2368533 26.1776807,34.7332081 26.1771288,35.3458536 L26.1771288,61.9258536 C26.1771288,62.3632631 26.5317193,62.7178536 26.9691288,62.7178536 L72.8131288,62.7178536 C73.4257745,62.7178538 73.9225768,62.2214991 73.9231288,61.6088536 L73.9231288,35.3508536 C73.9225774,34.738046 73.4259363,34.2414049 72.8131288,34.2408536 L64.8211288,34.2408536 L64.8211288,32.6568536 L73.1301288,32.6568536 C74.4420626,32.6579555 75.5054748,33.7209203 75.5071288,35.0328536 L75.5071288,51.8728536 C75.5071286,52.0830784 75.5907085,52.2846784 75.7394536,52.433236 C75.8881988,52.5817936 76.0899041,52.665119 76.3001288,52.6648536 Z M47.7541288,65.8928536 L52.3451288,65.8928536 L52.3451288,69.1818536 L47.7541288,69.1818536 L47.7541288,65.8928536 Z M54.9301288,70.7708536 C55.8844099,70.7724429 56.7133114,71.4277091 56.9351288,72.3558536 L43.1641288,72.3558536 C43.3855066,71.4295188 44.2117165,70.7747475 45.1641288,70.7708536 L54.9301288,70.7708536 Z M35.2791288,61.1398536 L27.7621288,61.1398536 L27.7621288,35.8258536 L35.2791288,35.8258536 L35.2791288,61.1398536 Z M63.2371288,61.1398536 L36.8631288,61.1398536 L36.8631288,23.8178536 C36.8647816,22.5063103 37.9275855,21.4435064 39.2391288,21.4418536 L60.8601288,21.4418536 C62.1720626,21.4429555 63.2354748,22.5059203 63.2371288,23.8178536 L63.2371288,61.1398536 Z M72.3371288,35.8268536 L72.3371288,61.1398536 L64.8211288,61.1398536 L64.8211288,35.8258536 L72.3371288,35.8268536 Z M59.1721288,48.4818536 L40.9281288,48.4818536 C40.4907193,48.4818536 40.1361288,48.8364441 40.1361288,49.2738536 C40.1361288,49.7112631 40.4907193,50.0658536 40.9281288,50.0658536 L59.1721288,50.0658536 C59.6095383,50.0658536 59.9641288,49.7112631 59.9641288,49.2738536 C59.9641288,48.8364441 59.6095383,48.4818536 59.1721288,48.4818536 Z M50.0491288,24.6088173 C47.8613213,24.6029794 45.731413,25.3115443 43.9831288,26.6268536 C43.6410102,26.8914701 43.5744468,27.3816156 43.8336045,27.7278875 C44.0927623,28.0741594 44.5817906,28.1484874 44.9321288,27.8948536 C46.4067294,26.7867142 48.2025706,26.1898559 50.0471288,26.1948536 C53.9303667,26.1908515 57.3300467,28.8007635 58.3295064,32.5531805 C59.328966,36.3055975 57.6779047,40.260779 54.3071532,42.1888836 C50.9364017,44.1169883 46.6901178,43.5351491 43.9622597,40.7713938 C41.2344016,38.0076385 40.7081234,33.7541111 42.6801288,30.4088536 C42.8910387,30.0371354 42.7694317,29.5651434 42.4051595,29.3416189 C42.0408874,29.1180944 41.5650053,29.2234554 41.3291288,29.5798536 L41.3161288,29.6028536 C38.9822193,33.563938 39.605709,38.5996445 42.8352057,41.8719027 C46.0647025,45.1441609 51.0917725,45.8338326 55.0832127,43.5522261 C59.0746529,41.2706196 61.0312936,36.5888852 59.850393,32.1455985 C58.6694924,27.7023117 54.6466631,24.6097523 50.0491288,24.6108536 L50.0491288,24.6088173 Z M46.4001288,38.8288536 C47.5412623,39.9468546 49.3669952,39.9468546 50.5081288,38.8288536 L55.4581288,33.8808536 C56.3931467,32.9590903 56.4038918,31.4538718 55.4821286,30.5188538 C54.5603654,29.5838358 53.0551469,29.5730905 52.1201288,30.4948536 L52.0651288,30.5508536 L48.4551288,34.1598536 L48.0071288,33.7118536 C47.0771022,32.7947345 45.5813118,32.7998493 44.657579,33.7233073 C43.7338462,34.6467654 43.7282864,36.1425542 44.6451288,37.0728536 L46.4001288,38.8288536 Z M45.7651288,34.8288536 C46.0763253,34.5232852 46.5749322,34.5232852 46.8861288,34.8288536 L47.6701288,35.6128536 C48.1051957,36.0408042 48.8030618,36.0408042 49.2381288,35.6128536 L53.1831288,31.6678536 C53.4847766,31.35741 53.9746371,31.3316967 54.3071288,31.6088536 C54.6311225,31.9088351 54.6508155,32.4145872 54.3511288,32.7388536 L54.3351288,32.7558536 L49.3911288,37.7028536 C48.875381,38.2179526 48.0398766,38.2179526 47.5241288,37.7028536 L45.7661288,35.9488536 C45.4573074,35.6389942 45.4573074,35.137713 45.7661288,34.8278536 L45.7651288,34.8288536 Z M59.1721288,53.2288536 L40.9281288,53.2288536 C40.501394,53.2440145 40.1632846,53.5943496 40.1632846,54.0213536 C40.1632846,54.4483576 40.501394,54.7986926 40.9281288,54.8138536 L59.1721288,54.8138536 C59.5988635,54.7986926 59.936973,54.4483576 59.936973,54.0213536 C59.936973,53.5943496 59.5988635,53.2440145 59.1721288,53.2288536 L59.1721288,53.2288536 L59.1721288,53.2288536 Z" id="Path_15770" stroke="#FFFFFF" stroke-width="0.23"></path>
        </g>
    </g>
</svg>