<?xml version="1.0" encoding="UTF-8"?>
<svg width="97px" height="97px" viewBox="0 0 97 97" version="1.1" xmlns="http://www.w3.org/2000/svg" xmlns:xlink="http://www.w3.org/1999/xlink">
    <title>Untitled 34</title>
    <g id="Page-1" stroke="none" stroke-width="1" fill="none" fill-rule="evenodd">
        <g id="Group">
            <path d="M49.5691834,87.0960686 C29.8421834,87.0050686 17.4281834,77.5140686 9.86918342,58.5100686 C2.71818342,40.5210686 5.70018342,19.5890686 16.9901834,9.10206858 C18.4671519,7.75368099 20.0874986,6.57128394 21.8221834,5.57606858 C50.7891834,-11.3239314 95.2061834,12.5270686 96.4711834,45.7760686 C96.6221834,49.6430686 96.5021834,54.6550686 94.2921834,57.2870686 C81.8711834,72.1470686 70.0921834,88.5290686 49.5691834,87.0960686" id="Path_15677" fill="#EFD56B" fill-rule="nonzero"></path>
            <path d="M43.5691834,96.3880686 C23.8421834,96.2970686 11.4281834,86.8060686 3.86918342,67.8020686 C-3.28181658,49.8130686 -0.29981658,28.8810686 10.9901834,18.3940686 C12.4671366,17.0456623 14.0874855,15.8632637 15.8221834,14.8680686 C44.7891834,-2.03193142 89.2061834,21.8190686 90.4711834,55.0680686 C90.6221834,58.9350686 90.5021834,63.9470686 88.2921834,66.5790686 C75.8711834,81.4390686 64.0921834,97.8210686 43.5691834,96.3880686" id="Path_15678" fill="#DEB408" fill-rule="nonzero"></path>
            <path d="M72.2911834,72.4690686 L18.3601834,72.4690686 C17.8498723,72.4690686 17.4361834,72.0553797 17.4361834,71.5450686 C17.4361834,71.0347575 17.8498723,70.6210686 18.3601834,70.6210686 L19.1761834,70.6210686 L19.1761834,48.1160686 L18.3611834,48.1160686 C18.0484454,48.1157174 17.7571094,47.9571973 17.5869546,47.6947996 C17.4167998,47.432402 17.3909218,47.1017426 17.5181834,46.8160686 L20.9951834,38.9870686 C21.1439061,38.6534159 21.4748856,38.4383771 21.8401834,38.4380686 L38.8551834,38.4380686 L44.4021834,32.8910686 L44.4021834,23.7050686 C44.4032852,23.1948242 44.8169382,22.7816184 45.3271834,22.7810686 L51.4151834,22.7810686 C51.9254287,22.7816184 52.3390817,23.1948242 52.3401834,23.7050686 L52.3401834,28.0550686 C52.3390817,28.5653129 51.9254287,28.9785188 51.4151834,28.9790686 L46.2511834,28.9790686 L46.2511834,32.8910686 L51.7981834,38.4390686 L68.8121834,38.4390686 C69.1779197,38.4387257 69.5095166,38.6539109 69.6581834,38.9880686 L73.1361834,46.8160686 C73.2634451,47.1017426 73.237567,47.432402 73.0674122,47.6947996 C72.8972574,47.9571973 72.6059214,48.1157174 72.2931834,48.1160686 L71.4761834,48.1160686 L71.4761834,70.6210686 L72.2921834,70.6210686 C72.8016491,70.6221663 73.2145341,71.0346044 73.2161834,71.5440686 C73.2161834,72.0545417 72.8026562,72.4685167 72.2921834,72.4690686 M53.2101834,70.6210686 L69.6271834,70.6210686 L69.6271834,48.1160686 L68.8121834,48.1160686 C68.3015962,48.1160686 67.8876834,47.7021558 67.8876834,47.1915686 C67.8876834,46.6809813 68.3015962,46.2670686 68.8121834,46.2670686 L70.8691834,46.2670686 L68.2111834,40.2870686 L53.6461834,40.2870686 L59.6261834,46.2670686 L65.3341834,46.2670686 C65.8447707,46.2670686 66.2586834,46.6809813 66.2586834,47.1915686 C66.2586834,47.7021558 65.8447707,48.1160686 65.3341834,48.1160686 L59.2451834,48.1160686 C58.999653,48.1171419 58.7639932,48.0194908 58.5911834,47.8450686 L45.3251834,34.5810686 L32.0611834,47.8460686 C31.8889393,48.0193818 31.6545299,48.1166023 31.4101834,48.1160686 L21.0261834,48.1160686 L21.0261834,70.6210686 L37.4421834,70.6210686 L37.4421834,68.0690686 C37.4427333,67.5588233 37.8559391,67.1451703 38.3661834,67.1440686 L39.1811834,67.1440686 L39.1811834,60.2440686 C39.1817346,59.7334337 39.5955485,59.3196197 40.1061834,59.3190686 L50.5451834,59.3190686 C51.0554278,59.3201703 51.4686336,59.7338233 51.4691834,60.2440686 L51.4691834,67.1440686 L52.2821834,67.1440686 C52.7924278,67.1451703 53.2056336,67.5588233 53.2061834,68.0690686 L53.2101834,70.6210686 Z M39.2921834,70.6210686 L51.3641834,70.6210686 L51.3641834,68.9930686 L39.2911834,68.9930686 L39.2921834,70.6210686 Z M46.2501834,67.1440686 L49.6231834,67.1440686 L49.6231834,61.1640686 L46.2501834,61.1640686 L46.2501834,67.1440686 Z M41.0311834,67.1440686 L44.4041834,67.1440686 L44.4041834,61.1640686 L41.0341834,61.1640686 L41.0311834,67.1440686 Z M19.7821834,46.2670686 L31.0241834,46.2670686 L37.0041834,40.2870686 L22.4401834,40.2870686 L19.7821834,46.2670686 Z M46.2501834,27.1300686 L50.4901834,27.1300686 L50.4901834,24.6300686 L46.2501834,24.6300686 L46.2501834,27.1300686 Z" id="Path_15679" fill="#FFFFFF" fill-rule="nonzero"></path>
            <path d="M72.2911834,72.3590686 C72.7407432,72.3590686 73.1051834,71.9946284 73.1051834,71.5450686 C73.1051834,71.0955088 72.7407432,70.7310686 72.2911834,70.7310686 L71.3651834,70.7310686 L71.3651834,48.0060686 L72.2921834,48.0060686 C72.5677198,48.0060273 72.8244836,47.8664303 72.9743281,47.6352012 C73.1241726,47.4039721 73.1467026,47.1125834 73.0341834,46.8610686 L69.5551834,39.0320686 C69.4243914,38.7382159 69.1328291,38.5489355 68.8111834,38.5490686 L51.7511834,38.5490686 L46.1391834,32.9370686 L46.1391834,28.8680686 L51.4141834,28.8680686 C51.6299776,28.868334 51.8370244,28.7827961 51.9897078,28.6303002 C52.1423912,28.4778044 52.2281836,28.270863 52.2281834,28.0550686 L52.2281834,23.7050686 C52.2281836,23.4892742 52.1423912,23.2823328 51.9897078,23.1298369 C51.8370244,22.9773411 51.6299776,22.892068 51.4141834,22.892068 L45.3261834,22.892068 C44.8770139,22.892068 44.5127352,23.2558994 44.5121834,23.7050686 L44.5121834,32.9360686 L38.9001834,38.5490686 L21.8391834,38.5490686 C21.5176137,38.5491919 21.2261787,38.7383896 21.0951834,39.0320686 L17.6181834,46.8610686 C17.4359151,47.2722511 17.6211972,47.753358 18.0321834,47.9360686 C18.1353896,47.9821715 18.2471481,48.0060223 18.3601834,48.0060686 L19.2821834,48.0060686 L19.2821834,70.7310686 L18.3571834,70.7310686 C17.9076236,70.7310686 17.5431834,71.0955088 17.5431834,71.5450686 C17.5431834,71.9946284 17.9076236,72.3590686 18.3571834,72.3590686 L72.2881834,72.3590686 M40.1031834,59.4260686 C39.6538521,59.4266196 39.2897344,59.7907372 39.2891834,60.2400686 L39.2891834,67.2530686 L38.3631834,67.2530686 C38.147389,67.2530684 37.9404476,67.3388608 37.7879518,67.4915442 C37.6354559,67.6442276 37.549918,67.8512744 37.5501834,68.0670686 L37.5501834,70.7290686 L20.9101834,70.7290686 L20.9101834,48.0040686 L31.4101834,48.0040686 C31.6253901,48.0038887 31.8316332,47.9178641 31.9831834,47.7650686 L45.3251834,34.4220686 L58.6701834,47.7650686 C58.8214263,47.9177121 59.0273013,48.0037333 59.2421834,48.0040686 L65.3341834,48.0040686 C65.7837432,48.0040686 66.1481834,47.6396284 66.1481834,47.1900686 C66.1481834,46.7405088 65.7837432,46.3760686 65.3341834,46.3760686 L59.5821834,46.3760686 L53.3821834,40.1760686 L68.2821834,40.1760686 L71.0381834,46.3760686 L68.8111834,46.3760686 C68.3616236,46.3760686 67.9971834,46.7405088 67.9971834,47.1900686 C67.9971834,47.6396284 68.3616236,48.0040686 68.8111834,48.0040686 L69.7371834,48.0040686 L69.7371834,70.7290686 L53.0981834,70.7290686 L53.0981834,68.0670686 C53.098451,67.8507535 53.0125016,67.6432504 52.8593561,67.4904803 C52.7062105,67.3377101 52.4984972,67.2522702 52.2821834,67.2530686 L51.3551834,67.2530686 L51.3551834,60.2380686 C51.3551838,59.788899 50.9913526,59.4246204 50.5421834,59.4240686 L40.1061834,59.4240686 M39.1801834,68.8800686 L51.4731834,68.8800686 L51.4731834,70.7290686 L39.1821834,70.7290686 L39.1801834,68.8800686 Z M46.1391834,61.0510686 L49.7331834,61.0510686 L49.7331834,67.2510686 L46.1391834,67.2510686 L46.1391834,61.0510686 Z M44.5141834,67.2510686 L40.9201834,67.2510686 L40.9201834,61.0510686 L44.5111834,61.0510686 L44.5111834,67.2510686 M22.3651834,40.1730686 L37.2651834,40.1730686 L31.0651834,46.3730686 L19.6121834,46.3730686 L22.3681834,40.1730686 M46.1391834,24.5170686 L50.6001834,24.5170686 L50.6001834,27.2370686 L46.1391834,27.2370686 L46.1391834,24.5170686 Z M72.2911834,72.5760686 L18.3601834,72.5760686 C17.7885687,72.5760686 17.3251834,72.1126833 17.3251834,71.5410686 C17.3251834,70.9694539 17.7885687,70.5060686 18.3601834,70.5060686 L19.0651834,70.5060686 L19.0651834,48.2270686 L18.3651834,48.2270686 C18.0149702,48.2265587 17.6887692,48.0489814 17.4982475,47.7551259 C17.3077258,47.4612704 17.278729,47.0910003 17.4211834,46.7710686 L20.8981834,38.9420686 C21.0644304,38.5682688 21.4350816,38.3273063 21.8441834,38.3270686 L38.8131834,38.3270686 L44.2961834,32.8450686 L44.2961834,23.7050686 C44.2967347,23.1336824 44.7597972,22.6706198 45.3311834,22.6700686 L51.4191834,22.6700686 C51.9905696,22.6706198 52.4536322,23.1336824 52.4541834,23.7050686 L52.4541834,28.0550686 C52.4536322,28.6264548 51.9905696,29.0895173 51.4191834,29.0900686 L46.3661834,29.0900686 L46.3661834,32.8460686 L51.8481834,38.3280686 L68.8161834,38.3280686 C69.225724,38.327654 69.5969932,38.5687633 69.7631834,38.9430686 L73.2411834,46.7710686 C73.3841987,47.0909776 73.3554557,47.4615509 73.1648209,47.7555808 C72.9741862,48.0496107 72.6476048,48.2270801 72.2971834,48.2270686 L71.5821834,48.2270686 L71.5821834,70.5100686 L72.2871834,70.5100686 C72.8587981,70.5100686 73.3221834,70.9734539 73.3221834,71.5450686 C73.3221834,72.1166833 72.8587981,72.5800686 72.2871834,72.5800686 L72.2911834,72.5760686 Z M53.3201834,70.5060686 L69.5201834,70.5060686 L69.5201834,48.2270686 L68.8201834,48.2270686 C68.2485687,48.2270686 67.7851834,47.7636833 67.7851834,47.1920686 C67.7851834,46.6204539 68.2485687,46.1570686 68.8201834,46.1570686 L70.7071834,46.1570686 L68.1481834,40.3980686 L53.9131834,40.3980686 L59.6721834,46.1570686 L65.3341834,46.1570686 C65.7039534,46.1570685 66.0456349,46.3543384 66.2305199,46.6745685 C66.4154049,46.9947987 66.4154049,47.3893385 66.2305199,47.7095687 C66.0456349,48.0297988 65.7039534,48.2270687 65.3341834,48.2270686 L59.2451834,48.2270686 C58.9708479,48.2291625 58.7071449,48.1210875 58.5131834,47.9270686 L45.3251834,34.7410686 L32.1391834,47.9280686 C31.9460806,48.1215343 31.6835246,48.2295821 31.4101834,48.2280686 L21.1361834,48.2280686 L21.1361834,70.5110686 L37.3361834,70.5110686 L37.3361834,68.0700686 C37.3367335,67.4985198 37.7996355,67.0351706 38.3711834,67.0340686 L39.0761834,67.0340686 L39.0761834,60.2410686 C39.0767347,59.6696824 39.5397972,59.2066198 40.1111834,59.2060686 L50.5501834,59.2060686 C51.1215696,59.2066198 51.5846322,59.6696824 51.5851834,60.2410686 L51.5851834,67.0340686 L52.2821834,67.0340686 C52.8537314,67.0351706 53.3166333,67.4985198 53.3171834,68.0700686 L53.3201834,70.5060686 Z M39.4021834,70.5060686 L51.2521834,70.5060686 L51.2521834,69.1000686 L39.4021834,69.1000686 L39.4021834,70.5060686 Z M46.3601834,67.0290686 L49.5121834,67.0290686 L49.5121834,61.2700686 L46.3601834,61.2700686 L46.3601834,67.0290686 Z M41.1411834,67.0290686 L44.2931834,67.0290686 L44.2931834,61.2710686 L41.1441834,61.2710686 L41.1411834,67.0290686 Z M19.9531834,46.1530686 L30.9821834,46.1530686 L36.7401834,40.3940686 L22.5121834,40.3940686 L19.9531834,46.1530686 Z M46.3611834,27.0160686 L50.3821834,27.0160686 L50.3821834,24.7430686 L46.3631834,24.7430686 L46.3611834,27.0160686 Z" id="Path_15682"></path>
            <path d="M45.3251834,55.0761242 L45.3251834,55.0761242 C41.9336028,55.0761242 39.1841834,52.3266492 39.1841834,48.9350686 C39.1841834,45.5434879 41.9336028,42.7940686 45.3251834,42.7940686 C48.7167641,42.7940686 51.466239,45.5434879 51.466239,48.9350686 C51.4731322,50.5658834 50.8283676,52.1319114 49.6751969,53.2850821 C48.5220262,54.4382527 46.9559982,55.0830174 45.3251834,55.0761242 M45.3251834,44.6370685 C42.9536416,44.636518 41.0304743,46.5581955 41.0291863,48.929737 C41.0278996,51.3012786 42.9489795,53.2250428 45.3205206,53.2270685 C47.6920616,53.229091 49.6164225,51.3086089 49.6191834,48.9370686 C49.6153409,46.5661782 47.6960662,44.6442216 45.3251834,44.6370685 L45.3251834,44.6370685 Z" id="Path_15683" fill="#FFFFFF" fill-rule="nonzero"></path>
            <path d="M45.3251834,51.5960686 L45.3251834,51.5960686 C44.8178835,51.5938984 44.4065568,51.1843543 44.4021834,50.6770686 L44.4021834,48.9370686 C44.4021834,48.5871288 44.6000404,48.2672714 44.9131834,48.1110686 L46.6501834,47.2400686 C46.680721,47.2231599 46.7120944,47.207807 46.7441834,47.1940686 C47.2136254,46.9922085 47.7578233,47.2091266 47.9596834,47.6785686 C48.1615434,48.1480106 47.9446254,48.6922085 47.4751834,48.8940686 L46.2491834,49.5070686 L46.2491834,50.6740686 C46.2486323,51.1841512 45.8352661,51.5975174 45.3251834,51.5980686" id="Path_15687" fill="#FFFFFF" fill-rule="nonzero"></path>
            <path d="M35.7571834,66.3830686 L28.7981834,66.3830686 C28.2929822,66.3910323 27.8750684,65.9917262 27.8600293,65.4866861 C27.8449902,64.9816459 28.2384035,64.5581801 28.7431834,64.5360686 L28.7431834,61.1650686 L24.5031834,61.1650686 L24.5031834,64.5340686 L25.3191834,64.5340686 C25.6922069,64.5353331 26.0279668,64.7605332 26.1706774,65.1051804 C26.3133881,65.4498277 26.2351182,65.8464681 25.9721834,66.1110686 C25.7997829,66.2856101 25.5645126,66.3836094 25.3191834,66.3830686 L23.5821834,66.3830686 C23.0719382,66.3825188 22.6582852,65.9693129 22.6571834,65.4590686 L22.6571834,60.2400686 C22.6577346,59.7294337 23.0715485,59.3156197 23.5821834,59.3150686 L35.7601834,59.3150686 C36.2706562,59.3156204 36.6841834,59.7295955 36.6841834,60.2400686 L36.6841834,65.4590686 C36.6836323,65.9691512 36.2702661,66.3825174 35.7601834,66.3830686 M30.5961834,64.5340686 L34.8361834,64.5340686 L34.8361834,61.1650686 L30.5961834,61.1650686 L30.5961834,64.5340686 Z" id="Path_15691" fill="#FFFFFF" fill-rule="nonzero"></path>
            <path d="M35.7571834,57.6850686 L23.5821834,57.6850686 C23.0715485,57.6845174 22.6577346,57.2707035 22.6571834,56.7600686 L22.6571834,51.5410686 C22.6577353,51.0305958 23.0717103,50.6170686 23.5821834,50.6170686 L35.7601834,50.6170686 C36.0052435,50.6170686 36.2402665,50.7144183 36.4135501,50.8877019 C36.5868337,51.0609855 36.6841834,51.2960085 36.6841834,51.5410686 L36.6841834,56.7600686 C36.6841834,57.2705417 36.2706562,57.6845167 35.7601834,57.6850686 M30.5961834,55.8360686 L34.8361834,55.8360686 L34.8361834,52.4660686 L30.5961834,52.4660686 L30.5961834,55.8360686 Z M24.5061834,55.8360686 L28.7461834,55.8360686 L28.7461834,52.4660686 L24.5061834,52.4660686 L24.5061834,55.8360686 Z" id="Path_15695" fill="#FFFFFF" fill-rule="nonzero"></path>
            <path d="M67.0741834,66.3840686 L54.8961834,66.3840686 C54.3859391,66.3829668 53.9727333,65.9693138 53.9721834,65.4590686 L53.9721834,60.2400686 C53.9732834,59.7302138 54.3863286,59.3171686 54.8961834,59.3160686 L67.0741834,59.3160686 C67.5844287,59.3166184 67.9980817,59.7298242 67.9991834,60.2400686 L67.9991834,65.4590686 C67.9986323,65.9697035 67.5848183,66.3835174 67.0741834,66.3840686 M61.9091834,64.5350686 L66.1501834,64.5350686 L66.1501834,61.1650686 L61.9101834,61.1650686 L61.9091834,64.5350686 Z M55.8211834,64.5350686 L60.0611834,64.5350686 L60.0611834,61.1650686 L55.8211834,61.1650686 L55.8211834,64.5350686 Z" id="Path_15699" fill="#FFFFFF" fill-rule="nonzero"></path>
            <path d="M67.0741834,57.6870686 L54.8961834,57.6870686 C54.3863286,57.6859686 53.9732834,57.2729234 53.9721834,56.7630686 L53.9721834,51.5440686 C53.9727333,51.0338233 54.3859391,50.6201703 54.8961834,50.6190686 L67.0741834,50.6190686 C67.5848183,50.6196197 67.9986323,51.0334337 67.9991834,51.5440686 L67.9991834,56.7630686 C67.9980817,57.2733129 67.5844287,57.6865188 67.0741834,57.6870686 M61.9091834,55.8380686 L66.1501834,55.8380686 L66.1501834,52.4690686 L61.9101834,52.4690686 L61.9091834,55.8380686 Z M55.8211834,55.8380686 L60.0611834,55.8380686 L60.0611834,52.4690686 L55.8211834,52.4690686 L55.8211834,55.8380686 Z" id="Path_15703" fill="#FFFFFF" fill-rule="nonzero"></path>
        </g>
    </g>
</svg>