<?xml version="1.0" encoding="UTF-8"?>
<svg width="98px" height="97px" viewBox="0 0 98 97" version="1.1" xmlns="http://www.w3.org/2000/svg" xmlns:xlink="http://www.w3.org/1999/xlink">
    <title>Untitled 33</title>
    <g id="Page-1" stroke="none" stroke-width="1" fill="none" fill-rule="evenodd">
        <g id="Group" fill-rule="nonzero">
            <path d="M51.5111288,9.91285358 C71.2111288,8.94885358 84.1181288,17.7628536 92.6831288,36.3348536 C100.783129,53.9158536 98.9271288,74.9778536 88.2141288,86.0528536 C86.811207,87.4784828 85.2562561,88.7460512 83.5771288,89.8328536 C55.5551288,108.256854 9.92612878,86.8148536 6.88512878,53.6818536 C6.52812878,49.8278536 6.38512878,44.8168536 8.44612878,42.0708536 C20.0551288,26.5708536 30.9461288,9.57885358 51.5111288,9.91285358" id="Path_15587" fill="#AF282C"></path>
            <path d="M29.4871288,4.10285358 C47.7791288,-3.85514642 63.1351288,-0.133146424 77.8871288,14.3688536 C91.8391288,28.0998536 97.6121288,48.6868536 91.4411288,62.9928536 C90.6243222,64.8426351 89.6068933,66.5971467 88.4071288,68.2248536 C68.4931288,95.6778536 17.6651288,91.7108536 2.93912878,61.4618536 C1.22412878,57.9448536 -0.708871224,53.2568536 0.259128776,49.9228536 C5.69012878,31.1038536 9.91412878,11.1408536 29.4891288,4.10285358" id="Path_15588" fill="#E57A7D"></path>
            <path d="M59.1371288,57.1688536 C59.7656229,56.891253 60.171097,56.2689248 60.1711288,55.5818536 L60.1711288,51.8468536 L65.7771288,49.8238536 C66.3280672,49.6256949 66.6896022,49.0963045 66.6736918,48.5110295 C66.6577814,47.9257545 66.2680192,47.4167878 65.7071288,47.2488536 L50.8591288,42.7818536 C50.3070029,42.615853 49.7182547,42.615853 49.1661288,42.7818536 L40.4461288,45.4048536 C40.1584009,45.4822733 39.9355285,45.7100211 39.8643521,45.9993567 C39.7931757,46.2886922 39.8849552,46.5938442 40.1039292,46.7959123 C40.3229032,46.9979804 40.6344313,47.0649985 40.9171288,46.9708536 L49.6371288,44.3488536 C49.8816998,44.2751721 50.1425577,44.2751721 50.3871288,44.3488536 L64.4251288,48.5708536 L50.4541288,53.6128536 C50.1688103,53.7158753 49.8564473,53.7158753 49.5711288,53.6128536 L35.5981288,48.5728536 L37.5731288,47.9788536 C38.0058438,47.8487905 38.2511918,47.3925687 38.1211287,46.9598536 C37.9910657,46.5271385 37.5348439,46.2817906 37.1021288,46.4118536 L34.3171288,47.2488536 C33.7562383,47.4167878 33.3664762,47.9257545 33.3505658,48.5110295 C33.3346554,49.0963045 33.6961904,49.6256949 34.2471288,49.8238536 L36.7871288,50.7388536 L36.7871288,58.0388536 C36.8025233,58.4786779 37.1635351,58.8272747 37.6036288,58.8272747 C38.0437224,58.8272747 38.4047342,58.4786779 38.4201288,58.0388536 L38.4201288,51.3308536 L39.8521288,51.8478536 L39.8521288,55.5818536 C39.8527683,56.2693209 40.2590267,56.8916492 40.8881288,57.1688536 L49.6831288,61.0238536 C49.7131288,61.0358536 49.7431288,61.0468536 49.7741288,61.0558536 L49.7961288,61.0628536 C49.8241288,61.0698536 49.8511288,61.0758536 49.8791288,61.0808536 L49.9071288,61.0808536 C49.940308,61.0850245 49.9736921,61.0873614 50.0071288,61.0878536 C50.040564,61.0873275 50.0739463,61.0849908 50.1071288,61.0808536 L50.1351288,61.0808536 C50.1631288,61.0758536 50.1901288,61.0698536 50.2171288,61.0628536 L50.2401288,61.0558536 C50.2711288,61.0468536 50.3011288,61.0358536 50.3311288,61.0238536 L55.1311288,58.9238536 C55.399078,58.8064918 55.5840615,58.5550959 55.6163979,58.2643642 C55.6487342,57.9736325 55.5235107,57.6877341 55.2878979,57.5143642 C55.052285,57.3409943 54.742078,57.3064918 54.4741288,57.4238536 L50.8241288,59.0238536 L50.8241288,55.2138536 C50.8841288,55.1968536 50.9441288,55.1788536 51.0051288,55.1578536 L58.5301288,52.4408536 L58.5301288,55.5818536 C58.5304067,55.6206805 58.5081842,55.6561586 58.4731288,55.6728536 L57.6731288,56.0238536 C57.2589152,56.2052791 57.0702032,56.68814 57.2516288,57.1023536 C57.4330543,57.5165671 57.9159152,57.7052791 58.3301288,57.5238536 L59.1371288,57.1688536 Z M41.4901288,55.5818536 L41.4901288,52.4378536 L49.0151288,55.1538536 C49.0741288,55.1758536 49.1351288,55.1928536 49.1971288,55.2098536 L49.1971288,59.0198536 L41.5511288,55.6688536 C41.5161068,55.6541056 41.4924703,55.6207819 41.4901288,55.5828536 L41.4901288,55.5818536 Z" id="Path_15589" fill="#FFFFFF"></path>
            <path d="M43.0871288,33.7378536 C43.3204701,33.9651779 43.4270424,34.2927477 43.3721288,34.6138536 L42.8131288,37.8738536 C42.6479428,38.8580308 43.0537876,39.8509479 43.8610529,40.4376454 C44.6683182,41.0243429 45.7380276,41.1038169 46.6231288,40.6428536 L49.5511288,39.0998536 C49.840127,38.9497204 50.1841306,38.9497204 50.4731288,39.0998536 L53.4001288,40.6428536 C54.28535,41.1035497 55.3549798,41.0239911 56.1623046,40.4374043 C56.9696294,39.8508175 57.3757779,38.8581036 57.2111288,37.8738536 L56.6521288,34.6138536 C56.5968589,34.2927219 56.7034842,33.9649892 56.9371288,33.7378536 L59.3051288,31.4288536 C60.0238473,30.731536 60.2834081,29.686154 59.9743303,28.733642 C59.6652524,27.78113 58.8413461,27.0873191 57.8501288,26.9448536 L56.6391288,26.7688536 C56.1936654,26.7071073 55.7819026,27.0165461 55.7173018,27.4616044 C55.652701,27.9066628 55.9594937,28.3204009 56.4041288,28.3878536 L57.6151288,28.5678536 C57.987806,28.622547 58.2972576,28.8837882 58.4136952,29.2420087 C58.5301328,29.6002292 58.4334236,29.9934907 58.1641288,30.2568536 L55.7951288,32.5688536 C55.1757749,33.1725448 54.8933957,34.042497 55.0401288,34.8948536 L55.5981288,38.1538536 C55.6617929,38.5254368 55.5091072,38.9009599 55.2042064,39.1226866 C54.8993056,39.3444134 54.4950051,39.3739359 54.1611288,39.1988536 L51.2341288,37.6558536 C50.4687091,37.2538188 49.5545484,37.2538188 48.7891288,37.6558536 L45.8611288,39.1988536 C45.5272047,39.3730954 45.1234075,39.3431965 44.8187876,39.121674 C44.5141676,38.9001515 44.361279,38.5252232 44.4241288,38.1538536 L44.9831288,34.8948536 C45.1294299,34.0423409 44.8466944,33.1724431 44.2271288,32.5688536 L41.8591288,30.2608536 C41.5894298,29.9982461 41.4918001,29.6055102 41.6071424,29.2471858 C41.7224847,28.8888614 42.030882,28.6268229 42.4031288,28.5708536 L45.6761288,28.0958536 C46.5314972,27.9708888 47.270905,27.4337154 47.6541288,26.6588536 L49.1181288,23.6928536 C49.2853439,23.3553281 49.6294534,23.141782 50.0061288,23.141782 C50.3828041,23.141782 50.7269137,23.3553281 50.8941288,23.6928536 L52.3591288,26.6598536 C52.3974869,26.7385166 52.4402205,26.8149696 52.4871288,26.8888536 C52.7262681,27.2721392 53.2308432,27.3889929 53.6141288,27.1498536 C53.9974144,26.9107143 54.1142681,26.4061392 53.8751288,26.0228536 C53.8571734,25.9935926 53.8411396,25.9631952 53.8271288,25.9318536 L52.3621288,22.9668536 C51.9173627,22.0730213 51.0050039,21.5079375 50.0066288,21.5079375 C49.0082536,21.5079375 48.0958948,22.0730213 47.6511288,22.9668536 L46.1931288,25.9308536 C46.0500018,26.224375 45.7712094,26.4283238 45.4481288,26.4758536 L42.1741288,26.9448536 C41.1853365,27.089714 40.3644713,27.783256 40.0565469,28.7339806 C39.7486225,29.6847053 40.0070181,30.7278025 40.7231288,31.4248536 L43.0871288,33.7378536 Z" id="Path_15590" fill="#FFFFFF"></path>
            <path d="M77.6441288,46.7648536 C75.8591288,44.8758536 74.0441288,44.0298536 72.2521288,44.2498536 C69.5591288,44.5798536 68.0411288,47.2238536 67.9771288,47.3348536 C67.8161207,47.620559 67.8413117,47.9748068 68.0411288,48.2348536 C68.9289332,49.516067 70.3233462,50.3552633 71.8711288,50.5398536 C72.0401288,50.5558536 72.2081288,50.5638536 72.3711288,50.5638536 C74.3130445,50.4256615 76.1486722,49.6250455 77.5711288,48.2958536 C78.011896,47.9087304 78.0566074,47.2380598 77.6711288,46.7958536 L77.6451288,46.7688536 L77.6441288,46.7648536 Z M72.0301288,48.9118672 C71.1306984,48.8098584 70.3032355,48.3711172 69.7141288,47.6838536 C70.3584438,46.7446113 71.343508,46.0935219 72.4601288,45.8688536 C73.8241016,45.8365198 75.1308034,46.4170316 76.0211288,47.4508536 C74.9064687,48.3969546 73.4911701,48.9149283 72.0291288,48.9118672 L72.0301288,48.9118672 Z" id="Path_15591" fill="#FFFFFF"></path>
            <path d="M71.6261288,52.5008536 C69.7894159,52.412768 68.0038254,53.1204449 66.7261288,54.4428536 C66.4994521,54.6799842 66.4368157,55.0298025 66.5671288,55.3308536 C67.1128454,56.7908032 68.2582479,57.946764 69.7131288,58.5058536 C70.3320525,58.7235365 70.9840614,58.8321483 71.6401288,58.8268536 C73.0908055,58.779083 74.5117656,58.4029867 75.7961288,57.7268536 C76.3188816,57.4582218 76.5251981,56.816895 76.2571288,56.2938536 L76.2391288,56.2608536 C74.9671288,53.9908536 73.4171288,52.7248536 71.6251288,52.4988536 M70.2641288,56.9638536 C69.4177394,56.6445768 68.723804,56.0163903 68.3221288,55.2058536 C69.1780961,54.4548977 70.2928687,54.0668076 71.4301288,54.1238536 C72.7589734,54.424887 73.8829738,55.3055925 74.4931288,56.5238536 C73.1795167,57.167792 71.6792854,57.3220347 70.2621288,56.9588536 L70.2641288,56.9638536 Z" id="Path_15592" fill="#FFFFFF"></path>
            <path d="M69.7911288,61.0028536 C67.6341288,59.3548536 64.6981288,60.1858536 64.5731288,60.2208536 C64.2586696,60.3123108 64.0292086,60.5827048 63.9901288,60.9078536 C63.7282262,62.4438025 64.1378732,64.0183036 65.1151288,65.2318536 C66.7741288,67.2038536 69.6151288,67.5538536 70.7661288,67.6128536 L70.8201288,67.6128536 C71.4013537,67.6129366 71.8753053,67.1469955 71.8851288,66.5658536 C71.9301288,63.9658536 71.2261288,62.0988536 69.7911288,61.0028536 M66.3671288,64.1778536 C65.7931116,63.4761056 65.5071513,62.5824799 65.5671288,61.6778536 C66.6852586,61.4579327 67.8450871,61.6817215 68.8011288,62.3018536 C69.7984813,63.2309643 70.3262951,64.5585739 70.2391288,65.9188536 C68.7807693,65.8164494 67.4066072,65.1977929 66.3631288,64.1738536 L66.3671288,64.1778536 Z" id="Path_15593" fill="#FFFFFF"></path>
            <path d="M59.8401288,65.1148536 C59.5171971,65.0738064 59.2006628,65.2281463 59.0341288,65.5078536 C58.2026866,66.7571443 57.9515012,68.3047235 58.3451288,69.7528536 C59.0531288,72.1438536 61.4661288,73.5528536 62.4701288,74.0468536 C62.7221618,74.1711848 63.0133055,74.1901342 63.2793284,74.0995213 C63.5453513,74.0089085 63.7643929,73.8161794 63.8881288,73.5638536 L63.8981288,73.5438536 C64.9481288,71.2818536 65.0541288,69.3628536 64.2131288,67.8438536 C62.9361288,65.5328536 59.9651288,65.1318536 59.8401288,65.1158536 M62.6571288,72.2908536 C61.4138052,71.6506004 60.4407674,70.5863957 59.9141288,69.2908536 C59.687042,68.4762371 59.7782018,67.6057499 60.1691288,66.8558536 C61.2407455,67.0883342 62.1793285,67.7298428 62.7851288,68.6438536 C63.2921613,69.8177744 63.2451717,71.157346 62.6571288,72.2928536" id="Path_15594" fill="#FFFFFF"></path>
            <path d="M50.7061288,67.4518536 C50.3009133,67.1257815 49.7233443,67.1257815 49.3181288,67.4518536 C47.8409244,68.5731589 46.9052257,70.2655499 46.7411288,72.1128536 C46.8003993,74.0561705 47.7277756,75.8705544 49.2681288,77.0568536 C49.6887414,77.4426089 50.3345162,77.4426089 50.7551288,77.0568536 C52.2951469,75.870276 53.2224363,74.0560621 53.2821288,72.1128536 C53.1183993,70.2656758 52.1830535,68.5732663 50.7061288,67.4518536 M50.0121288,75.5048536 C49.0250903,74.6647015 48.4332359,73.4509106 48.3791288,72.1558536 C48.5002536,70.9378174 49.084895,69.8129286 50.0121288,69.0138536 C50.9393625,69.8129286 51.524004,70.9378174 51.6451288,72.1558536 C51.590848,73.4514339 50.9990771,74.6657782 50.0121288,75.5068536 L50.0121288,75.5048536 Z" id="Path_15595" fill="#FFFFFF"></path>
            <path d="M68.3831288,42.4228536 C69.0707057,42.7117818 69.807393,42.865909 70.5531288,42.8768718 C71.2207582,42.8787603 71.8803021,42.7307901 72.4831288,42.4438536 C74.6371288,41.4238536 75.6151288,38.9438536 75.9361288,37.9228536 C76.1097931,37.3725044 75.8044617,36.7855696 75.2541288,36.6118536 L75.2271288,36.6038536 C72.9481288,35.9528536 71.1271288,36.1388536 69.8141288,37.1558536 C68.5469906,38.3170596 67.8393957,39.9664149 67.8711288,41.6848536 C67.8788675,42.0111031 68.0802431,42.3013672 68.3831288,42.4228536 M70.8221288,38.4438536 C71.8179171,37.8141564 73.0420398,37.6595381 74.1631288,38.0218536 C73.7436772,39.2536705 72.9001654,40.2963644 71.7831288,40.9638536 C71.0783452,41.2849619 70.2788912,41.3306246 69.5421288,41.0918536 C69.610286,40.0768664 70.0690647,39.1277679 70.8221288,38.4438536 L70.8221288,38.4438536 Z" id="Path_15596" fill="#FFFFFF"></path>
            <path d="M28.1551288,50.5408536 C29.7033584,50.3560475 31.0981199,49.5164965 31.9861288,48.2348536 C32.1861454,47.974797 32.2109644,47.6202398 32.0491288,47.3348536 C31.9861288,47.2228536 30.4671288,44.5788536 27.7741288,44.2508536 C25.9811288,44.0308536 24.1671288,44.8778536 22.3821288,46.7668536 C21.9821988,47.1943673 22.0027542,47.8646492 22.4281288,48.2668536 L22.4541288,48.2898536 C23.8765854,49.6190455 25.712213,50.4196615 27.6541288,50.5578536 C27.8210576,50.5602487 27.9879887,50.5532376 28.1541288,50.5368536 M27.5621288,45.8688536 C28.6784665,46.0935722 29.6634025,46.7442182 30.3081288,47.6828536 C29.7194422,48.3708054 28.8918246,48.8099859 27.9921288,48.9118536 C26.5302357,48.916642 25.1143823,48.4008516 23.9981288,47.4568536 C24.8896943,46.4214769 26.1981593,45.8398962 27.5641288,45.8718536 L27.5621288,45.8688536 Z" id="Path_15597" fill="#FFFFFF"></path>
            <path d="M30.3161288,58.5058536 C31.7710097,57.946764 32.9164121,56.7908032 33.4621288,55.3308536 C33.5924418,55.0298025 33.5298054,54.6799842 33.3031288,54.4428536 C33.2121288,54.3518536 31.0901288,52.1588536 28.4031288,52.4998536 C26.6111288,52.7268536 25.0611288,53.9928536 23.7951288,56.2608536 C23.5081591,56.7739519 23.6912289,57.4225293 24.2041288,57.7098536 L24.2371288,57.7278536 C25.5211904,58.4038408 26.9417921,58.7799327 28.3921288,58.8278536 C29.0467392,58.833348 29.6973552,58.7254195 30.3151288,58.5088536 M28.5911288,54.1278536 C29.7283737,54.0709138 30.8431074,54.4589904 31.6991288,55.2098536 C31.2974536,56.0203903 30.6035182,56.6485768 29.7571288,56.9678536 C28.340377,57.3307422 26.840674,57.176872 25.5271288,56.5338536 C26.1391988,55.3135422 27.264994,54.430954 28.5961288,54.1278536 L28.5911288,54.1278536 Z" id="Path_15598" fill="#FFFFFF"></path>
            <path d="M36.0361288,60.9078536 C35.9971711,60.5824356 35.7677419,60.3116855 35.4531288,60.2198536 C35.3281288,60.1838536 32.3921288,59.3548536 30.2351288,61.0018536 C28.8011288,62.1018536 28.0961288,63.9698536 28.1411288,66.5668536 C28.1509523,67.1479955 28.6249038,67.6139366 29.2061288,67.6138536 L29.2601288,67.6138536 C30.4071288,67.5548536 33.2521288,67.2038536 34.9111288,65.2338536 C35.8887128,64.0196888 36.2983648,62.4444404 36.0361288,60.9078536 M33.6591288,64.1738536 C32.6158947,65.1988901 31.2411237,65.8180157 29.7821288,65.9198536 C29.6942082,64.5592543 30.2225651,63.2312022 31.2211288,62.3028536 C31.9031669,61.8229328 32.7237387,61.5798524 33.5571288,61.6108536 C33.8583729,61.6118668 34.1591522,61.6345924 34.4571288,61.6788536 C34.5167022,62.5834304 34.2307883,63.4769113 33.6571288,64.1788536 L33.6591288,64.1738536 Z" id="Path_15599" fill="#FFFFFF"></path>
            <path d="M40.1611288,65.1148536 C38.404961,65.3555544 36.8367403,66.338879 35.8551288,67.8148536 C35.0081288,69.3368536 35.1091288,71.2618536 36.1501288,73.5358536 C36.2661925,73.7910224 36.4792106,73.9893802 36.7419941,74.0869855 C37.0047775,74.1845908 37.2956331,74.1733861 37.5501288,74.0558536 L37.5821288,74.0408536 C38.5691288,73.5478536 40.9441288,72.1408536 41.6481288,69.7648536 C42.044853,68.3148861 41.7993608,66.7643518 40.9741288,65.5078536 C40.8092946,65.2235929 40.4900388,65.0659357 40.1641288,65.1078536 M40.0801288,69.2968536 C39.5675983,70.5779233 38.6172437,71.6356446 37.3981288,72.2818536 C36.8159858,71.1392514 36.7741838,69.7964531 37.2841288,68.6198536 C37.8746889,67.7239769 38.7893637,67.091733 39.8361288,66.8558536 C40.2221754,67.612143 40.3099768,68.4858738 40.0821288,69.3038536" id="Path_15600" fill="#FFFFFF"></path>
            <path d="M27.5421288,42.4428536 C28.1449555,42.7297901 28.8044994,42.8777603 29.4721288,42.8758718 C30.2178645,42.864909 30.9545518,42.7107818 31.6421288,42.4218536 C31.9446867,42.3005101 32.1459951,42.010736 32.1541288,41.6848536 C32.1849542,39.9665928 31.4775126,38.3175947 30.2111288,37.1558536 C28.8981288,36.1388536 27.0761288,35.9558536 24.7981288,36.6038536 C24.2432865,36.7631679 23.9223962,37.3418446 24.0811288,37.8968536 L24.0891288,37.9228536 C24.4101288,38.9428536 25.3891288,41.4228536 27.5421288,42.4428536 M29.2031288,38.4428536 C29.9561929,39.1267679 30.4149716,40.0758664 30.4831288,41.0908536 C29.7463663,41.3296246 28.9469124,41.2839619 28.2421288,40.9628536 C27.1248601,40.2956319 26.2812703,39.2528415 25.8621288,38.0208536 C26.9832178,37.6585381 28.2073404,37.8131564 29.2031288,38.4428536" id="Path_15601" fill="#FFFFFF"></path>
        </g>
    </g>
</svg>