<?xml version="1.0" encoding="UTF-8"?>
<svg width="96px" height="97px" viewBox="0 0 96 97" version="1.1" xmlns="http://www.w3.org/2000/svg" xmlns:xlink="http://www.w3.org/1999/xlink">
    <title>Untitled 34</title>
    <g id="Page-1" stroke="none" stroke-width="1" fill="none" fill-rule="evenodd">
        <g id="Group" transform="translate(0.000289, 0.999875)">
            <g id="Group_4260" fill-rule="nonzero">
                <g id="Group_4035">
                    <path d="M3.39671132,26.1021245 C10.8707113,7.84612452 24.3207113,-0.108875476 44.7727113,0.00112452433 C64.1307113,0.110124524 82.4217113,10.7161245 87.9157113,25.1121245 C88.6124323,26.9863639 89.1016853,28.931304 89.3747113,30.9121245 C94.1927113,64.1011245 55.4397113,96.3491245 24.1377113,85.0661245 C20.4967113,83.7581245 15.8937113,81.7661245 14.2817113,78.7341245 C5.15671132,61.6511245 -5.61828868,44.5901245 3.39671132,26.1011245" id="Path_15577" fill="#EFD56B"></path>
                    <path d="M48.9097113,95.8111245 C29.1827113,95.7201245 16.7687113,86.2291245 9.20971132,67.2251245 C2.05871132,49.2361245 5.04071132,28.3041245 16.3307113,17.8171245 C17.8076798,16.4687369 19.4280265,15.2863399 21.1627113,14.2911245 C50.1297113,-2.60887548 94.5467113,21.2421245 95.8117113,54.4911245 C95.9627113,58.3581245 95.8427113,63.3701245 93.6327113,66.0021245 C81.2117113,80.8621245 69.4327113,97.2441245 48.9097113,95.8111245" id="Path_15578" fill="#DEB408"></path>
                </g>
            </g>
            <g id="Group_4036" transform="translate(17.425606, 24.899978)">
                <path d="M54.4961052,38.3521462 L52.3561052,38.3521462 L52.3561052,31.2151462 C53.9158783,30.8402015 54.9619875,29.3746214 54.8097336,27.7776573 C54.6574797,26.1806932 53.3532783,24.9391908 51.7507553,24.8657381 C50.1482322,24.7922854 48.7359278,25.909275 48.4382234,27.4856149 C48.140519,29.0619549 49.0481719,30.6170869 50.5671052,31.1331462 L50.5671052,38.3521462 L46.3171052,38.3521462 L46.3171052,33.8881462 C46.329275,30.0009953 43.1882544,26.8398285 39.3011052,26.8271462 L35.6961052,26.8271462 L35.6961052,24.9541462 C36.1052942,24.6663102 36.4815596,24.3343113 36.8181052,23.9641462 C38.6757264,22.0720372 39.7169771,19.5267177 39.7181052,16.8751462 L39.7181052,13.5511462 C40.1936558,13.6878815 40.6853314,13.7605231 41.1801052,13.7671462 C41.4818254,13.7668927 41.7829547,13.7404603 42.0801052,13.6881462 C44.0767002,13.3360794 45.6638048,11.8145165 46.0997118,9.8345348 C46.5356188,7.85455305 45.7342474,5.80715024 44.0701052,4.64914619 C42.962687,3.88210027 41.5893194,3.60236697 40.2701052,3.87514619 C39.4090379,4.04115585 38.6042238,4.42308987 37.9311052,4.98514619 C35.436835,1.46130292 30.9489118,-0.043261948 26.8346601,1.26509113 C22.7204083,2.5734442 19.92586,6.39387222 19.9251052,10.7111462 L19.9251052,16.8691462 C19.9228142,19.5194502 20.9605062,22.0648476 22.8151052,23.9581462 C23.2819,24.4038487 23.7740532,24.8222123 24.2891052,25.2111462 L24.2891052,26.8231462 L20.7811052,26.8231462 C18.9165483,26.8287068 17.1305984,27.5748735 15.8162842,28.8974398 C14.5019699,30.220006 13.7669958,32.010591 13.7731052,33.8751462 L13.7731052,38.3521462 L5.9141052,38.3521462 C5.4006147,38.365988 4.9859389,38.7758522 4.9661052,39.2891462 L4.9661052,46.7581462 C4.99503296,47.2577595 5.41375455,47.6451211 5.9141052,47.6353346 L54.5021052,47.6353346 C54.9794089,47.6407135 55.3714298,47.2594206 55.379298,46.7821462 L55.379298,39.2821462 C55.3892589,38.7830085 54.9970244,38.368068 54.4981052,38.3501462 M51.5981052,26.6571448 C52.387319,26.6560424 53.0279981,27.2949315 53.0291038,28.0841453 C53.0302067,28.873359 52.391318,29.5140386 51.6021043,29.5151448 C50.8128905,29.5162482 50.1722105,28.87736 50.171102,28.0881462 C50.1703087,27.7090707 50.3202693,27.3452339 50.5879413,27.0768116 C50.8556133,26.8083893 51.219029,26.6574108 51.5981052,26.6571448 L51.5981052,26.6571448 Z M44.5231244,33.8871462 L44.5231244,38.3501462 L30.7651052,38.3501462 L30.7651052,31.3001462 L35.1031052,28.6141462 L39.2931052,28.6141462 C42.1897747,28.6235209 44.5308493,30.9784719 44.5231244,33.8751462 L44.5231244,33.8851462 L44.5231244,33.8871462 Z M43.0421052,6.11714619 C44.107565,6.86339491 44.6183518,8.17814666 44.3361445,9.44796984 C44.0539372,10.717793 43.034353,11.692433 41.7531052,11.9171462 C41.0594872,12.036951 40.3457334,11.9318326 39.7161052,11.6171462 L39.7161052,10.7071462 C39.7241219,9.27808335 39.4211138,7.8643868 38.8281052,6.56414619 C39.9463565,5.43039065 41.709623,5.24410062 43.0401052,6.11914619 L43.0421052,6.11714619 Z M29.8161052,2.58814619 C34.2965222,2.59586997 37.9242153,6.23072264 37.9231055,10.7111462 L37.9231055,10.7271462 C36.970857,9.88026639 36.2655865,8.79143388 35.8821052,7.57614619 C35.7984018,7.22256764 35.5066499,6.95636068 35.1469021,6.90531539 C34.7871544,6.85427011 34.4328642,7.02880893 34.2541052,7.34514619 C32.6631052,10.0951462 29.9841052,11.6451462 26.3001052,11.9451462 C24.7622495,12.0607747 23.2158811,11.9753883 21.7001052,11.6911462 L21.7001052,10.7081462 C21.7017559,6.227953 25.3309158,2.59521362 29.8111052,2.58914619 L29.8161052,2.58814619 Z M21.7061052,16.8681462 L21.7061052,13.5141462 C22.7890918,13.6979624 23.8856298,13.7902884 24.9841052,13.7901462 C25.4351052,13.7901462 25.9131052,13.7741462 26.3971052,13.7351462 C29.6552052,13.6151261 32.7123887,12.1295447 34.8201052,9.64214619 C35.5455042,10.9896338 36.615173,12.1207223 37.9201458,12.9201462 L37.9201458,16.8631462 C37.9269119,19.0433188 37.0780983,21.1391415 35.5561052,22.7001462 C34.1127849,24.2207552 32.1242186,25.1052884 30.028378,25.1589317 C27.9325374,25.212575 25.9013251,24.4309286 24.3821052,22.9861462 C24.2821052,22.8931462 24.1901052,22.7971462 24.0981052,22.7001462 C22.5701596,21.1413803 21.7139414,19.0458895 21.7131052,16.8631462 L21.7061052,16.8681462 Z M29.7991052,26.9591462 C31.2151536,26.9650934 32.6141558,26.6502153 33.8911052,26.0381462 L33.8911052,27.2271462 L29.8731052,29.7411462 L26.0631052,27.2411462 L26.0631052,26.2001462 C27.2458174,26.6971493 28.5152163,26.9551075 29.7981052,26.9591462 L29.7991052,26.9591462 Z M15.5560067,33.8841462 C15.5475923,32.4946692 16.091409,31.1587226 17.0679166,30.1702127 C18.0444241,29.1817028 19.3736279,28.6216072 20.7631052,28.6131462 L24.9311052,28.6131462 L28.9811052,31.2831462 L28.9811052,38.3521462 L15.5560067,38.3521462 L15.5560067,33.8841462 Z M53.5761052,45.8451462 L6.7501052,45.8451462 L6.7501052,40.1381462 L14.3401052,40.1381462 C14.4311052,40.2501462 14.5241052,40.1831462 14.6161052,40.1831462 C14.7081052,40.1831462 14.8111052,40.2501462 14.8911052,40.1381462 L45.1611052,40.1381462 C45.2541052,40.2501462 45.3451052,40.1831462 45.4371052,40.1831462 C45.5291052,40.1831462 45.6321052,40.2501462 45.7121052,40.1381462 L51.0911052,40.1381462 C51.1981052,40.2501462 51.3151052,40.2081462 51.4391052,40.2081462 C51.5631052,40.2081462 51.6801052,40.2491462 51.7871052,40.1381462 L53.5631052,40.1381462 L53.5761052,45.8451462 Z" id="Path_15569" fill="#FFFFFF" fill-rule="nonzero"></path>
                <path d="M54.4961052,38.3521462 L52.3561052,38.3521462 L52.3561052,31.2151462 C53.9158783,30.8402015 54.9619875,29.3746214 54.8097336,27.7776573 C54.6574797,26.1806932 53.3532783,24.9391908 51.7507553,24.8657381 C50.1482322,24.7922854 48.7359278,25.909275 48.4382234,27.4856149 C48.140519,29.0619549 49.0481719,30.6170869 50.5671052,31.1331462 L50.5671052,38.3521462 L46.3171052,38.3521462 L46.3171052,33.8881462 C46.329275,30.0009953 43.1882544,26.8398285 39.3011052,26.8271462 L35.6961052,26.8271462 L35.6961052,24.9541462 C36.1052942,24.6663102 36.4815596,24.3343113 36.8181052,23.9641462 C38.6757264,22.0720372 39.7169771,19.5267177 39.7181052,16.8751462 L39.7181052,13.5511462 C40.1936558,13.6878815 40.6853314,13.7605231 41.1801052,13.7671462 C41.4818254,13.7668927 41.7829547,13.7404603 42.0801052,13.6881462 C44.0767002,13.3360794 45.6638048,11.8145165 46.0997118,9.8345348 C46.5356188,7.85455305 45.7342474,5.80715024 44.0701052,4.64914619 C42.962687,3.88210027 41.5893194,3.60236697 40.2701052,3.87514619 C39.4090379,4.04115585 38.6042238,4.42308987 37.9311052,4.98514619 C35.436835,1.46130292 30.9489118,-0.043261948 26.8346601,1.26509113 C22.7204083,2.5734442 19.92586,6.39387222 19.9251052,10.7111462 L19.9251052,16.8691462 C19.9228142,19.5194502 20.9605062,22.0648476 22.8151052,23.9581462 C23.2819,24.4038487 23.7740532,24.8222123 24.2891052,25.2111462 L24.2891052,26.8231462 L20.7811052,26.8231462 C18.9165483,26.8287068 17.1305984,27.5748735 15.8162842,28.8974398 C14.5019699,30.220006 13.7669958,32.010591 13.7731052,33.8751462 L13.7731052,38.3521462 L5.9141052,38.3521462 C5.4006147,38.365988 4.9859389,38.7758522 4.9661052,39.2891462 L4.9661052,46.7581462 C4.99503296,47.2577595 5.41375455,47.6451211 5.9141052,47.6353346 L54.5021052,47.6353346 C54.9794089,47.6407135 55.3714298,47.2594206 55.3792575,46.7821462 L55.3792575,39.2821462 C55.3881284,38.7830285 54.99502,38.3689959 54.4961052,38.3521462 L54.4961052,38.3521462 Z M51.5961052,26.6591448 C52.385319,26.6580424 53.0259981,27.2969315 53.0271038,28.0861453 C53.0282067,28.875359 52.389318,29.5160386 51.6001043,29.5171448 C50.8108905,29.5182482 50.1702105,28.87936 50.169102,28.0901462 C50.1683087,27.7110707 50.3182693,27.3472339 50.5859413,27.0788116 C50.8536133,26.8103893 51.217029,26.6594108 51.5961052,26.6591448 L51.5961052,26.6591448 Z M44.5211052,33.8891462 L44.5211052,38.3521462 L30.7651052,38.3521462 L30.7651052,31.3001462 L35.1031052,28.6141462 L39.2931052,28.6141462 C42.1897747,28.6235209 44.5308493,30.9784719 44.5231244,33.8751462 L44.5231244,33.8851462 L44.5211052,33.8891462 Z M43.0401052,6.11914619 C44.105565,6.86539491 44.6163518,8.18014666 44.3341445,9.44996984 C44.0519372,10.719793 43.032353,11.694433 41.7511052,11.9191462 C41.0574872,12.038951 40.3437334,11.9338326 39.7141052,11.6191462 L39.7141052,10.7091462 C39.7221219,9.28008335 39.4191138,7.8663868 38.8261052,6.56614619 C39.9441478,5.43068287 41.7087347,5.24350433 43.0401052,6.11914619 L43.0401052,6.11914619 Z M29.8161052,2.58814619 C34.2965222,2.59586997 37.9242153,6.23072264 37.9231055,10.7111462 L37.9231055,10.7271462 C36.970857,9.88026639 36.2655865,8.79143388 35.8821052,7.57614619 C35.7984018,7.22256764 35.5066499,6.95636068 35.1469021,6.90531539 C34.7871544,6.85427011 34.4328642,7.02880893 34.2541052,7.34514619 C32.6631052,10.0951462 29.9841052,11.6451462 26.3001052,11.9451462 C24.7622495,12.0607747 23.2158811,11.9753883 21.7001052,11.6911462 L21.7001052,10.7081462 C21.7017559,6.227953 25.3309158,2.59521362 29.8111052,2.58914619 L29.8161052,2.58814619 Z M21.7061052,16.8681462 L21.7061052,13.5141462 C22.7890918,13.6979624 23.8856298,13.7902884 24.9841052,13.7901462 C25.4351052,13.7901462 25.9131052,13.7741462 26.3971052,13.7351462 C29.6552052,13.6151261 32.7123887,12.1295447 34.8201052,9.64214619 C35.5455042,10.9896338 36.615173,12.1207223 37.9201458,12.9201462 L37.9201458,16.8631462 C37.9269119,19.0433188 37.0780983,21.1391415 35.5561052,22.7001462 C34.1127849,24.2207552 32.1242186,25.1052884 30.028378,25.1589317 C27.9325374,25.212575 25.9013251,24.4309286 24.3821052,22.9861462 C24.2821052,22.8931462 24.1901052,22.7971462 24.0981052,22.7001462 C22.5701596,21.1413803 21.7139414,19.0458895 21.7131052,16.8631462 L21.7061052,16.8681462 Z M29.7991052,26.9591462 C31.2151536,26.9650934 32.6141558,26.6502153 33.8911052,26.0381462 L33.8911052,27.2271462 L29.8731052,29.7411462 L26.0631052,27.2411462 L26.0631052,26.2001462 C27.2458174,26.6971493 28.5152163,26.9551075 29.7981052,26.9591462 L29.7991052,26.9591462 Z M15.5560067,33.8841462 C15.5475923,32.4946692 16.091409,31.1587226 17.0679166,30.1702127 C18.0444241,29.1817028 19.3736279,28.6216072 20.7631052,28.6131462 L24.9311052,28.6131462 L28.9811052,31.2831462 L28.9811052,38.3521462 L15.5560067,38.3521462 L15.5560067,33.8841462 Z M53.5761052,45.8451462 L6.7501052,45.8451462 L6.7501052,40.1381462 L14.3401052,40.1381462 C14.4311052,40.2501462 14.5241052,40.1831462 14.6161052,40.1831462 C14.7081052,40.1831462 14.8111052,40.2501462 14.8911052,40.1381462 L45.1611052,40.1381462 C45.2541052,40.2501462 45.3451052,40.1831462 45.4371052,40.1831462 C45.5291052,40.1831462 45.6321052,40.2501462 45.7121052,40.1381462 L51.0911052,40.1381462 C51.1981052,40.2501462 51.3151052,40.2081462 51.4391052,40.2081462 C51.5631052,40.2081462 51.6801052,40.2491462 51.7871052,40.1381462 L53.5631052,40.1381462 L53.5761052,45.8451462 Z" id="Path_15570" stroke="#FFFFFF" stroke-width="0.244"></path>
                <path d="M28.3951052,14.9451462 C27.92732,14.9451462 27.5481052,15.324361 27.5481052,15.7921462 L27.5481052,15.7921462 C27.5481052,16.1287637 27.2752228,16.4016462 26.9386052,16.4016462 C26.6019876,16.4016462 26.3291052,16.1287637 26.3291052,15.7921462 C26.3291052,15.4895422 26.167668,15.2099246 25.9056052,15.0586226 C25.6435425,14.9073205 25.3206679,14.9073205 25.0586052,15.0586226 C24.7965424,15.2099246 24.6351051,15.4895422 24.6351052,15.7921462 C24.6088717,17.0624011 25.6173503,18.1134127 26.8876052,18.1396462 C28.1578601,18.1658797 29.2088717,17.1574011 29.2351052,15.8871462 C29.2351052,15.8551462 29.2351052,15.8231462 29.2351052,15.7921462 C29.2351052,15.3261419 28.8590978,14.9474434 28.3931052,14.9441462" id="Path_15571" fill="#FFFFFF" fill-rule="nonzero"></path>
                <path d="M28.3951052,14.945146 C27.92732,14.945146 27.5481052,15.324361 27.5481052,15.7921462 L27.5481052,15.7921462 C27.5481052,16.1287637 27.2752228,16.4016462 26.9386052,16.4016462 C26.6019876,16.4016462 26.3291052,16.1287637 26.3291052,15.7921462 C26.3291052,15.4895422 26.167668,15.2099246 25.9056052,15.0586226 C25.6435425,14.9073205 25.3206679,14.9073205 25.0586052,15.0586226 C24.7965424,15.2099246 24.6351051,15.4895422 24.6351052,15.7921462 C24.6088717,17.0624011 25.6173503,18.1134127 26.8876052,18.1396462 C28.1578601,18.1658797 29.2088717,17.1574011 29.2351052,15.8871462 C29.2351052,15.8551462 29.2351052,15.8231462 29.2351052,15.7921462 C29.2345777,15.327305 28.859926,14.9495312 28.3951052,14.945146 Z" id="Path_15572" stroke="#FFFFFF" stroke-width="0.244"></path>
                <path d="M34.1151052,18.1001462 C35.3853601,18.1001462 36.4151052,17.0704011 36.4151052,15.8001462 C36.4151052,15.3320849 36.0356665,14.9526462 35.5676052,14.9526462 C35.0995439,14.9526462 34.7201052,15.3320849 34.7201052,15.8001462 C34.7291658,16.0237884 34.6150181,16.2344313 34.4227074,16.3489502 C34.2303968,16.463469 33.9908136,16.463469 33.798503,16.3489502 C33.6061923,16.2344313 33.4920446,16.0237884 33.5011052,15.8001462 C33.5011052,15.332361 33.1218904,14.9531462 32.6541052,14.9531462 C32.18632,14.9531462 31.8071052,15.332361 31.8071052,15.8001462 C31.8071052,17.0704011 32.8368503,18.1001462 34.1071052,18.1001462 L34.1151052,18.1001462 Z" id="Path_15573" fill="#FFFFFF" fill-rule="nonzero"></path>
                <path d="M34.1151052,18.1001462 C35.3853601,18.1001462 36.4151052,17.0704011 36.4151052,15.8001462 C36.4151052,15.3320849 36.0356665,14.9526462 35.5676052,14.9526462 C35.0995439,14.9526462 34.7201052,15.3320849 34.7201052,15.8001462 C34.7291658,16.0237884 34.6150181,16.2344313 34.4227074,16.3489502 C34.2303968,16.463469 33.9908136,16.463469 33.798503,16.3489502 C33.6061923,16.2344313 33.4920446,16.0237884 33.5011052,15.8001462 C33.5011052,15.332361 33.1218904,14.9531462 32.6541052,14.9531462 C32.18632,14.9531462 31.8071052,15.332361 31.8071052,15.8001462 C31.8071052,17.0704011 32.8368503,18.1001462 34.1071052,18.1001462 L34.1151052,18.1001462 Z" id="Path_15574" stroke="#FFFFFF" stroke-width="0.244"></path>
                <path d="M12.1881052,16.3001462 C12.3401412,16.4374734 12.5362984,16.5158654 12.7411052,16.5212523 C12.8546606,16.5230579 12.9671639,16.499121 13.0701052,16.4511462 C13.366812,16.3136705 13.5534733,16.0130476 13.5451052,15.6861462 L13.5451052,12.1701462 L16.8561052,12.1701462 C17.2851433,12.1876531 17.647644,11.8551001 17.6671052,11.4261462 L17.6671052,0.834146191 C17.6817172,0.388944599 17.3332681,0.0158938397 16.8881052,7.12365807e-05 L0.830105198,7.12365807e-05 C0.612887151,-0.00279086366 0.403401071,0.080692051 0.247741573,0.232225635 C0.0920820746,0.383759219 0.00300306805,0.590927617 5.20408477e-05,0.808146191 L5.20408477e-05,11.3731462 C-0.00489882191,11.8092437 0.344020741,12.1671099 0.780105198,12.1731462 L7.4861052,12.1731462 L12.1881052,16.3001462 Z M1.6881052,1.69014619 L15.9791052,1.69014619 L15.9791052,10.4751462 L12.7461052,10.4751462 C12.2605535,10.4932326 11.8715594,10.8835365 11.8551052,11.3691462 L11.8551052,13.8221462 L8.3331052,10.7001462 C8.18958185,10.5599395 7.9995341,10.477372 7.7991052,10.4681462 L1.6921052,10.4681462 L1.6881052,1.69014619 Z" id="Path_15575" fill="#FFFFFF" fill-rule="nonzero"></path>
                <path d="M12.1881052,16.3001462 C12.3401412,16.4374734 12.5362984,16.5158654 12.7411052,16.5212523 C12.8546606,16.5230579 12.9671639,16.499121 13.0701052,16.4511462 C13.366812,16.3136705 13.5534733,16.0130476 13.5451052,15.6861462 L13.5451052,12.1701462 L16.8561052,12.1701462 C17.2851433,12.1876531 17.647644,11.8551001 17.6671052,11.4261462 L17.6671052,0.834146191 C17.6817172,0.388944599 17.3332681,0.0158938397 16.8881052,7.12365807e-05 L0.830105198,7.12365807e-05 C0.612887151,-0.00279086366 0.403401071,0.080692051 0.247741573,0.232225635 C0.0920820746,0.383759219 0.00300306805,0.590927617 5.20408477e-05,0.808146191 L5.20408477e-05,11.3731462 C-0.00489882191,11.8092437 0.344020741,12.1671099 0.780105198,12.1731462 L7.4861052,12.1731462 L12.1881052,16.3001462 Z M1.6881052,1.69014619 L15.9791052,1.69014619 L15.9791052,10.4751462 L12.7461052,10.4751462 C12.2605535,10.4932326 11.8715594,10.8835365 11.8551052,11.3691462 L11.8551052,13.8221462 L8.3331052,10.7001462 C8.18958185,10.5599395 7.9995341,10.477372 7.7991052,10.4681462 L1.6921052,10.4681462 L1.6881052,1.69014619 Z" id="Path_15576" stroke="#FFFFFF" stroke-width="0.244"></path>
            </g>
        </g>
    </g>
</svg>