<?xml version="1.0" encoding="UTF-8"?>
<svg width="96px" height="97px" viewBox="0 0 96 97" version="1.1" xmlns="http://www.w3.org/2000/svg" xmlns:xlink="http://www.w3.org/1999/xlink">
    <title>Untitled 34</title>
    <g id="Page-1" stroke="none" stroke-width="1" fill="none" fill-rule="evenodd">
        <g id="Group" transform="translate(0.000289, 0.999875)" fill-rule="nonzero">
            <g id="Group_4035">
                <path d="M3.39671132,26.1021245 C10.8707113,7.84612452 24.3207113,-0.108875476 44.7727113,0.00112452433 C64.1307113,0.110124524 82.4217113,10.7161245 87.9157113,25.1121245 C88.6124323,26.9863639 89.1016853,28.931304 89.3747113,30.9121245 C94.1927113,64.1011245 55.4397113,96.3491245 24.1377113,85.0661245 C20.4967113,83.7581245 15.8937113,81.7661245 14.2817113,78.7341245 C5.15671132,61.6511245 -5.61828868,44.5901245 3.39671132,26.1011245" id="Path_15577" fill="#53AEEB"></path>
                <path d="M48.9097113,95.8111245 C29.1827113,95.7201245 16.7687113,86.2291245 9.20971132,67.2251245 C2.05871132,49.2361245 5.04071132,28.3041245 16.3307113,17.8171245 C17.8076798,16.4687369 19.4280265,15.2863399 21.1627113,14.2911245 C50.1297113,-2.60887548 94.5467113,21.2421245 95.8117113,54.4911245 C95.9627113,58.3581245 95.8427113,63.3701245 93.6327113,66.0021245 C81.2117113,80.8621245 69.4327113,97.2441245 48.9097113,95.8111245" id="Path_15578" fill="#0370BA"></path>
                <path d="M43.8887113,46.8071245 C44.5722238,46.8089602 45.2280189,46.5370627 45.7097113,46.0521245 C45.9651563,45.817401 46.0759736,45.4642293 46.0004196,45.1256458 C45.9248655,44.7870622 45.6744185,44.5145057 45.3434195,44.4106457 C45.0124205,44.3067857 44.6511562,44.387401 44.3957113,44.6221245 C44.3757113,44.6411245 44.3557113,44.6601245 44.3377113,44.6801245 C44.2186782,44.8000625 44.0566906,44.8675196 43.8877113,44.8675196 C43.718732,44.8675196 43.5567444,44.8000625 43.4377113,44.6801245 L43.4377113,44.6801245 C43.0555294,44.3213614 42.4575856,44.3306996 42.0867931,44.701222 C41.7160006,45.0717445 41.7062267,45.6696814 42.0647113,46.0521245 C42.5468802,46.5381846 43.2040715,46.8102128 43.8887113,46.8071245" id="Path_15579" fill="#FFFFFF"></path>
                <path d="M68.9907113,62.6551245 L65.0467113,62.6551245 L65.0467113,60.7901245 C65.0427902,57.3639286 62.9615208,54.2823685 59.7847113,52.9991245 C59.6157894,50.6755301 58.3992593,48.5548819 56.4787113,47.2361245 C57.2879557,44.6330039 56.5931751,41.7957905 54.6727113,39.8611245 C54.0762598,39.2632798 53.3801788,38.7739589 52.6157113,38.4151245 L52.6157113,31.8331245 L57.8157113,29.8131245 C58.1900516,29.6692564 58.4370898,29.3096591 58.4370898,28.9086245 C58.4370898,28.50759 58.1900516,28.1479927 57.8157113,28.0041245 L44.2417113,22.7351245 C44.0165294,22.6479009 43.7668933,22.6479009 43.5417113,22.7351245 L29.9607113,28.0041245 C29.5886256,28.1480747 29.3426275,28.5051687 29.3407113,28.9041245 L29.3407113,34.2691245 C28.1960839,34.6909354 27.4346389,35.7802525 27.4317113,37.0001245 L27.4317113,43.0001245 C27.4317113,43.536393 27.8664428,43.9711245 28.4027113,43.9711245 L31.0487113,43.9711245 C30.886642,45.0642473 30.9727718,46.1798333 31.3007113,47.2351245 C29.3796805,48.5538928 28.1630508,50.6750826 27.9947113,52.9991245 C24.8176896,54.2822762 22.7360716,57.363767 22.7317113,60.7901245 L22.7317113,71.3901245 C22.7317113,71.926393 23.1664428,72.3611245 23.7027113,72.3611245 L68.9907113,72.3611245 C70.9147113,72.3611245 72.4217113,70.2301245 72.4217113,67.5081245 C72.4217113,64.7861245 70.9147113,62.6551245 68.9907113,62.6551245 M59.1247113,70.4181245 C58.4247113,70.4181245 57.6337113,69.1731245 57.6337113,67.5061245 C57.6337113,65.8391245 58.4217113,64.5941245 59.1247113,64.5941245 L66.2247113,64.5941245 C65.3327187,66.432645 65.3327187,68.578604 66.2247113,70.4171245 L59.1247113,70.4181245 Z M49.2597113,70.4181245 C48.5597113,70.4181245 47.7677113,69.1731245 47.7677113,67.5061245 C47.7677113,65.8391245 48.5547113,64.5941245 49.2597113,64.5941245 L56.3597113,64.5941245 C55.4677187,66.432645 55.4677187,68.578604 56.3597113,70.4171245 L49.2597113,70.4181245 Z M63.1097113,60.7911245 L63.1097113,62.6551245 L52.3097113,62.6551245 L55.1607113,54.3331245 L56.6467113,54.3331245 C60.211767,54.3369825 63.1008533,57.2260689 63.1047113,60.7911245 L63.1097113,60.7911245 Z M54.4097113,47.2481245 C54.2005482,47.7133937 54.3870761,48.261183 54.8367113,48.5021245 C56.3603804,49.3149286 57.4366728,50.7710456 57.7667113,52.4661245 C57.398424,52.4168957 57.0272743,52.3921746 56.6557113,52.3921245 L48.7457113,52.3921245 L48.7457113,49.9781245 C51.1675576,48.3598537 52.6222621,45.6398788 52.6237113,42.7271245 L52.6237113,40.6531245 C54.7148373,42.1443274 55.4624117,44.9044091 54.4097113,47.2471245 L54.4097113,47.2481245 Z M37.1097113,39.5331245 L50.6767113,39.5331245 L50.6767113,42.7331245 C50.7063774,45.1766212 49.4197864,47.4473074 47.3084621,48.6776998 C45.1971378,49.9080922 42.5872849,49.9080922 40.4759605,48.6776998 C38.3646362,47.4473074 37.0780452,45.1766212 37.1077113,42.7331245 L37.1077113,39.5331245 L37.1097113,39.5331245 Z M40.9857113,50.9551245 C42.8666619,51.620141 44.9187607,51.620141 46.7997113,50.9551245 L46.7997113,53.1611245 L43.8927113,59.8361245 L40.9857113,53.1611245 L40.9857113,50.9541245 L40.9857113,50.9551245 Z M50.6767113,37.5921245 L37.1097113,37.5921245 L37.1097113,32.5921245 L43.5427113,35.0921245 C43.7679292,35.1791555 44.0174934,35.1791555 44.2427113,35.0921245 L50.6767113,32.5921245 L50.6767113,37.5921245 L50.6767113,37.5921245 Z M43.8917113,24.6811245 L54.7917113,28.9091245 L43.8917113,33.1381245 L32.9977113,28.9091245 L43.8917113,24.6811245 Z M35.1667113,31.8331245 L35.1667113,38.4181245 C34.4651963,38.7470101 33.820739,39.1858757 33.2577113,39.7181245 L33.2577113,37.0011245 C33.2566009,35.7552157 32.4637724,34.6477472 31.2847113,34.2451245 L31.2847113,30.3271245 L35.1667113,31.8331245 Z M29.3767113,37.0001245 C29.3767113,36.4644083 29.8109951,36.0301245 30.3467113,36.0301245 C30.8824275,36.0301245 31.3167113,36.4644083 31.3167113,37.0001245 L31.3167113,42.0311245 L29.3767113,42.0311245 L29.3767113,37.0001245 Z M32.9527113,48.5001245 C33.4027489,48.2595245 33.5894016,47.7113687 33.3797113,47.2461245 C32.3272163,44.9031774 33.0752244,42.1430401 35.1667113,40.6521245 L35.1667113,42.7261245 C35.1678039,45.6389683 36.6225926,48.3591007 39.0447113,49.9771245 L39.0447113,52.3901245 L31.1357113,52.3901245 C30.7638172,52.3902067 30.392337,52.4149275 30.0237113,52.4641245 C30.353704,50.7687357 31.4304674,49.3124785 32.9547113,48.5001245 L32.9527113,48.5001245 Z M24.6757113,60.7901245 C24.6801213,57.2245172 27.5701028,54.3354304 31.1357113,54.3321245 L32.6197113,54.3321245 L34.0647113,58.5491245 C34.2517184,59.0372793 34.7916215,59.2897725 35.2861541,59.1203493 C35.7806867,58.9509261 36.0523338,58.4204018 35.9007113,57.9201245 L34.6717113,54.3321245 L39.3787113,54.3321245 L43.0017113,62.6521245 C43.1554474,63.006827 43.5051255,63.2363785 43.8917113,63.2363785 C44.2782972,63.2363785 44.6279753,63.006827 44.7817113,62.6521245 L48.4057113,54.3321245 L53.1097113,54.3321245 L50.2577113,62.6541245 L49.2577113,62.6541245 C47.3327113,62.6541245 45.8257113,64.7861245 45.8257113,67.5071245 C45.8121386,68.5172614 46.041222,69.5159003 46.4937113,70.4191245 L40.1797113,70.4191245 L38.7317113,66.1921245 C38.5447043,65.7039698 38.0048011,65.4514765 37.5102686,65.6208997 C37.015736,65.7903229 36.7440889,66.3208473 36.8957113,66.8211245 L38.1287113,70.4211245 L24.6727113,70.4211245 L24.6757113,60.7901245 Z M68.9907113,70.4181245 C68.2907113,70.4181245 67.4987113,69.1731245 67.4987113,67.5061245 C67.4987113,65.8391245 68.2857113,64.5941245 68.9907113,64.5941245 C69.6957113,64.5941245 70.4817113,65.8391245 70.4817113,67.5061245 C70.4817113,69.1731245 69.6937113,70.4181245 68.9907113,70.4181245" id="Path_15580" fill="#FFFFFF"></path>
                <path d="M37.3697135,62.3761245 C37.3706811,61.9117435 37.0433527,61.5114007 36.5880366,61.4200882 C36.1327206,61.3287757 35.676337,61.571947 35.4981726,62.0007921 C35.3200081,62.4296372 35.4697263,62.9246146 35.8557063,63.1828202 C36.2416863,63.4410257 36.7563355,63.3904841 37.0847113,63.0621245 C37.2655105,62.8793568 37.3677761,62.6332016 37.3697135,62.3761245" id="Path_15581" fill="#FFFFFF"></path>
            </g>
        </g>
    </g>
</svg>