<?xml version="1.0" encoding="UTF-8"?>
<svg width="21px" height="31px" viewBox="0 0 21 31" version="1.1" xmlns="http://www.w3.org/2000/svg" xmlns:xlink="http://www.w3.org/1999/xlink">
    <title>Untitled 35</title>
    <g id="Page-1" stroke="none" stroke-width="1" fill="none" fill-rule="evenodd">
        <g id="Group" fill="#DEB408" fill-rule="nonzero">
            <path d="M10.0012245,2.13558042e-07 C6.47904777,-0.000429962802 3.21637096,1.85211281 1.41195132,4.87697628 C-0.392468316,7.90183975 -0.472513907,11.6529153 1.20122452,14.7520004 L9.45422452,29.6780004 C9.56426132,29.8770743 9.77376357,30.0006496 10.0012245,30.0006496 C10.2286855,30.0006496 10.4381877,29.8770743 10.5482245,29.6780004 L18.8042245,14.7480004 C20.4762405,11.6487361 20.3948544,7.8984737 18.5899586,4.87466343 C16.7850629,1.85085316 13.5227407,-0.000726023528 10.0012245,2.13558042e-07 Z M10.0012245,15.0000004 C7.23980078,15.0000004 5.00122452,12.7614242 5.00122452,10.0000004 C5.00122452,7.23857668 7.23980078,5.00000043 10.0012245,5.00000043 C12.7626483,5.00000043 15.0012245,7.23857668 15.0012245,10.0000004 C14.9979184,12.7600536 12.7612777,14.9966943 10.0012245,15.0000004 Z" id="Path_1659"></path>
        </g>
    </g>
</svg>