<svg id="Group_4767" data-name="Group 4767" xmlns="http://www.w3.org/2000/svg" width="160" height="102" viewBox="0 0 160 102">
  <g id="Group_4035" data-name="Group 4035" transform="translate(32 3)">
    <path id="Path_15577" data-name="Path 15577" d="M284.987,26.884C292.461,8.628,305.911.673,326.363.783c19.358.109,37.649,10.715,43.143,25.111a27.372,27.372,0,0,1,1.459,5.8c4.818,33.189-33.935,65.437-65.237,54.154-3.641-1.308-8.244-3.3-9.856-6.332-9.125-17.083-19.9-34.144-10.885-52.633" transform="translate(-281.59 -0.782)" fill="#53aeeb"/>
    <path id="Path_15578" data-name="Path 15578" d="M330.5,96.593c-19.727-.091-32.141-9.582-39.7-28.586-7.151-17.989-4.169-38.921,7.121-49.408a27.362,27.362,0,0,1,4.832-3.526c28.967-16.9,73.384,6.951,74.649,40.2.151,3.867.031,8.879-2.179,11.511-12.421,14.86-24.2,31.242-44.723,29.809" transform="translate(-281.59 -0.782)" fill="#0370ba"/>
    <path id="Path_15579" data-name="Path 15579" d="M325.479,47.589a2.557,2.557,0,0,0,1.821-.755.971.971,0,1,0-1.314-1.43c-.02.019-.04.038-.058.058a.634.634,0,0,1-.9,0l0,0a.971.971,0,0,0-1.373,1.372,2.553,2.553,0,0,0,1.824.755" transform="translate(-281.59 -0.782)" fill="#fff"/>
    <path id="Path_15580" data-name="Path 15580" d="M350.581,63.437h-3.944V61.572a8.413,8.413,0,0,0-5.262-7.791,7.665,7.665,0,0,0-3.306-5.763,7.365,7.365,0,0,0-1.806-7.375,7.268,7.268,0,0,0-2.057-1.446V32.615l5.2-2.02a.969.969,0,0,0,0-1.809l-13.574-5.269a.969.969,0,0,0-.7,0l-13.581,5.269a.97.97,0,0,0-.62.9v5.365a2.918,2.918,0,0,0-1.909,2.731v6a.971.971,0,0,0,.971.971h2.646a7.361,7.361,0,0,0,.252,3.264,7.663,7.663,0,0,0-3.306,5.764,8.414,8.414,0,0,0-5.263,7.791v10.6a.971.971,0,0,0,.971.971h45.288c1.924,0,3.431-2.131,3.431-4.853s-1.507-4.853-3.431-4.853M340.715,71.2c-.7,0-1.491-1.245-1.491-2.912s.788-2.912,1.491-2.912h7.1a6.67,6.67,0,0,0,0,5.823Zm-9.865,0c-.7,0-1.492-1.245-1.492-2.912s.787-2.912,1.492-2.912h7.1a6.67,6.67,0,0,0,0,5.823ZM344.7,61.573v1.864H333.9l2.851-8.322h1.486a6.465,6.465,0,0,1,6.458,6.458ZM336,48.03a.971.971,0,0,0,.427,1.254,5.735,5.735,0,0,1,2.93,3.964,8.394,8.394,0,0,0-1.111-.074h-7.91V50.76a8.726,8.726,0,0,0,3.878-7.251V41.435A5.387,5.387,0,0,1,336,48.029Zm-17.3-7.715h13.567v3.2a6.785,6.785,0,1,1-13.569,0v-3.2Zm3.876,11.422a8.721,8.721,0,0,0,5.814,0v2.206l-2.907,6.675-2.907-6.675V51.736Zm9.691-13.363H318.7v-5l6.433,2.5a.971.971,0,0,0,.7,0l6.434-2.5v5Zm-6.785-12.911,10.9,4.228-10.9,4.229-10.894-4.229Zm-8.725,7.152V39.2a7.273,7.273,0,0,0-1.909,1.3V37.783a2.915,2.915,0,0,0-1.973-2.756V31.109Zm-5.79,5.167a.97.97,0,0,1,1.94,0v5.031h-1.94Zm3.576,11.5a.97.97,0,0,0,.427-1.254,5.387,5.387,0,0,1,1.787-6.594v2.074a8.724,8.724,0,0,0,3.878,7.251v2.413h-7.909a8.42,8.42,0,0,0-1.112.074,5.733,5.733,0,0,1,2.931-3.964Zm-8.277,12.29a6.466,6.466,0,0,1,6.46-6.458h1.484l1.445,4.217a.971.971,0,0,0,1.836-.629l-1.229-3.588h4.707l3.623,8.32a.97.97,0,0,0,1.78,0l3.624-8.32H334.7l-2.852,8.322h-1c-1.925,0-3.432,2.132-3.432,4.853a6.312,6.312,0,0,0,.668,2.912H321.77l-1.448-4.227a.971.971,0,0,0-1.836.629l1.233,3.6H306.263ZM350.581,71.2c-.7,0-1.492-1.245-1.492-2.912s.787-2.912,1.492-2.912,1.491,1.245,1.491,2.912-.788,2.912-1.491,2.912" transform="translate(-281.59 -0.782)" fill="#fff"/>
    <path id="Path_15581" data-name="Path 15581" d="M318.96,63.158a.973.973,0,1,0-.285.686.986.986,0,0,0,.285-.686" transform="translate(-281.59 -0.782)" fill="#fff"/>
  </g>
  <rect id="Rectangle_2613" data-name="Rectangle 2613" width="160" height="102" fill="none"/>
</svg>
