<?xml version="1.0" encoding="utf-8"?>
<!-- Generator: Adobe Illustrator 26.4.1, SVG Export Plug-In . SVG Version: 6.00 Build 0)  -->
<svg version="1.1" id="Layer_1" xmlns="http://www.w3.org/2000/svg" xmlns:xlink="http://www.w3.org/1999/xlink" x="0px" y="0px"
	 viewBox="0 0 97 96" style="enable-background:new 0 0 97 96;" xml:space="preserve">
<style type="text/css">
	.st0{fill:#53AEEB;}
	.st1{fill:#00346A;}
	.st2{fill:#FFFFFF;}
	.st3{fill:none;}
</style>
<g id="Page-1">
	<g id="Group">
		<path id="Path_15582" class="st0" d="M72.6,4.2c17.8,8.4,25.1,22.3,23.9,42.7c-1.1,19.3-12.7,37-27.3,41.8c-1.9,0.6-3.9,1-5.9,1.2
			c-33.4,3.1-63.6-37.3-50.7-68c1.5-3.6,3.7-8.1,6.8-9.5C37.1,4.1,54.7-5.8,72.6,4.2"/>
		<path id="Path_15583" class="st1" d="M43.6,94.9c-19.7-0.1-32.1-9.6-39.7-28.6c-7.2-18-4.2-38.9,7.1-49.4c1.5-1.3,3.1-2.5,4.8-3.5
			c29-16.9,73.4,7,74.6,40.2c0.2,3.9,0,8.9-2.2,11.5C75.9,80,64.1,96.3,43.6,94.9"/>
		<path id="Path_15679" class="st2" d="M72.2,70.9H18.3c-0.5,0-0.9-0.4-0.9-0.9c0-0.5,0.4-0.9,0.9-0.9h0.8V46.6h-0.8
			c-0.5,0-0.9-0.4-0.9-0.9c0-0.1,0-0.3,0.1-0.4l3.5-7.8c0.1-0.3,0.5-0.5,0.8-0.5h17l5.5-5.5v-9.2c0-0.5,0.4-0.9,0.9-0.9h6.1
			c0.5,0,0.9,0.4,0.9,0.9v4.4c0,0.5-0.4,0.9-0.9,0.9h-5.2v3.9l5.5,5.5h17c0.4,0,0.7,0.2,0.8,0.5l3.5,7.8c0.2,0.5,0,1-0.5,1.2
			c-0.1,0.1-0.2,0.1-0.4,0.1h-0.8v22.5h0.8c0.5,0,0.9,0.4,0.9,0.9C73.1,70.5,72.7,70.9,72.2,70.9 M53.1,69.1h16.4V46.6h-0.8
			c-0.5,0-0.9-0.4-0.9-0.9s0.4-0.9,0.9-0.9l0,0h2.1l-2.7-6H53.6l6,6h5.7c0.5,0,0.9,0.4,0.9,0.9s-0.4,0.9-0.9,0.9h-6.1
			c-0.2,0-0.5-0.1-0.7-0.3L45.3,33.1L32,46.3c-0.2,0.2-0.4,0.3-0.7,0.3H21v22.5h16.4v-2.6c0-0.5,0.4-0.9,0.9-0.9h0.8v-6.9
			c0-0.5,0.4-0.9,0.9-0.9h10.4c0.5,0,0.9,0.4,0.9,0.9v6.9h0.8c0.5,0,0.9,0.4,0.9,0.9L53.1,69.1z M39.2,69.1h12.1v-1.6H39.2
			L39.2,69.1z M46.2,65.6h3.4v-6h-3.4V65.6z M41,65.6h3.4v-6H41L41,65.6z M19.7,44.7H31l6-6H22.4L19.7,44.7z M46.2,25.6h4.2v-2.5
			h-4.2V25.6z"/>
		<path id="Path_15682" class="st3" d="M72.2,70.8c0.4,0,0.8-0.4,0.8-0.8c0-0.4-0.4-0.8-0.8-0.8h-0.9V46.5h0.9
			c0.4,0,0.8-0.4,0.8-0.8c0-0.1,0-0.2-0.1-0.3l-3.5-7.8c-0.1-0.3-0.4-0.5-0.7-0.5H51.7l-5.6-5.6v-4.1h5.3c0.4,0,0.8-0.4,0.8-0.8
			c0,0,0,0,0,0v-4.4c0-0.4-0.4-0.8-0.8-0.8c0,0,0,0,0,0h-6.1c-0.4,0-0.8,0.4-0.8,0.8v9.2L38.8,37H21.8c-0.3,0-0.6,0.2-0.7,0.5
			l-3.5,7.8c-0.2,0.4,0,0.9,0.4,1.1c0.1,0,0.2,0.1,0.3,0.1h0.9v22.7h-0.9c-0.4,0-0.8,0.4-0.8,0.8c0,0.4,0.4,0.8,0.8,0.8L72.2,70.8
			 M40,57.9c-0.4,0-0.8,0.4-0.8,0.8v7h-0.9c-0.4,0-0.8,0.4-0.8,0.8c0,0,0,0,0,0v2.7H20.8V46.5h10.5c0.2,0,0.4-0.1,0.6-0.2l13.3-13.3
			l13.3,13.3c0.2,0.2,0.4,0.2,0.6,0.2h6.1c0.4,0,0.8-0.4,0.8-0.8c0-0.4-0.4-0.8-0.8-0.8h-5.8l-6.2-6.2h14.9l2.8,6.2h-2.2
			c-0.4,0-0.8,0.4-0.8,0.8c0,0.4,0.4,0.8,0.8,0.8h0.9v22.7H53v-2.7c0-0.4-0.4-0.8-0.8-0.8c0,0,0,0,0,0h-0.9v-7
			c0-0.4-0.4-0.8-0.8-0.8L40,57.9 M39.1,67.4h12.3v1.8H39.1L39.1,67.4z M46.1,59.5h3.6v6.2h-3.6V59.5z M44.4,65.7h-3.6v-6.2h3.6
			L44.4,65.7 M22.3,38.6h14.9L31,44.8H19.5L22.3,38.6 M46.1,23h4.5v2.7h-4.5V23z M72.2,71H18.3c-0.6,0-1-0.5-1-1s0.5-1,1-1H19V46.7
			h-0.7c-0.6,0-1-0.5-1-1c0-0.1,0-0.3,0.1-0.4l3.5-7.8c0.2-0.4,0.5-0.6,0.9-0.6h17l5.5-5.5v-9.1c0-0.6,0.5-1,1-1h6.1
			c0.6,0,1,0.5,1,1v4.4c0,0.6-0.5,1-1,1h-5.1v3.8l5.5,5.5h17c0.4,0,0.8,0.2,0.9,0.6l3.5,7.8c0.2,0.5,0,1.1-0.5,1.4
			c-0.1,0.1-0.3,0.1-0.4,0.1h-0.7V69h0.7c0.6,0,1,0.5,1,1S72.8,71.1,72.2,71L72.2,71L72.2,71z M53.2,69h16.2V46.7h-0.7
			c-0.6,0-1-0.5-1-1s0.5-1,1-1h1.9l-2.6-5.8H53.8l5.8,5.8h5.7c0.6,0,1,0.5,1,1s-0.5,1-1,1l0,0h-6.1c-0.3,0-0.5-0.1-0.7-0.3
			L45.3,33.2L32.1,46.4c-0.2,0.2-0.5,0.3-0.7,0.3H21.1V69h16.2v-2.4c0-0.6,0.5-1,1-1H39v-6.8c0-0.6,0.5-1,1-1h10.4c0.6,0,1,0.5,1,1
			v6.8h0.7c0.6,0,1,0.5,1,1L53.2,69z M39.3,69h11.9v-1.4H39.3V69z M46.3,65.5h3.2v-5.8h-3.2V65.5z M41.1,65.5h3.2v-5.8h-3.1
			L41.1,65.5z M19.9,44.6h11l5.8-5.8H22.4L19.9,44.6z M46.3,25.5h4v-2.3h-4L46.3,25.5z"/>
		<path id="Path_15683" class="st2" d="M45.3,53.5L45.3,53.5c-3.4,0-6.1-2.7-6.1-6.1c0-3.4,2.7-6.1,6.1-6.1c3.4,0,6.1,2.7,6.1,6.1
			l0,0C51.4,50.8,48.7,53.5,45.3,53.5C45.3,53.5,45.3,53.5,45.3,53.5 M45.3,43.1c-2.4,0-4.3,1.9-4.3,4.3s1.9,4.3,4.3,4.3
			c2.4,0,4.3-1.9,4.3-4.3C49.5,45,47.6,43.1,45.3,43.1z"/>
		<path id="Path_15687" class="st2" d="M45.3,50.1L45.3,50.1c-0.5,0-0.9-0.4-0.9-0.9v-1.7c0-0.3,0.2-0.7,0.5-0.8l1.7-0.9
			c0,0,0.1,0,0.1,0c0.5-0.2,1,0,1.2,0.5c0.2,0.5,0,1-0.5,1.2L46.2,48v1.2C46.2,49.7,45.8,50.1,45.3,50.1"/>
		<path id="Path_15691" class="st2" d="M35.7,64.9h-7c-0.5,0-0.9-0.4-0.9-0.9c0-0.5,0.4-0.9,0.9-0.9v-3.4h-4.2V63h0.8
			c0.5,0,0.9,0.4,0.9,0.9c0,0.2-0.1,0.5-0.3,0.6c-0.2,0.2-0.4,0.3-0.7,0.3h-1.7c-0.5,0-0.9-0.4-0.9-0.9v-5.2c0-0.5,0.4-0.9,0.9-0.9
			h12.2c0.5,0,0.9,0.4,0.9,0.9v5.2C36.6,64.4,36.2,64.9,35.7,64.9 M30.5,63h4.2v-3.4h-4.2V63z"/>
		<path id="Path_15695" class="st2" d="M35.7,56.2H23.5c-0.5,0-0.9-0.4-0.9-0.9V50c0-0.5,0.4-0.9,0.9-0.9h12.2
			c0.5,0,0.9,0.4,0.9,0.9l0,0v5.2C36.6,55.7,36.2,56.2,35.7,56.2 M30.5,54.3h4.2v-3.4h-4.2V54.3z M24.4,54.3h4.2v-3.4h-4.2V54.3z"/>
		<path id="Path_15699" class="st2" d="M67,64.9H54.8c-0.5,0-0.9-0.4-0.9-0.9v-5.2c0-0.5,0.4-0.9,0.9-0.9H67c0.5,0,0.9,0.4,0.9,0.9
			v5.2C67.9,64.4,67.5,64.9,67,64.9 M61.8,63h4.2v-3.4h-4.2L61.8,63z M55.8,63H60v-3.4h-4.2V63z"/>
		<path id="Path_15703" class="st2" d="M67,56.2H54.8c-0.5,0-0.9-0.4-0.9-0.9V50c0-0.5,0.4-0.9,0.9-0.9H67c0.5,0,0.9,0.4,0.9,0.9
			v5.2C67.9,55.7,67.5,56.2,67,56.2 M61.8,54.3h4.2v-3.4h-4.2L61.8,54.3z M55.8,54.3H60v-3.4h-4.2V54.3z"/>
	</g>
</g>
</svg>
