<?xml version="1.0" encoding="UTF-8"?>
<svg width="98px" height="97px" viewBox="0 0 98 97" version="1.1" xmlns="http://www.w3.org/2000/svg" xmlns:xlink="http://www.w3.org/1999/xlink">
    <title>Untitled 59</title>
    <g id="Page-1" stroke="none" stroke-width="1" fill="none" fill-rule="evenodd">
        <g id="icon-our-impact-schools-0001">
            <path d="M73.6320053,4.26732783 C91.6851034,12.7867674 99.088902,26.8844114 97.8718392,47.5744788 C96.7561983,67.1489054 84.991258,85.1005815 70.1836607,89.9688327 C68.2566446,90.5773641 66.2282067,90.9830517 64.1997687,91.1858955 C30.3248543,94.3299744 -0.304559268,53.3555271 12.7788657,22.219004 C14.3001942,18.5678156 16.531476,14.0038302 19.6755549,12.5839236 C37.6272311,4.16590593 55.4774853,-5.8748621 73.6320053,4.26732783" id="Path_15582" fill="#53AEEB" fill-rule="nonzero"></path>
            <path d="M44.2196545,96.2569905 C24.2395404,96.1555686 11.6632248,86.5204881 3.9551605,67.2503273 C-3.34721625,48.9943854 -0.304559268,27.7972085 11.1561153,17.147909 C12.6774438,15.8294243 14.3001942,14.6123616 16.0243665,13.5981426 C45.4367173,-3.54215842 90.4680406,20.6976755 91.6851034,54.3697461 C91.8879472,58.3252001 91.6851034,63.3962951 89.4538216,66.0332645 C76.978928,81.1451275 65.0111439,97.6768971 44.2196545,96.2569905" id="Path_15583" fill="#00346A" fill-rule="nonzero"></path>
            <path d="M73.2263177,71.9157346 L18.559914,71.9157346 C18.0528045,71.9157346 17.6471169,71.510047 17.6471169,71.0029375 C17.6471169,70.4958281 18.0528045,70.0901405 18.559914,70.0901405 L19.3712892,70.0901405 L19.3712892,47.2702131 L18.559914,47.2702131 C18.0528045,47.2702131 17.6471169,46.8645255 17.6471169,46.357416 C17.6471169,46.2559941 17.6471169,46.0531503 17.7485388,45.9517284 L21.2983053,38.0408203 C21.3997272,37.7365546 21.8054148,37.5337108 22.1096805,37.5337108 L39.3514033,37.5337108 L44.9296078,31.9555063 L44.9296078,22.6246916 C44.9296078,22.1175821 45.3352954,21.7118945 45.8424049,21.7118945 L52.0291408,21.7118945 C52.5362503,21.7118945 52.9419378,22.1175821 52.9419378,22.6246916 L52.9419378,27.0872552 C52.9419378,27.5943647 52.5362503,28.0000523 52.0291408,28.0000523 L46.755202,28.0000523 L46.755202,31.9555063 L52.3334065,37.5337108 L69.5751293,37.5337108 C69.9808169,37.5337108 70.2850826,37.7365546 70.3865045,38.0408203 L73.936271,45.9517284 C74.1391148,46.4588379 73.936271,46.9659474 73.4291615,47.1687912 C73.3277396,47.2702131 73.2263177,47.2702131 73.0234739,47.2702131 L72.2120987,47.2702131 L72.2120987,70.0901405 L73.0234739,70.0901405 C73.5305834,70.0901405 73.936271,70.4958281 73.936271,71.0029375 C74.1391148,71.510047 73.7334272,71.9157346 73.2263177,71.9157346 M53.8547349,70.0901405 L70.4879264,70.0901405 L70.4879264,47.2702131 L69.6765512,47.2702131 C69.1694417,47.2702131 68.7637541,46.8645255 68.7637541,46.357416 C68.7637541,45.8503065 69.1694417,45.4446189 69.6765512,45.4446189 L69.6765512,45.4446189 L71.8064111,45.4446189 L69.0680198,39.359305 L54.3618444,39.359305 L60.4471584,45.4446189 L66.2282067,45.4446189 C66.7353162,45.4446189 67.1410037,45.8503065 67.1410037,46.357416 C67.1410037,46.8645255 66.7353162,47.2702131 66.2282067,47.2702131 L60.0414708,47.2702131 C59.838627,47.2702131 59.5343613,47.1687912 59.3315175,46.9659474 L45.9438268,33.5782567 L32.4547142,46.9659474 C32.2518704,47.1687912 32.0490266,47.2702131 31.7447609,47.2702131 L21.2983053,47.2702131 L21.2983053,70.0901405 L37.9314968,70.0901405 L37.9314968,67.4531711 C37.9314968,66.9460616 38.3371844,66.540374 38.8442939,66.540374 L39.655669,66.540374 L39.655669,59.5422629 C39.655669,59.0351534 40.0613566,58.6294658 40.5684661,58.6294658 L51.1163437,58.6294658 C51.6234532,58.6294658 52.0291408,59.0351534 52.0291408,59.5422629 L52.0291408,66.540374 L52.840516,66.540374 C53.3476254,66.540374 53.753313,66.9460616 53.753313,67.4531711 L53.8547349,70.0901405 Z M39.7570909,70.0901405 L52.0291408,70.0901405 L52.0291408,68.4673901 L39.7570909,68.4673901 L39.7570909,70.0901405 Z M46.8566239,66.540374 L50.3049685,66.540374 L50.3049685,60.45506 L46.8566239,60.45506 L46.8566239,66.540374 Z M41.5826851,66.540374 L45.0310297,66.540374 L45.0310297,60.45506 L41.5826851,60.45506 L41.5826851,66.540374 Z M19.9798206,45.343197 L31.4404952,45.343197 L37.5258092,39.2578831 L22.7182119,39.2578831 L19.9798206,45.343197 Z M46.8566239,25.9716143 L51.1163437,25.9716143 L51.1163437,23.4360668 L46.8566239,23.4360668 L46.8566239,25.9716143 Z" id="Path_15679" fill="#FFFFFF" fill-rule="nonzero"></path>
            <path d="M73.2263177,71.8143127 C73.6320053,71.8143127 74.0376929,71.4086251 74.0376929,71.0029375 C74.0376929,70.5972499 73.6320053,70.1915624 73.2263177,70.1915624 L72.3135206,70.1915624 L72.3135206,47.1687912 L73.2263177,47.1687912 C73.6320053,47.1687912 74.0376929,46.7631036 74.0376929,46.357416 C74.0376929,46.2559941 74.0376929,46.1545722 73.936271,46.0531503 L70.3865045,38.1422422 C70.2850826,37.8379765 69.9808169,37.6351327 69.6765512,37.6351327 L52.4348284,37.6351327 L46.755202,31.9555063 L46.755202,27.7972085 L52.1305627,27.7972085 C52.5362503,27.7972085 52.9419378,27.3915209 52.9419378,26.9858333 C52.9419378,26.9858333 52.9419378,26.9858333 52.9419378,26.9858333 L52.9419378,22.5232697 C52.9419378,22.1175821 52.5362503,21.7118945 52.1305627,21.7118945 C52.1305627,21.7118945 52.1305627,21.7118945 52.1305627,21.7118945 L45.9438268,21.7118945 C45.5381392,21.7118945 45.1324516,22.1175821 45.1324516,22.5232697 L45.1324516,31.8540844 L39.3514033,37.5337108 L22.1096805,37.5337108 C21.8054148,37.5337108 21.5011491,37.7365546 21.3997272,38.0408203 L17.8499607,45.9517284 C17.6471169,46.357416 17.8499607,46.8645255 18.2556483,47.0673693 C18.3570702,47.0673693 18.4584921,47.1687912 18.559914,47.1687912 L19.4727111,47.1687912 L19.4727111,70.1915624 L18.559914,70.1915624 C18.1542264,70.1915624 17.7485388,70.5972499 17.7485388,71.0029375 C17.7485388,71.4086251 18.1542264,71.8143127 18.559914,71.8143127 L73.2263177,71.8143127 M40.5684661,58.7308877 C40.1627785,58.7308877 39.7570909,59.1365753 39.7570909,59.5422629 L39.7570909,66.6417959 L38.8442939,66.6417959 C38.4386063,66.6417959 38.0329187,67.0474835 38.0329187,67.4531711 C38.0329187,67.4531711 38.0329187,67.4531711 38.0329187,67.4531711 L38.0329187,70.1915624 L21.0954615,70.1915624 L21.0954615,47.1687912 L31.7447609,47.1687912 C31.9476047,47.1687912 32.1504485,47.0673693 32.3532923,46.9659474 L45.8424049,33.4768348 L59.3315175,46.9659474 C59.5343613,47.1687912 59.7372051,47.1687912 59.9400489,47.1687912 L66.1267848,47.1687912 C66.5324724,47.1687912 66.9381599,46.7631036 66.9381599,46.357416 C66.9381599,45.9517284 66.5324724,45.5460408 66.1267848,45.5460408 L60.2443146,45.5460408 L53.9561568,39.2578831 L69.0680198,39.2578831 L71.907833,45.5460408 L69.6765512,45.5460408 C69.2708636,45.5460408 68.865176,45.9517284 68.865176,46.357416 C68.865176,46.7631036 69.2708636,47.1687912 69.6765512,47.1687912 L70.5893483,47.1687912 L70.5893483,70.1915624 L53.753313,70.1915624 L53.753313,67.4531711 C53.753313,67.0474835 53.3476254,66.6417959 52.9419378,66.6417959 C52.9419378,66.6417959 52.9419378,66.6417959 52.9419378,66.6417959 L52.0291408,66.6417959 L52.0291408,59.5422629 C52.0291408,59.1365753 51.6234532,58.7308877 51.2177656,58.7308877 L40.5684661,58.7308877 M39.655669,68.3659682 L52.1305627,68.3659682 L52.1305627,70.1915624 L39.655669,70.1915624 L39.655669,68.3659682 Z M46.755202,60.3536381 L50.4063904,60.3536381 L50.4063904,66.6417959 L46.755202,66.6417959 L46.755202,60.3536381 Z M45.0310297,66.6417959 L41.3798413,66.6417959 L41.3798413,60.3536381 L45.0310297,60.3536381 L45.0310297,66.6417959 M22.61679,39.1564612 L37.728653,39.1564612 L31.4404952,45.4446189 L19.7769768,45.4446189 L22.61679,39.1564612 M46.755202,23.3346449 L51.3191875,23.3346449 L51.3191875,26.0730362 L46.755202,26.0730362 L46.755202,23.3346449 Z M73.2263177,72.0171565 L18.559914,72.0171565 C17.9513826,72.0171565 17.545695,71.510047 17.545695,71.0029375 C17.545695,70.4958281 18.0528045,69.9887186 18.559914,69.9887186 L19.2698673,69.9887186 L19.2698673,47.371635 L18.559914,47.371635 C17.9513826,47.371635 17.545695,46.8645255 17.545695,46.357416 C17.545695,46.2559941 17.545695,46.0531503 17.6471169,45.9517284 L21.1968834,38.0408203 C21.3997272,37.6351327 21.7039929,37.4322889 22.1096805,37.4322889 L39.3514033,37.4322889 L44.9296078,31.8540844 L44.9296078,22.6246916 C44.9296078,22.0161602 45.4367173,21.6104726 45.9438268,21.6104726 L52.1305627,21.6104726 C52.7390941,21.6104726 53.1447816,22.1175821 53.1447816,22.6246916 L53.1447816,27.0872552 C53.1447816,27.6957866 52.6376722,28.1014742 52.1305627,28.1014742 L46.9580458,28.1014742 L46.9580458,31.9555063 L52.5362503,37.5337108 L69.7779731,37.5337108 C70.1836607,37.5337108 70.5893483,37.7365546 70.6907702,38.1422422 L74.2405367,46.0531503 C74.4433805,46.5602598 74.2405367,47.1687912 73.7334272,47.4730569 C73.6320053,47.5744788 73.4291615,47.5744788 73.3277396,47.5744788 L72.6177863,47.5744788 L72.6177863,69.9887186 L73.3277396,69.9887186 C73.936271,69.9887186 74.3419586,70.4958281 74.3419586,71.0029375 C74.3419586,71.510047 73.8348491,72.1185784 73.2263177,72.0171565 L73.2263177,72.0171565 L73.2263177,72.0171565 Z M53.9561568,69.9887186 L70.3865045,69.9887186 L70.3865045,47.371635 L69.6765512,47.371635 C69.0680198,47.371635 68.6623322,46.8645255 68.6623322,46.357416 C68.6623322,45.8503065 69.1694417,45.343197 69.6765512,45.343197 L71.6035673,45.343197 L68.9665979,39.4607269 L54.5646882,39.4607269 L60.4471584,45.343197 L66.2282067,45.343197 C66.8367381,45.343197 67.2424256,45.8503065 67.2424256,46.357416 C67.2424256,46.8645255 66.7353162,47.371635 66.2282067,47.371635 L66.2282067,47.371635 L60.0414708,47.371635 C59.7372051,47.371635 59.5343613,47.2702131 59.3315175,47.0673693 L45.9438268,33.6796786 L32.5561361,47.0673693 C32.3532923,47.2702131 32.0490266,47.371635 31.8461828,47.371635 L21.3997272,47.371635 L21.3997272,69.9887186 L37.8300749,69.9887186 L37.8300749,67.554593 C37.8300749,66.9460616 38.3371844,66.540374 38.8442939,66.540374 L39.5542471,66.540374 L39.5542471,59.6436848 C39.5542471,59.0351534 40.0613566,58.6294658 40.5684661,58.6294658 L51.1163437,58.6294658 C51.7248751,58.6294658 52.1305627,59.1365753 52.1305627,59.6436848 L52.1305627,66.540374 L52.840516,66.540374 C53.4490473,66.540374 53.8547349,67.0474835 53.8547349,67.554593 L53.9561568,69.9887186 Z M39.8585128,69.9887186 L51.9277189,69.9887186 L51.9277189,68.568812 L39.8585128,68.568812 L39.8585128,69.9887186 Z M46.9580458,66.4389521 L50.2035466,66.4389521 L50.2035466,60.5564819 L46.9580458,60.5564819 L46.9580458,66.4389521 Z M41.684107,66.4389521 L44.9296078,66.4389521 L44.9296078,60.5564819 L41.7855289,60.5564819 L41.684107,66.4389521 Z M20.1826644,45.2417751 L31.3390733,45.2417751 L37.2215435,39.359305 L22.7182119,39.359305 L20.1826644,45.2417751 Z M46.9580458,25.8701924 L51.0149218,25.8701924 L51.0149218,23.5374887 L46.9580458,23.5374887 L46.9580458,25.8701924 Z" id="Path_15682"></path>
            <path d="M45.9438268,54.2683242 L45.9438268,54.2683242 C42.4954822,54.2683242 39.7570909,51.5299329 39.7570909,48.0815883 C39.7570909,44.6332437 42.4954822,41.8948525 45.9438268,41.8948525 C49.3921714,41.8948525 52.1305627,44.6332437 52.1305627,48.0815883 L52.1305627,48.0815883 C52.1305627,51.5299329 49.3921714,54.2683242 45.9438268,54.2683242 C45.9438268,54.2683242 45.9438268,54.2683242 45.9438268,54.2683242 M45.9438268,43.7204466 C43.5097012,43.7204466 41.5826851,45.6474627 41.5826851,48.0815883 C41.5826851,50.5157139 43.5097012,52.44273 45.9438268,52.44273 C48.3779524,52.44273 50.3049685,50.5157139 50.3049685,48.0815883 C50.2035466,45.6474627 48.2765305,43.7204466 45.9438268,43.7204466 Z" id="Path_15683" fill="#FFFFFF" fill-rule="nonzero"></path>
            <path d="M45.9438268,50.8199796 L45.9438268,50.8199796 C45.4367173,50.8199796 45.0310297,50.414292 45.0310297,49.9071825 L45.0310297,48.1830102 C45.0310297,47.8787445 45.2338735,47.4730569 45.5381392,47.371635 L47.2623115,46.4588379 C47.2623115,46.4588379 47.3637334,46.4588379 47.3637334,46.4588379 C47.8708429,46.2559941 48.3779524,46.4588379 48.5807962,46.9659474 C48.78364,47.4730569 48.5807962,47.9801664 48.0736867,48.1830102 L46.8566239,48.6901197 L46.8566239,49.9071825 C46.8566239,50.414292 46.4509363,50.8199796 45.9438268,50.8199796" id="Path_15687" fill="#FFFFFF" fill-rule="nonzero"></path>
            <path d="M36.2073245,65.8304207 L29.1077915,65.8304207 C28.600682,65.8304207 28.1949944,65.4247331 28.1949944,64.9176236 C28.1949944,64.4105141 28.600682,64.0048265 29.1077915,64.0048265 L29.1077915,60.5564819 L24.8480718,60.5564819 L24.8480718,63.9034046 L25.6594469,63.9034046 C26.1665564,63.9034046 26.572244,64.3090922 26.572244,64.8162017 C26.572244,65.0190455 26.4708221,65.3233112 26.2679783,65.4247331 C26.0651345,65.6275769 25.8622907,65.7289988 25.558025,65.7289988 L23.8338528,65.7289988 C23.3267433,65.7289988 22.9210557,65.3233112 22.9210557,64.8162017 L22.9210557,59.5422629 C22.9210557,59.0351534 23.3267433,58.6294658 23.8338528,58.6294658 L36.2073245,58.6294658 C36.714434,58.6294658 37.1201216,59.0351534 37.1201216,59.5422629 L37.1201216,64.8162017 C37.1201216,65.3233112 36.714434,65.8304207 36.2073245,65.8304207 M30.9333857,63.9034046 L35.1931055,63.9034046 L35.1931055,60.45506 L30.9333857,60.45506 L30.9333857,63.9034046 L30.9333857,63.9034046 Z" id="Path_15691" fill="#FFFFFF" fill-rule="nonzero"></path>
            <path d="M36.2073245,57.0067154 L23.8338528,57.0067154 C23.3267433,57.0067154 22.9210557,56.6010279 22.9210557,56.0939184 L22.9210557,50.7185577 C22.9210557,50.2114482 23.3267433,49.8057606 23.8338528,49.8057606 L36.2073245,49.8057606 C36.714434,49.8057606 37.1201216,50.2114482 37.1201216,50.7185577 L37.1201216,50.7185577 L37.1201216,55.9924965 C37.1201216,56.499606 36.714434,57.0067154 36.2073245,57.0067154 M30.9333857,55.0796994 L35.1931055,55.0796994 L35.1931055,51.6313548 L30.9333857,51.6313548 L30.9333857,55.0796994 L30.9333857,55.0796994 Z M24.7466499,55.0796994 L29.0063696,55.0796994 L29.0063696,51.6313548 L24.7466499,51.6313548 L24.7466499,55.0796994 Z" id="Path_15695" fill="#FFFFFF" fill-rule="nonzero"></path>
            <path d="M67.9523789,65.8304207 L55.5789072,65.8304207 C55.0717977,65.8304207 54.6661101,65.4247331 54.6661101,64.9176236 L54.6661101,59.6436848 C54.6661101,59.1365753 55.0717977,58.7308877 55.5789072,58.7308877 L67.9523789,58.7308877 C68.4594884,58.7308877 68.865176,59.1365753 68.865176,59.6436848 L68.865176,64.9176236 C68.865176,65.3233112 68.4594884,65.8304207 67.9523789,65.8304207 M62.6784402,63.9034046 L66.9381599,63.9034046 L66.9381599,60.45506 L62.6784402,60.45506 L62.6784402,63.9034046 Z M56.5931262,63.9034046 L60.852846,63.9034046 L60.852846,60.45506 L56.5931262,60.45506 L56.5931262,63.9034046 Z" id="Path_15699" fill="#FFFFFF" fill-rule="nonzero"></path>
            <path d="M67.9523789,57.0067154 L55.5789072,57.0067154 C55.0717977,57.0067154 54.6661101,56.6010279 54.6661101,56.0939184 L54.6661101,50.7185577 C54.6661101,50.2114482 55.0717977,49.8057606 55.5789072,49.8057606 L67.9523789,49.8057606 C68.4594884,49.8057606 68.865176,50.2114482 68.865176,50.7185577 L68.865176,55.9924965 C68.865176,56.499606 68.4594884,57.0067154 67.9523789,57.0067154 M62.6784402,55.0796994 L66.9381599,55.0796994 L66.9381599,51.6313548 L62.6784402,51.6313548 L62.6784402,55.0796994 Z M56.5931262,55.0796994 L60.852846,55.0796994 L60.852846,51.6313548 L56.5931262,51.6313548 L56.5931262,55.0796994 Z" id="Path_15703" fill="#FFFFFF" fill-rule="nonzero"></path>
        </g>
    </g>
</svg>