<svg xmlns="http://www.w3.org/2000/svg" width="255" height="102" viewBox="0 0 255 102">
  <g id="Group_4062" data-name="Group 4062" transform="translate(-245 -4376)">
    <g id="Group_4045" data-name="Group 4045" transform="translate(77.847 1.589)">
      <path id="Path_15640" data-name="Path 15640" d="M73.8,285.608c17.84,8.419,25.08,22.268,23.9,42.686-1.121,19.325-12.67,37.036-27.334,41.769a27.362,27.362,0,0,1-5.869,1.154C31.1,374.291.928,333.9,13.833,303.235c1.5-3.568,3.724-8.06,6.839-9.512,17.538-8.218,35.139-18.086,53.131-8.115" transform="translate(245 4096)" fill="#53aeeb"/>
      <path id="Path_15641" data-name="Path 15641" d="M44.722,376.327c-19.727-.091-32.141-9.582-39.7-28.586-7.151-17.989-4.169-38.921,7.121-49.408a27.359,27.359,0,0,1,4.832-3.526c28.967-16.9,73.384,6.951,74.649,40.2.151,3.867.031,8.879-2.179,11.511-12.421,14.86-24.2,31.242-44.723,29.809" transform="translate(245 4096)" fill="#00346a"/>
      <path id="Path_15642" data-name="Path 15642" d="M42.429,316.443l-.919,5.367a1.663,1.663,0,0,0,2.416,1.755l4.819-2.535,4.822,2.535a1.665,1.665,0,0,0,2.415-1.756l-.921-5.367,3.9-3.8a1.665,1.665,0,0,0-.923-2.84l-5.39-.781-2.411-4.883a1.664,1.664,0,0,0-2.987,0l-2.408,4.884-5.389.785a1.664,1.664,0,0,0-.922,2.84Zm2.857-5.493a1.666,1.666,0,0,0,1.254-.912l2.2-4.465,2.2,4.464a1.664,1.664,0,0,0,1.254.911l4.927.715-3.564,3.476a1.665,1.665,0,0,0-.479,1.475l.843,4.907L49.522,319.2a1.668,1.668,0,0,0-1.551,0l-4.406,2.319.84-4.907a1.663,1.663,0,0,0-.479-1.474l-3.566-3.475Z" transform="translate(245 4096)" fill="#fff"/>
      <path id="Path_15643" data-name="Path 15643" d="M63.684,313.481a.988.988,0,0,0,.988.988h3.045a.988.988,0,1,0,0-1.977H64.672a.988.988,0,0,0-.988.988Z" transform="translate(245 4096)" fill="#fff"/>
      <path id="Path_15644" data-name="Path 15644" d="M64.571,320.1a.989.989,0,0,0,1.4-1.4l-2.145-2.144a.988.988,0,0,0-1.4,1.4Z" transform="translate(245 4096)" fill="#fff"/>
      <path id="Path_15645" data-name="Path 15645" d="M63.126,310.692a.985.985,0,0,0,.7-.289l2.142-2.143a.988.988,0,0,0-1.4-1.4l-2.142,2.142a.988.988,0,0,0,.7,1.687Z" transform="translate(245 4096)" fill="#fff"/>
      <path id="Path_15646" data-name="Path 15646" d="M29.766,314.469h3.046a.988.988,0,1,0,0-1.976H29.766a.988.988,0,1,0,0,1.976" transform="translate(245 4096)" fill="#fff"/>
      <path id="Path_15647" data-name="Path 15647" d="M33.658,316.557,31.514,318.7a.988.988,0,0,0,1.4,1.4l2.145-2.144a.988.988,0,1,0-1.4-1.4Z" transform="translate(245 4096)" fill="#fff"/>
      <path id="Path_15648" data-name="Path 15648" d="M33.661,310.4a.988.988,0,0,0,1.4-1.4l-2.142-2.142a.988.988,0,1,0-1.4,1.4Z" transform="translate(245 4096)" fill="#fff"/>
      <path id="Path_15649" data-name="Path 15649" d="M58.474,343.125a.988.988,0,1,0,.7.29.988.988,0,0,0-.7-.29" transform="translate(245 4096)" fill="#fff"/>
      <path id="Path_15650" data-name="Path 15650" d="M73.053,343.126H67.519v-7.7a.987.987,0,0,0-.987-.988H59.614v-7.707a.988.988,0,0,0-.983-.993H38.864a.988.988,0,0,0-.988.988v7.7H30.959a.987.987,0,0,0-.991.984v7.719H24.437a.988.988,0,0,0-.988.984V352.8a.987.987,0,0,0,.979,1H73.056a.988.988,0,0,0,.988-.988v-8.691a.988.988,0,0,0-.98-1h-.011m-33.2-15.415H57.638v6.715H39.852Zm32.216,24.11H25.425V345.1H54.378a.988.988,0,1,0,0-1.976H31.947v-2.372h8.4a.988.988,0,1,0,0-1.976h-8.4v-2.371h33.6v6.719H62.414a.988.988,0,1,0,0,1.976h9.654Z" transform="translate(245 4096)" fill="#fff"/>
      <path id="Path_15651" data-name="Path 15651" d="M44.792,338.777a.988.988,0,1,0,.7.29.988.988,0,0,0-.7-.29" transform="translate(245 4096)" fill="#fff"/>
    </g>
    <rect id="Rectangle_2598" data-name="Rectangle 2598" width="255" height="102" transform="translate(245 4376)" fill="none"/>
  </g>
</svg>
