<svg xmlns="http://www.w3.org/2000/svg" xmlns:xlink="http://www.w3.org/1999/xlink" width="160" height="80" viewBox="0 0 160 80">
  <defs>
    <clipPath id="clip-path">
      <rect id="Rectangle_2962" data-name="Rectangle 2962" width="160" height="80" transform="translate(720 44)" fill="none"/>
    </clipPath>
  </defs>
  <g id="Mask_Group_4276" data-name="Mask Group 4276" transform="translate(-720 -44)" clip-path="url(#clip-path)">
    <g id="role-model" transform="translate(765.453 44)">
      <g id="Group_652" data-name="Group 652">
        <path id="Path_1686" data-name="Path 1686" d="M102.872,42.294A36.253,36.253,0,0,1,81.551,25.217a8.047,8.047,0,0,0,.306-6.446l-1.823-4.76a6.687,6.687,0,0,0-6.208-4.27H72.815a6.433,6.433,0,1,0-11.029,0H60.775a6.687,6.687,0,0,0-6.208,4.27l-1.824,4.76a8.047,8.047,0,0,0,1.822,8.559l4.259,4.259L56.088,56.763a4.928,4.928,0,0,0,.376,2.491h-2.38a1.562,1.562,0,0,0-1.562,1.562v7.248H45.273a1.562,1.562,0,0,0-1.562,1.562v7.248H36.463a1.562,1.562,0,1,0,0,3.125H60.269a1.562,1.562,0,1,0,0-3.125H46.836V71.19h7.248a1.562,1.562,0,0,0,1.562-1.562V62.379H78.954v7.248a1.562,1.562,0,0,0,1.562,1.563h7.248v5.686H74.331a1.562,1.562,0,1,0,0,3.125H98.138a1.562,1.562,0,1,0,0-3.125H90.89V69.627a1.562,1.562,0,0,0-1.562-1.562H82.079V60.816a1.562,1.562,0,0,0-1.562-1.562h-2.38a4.928,4.928,0,0,0,.376-2.491L78.081,52.8a6.6,6.6,0,0,1,3.853.591A9.722,9.722,0,0,0,94.926,48.9a6.588,6.588,0,0,1,7.2-3.575v0a1.561,1.561,0,0,0,.743-3.028ZM63.992,6.434A3.308,3.308,0,1,1,67.3,9.741,3.312,3.312,0,0,1,63.992,6.434ZM55.661,19.889l1.824-4.76a3.543,3.543,0,0,1,3.29-2.263H73.826a3.543,3.543,0,0,1,3.29,2.263l1.823,4.76a4.918,4.918,0,0,1-1.114,5.231l-2.133,2.133V20a1.562,1.562,0,0,0-3.125,0v9.344H62.033V20a1.562,1.562,0,1,0-3.125,0v7.253l-2.133-2.133a4.918,4.918,0,0,1-1.114-5.231Zm6.211,12.58H72.728L75.405,57.1a1.84,1.84,0,0,1-3.639.531L68.837,41.69a1.562,1.562,0,0,0-3.073,0l-2.93,15.942a1.84,1.84,0,0,1-3.639-.531Zm3.716,26.785a4.942,4.942,0,0,0,.319-1.057L67.3,50.618,68.693,58.2a4.94,4.94,0,0,0,.319,1.057Zm26.528-11.72A6.6,6.6,0,0,1,83.3,50.58a9.72,9.72,0,0,0-5.557-.889l-1.968-18.1,3.707-3.707A39.493,39.493,0,0,0,96.395,43.159a9.682,9.682,0,0,0-4.279,4.375Z" transform="translate(-34.9 -0.001)" fill="#fff"/>
        <path id="Path_1687" data-name="Path 1687" d="M386.518,37.246a1.5,1.5,0,0,1,1.5,1.5,1.525,1.525,0,0,0,3.05,0,1.5,1.5,0,0,1,1.5-1.5,1.525,1.525,0,0,0,0-3.05,1.5,1.5,0,0,1-1.5-1.5,1.525,1.525,0,0,0-3.05,0,1.5,1.5,0,0,1-1.5,1.5,1.525,1.525,0,1,0,0,3.05Z" transform="translate(-329.947 -26.416)" fill="#fff"/>
        <path id="Path_1688" data-name="Path 1688" d="M41.786,159.117a1.5,1.5,0,0,1,1.5,1.5,1.525,1.525,0,0,0,3.05,0,1.5,1.5,0,0,1,1.5-1.5,1.525,1.525,0,0,0,0-3.05,1.5,1.5,0,0,1-1.5-1.5,1.525,1.525,0,0,0-3.05,0,1.5,1.5,0,0,1-1.5,1.5,1.525,1.525,0,0,0,0,3.05Z" transform="translate(-39.443 -129.053)" fill="#fff"/>
        <circle id="Ellipse_2" data-name="Ellipse 2" cx="1.525" cy="1.525" r="1.525" transform="translate(30.872 76.95)" fill="#fff"/>
      </g>
    </g>
  </g>
</svg>
